<svg xmlns="http://www.w3.org/2000/svg" width="105.843" height="86.756" viewBox="0 0 105.843 86.756"><g transform="translate(-32 -112)"><path d="M284.345,128a8.676,8.676,0,0,0-8.676,8.676v22.557a22.73,22.73,0,0,0-12.146-12.146l-.85-.33-.5-.191-.642-.208c-.486-.156-.972-.278-1.475-.4a19.219,19.219,0,0,0-2-.364,8.671,8.671,0,0,0-.937-.121l-.538-.121h-1.735a22.557,22.557,0,0,0,0,45.113h2.273a8.671,8.671,0,0,0,.937-.121,19.223,19.223,0,0,0,2-.486,21.21,21.21,0,0,0,2.117-.607l.5-.191.85-.33a20.909,20.909,0,0,0,3.592-1.909l8.554,8.554v7.235a8.676,8.676,0,0,1-8.676,8.676,8.174,8.174,0,0,1-1.735-.174,8.676,8.676,0,0,1-6.94-8.5V197.4H208V136.676A8.676,8.676,0,0,1,216.676,128Z" transform="translate(-156.914 -14.265)" fill="#cee6f4"/><path d="M273.935,280.875H208v-6.941A65.935,65.935,0,0,0,273.935,208Z" transform="translate(-156.914 -85.589)" fill="#acd5ea"/><path d="M150.372,136.676v5.205H133.021v-5.205a8.676,8.676,0,1,1,17.351,0ZM122.61,211.112v.174H56.676A8.676,8.676,0,0,1,48,202.61V197.4h67.67v5.205a8.676,8.676,0,0,0,6.942,8.5Z" transform="translate(-14.265 -14.265)" fill="#76b4e2"/><path d="M527.232,367.673a15.616,15.616,0,0,1-6.941,12.979,10.849,10.849,0,0,1-.954.59,7.35,7.35,0,0,1-.781.312q-.3.163-.625.295a2,2,0,0,1-.4.174l-.729.278-.607.208a15.616,15.616,0,0,1-17.872-6.767,14.017,14.017,0,0,1-1.423-2.95,15.267,15.267,0,0,1-.9-5.119,15.616,15.616,0,0,1,20.2-14.922l.607.208.729.278a2,2,0,0,1,.4.174,6.942,6.942,0,0,1,.625.382,7.332,7.332,0,0,1,.729.382l.382.226.573.364A15.617,15.617,0,0,1,527.232,367.673Z" transform="translate(-413.682 -214.03)" fill="#5ea2cc"/><path d="M522.027,362.468a15.616,15.616,0,0,1-6.94,12.979,10.841,10.841,0,0,1-.954.59,7.33,7.33,0,0,1-.781.312q-.3.163-.625.295a2,2,0,0,1-.4.174l-.729.278-.607.208a15.616,15.616,0,0,1-12.666-1.562,14.017,14.017,0,0,1-1.423-2.95,15.267,15.267,0,0,1-.9-5.119,15.616,15.616,0,0,1,20.2-14.922l.607.208.729.278a2,2,0,0,1,.4.174,6.942,6.942,0,0,1,.625.382,7.332,7.332,0,0,1,.729.382l.382.226A15.339,15.339,0,0,1,522.027,362.468Z" transform="translate(-413.682 -214.03)" fill="#76b4e2"/><path d="M746.411,576v5.205l-1.735-1.735A20.978,20.978,0,0,0,746.411,576Zm-8.676,34.7H736v-.174A8.171,8.171,0,0,0,737.735,610.7Z" transform="translate(-627.655 -413.681)" fill="#cee6f4"/><path d="M485.355,340.661l-16.675-16.674a20.978,20.978,0,0,0,1.735-3.47,22.018,22.018,0,0,0,1.735-8.676,22.557,22.557,0,0,0-13.881-20.821l-.85-.33-.5-.191-.642-.208c-.486-.156-.972-.278-1.475-.4a19.22,19.22,0,0,0-2-.364l-.625-.087a22.557,22.557,0,0,0,0,44.8,21.685,21.685,0,0,0,2.62.156h2.273a8.669,8.669,0,0,0,.937-.121,19.216,19.216,0,0,0,2-.486,21.211,21.211,0,0,0,2.117-.607l.5-.191.85-.33h.208a19.794,19.794,0,0,0,3.47-1.822l16.709,16.709a3.836,3.836,0,0,0,.8.625,4.411,4.411,0,0,0,.781-.625,4.824,4.824,0,0,0-.087-6.888Zm-21.88-15.842a10.865,10.865,0,0,1-.954.59,7.347,7.347,0,0,1-.781.312q-.3.163-.625.295a1.992,1.992,0,0,1-.4.173l-.729.278-.607.208a15.41,15.41,0,0,1-4.581.781,14.625,14.625,0,0,1-2.637-.226,15.616,15.616,0,0,1-12.146-10.185,15.27,15.27,0,0,1-.833-5.205,15.616,15.616,0,0,1,12.978-15.39,14.623,14.623,0,0,1,2.639-.226,15.409,15.409,0,0,1,4.581.694l.607.208.729.278a1.994,1.994,0,0,1,.4.173,6.958,6.958,0,0,1,.625.382,7.351,7.351,0,0,1,.729.382,10.875,10.875,0,0,1,.954.59,15.616,15.616,0,0,1,0,26.027Z" transform="translate(-356.865 -158.198)" fill="#d1b339"/><path d="M654.221,346.179a4.772,4.772,0,0,1-5.986.625,4.408,4.408,0,0,0,.781-.625,4.824,4.824,0,0,0,0-6.8L632.341,322.7a20.97,20.97,0,0,0,1.735-3.47,22.019,22.019,0,0,0,1.735-8.676,22.557,22.557,0,0,0-13.881-20.821l-.85-.33-.5-.191-.642-.208c-.486-.156-.972-.278-1.475-.4a19.221,19.221,0,0,0-2-.364l-.625-.087a21.679,21.679,0,0,1,2.62-.156h2.308a8.684,8.684,0,0,1,.937.121,19.236,19.236,0,0,1,2,.364c.5.121.989.243,1.475.4l.642.208.5.191.815.451a22.557,22.557,0,0,1,12.146,29.5,20.98,20.98,0,0,1-1.735,3.47l16.727,16.727A4.824,4.824,0,0,1,654.221,346.179Z" transform="translate(-520.525 -156.914)" fill="#aa9335"/><path d="M136.107,129.351H118.756a1.735,1.735,0,0,1-1.735-1.735v-5.205a10.411,10.411,0,0,1,20.821,0v5.205A1.735,1.735,0,0,1,136.107,129.351Zm-15.616-3.47h13.881v-3.47a6.94,6.94,0,1,0-13.881,0Zm-12.146,72.875H90.994a1.735,1.735,0,1,1,0-3.47h11.313a10.411,10.411,0,0,1-2.637-6.94v-3.47H35.47v3.47a6.94,6.94,0,0,0,6.94,6.94H84.054a1.735,1.735,0,0,1,0,3.47H42.411A10.411,10.411,0,0,1,32,188.345V183.14a1.735,1.735,0,0,1,1.735-1.735H101.4a1.735,1.735,0,0,1,1.735,1.735v5.205a6.914,6.914,0,0,0,5.5,6.8,1.735,1.735,0,0,1,1.388,1.735v.139a1.735,1.735,0,0,1-1.683,1.735ZM97.935,170.994A17.351,17.351,0,0,1,81.59,159.421a16.588,16.588,0,0,1-1.006-5.778,17.247,17.247,0,0,1,1.822-7.721,1.735,1.735,0,1,1,3.089,1.562,13.673,13.673,0,0,0-1.44,6.16,13.378,13.378,0,0,0,.8,4.615,13.881,13.881,0,0,0,13.083,9.266,13.482,13.482,0,0,0,4.06-.625l.538-.174.625-.243h.26l.191-.1.347-.174.226-.1a4.131,4.131,0,0,0,.694-.312,9.132,9.132,0,0,0,.85-.521,13.881,13.881,0,0,0,0-23.077c-.26-.174-.521-.347-.781-.486a5.656,5.656,0,0,0-.607-.33l-.226-.1-.347-.174-.243-.1a1.06,1.06,0,0,1-.208-.087l-.625-.226-.538-.191a13.985,13.985,0,0,0-12.892,2.36,1.74,1.74,0,1,1-2.186-2.707,17.559,17.559,0,0,1,16-3.089l.625.226h.1l.729.278a2.55,2.55,0,0,1,.521.226l.59.26.92.486c.312.174.677.416,1.041.642a17.351,17.351,0,0,1,0,28.855c-.382.243-.746.486-1.128.694s-.538.295-.85.434a4.786,4.786,0,0,1-.677.312,1.821,1.821,0,0,1-.434.191c-.226.1-.451.174-.677.26h-.226l-.5.174A17.144,17.144,0,0,1,97.935,170.994Zm20.821-1.735a1.735,1.735,0,0,1-1.232-.5l-1.735-1.735a1.735,1.735,0,0,1-.226-2.169,18.237,18.237,0,0,0,1.631-3.158,1.735,1.735,0,0,1,3.3.625v5.205a1.735,1.735,0,0,1-1.076,1.6A1.458,1.458,0,0,1,118.756,169.259Z" transform="translate(0 0)" fill="#0d182d"/><path d="M252.729,198.756a10.012,10.012,0,0,1-2.1-.208,10.411,10.411,0,0,1-8.311-10.2v-3.47H193.735A1.735,1.735,0,0,1,192,183.14V136.292a1.735,1.735,0,0,1,3.47,0V181.4h48.583a1.735,1.735,0,0,1,1.735,1.735v5.205a6.941,6.941,0,1,0,13.881,0v-6.524l-7.079-7.062a21.06,21.06,0,0,1-2.672,1.3,8.138,8.138,0,0,1-.937.364l-.278.1-.226.087a20.823,20.823,0,0,1-2.29.659,19.081,19.081,0,0,1-2.169.4,9.231,9.231,0,0,1-1.058.139H241.8l-1.215.121a24.292,24.292,0,0,1,0-48.583h2.429a9.159,9.159,0,0,1,1.076.139,21.071,21.071,0,0,1,2.1.4c.555.121,1.076.26,1.614.434l.9.312a2.031,2.031,0,0,1,.416.156,2.8,2.8,0,0,1,.833.312,23.945,23.945,0,0,1,7.444,4.91,22.193,22.193,0,0,1,2.273,2.62V122.411a10.411,10.411,0,0,1,2.655-6.94H202.411a6.94,6.94,0,0,0-6.94,6.94v6.94a1.735,1.735,0,0,1-3.47,0v-6.94A10.411,10.411,0,0,1,202.411,112h67.67a1.735,1.735,0,1,1,0,3.47,6.94,6.94,0,0,0-6.94,6.94v22.557a1.735,1.735,0,0,1-3.331.659,21.081,21.081,0,0,0-4.806-6.94,20.821,20.821,0,0,0-6.4-4.216l-.763-.295-1.128-.382c-.416-.139-.868-.243-1.319-.364a17.5,17.5,0,0,0-1.822-.33l-.816-.1h-1.024l-1.145-.174a20.821,20.821,0,0,0,0,41.643h1.058a8.836,8.836,0,0,0,.972,0,6.819,6.819,0,0,0,.885-.121,18.563,18.563,0,0,0,1.891-.33c.659-.174,1.3-.347,1.943-.555h.208l.295-.1.729-.295a19.084,19.084,0,0,0,3.331-1.735,1.735,1.735,0,0,1,2.186.208l8.554,8.554a1.735,1.735,0,0,1,.5,1.232v7.027A10.411,10.411,0,0,1,252.729,198.756Z" transform="translate(-142.649 0)" fill="#0d182d"/><path d="M457.436,341.339H455.7a1.735,1.735,0,0,1-1.735-1.735v-.173a1.735,1.735,0,0,1,2.1-1.735,6.662,6.662,0,0,0,1.371.174,1.735,1.735,0,1,1,0,3.47Zm20.232-6.351a6.507,6.507,0,0,1-4.615-1.909l-15.738-15.738a21.054,21.054,0,0,1-2.672,1.3,8.131,8.131,0,0,1-.937.364l-.278.1-.226.087a20.823,20.823,0,0,1-2.29.659,19.1,19.1,0,0,1-2.169.4,9.232,9.232,0,0,1-1.058.139h-1.128l-1.267.121a24.3,24.3,0,0,1,1.232-48.583h1.2a9.163,9.163,0,0,1,1.076.139,21.074,21.074,0,0,1,2.1.4c.555.121,1.076.26,1.614.434l.9.312a2.032,2.032,0,0,1,.416.156,2.8,2.8,0,0,1,.833.312,24.5,24.5,0,0,1,13.048,13.083,24.153,24.153,0,0,1,0,18.653,20.461,20.461,0,0,1-1.2,2.5l15.772,15.772a6.541,6.541,0,0,1-4.615,11.174ZM457.558,313.4a1.735,1.735,0,0,1,1.232.5L475.5,330.616a3.106,3.106,0,0,0,4.32,0,3.054,3.054,0,0,0,0-4.338l-16.727-16.727a1.735,1.735,0,0,1-.226-2.169,18.233,18.233,0,0,0,1.631-3.158,20.282,20.282,0,0,0,1.614-8,20.508,20.508,0,0,0-1.6-8A21,21,0,0,0,453.307,277l-.763-.295-1.128-.382c-.416-.139-.868-.243-1.319-.364a17.5,17.5,0,0,0-1.822-.33l-.815-.1h-1.024l-1.145-.121a20.821,20.821,0,0,0-20.821,20.821,21.169,21.169,0,0,0,.555,4.806,20.822,20.822,0,0,0,21.325,16.015h.972a6.821,6.821,0,0,0,.885-.121,18.563,18.563,0,0,0,1.891-.33c.659-.174,1.3-.347,1.943-.555h.208l.295-.1.729-.295a19.082,19.082,0,0,0,3.331-1.735,1.631,1.631,0,0,1,.954-.5Zm-12.267.174A17.351,17.351,0,0,1,428.945,302a16.587,16.587,0,0,1-1.006-5.778,17.246,17.246,0,0,1,1.822-7.721,1.735,1.735,0,1,1,3.089,1.562,13.672,13.672,0,0,0-1.44,6.16,13.378,13.378,0,0,0,.8,4.615,13.881,13.881,0,0,0,13.083,9.266,13.483,13.483,0,0,0,4.06-.625l.538-.174.625-.243h.26l.191-.1.347-.174.226-.1a4.13,4.13,0,0,0,.694-.312,9.127,9.127,0,0,0,.85-.521,13.881,13.881,0,0,0,0-23.077c-.26-.174-.521-.347-.781-.486a5.663,5.663,0,0,0-.607-.33l-.226-.1-.347-.173-.243-.1a1.06,1.06,0,0,1-.208-.087l-.625-.226-.538-.191a13.985,13.985,0,0,0-12.892,2.36,1.74,1.74,0,0,1-2.186-2.707,17.559,17.559,0,0,1,16-3.089l.625.226h.1l.729.278a2.554,2.554,0,0,1,.521.226l.59.26.92.486c.312.174.677.416,1.041.642a17.351,17.351,0,0,1,0,28.855c-.382.243-.746.486-1.128.694s-.538.295-.85.434a4.785,4.785,0,0,1-.677.312,1.821,1.821,0,0,1-.434.191c-.226.1-.451.173-.677.26h-.226l-.5.173A17.142,17.142,0,0,1,445.29,313.577Z" transform="translate(-347.356 -142.583)" fill="#0d182d"/><path d="M597.205,433.351h-3.47a1.735,1.735,0,0,1,0-3.47h3.47a1.735,1.735,0,0,0,0-3.47,5.205,5.205,0,1,1,0-10.411h3.47a1.735,1.735,0,0,1,0,3.47h-3.47a1.735,1.735,0,1,0,0,3.47,5.205,5.205,0,0,1,0,10.411Z" transform="translate(-499.271 -271.033)" fill="#0d182d"/><path d="M326.173,234.027a1.735,1.735,0,0,1-1.735-1.735v-3.47a1.735,1.735,0,0,1,3.47,0v3.47A1.735,1.735,0,0,1,326.173,234.027Zm0,17.351a1.735,1.735,0,0,1-1.735-1.735v-3.47a1.735,1.735,0,1,1,3.47,0v3.47A1.735,1.735,0,0,1,326.173,251.378ZM301.881,211.47H289.735a1.735,1.735,0,1,1,0-3.47h12.146a1.735,1.735,0,1,1,0,3.47Zm0,8.676H289.735a1.735,1.735,0,1,1,0-3.47h12.146a1.735,1.735,0,1,1,0,3.47Z" transform="translate(-228.238 -85.589)" fill="#0d182d"/></g></svg>