<svg xmlns="http://www.w3.org/2000/svg" width="86.8" height="86.756" viewBox="0 0 86.8 86.756"><g transform="translate(-63.928 -64)"><path d="M217.6,184.908a32.6,32.6,0,0,1-7.348,20.7,34.84,34.84,0,0,1-4.67,4.67,32.489,32.489,0,0,1-17.56,7.192,30.453,30.453,0,0,1-3.113.156A32.691,32.691,0,0,1,160,206.032a32.551,32.551,0,0,0,21.094,7.784,30.47,30.47,0,0,0,3.113-.156,32.489,32.489,0,0,0,17.482-7.27,34.839,34.839,0,0,0,4.67-4.67,32.691,32.691,0,0,0-.311-41.72A32.691,32.691,0,0,1,217.6,184.908Z" transform="translate(-86.725 -86.66)" fill="#aa9335"/><path d="M142.192,108.829a32.6,32.6,0,0,1-7.348,20.673,34.842,34.842,0,0,1-4.67,4.67,32.489,32.489,0,0,1-17.513,7.192,30.47,30.47,0,0,1-3.113.156,32.551,32.551,0,0,1-21.094-7.784A32.691,32.691,0,0,1,113.393,80a29.581,29.581,0,0,1,3.113.156,32.458,32.458,0,0,1,18.027,7.628A32.6,32.6,0,0,1,142.192,108.829Z" transform="translate(-15.21 -14.442)" fill="#d1b339"/><path d="M196.929,171.086a26.464,26.464,0,0,1-43.588,20.237,26.106,26.106,0,0,1-4.764-5.293,26.464,26.464,0,1,1,48.352-14.945Z" transform="translate(-72.282 -72.838)" fill="#acd5ea"/><path d="M190.519,164.72a26.464,26.464,0,0,1-41.347,21.888,26.464,26.464,0,0,1,36.77-36.708A26.262,26.262,0,0,1,190.519,164.72Z" transform="translate(-72.877 -73.446)" fill="#cee6f4"/><path d="M693.651,693.971a6.6,6.6,0,0,1-9.341,0L670.16,679.82a3.113,3.113,0,0,1,0-4.39l.14-.14,4.81-4.81a3.114,3.114,0,0,1,4.39,0l14.151,14.151a6.369,6.369,0,0,1,1.557,2.335A6.57,6.57,0,0,1,693.651,693.971Z" transform="translate(-546.431 -546.655)" fill="#0a2872"/><path d="M704.268,686.646a6.367,6.367,0,0,1-1.557,2.335,6.6,6.6,0,0,1-9.34,0l-14.01-14.01,4.81-4.81a3.113,3.113,0,0,1,4.39,0l14.151,14.151A6.369,6.369,0,0,1,704.268,686.646Z" transform="translate(-555.554 -546.366)" fill="#1b45af"/><path d="M638.163,633.813l-4.67,4.67-5.013-5.013a34.844,34.844,0,0,0,4.67-4.67Z" transform="translate(-509.624 -509.848)" fill="#aa9335"/><path d="M325.793,234.827a10.9,10.9,0,1,1-5.884-9.683A10.9,10.9,0,0,1,325.793,234.827Z" transform="translate(-216.713 -144.363)" fill="#5ea2cc"/><path d="M320.984,230.087a10.9,10.9,0,0,1-15.91,9.683,10.9,10.9,0,0,1,14.7-14.7,10.9,10.9,0,0,1,1.214,5.013Z" transform="translate(-216.574 -144.293)" fill="#76b4e2"/><path d="M274.248,465.124a26.464,26.464,0,0,1-26.122,4.67,25.873,25.873,0,0,1-8.126-4.67A17.124,17.124,0,0,1,256.517,448h.607a17.124,17.124,0,0,1,17.124,17.124Z" transform="translate(-158.941 -346.639)" fill="#0a2872"/><path d="M266.464,463.567a26.324,26.324,0,0,1-17.124,6.227h-1.214a25.873,25.873,0,0,1-8.126-4.67A17.124,17.124,0,0,1,256.517,448,17.124,17.124,0,0,1,266.464,463.567Z" transform="translate(-158.941 -346.639)" fill="#1b45af"/><path d="M98.183,132.5A34.248,34.248,0,0,1,65.974,86.588,1.557,1.557,0,0,1,68.9,87.647a31.134,31.134,0,0,0,29.282,41.736,20.914,20.914,0,0,0,3-.14,31.025,31.025,0,0,0,16.688-6.865,33.425,33.425,0,0,0,4.452-4.452,31.259,31.259,0,0,0,6.99-19.677,30.948,30.948,0,0,0-28.161-30.979,26.182,26.182,0,0,0-2.973-.156A31.275,31.275,0,0,0,71.438,82.307a1.557,1.557,0,1,1-2.678-1.557A34.4,34.4,0,0,1,98.183,64a31.135,31.135,0,0,1,3.269.171,34.046,34.046,0,0,1,30.979,34.077,34.419,34.419,0,0,1-7.69,21.654,36.256,36.256,0,0,1-4.888,4.888,34.108,34.108,0,0,1-18.369,7.55A22.568,22.568,0,0,1,98.183,132.5Z" transform="translate(0 0)" fill="#0d182d"/><path d="M156.021,184.042a28.021,28.021,0,1,1,28.021-28.021,1.557,1.557,0,0,1-3.113,0,24.783,24.783,0,1,0-.669,5.775,1.557,1.557,0,0,1,3.02.716A28.021,28.021,0,0,1,156.021,184.042Zm44.367,24.487a8.079,8.079,0,0,1-5.651-2.257,1.557,1.557,0,0,1,2.148-2.242,5.047,5.047,0,1,0,7.068-7.208L189.8,182.672a1.557,1.557,0,0,0-2.179,0l-4.95,4.95a1.557,1.557,0,0,0,0,2.179l10.259,10.259a1.563,1.563,0,1,1-2.211,2.211l-10.259-10.259a4.67,4.67,0,0,1,0-6.6l4.95-4.95a4.67,4.67,0,0,1,6.6,0l14.151,14.151a8.142,8.142,0,0,1-5.775,13.917Z" transform="translate(-57.838 -57.773)" fill="#0d182d"/><path d="M326.14,260.15a1.557,1.557,0,0,1-1.105-.451l-5.013-5a1.565,1.565,0,0,1,.109-2.3,33.659,33.659,0,0,0,4.468-4.468,1.565,1.565,0,0,1,2.3-.109l5.013,5.013a1.557,1.557,0,0,1,0,2.211l-4.67,4.67A1.557,1.557,0,0,1,326.14,260.15Zm-2.724-6.492,2.724,2.74,2.475-2.475-2.74-2.724C325.1,252.055,324.272,252.88,323.415,253.659Zm-22.962-20.751a12.454,12.454,0,1,1,12.454-12.454A12.454,12.454,0,0,1,300.454,232.908Zm0-21.794a9.34,9.34,0,1,0,9.34,9.34A9.34,9.34,0,0,0,300.454,211.113Z" transform="translate(-202.271 -129.99)" fill="#0d182d"/><path d="M242.681,458.464a28.019,28.019,0,0,1-18.134-6.661,1.557,1.557,0,0,1-.547-1.123,18.681,18.681,0,1,1,37.361,0,1.557,1.557,0,0,1-.545,1.183A28.021,28.021,0,0,1,242.681,458.464ZM227.113,449.9a24.908,24.908,0,0,0,31.134,0,15.567,15.567,0,0,0-31.134,0Z" transform="translate(-144.498 -332.195)" fill="#0d182d"/><path d="M388.67,483.113h-3.113a1.557,1.557,0,1,1,0-3.113h3.113a1.557,1.557,0,1,1,0,3.113Z" transform="translate(-288.931 -375.525)" fill="#76b4e2"/><path d="M401.557,495.567A1.557,1.557,0,0,1,400,494.01V481.557a1.557,1.557,0,0,1,3.113,0V494.01A1.557,1.557,0,0,1,401.557,495.567Z" transform="translate(-303.374 -375.525)" fill="#76b4e2"/></g></svg>