<svg xmlns="http://www.w3.org/2000/svg" width="47.256" height="50.575" viewBox="0 0 47.256 50.575"><defs><style>.a{fill:#ff7e00;}.b{fill:#0c2d63;}</style></defs><g transform="translate(-86.784 -56.832)"><path class="a" d="M295.576,337.805v2.288a.8.8,0,1,1-1.6,0v-2.288a.8.8,0,0,1,1.6,0Zm1.6,11.224a.579.579,0,0,1,0,.134.8.8,0,0,1-.775.6.877.877,0,0,1-.2,0,2.945,2.945,0,0,1-2.207-2.849v-1.475a.8.8,0,0,1,1.6,0v1.454a1.331,1.331,0,0,0,1,1.293.8.8,0,0,1,.577.845Zm9.615,0a.8.8,0,0,1-.8.8h-4.276a.8.8,0,0,1,0-1.6h4.276A.8.8,0,0,1,306.795,349.029Zm12.218-15.035v2.282a.8.8,0,0,1-1.6,0v-2.282a.8.8,0,0,1,1.6,0Zm0-6.8v1.454a.8.8,0,0,1-1.6,0V327.2a1.331,1.331,0,0,0-1-1.293.8.8,0,0,1-.6-.844.626.626,0,0,1,0-.134.8.8,0,0,1,.978-.577A2.934,2.934,0,0,1,319.013,327.2Zm-6.948-2.138a.8.8,0,0,1-.8.812h-4.276a.8.8,0,0,1,0-1.6h4.276a.8.8,0,0,1,.8.791Z" transform="translate(-196.977 -254.113)"/><path class="b" d="M160.7,207.747H148.246V195.41a1.846,1.846,0,0,0-3.691,0v12.337a3.673,3.673,0,0,0,3.691,3.655H160.7a1.828,1.828,0,1,0,0-3.655Zm18.148-34.264H166.393a1.828,1.828,0,1,0,0,3.655h12.458v12.337a1.846,1.846,0,0,0,3.691,0V177.138a3.673,3.673,0,0,0-3.691-3.655Z" transform="translate(-54.152 -109.345)"/><path class="a" d="M104.877,56.832H89.629a2.845,2.845,0,0,0-2.845,2.845V74.934a2.845,2.845,0,0,0,2.845,2.845h15.248a2.845,2.845,0,0,0,2.845-2.845V59.677A2.845,2.845,0,0,0,104.877,56.832Zm-.948,17.149H90.577V60.625h13.351Zm27.262,12.484H115.943A2.845,2.845,0,0,0,113.1,89.31v15.253a2.845,2.845,0,0,0,2.845,2.845H131.2a2.845,2.845,0,0,0,2.845-2.845V89.31a2.845,2.845,0,0,0-2.849-2.845Zm-.948,17.149H116.891V90.258h13.356Z" transform="translate(0 0)"/></g></svg>