<svg xmlns="http://www.w3.org/2000/svg" width="146" height="146" viewBox="0 0 146 146"><g transform="translate(0 -0.102)"><g transform="translate(0 0.415)"><rect width="146" height="146" transform="translate(0 -0.313)" fill="rgba(216,216,216,0)"/><g transform="translate(13.179 11.022)"><path d="M159.808,194.415l-2.393,2.393a.6.6,0,0,1-.847,0l-2.393-2.393a.6.6,0,0,1,0-.847l2.393-2.393a.6.6,0,0,1,.847,0l2.393,2.393a.6.6,0,0,1,0,.847" transform="translate(-61.747 -76.702)" fill="#bbd9fa" fill-rule="evenodd"/><path d="M10.295,58.658,5.659,63.294a.6.6,0,0,1-.847,0L.176,58.658a.6.6,0,0,1,0-.847l4.636-4.635a.6.6,0,0,1,.847,0l4.636,4.635a.6.6,0,0,1,0,.847" transform="translate(0 -21.371)" fill="#ffbbd8" fill-rule="evenodd"/><rect width="8.387" height="8.387" rx="2" transform="translate(103.696 98.123) rotate(-45)" fill="#c4d8fc"/><rect width="16.773" height="16.773" rx="2" transform="translate(2.517 11.861) rotate(-45)" fill="#33c8cd" opacity="0.252"/></g><g transform="translate(19.768 24.655)"><g transform="translate(24.729 0)"><path d="M53.24,100.074H7.719A7.718,7.718,0,0,1,0,92.355V7.728A7.719,7.719,0,0,1,7.719.009H53.24a7.719,7.719,0,0,1,7.719,7.719V92.355a7.718,7.718,0,0,1-7.719,7.719" transform="translate(0 -0.009)" fill="#ced7e2" fill-rule="evenodd"/><path d="M53.24,112.555H7.719A7.719,7.719,0,0,1,0,104.835V20.208A7.719,7.719,0,0,1,7.719,12.49H53.24a7.719,7.719,0,0,1,7.719,7.719v84.627a7.719,7.719,0,0,1-7.719,7.719" transform="translate(0 -5.013)" fill="rgba(185,192,200,0.3)" fill-rule="evenodd"/></g><path d="M46.08,94.846V10.218A5.419,5.419,0,0,1,51.5,4.8H95.87a5.419,5.419,0,0,1,5.418,5.418V94.846a5.419,5.419,0,0,1-5.418,5.418H51.5a5.419,5.419,0,0,1-5.418-5.418" transform="translate(-18.476 -2.5)" fill="#fff" fill-rule="evenodd"/><path d="M80.941,9.792h0A.863.863,0,1,1,81.8,8.93a.863.863,0,0,1-.863.863" transform="translate(-32.108 -3.809)" fill="#adcbdf" fill-rule="evenodd"/><path d="M95.082,9.792h-9.2a.863.863,0,0,1,0-1.725h9.2a.863.863,0,0,1,0,1.725" transform="translate(-34.088 -3.809)" fill="#adcbdf" fill-rule="evenodd"/><path d="M98.517,22.08H53.085a1.725,1.725,0,1,0,0,3.451H98.517a1.725,1.725,0,0,0,0-3.451" transform="translate(-20.593 -9.428)" fill="#e5edf5" fill-rule="evenodd"/><path d="M98.517,37.05H53.085a1.725,1.725,0,1,1,0-3.451H98.517a1.725,1.725,0,0,1,0,3.451" transform="translate(-20.593 -14.047)" fill="#e5edf5" fill-rule="evenodd"/><path d="M98.517,61.222H53.085A1.725,1.725,0,0,1,51.36,59.5V46.845a1.725,1.725,0,0,1,1.725-1.725H98.517a1.725,1.725,0,0,1,1.725,1.725V59.5a1.725,1.725,0,0,1-1.725,1.725" transform="translate(-20.593 -18.666)" fill="#e5edf5" fill-rule="evenodd"/><path d="M98.517,79.68H53.085a1.725,1.725,0,1,0,0,3.451H98.517a1.725,1.725,0,0,0,0-3.451" transform="translate(-20.593 -32.523)" fill="#e5edf5" fill-rule="evenodd"/><path d="M98.517,91.2H53.085a1.725,1.725,0,1,0,0,3.451H98.517a1.725,1.725,0,0,0,0-3.451" transform="translate(-20.593 -37.142)" fill="#e5edf5" fill-rule="evenodd"/><path d="M98.517,118.822H53.085A1.725,1.725,0,0,1,51.36,117.1V104.445a1.725,1.725,0,0,1,1.725-1.725H98.517a1.725,1.725,0,0,1,1.725,1.725V117.1a1.725,1.725,0,0,1-1.725,1.725" transform="translate(-20.593 -41.761)" fill="#e5edf5" fill-rule="evenodd"/><path d="M96.7,147.251H55.866a4.026,4.026,0,0,1,0-8.051H96.7a4.026,4.026,0,0,1,0,8.051" transform="translate(-20.785 -56.388)" fill="#34c8cd" fill-rule="evenodd"/><path d="M95.933,150.841H62.788a3.268,3.268,0,1,1,0-6.536H95.933a3.268,3.268,0,0,1,0,6.536" transform="translate(-23.865 -58.434)" fill="rgba(52,200,205,0.3)" fill-rule="evenodd"/><g transform="translate(0 50.861)"><path d="M39.795,38.217a3.322,3.322,0,0,1,1.82,2.973v6.27A23.208,23.208,0,0,1,26.227,69.405a.423.423,0,0,1-.279,0A23.208,23.208,0,0,1,10.56,47.46V41.007a3.322,3.322,0,0,1,1.814-2.97l.192-.1L25,31.689a2.017,2.017,0,0,1,1.814,0l12.892,6.484Z" transform="translate(-4.234 -12.878)" fill="rgba(26,102,255,0.3)" fill-rule="evenodd"/><path d="M41.146,9.787a4.6,4.6,0,0,1,2.561,4.124v8.7A32.223,32.223,0,0,1,22.049,53.048a.6.6,0,0,1-.392,0A32.223,32.223,0,0,1,0,22.607v-8.95a4.6,4.6,0,0,1,2.553-4.12l.27-.134L20.323.731a2.876,2.876,0,0,1,2.553,0L41.021,9.725Z" transform="translate(0 -0.433)" fill="#2c3d9a" fill-rule="evenodd"/></g><path d="M31.861,118.661a2.3,2.3,0,0,1,2.3,2.3v1.15h-4.6v-1.15a2.3,2.3,0,0,1,2.3-2.3m-1.15,7.77a1.15,1.15,0,1,1,2.3,0,1.13,1.13,0,0,1-.575.988v1.312a.575.575,0,0,1-1.15,0v-1.312a1.13,1.13,0,0,1-.575-.988m6.326-4.319h-.575v-1.15a4.6,4.6,0,1,0-9.2,0v1.15h-.575a1.731,1.731,0,0,0-1.725,1.725v6.9a1.726,1.726,0,0,0,1.725,1.725H37.037a1.726,1.726,0,0,0,1.725-1.725v-6.9a1.731,1.731,0,0,0-1.725-1.725" transform="translate(-10.008 -47.23)" fill="#fff" fill-rule="evenodd"/><path d="M83.5,144.333l-.964-1.562h-.89v3.773H82.69v-1.561l.962,1.561h.892v-3.773H83.5Z" transform="translate(-32.736 -57.819)" fill="#fff" fill-rule="evenodd"/><path d="M87.693,146.544h2.554v-1.031h-1.51v-.367h1.289v-1H88.737v-.34h1.51V142.77H87.693Z" transform="translate(-35.161 -57.819)" fill="#fff" fill-rule="evenodd"/><path d="M96.085,142.771h-1.2l-.449.806-.449-.806h-1.2l1.052,1.846-1.114,1.928h1.193l.512-.9.511.9h1.2L95,144.617Z" transform="translate(-37.18 -57.819)" fill="#fff" fill-rule="evenodd"/><path d="M99.055,142.771v1H99.9v2.769h1.044v-2.769h.849v-1Z" transform="translate(-39.716 -57.819)" fill="#fff" fill-rule="evenodd"/><path d="M153.925,13.82v11.5a2.3,2.3,0,0,1-2.3,2.3h-32.2a2.3,2.3,0,0,1-2.3-2.3V13.82a2.3,2.3,0,0,1,2.3-2.3h32.2a2.3,2.3,0,0,1,2.3,2.3" transform="translate(-46.96 -5.194)" fill="#e4e4e4" fill-rule="evenodd"/><path d="M153.925,9.02v11.5a2.3,2.3,0,0,1-2.3,2.3h-32.2a2.3,2.3,0,0,1-2.3-2.3V9.02a2.3,2.3,0,0,1,2.3-2.3h32.2a2.3,2.3,0,0,1,2.3,2.3" transform="translate(-46.96 -3.269)" fill="#fff" fill-rule="evenodd"/><path d="M129.533,13.644H127.9v2.4h1.583a4.424,4.424,0,0,0,1.071-.109,1.254,1.254,0,0,0,.664-.376,1.078,1.078,0,0,0,.229-.729,1.125,1.125,0,0,0-.185-.64,1.109,1.109,0,0,0-.512-.412,3.664,3.664,0,0,0-1.22-.131m-1.012,3.666H127.9v2.8a1.168,1.168,0,0,1-.243.816.83.83,0,0,1-.637.262.813.813,0,0,1-.655-.274,1.221,1.221,0,0,1-.231-.8V13.4a1.135,1.135,0,0,1,.255-.826,1.142,1.142,0,0,1,.829-.257h2.874a8.958,8.958,0,0,1,1.018.051,2.574,2.574,0,0,1,.761.206,2.2,2.2,0,0,1,.727.493,2.173,2.173,0,0,1,.479.747,2.5,2.5,0,0,1,.164.9,2.182,2.182,0,0,1-.551,1.56,3.162,3.162,0,0,1-1.67.826,3.237,3.237,0,0,1,.9.738,7.561,7.561,0,0,1,.764,1.039,7.811,7.811,0,0,1,.524.994,1.961,1.961,0,0,1,.188.61.631.631,0,0,1-.11.342.774.774,0,0,1-.3.267.942.942,0,0,1-.441.1.867.867,0,0,1-.5-.14,1.344,1.344,0,0,1-.347-.354c-.1-.143-.229-.354-.4-.631l-.709-1.179a6.533,6.533,0,0,0-.681-.988,1.681,1.681,0,0,0-.61-.464,2.092,2.092,0,0,0-.781-.125" transform="translate(-50.574 -5.513)" fill="#2c3d9a" fill-rule="evenodd"/><path d="M144.285,19.4a2.439,2.439,0,0,0-.437-1.547,1.421,1.421,0,0,0-1.176-.553,1.462,1.462,0,0,0-.839.246,1.558,1.558,0,0,0-.559.73,2.96,2.96,0,0,0-.2,1.124,2.93,2.93,0,0,0,.193,1.114,1.579,1.579,0,0,0,.554.728,1.53,1.53,0,0,0,2.023-.3,2.432,2.432,0,0,0,.437-1.538m1.631,0a3.841,3.841,0,0,1-.226,1.34,2.95,2.95,0,0,1-.654,1.052,2.878,2.878,0,0,1-1.024.676,3.628,3.628,0,0,1-1.338.236,3.522,3.522,0,0,1-1.327-.238,2.929,2.929,0,0,1-1.674-1.73,3.8,3.8,0,0,1-.223-1.335,3.882,3.882,0,0,1,.225-1.35,2.937,2.937,0,0,1,.648-1.047,2.859,2.859,0,0,1,1.024-.671,3.88,3.88,0,0,1,2.665,0,2.879,2.879,0,0,1,1.683,1.726,3.869,3.869,0,0,1,.222,1.338" transform="translate(-55.912 -7.031)" fill="#2c3d9a" fill-rule="evenodd"/><path d="M156.574,19.4a2.439,2.439,0,0,0-.438-1.547,1.421,1.421,0,0,0-1.176-.553,1.462,1.462,0,0,0-.839.246,1.566,1.566,0,0,0-.559.73,3.3,3.3,0,0,0,0,2.238,1.591,1.591,0,0,0,.554.728,1.53,1.53,0,0,0,2.023-.3,2.432,2.432,0,0,0,.438-1.538m1.631,0a3.841,3.841,0,0,1-.226,1.34,2.942,2.942,0,0,1-.654,1.052,2.881,2.881,0,0,1-1.024.676,3.642,3.642,0,0,1-1.34.236,3.523,3.523,0,0,1-1.326-.238,2.949,2.949,0,0,1-1.021-.682,2.913,2.913,0,0,1-.654-1.048,3.8,3.8,0,0,1-.224-1.335,3.868,3.868,0,0,1,.226-1.35,2.923,2.923,0,0,1,.649-1.047,2.86,2.86,0,0,1,1.023-.671,3.883,3.883,0,0,1,2.666,0,2.886,2.886,0,0,1,1.681,1.726A3.868,3.868,0,0,1,158.2,19.4" transform="translate(-60.839 -7.031)" fill="#2c3d9a" fill-rule="evenodd"/><path d="M164.314,14.766h.179v-.975c0-.262.006-.469.021-.617a.9.9,0,0,1,.114-.384.737.737,0,0,1,.274-.271.791.791,0,0,1,.4-.1.8.8,0,0,1,.559.233.69.69,0,0,1,.213.377,3.55,3.55,0,0,1,.044.634v1.107h.594a.773.773,0,0,1,.528.163.546.546,0,0,1,.18.421.469.469,0,0,1-.259.458,1.684,1.684,0,0,1-.741.131h-.3v2.987a4.557,4.557,0,0,0,.028.587.579.579,0,0,0,.143.333.484.484,0,0,0,.377.128,2,2,0,0,0,.387-.05,2.033,2.033,0,0,1,.381-.051.5.5,0,0,1,.354.158.533.533,0,0,1,.158.39.651.651,0,0,1-.429.6,2.89,2.89,0,0,1-1.232.209,2.13,2.13,0,0,1-1.154-.257,1.185,1.185,0,0,1-.515-.707,4.788,4.788,0,0,1-.121-1.209V15.939h-.215a.772.772,0,0,1-.535-.167.541.541,0,0,1-.185-.422.527.527,0,0,1,.193-.421.854.854,0,0,1,.563-.163" transform="translate(-65.579 -5.553)" fill="#2c3d9a" fill-rule="evenodd"/><path d="M153.844,6.72l-16.1,16.1h-5.693l16.1-16.1Z" transform="translate(-52.945 -3.269)" fill="#2c3d9a" fill-rule="evenodd"/><path d="M147.468,6.72l-16.1,16.1h.817l16.1-16.1Zm5.693,0-16.1,16.1h.817l16.1-16.1Z" transform="translate(-52.672 -3.269)" fill="#fff" fill-rule="evenodd"/><path d="M150.874,87.917A12.077,12.077,0,1,1,138.8,75.84a12.077,12.077,0,0,1,12.077,12.077" transform="translate(-50.809 -30.983)" fill="rgba(52,200,205,0.31)" fill-rule="evenodd"/><path d="M151.254,78.507A13.227,13.227,0,1,1,138.027,65.28a13.227,13.227,0,0,1,13.227,13.227" transform="translate(-50.039 -26.749)" fill="#34c8cd" fill-rule="evenodd"/><path d="M143.261,84.754a2.839,2.839,0,0,1-.667.277,2.773,2.773,0,0,1-1.434,0,2.839,2.839,0,0,1-.667-.277,2.776,2.776,0,0,1-1.014-1.014,2.865,2.865,0,0,1-.277-.667,2.8,2.8,0,0,1,0-1.434,2.867,2.867,0,0,1,.277-.667,2.776,2.776,0,0,1,1.014-1.014,2.837,2.837,0,0,1,.667-.277,2.789,2.789,0,0,1,1.434,0,2.837,2.837,0,0,1,.667.277,2.776,2.776,0,0,1,1.014,1.014,2.816,2.816,0,0,1,.277.667,2.781,2.781,0,0,1,0,1.434,2.814,2.814,0,0,1-.277.667,2.776,2.776,0,0,1-1.014,1.014Zm6.092-1.359V81.317l-2.11-.33a5.425,5.425,0,0,0-.607-1.459L147.9,77.8l-1.467-1.468L144.7,77.6a5.423,5.423,0,0,0-1.459-.607l-.33-2.11h-2.077l-.329,2.11a5.411,5.411,0,0,0-1.459.607l-1.725-1.261L135.856,77.8l1.26,1.725a5.423,5.423,0,0,0-.606,1.459l-2.11.33v2.077l2.11.329a5.423,5.423,0,0,0,.606,1.459l-1.26,1.725,1.468,1.468,1.725-1.261a5.39,5.39,0,0,0,1.459.607l.329,2.11h2.077l.33-2.11a5.4,5.4,0,0,0,1.459-.607l1.725,1.261,1.467-1.468-1.26-1.725a5.425,5.425,0,0,0,.607-1.459Z" transform="translate(-53.888 -30.598)" fill="#fff" fill-rule="evenodd"/></g></g></g></svg>