<svg xmlns="http://www.w3.org/2000/svg" width="61.378" height="57.201" viewBox="0 0 61.378 57.201"><g transform="translate(0 -34.838)"><path d="M7.9,92.039a1.942,1.942,0,0,1-1.942-1.956l.051-7.432H5.626A5.632,5.632,0,0,1,0,77.025V40.464a5.632,5.632,0,0,1,5.626-5.626H55.752a5.632,5.632,0,0,1,5.626,5.626V77.025a5.632,5.632,0,0,1-5.626,5.626H33.732a1.942,1.942,0,1,1,0-3.885h22.02a1.743,1.743,0,0,0,1.741-1.741V40.464a1.743,1.743,0,0,0-1.741-1.741H5.626a1.743,1.743,0,0,0-1.741,1.741V77.025a1.743,1.743,0,0,0,1.741,1.741H7.963a1.943,1.943,0,0,1,1.942,1.956l-.04,5.786,11.472-7.43a1.942,1.942,0,1,1,2.112,3.261L8.955,91.727a1.942,1.942,0,0,1-1.056.312Z" fill="#2d527c"/><path d="M178.228,237.4V215.19a2.12,2.12,0,0,1,2.12-2.12H216.12a2.12,2.12,0,0,1,2.12,2.12V237.4a2.12,2.12,0,0,1-2.12,2.12H180.348A2.12,2.12,0,0,1,178.228,237.4Z" transform="translate(-167.545 -167.549)" fill="#cee8fa"/><path d="M185.658,210.994H149.886a4.067,4.067,0,0,1-4.062-4.062V184.724a4.067,4.067,0,0,1,4.062-4.062h35.772a4.067,4.067,0,0,1,4.062,4.062v22.207A4.067,4.067,0,0,1,185.658,210.994Zm-35.772-26.447a.178.178,0,0,0-.178.178v22.207a.178.178,0,0,0,.178.178h35.772a.178.178,0,0,0,.178-.178V184.724a.178.178,0,0,0-.178-.178H149.886Z" transform="translate(-137.083 -137.083)" fill="#2d527c"/></g></svg>