<svg xmlns="http://www.w3.org/2000/svg" width="61.378" height="58.775" viewBox="0 0 61.378 58.775"><g transform="translate(0 -21.706)"><path d="M166.889,194.542H125.97a1.86,1.86,0,0,1-1.86-1.86V178.732a1.86,1.86,0,0,1,1.86-1.86h42.78a1.86,1.86,0,0,1,0,3.72H127.83v10.231h39.06a1.86,1.86,0,1,1,0,3.72Z" transform="translate(-116.671 -145.866)" fill="#2d527c"/><path d="M217.2,52.736h35.34v9.3H217.2Z" transform="translate(-204.179 -29.17)" fill="#cee8fa"/><path d="M223.368,34.726h-35.34a1.86,1.86,0,0,1-1.86-1.86v-9.3a1.86,1.86,0,0,1,1.86-1.86h35.341a1.86,1.86,0,0,1,1.86,1.86v9.3A1.86,1.86,0,0,1,223.368,34.726Zm-33.48-3.72h31.621V25.426H189.888v5.581Zm8.244,41.67h-2.35a1.86,1.86,0,1,1,0-3.72h2.35a1.86,1.86,0,1,1,0,3.72Zm8.742,0h-2.35a1.86,1.86,0,1,1,0-3.72h2.35a1.86,1.86,0,0,1,0,3.72Zm8.742,0h-2.35a1.86,1.86,0,1,1,0-3.72h2.35a1.86,1.86,0,1,1,0,3.72Z" transform="translate(-175.009 0)" fill="#2d527c"/><path d="M55.8,518.076H1.86A1.86,1.86,0,0,1,0,516.216V489.062a1.86,1.86,0,0,1,1.86-1.86H59.518a1.86,1.86,0,0,1,1.86,1.86v17.575a1.86,1.86,0,1,1-3.72,0V490.922H3.72v23.434H55.8a1.86,1.86,0,0,1,0,3.72Z" transform="translate(0 -437.595)" fill="#2d527c"/><path d="M93.084,363.052H143.3v9.3H93.084Z" transform="translate(-87.505 -320.886)" fill="#cee8fa"/><path d="M114.134,345.056H63.916a1.86,1.86,0,0,1-1.86-1.86v-9.3a1.86,1.86,0,0,1,1.86-1.86h50.219a1.86,1.86,0,0,1,1.86,1.86v9.3a1.86,1.86,0,0,1-1.86,1.86Zm-48.359-3.72h46.5v-5.581h-46.5Z" transform="translate(-58.336 -291.729)" fill="#2d527c"/></g></svg>