<svg xmlns="http://www.w3.org/2000/svg" width="60.927" height="53.189" viewBox="0 0 60.927 53.189"><g transform="translate(0 -65.03)"><path d="M12.182,573.837a12.182,12.182,0,1,1,10.507-18.352,1.732,1.732,0,0,1-2.985,1.756,8.719,8.719,0,1,0-.127,9.035,1.732,1.732,0,1,1,2.935,1.839,12.124,12.124,0,0,1-10.33,5.722ZM59.2,559.589H30.264a1.732,1.732,0,1,1,0-3.464H59.2a1.732,1.732,0,1,1,0,3.464Zm-10.849,7.594H30.264a1.732,1.732,0,1,1,0-3.464H48.346a1.732,1.732,0,0,1,0,3.464Z" transform="translate(0 -455.618)" fill="#2d527c"/><path d="M39.558,104.584m-10.45,0a10.45,10.45,0,1,0,10.45-10.45,10.45,10.45,0,0,0-10.45,10.45Z" transform="translate(-27.376 -27.372)" fill="#cee8fa"/><path d="M12.182,89.395A12.182,12.182,0,1,1,24.365,77.213,12.2,12.2,0,0,1,12.182,89.395Zm0-20.9A8.719,8.719,0,1,0,20.9,77.213a8.729,8.729,0,0,0-8.719-8.719ZM59.2,75.147H30.264a1.732,1.732,0,1,1,0-3.464H59.2a1.732,1.732,0,1,1,0,3.464ZM48.346,82.741H30.264a1.732,1.732,0,0,1,0-3.464H48.346a1.732,1.732,0,0,1,0,3.464Z" transform="translate(0)" fill="#2d527c"/></g></svg>