<svg xmlns="http://www.w3.org/2000/svg" width="51.952" height="61.783" viewBox="0 0 51.952 61.783"><g transform="translate(-81.47)"><path d="M546.474,579.368l-4.143,7.176-4.143-7.176a11.932,11.932,0,0,0-7.451,11.058v14.113h23.189V590.426A11.932,11.932,0,0,0,546.474,579.368Z" transform="translate(-422.16 -544.412)" fill="#cee8fa"/><path d="M180.147,61.783H156.958a1.657,1.657,0,0,1-1.657-1.657V46.014a13.535,13.535,0,0,1,8.485-12.593,1.656,1.656,0,0,1,2.057.707l2.709,4.692,2.709-4.692a1.657,1.657,0,0,1,2.057-.707A13.535,13.535,0,0,1,181.8,46.014V60.127A1.657,1.657,0,0,1,180.147,61.783ZM158.614,58.47H178.49V46.014a10.229,10.229,0,0,0-5.131-8.9l-3.373,5.842a1.656,1.656,0,0,1-2.869,0l-3.373-5.842a10.229,10.229,0,0,0-5.131,8.9V58.47Zm9.938-25.758a10.715,10.715,0,0,1-10.428-8.165,1.657,1.657,0,1,1,3.217-.793,7.432,7.432,0,1,0,3.224-8.049,1.657,1.657,0,0,1-1.782-2.793,10.741,10.741,0,1,1,5.77,19.8ZM145.859,25.8a12.9,12.9,0,1,1,12.9-12.9A12.915,12.915,0,0,1,145.859,25.8Zm0-22.488a9.588,9.588,0,1,0,9.587,9.588A9.6,9.6,0,0,0,145.859,3.313Z" transform="translate(-48.381)" fill="#2d527c"/><path d="M128.407,480.2l-5.128,8.882L118.15,480.2a14.768,14.768,0,0,0-9.222,13.686v17.467h28.7V493.89A14.769,14.769,0,0,0,128.407,480.2Z" transform="translate(-25.801 -451.231)" fill="#cee8fa"/><path d="M111.828,487.21h-28.7a1.657,1.657,0,0,1-1.657-1.657V468.087a16.36,16.36,0,0,1,10.256-15.222,1.657,1.657,0,0,1,2.057.707l3.693,6.4,3.693-6.4a1.656,1.656,0,0,1,2.057-.707,16.36,16.36,0,0,1,10.257,15.222v17.467A1.656,1.656,0,0,1,111.828,487.21ZM84.783,483.9h25.388v-15.81a13.051,13.051,0,0,0-6.891-11.542l-4.368,7.566a1.656,1.656,0,0,1-2.869,0l-4.368-7.566a13.051,13.051,0,0,0-6.891,11.542V483.9h0Z" transform="translate(0 -425.427)" fill="#2d527c"/></g></svg>