<svg xmlns="http://www.w3.org/2000/svg" width="29.753" height="29.875" viewBox="0 0 29.753 29.875"><g transform="translate(-102.4 -68.266)"><path d="M285.05,89.081c-3.061,0-5.755-2.449-6.857-6.122-.98,0-1.714-1.347-1.714-3.061a4.4,4.4,0,0,1,.245-1.347,9.6,9.6,0,0,1-.245-1.714,8.571,8.571,0,1,1,17.141,0,4.462,4.462,0,0,1-.245,1.714,4.4,4.4,0,0,1,.245,1.347c0,1.714-.735,3.061-1.714,3.061-1.1,3.673-3.8,6.122-6.857,6.122Zm-6-7.836.245.735c.857,3.428,3.183,5.755,5.755,5.755s4.9-2.326,5.755-5.755l.245-.857.735.49c.245,0,.612-.612.612-1.837a4.166,4.166,0,0,0-.122-1.224v-.245a8.429,8.429,0,0,0,.245-1.592,7.346,7.346,0,0,0-14.693,0,3.891,3.891,0,0,0,.245,1.592v.245a3.775,3.775,0,0,0-.122,1.224c0,1.224.49,1.837.612,1.837l.49-.367Z" transform="translate(-167.835)" fill="#2c3d9a"/><path d="M309.342,194.344c-4.163,0-8.571-2.816-10.407-4.9-.98,3.306-4.653,4.775-4.775,4.9l-.612-1.224s4.285-1.714,4.285-5.387h1.224c.245.857,5.142,5.387,10.162,5.387v1.224Zm-10.9.122h1.224v1.224h-1.224Zm4.9,0h1.224v1.224h-1.224Z" transform="translate(-184.291 -115.181)" fill="#2c3d9a"/><path d="M112.93,317.607c-.49-.122-5.142-.612-6.489-1.959l-.49-.49.49-.49c1.224-1.224,2.326-5.51,2.326-7.469h1.224a17.686,17.686,0,0,1-2.2,7.836,23.7,23.7,0,0,0,5.265,1.347l-.122,1.224Zm8.693,0-.122-1.224a20.659,20.659,0,0,0,5.265-1.347,17.686,17.686,0,0,1-2.2-7.836h1.224c0,1.959,1.1,6.367,2.326,7.469l.49.49-.49.49c-1.347,1.347-6,1.959-6.489,1.959ZM119.3,328.015H102.4l1.1-4.53a3.211,3.211,0,0,1,1.592-1.959l8.2-4.041-3.061,5.387,1.837.49,7.224,4.653Zm-15.3-1.224h11.264l-3.8-2.449-3.183-.735,1.837-3.183-4.53,2.326a1.945,1.945,0,0,0-.98,1.224Z" transform="translate(0 -230.363)" fill="#2c3d9a"/><path d="M477.7,601.159H460.8l7.346-4.9,1.714-.367-3.061-5.387,8.2,4.04a2.856,2.856,0,0,1,1.592,1.959l1.1,4.653Zm-12.856-1.224H476.1l-.735-3.061a1.945,1.945,0,0,0-.979-1.224l-4.53-2.326,1.837,3.183-3.183.979Z" transform="translate(-345.544 -503.507)" fill="#2c3d9a"/><path d="M354.16,631.267l-6-9.305.979-.735,5.02,7.836,5.02-7.836.98.735Z" transform="translate(-236.944 -533.126)" fill="#2c3d9a"/><path d="M481.28,513.224c0,.676.822,1.224,1.837,1.224s1.837-.548,1.837-1.224S484.131,512,483.117,512,481.28,512.548,481.28,513.224Z" transform="translate(-365.289 -427.816)" fill="#2c3d9a"/><path d="M566.612,464.473v-1.224c1.347,0,4.9-.735,4.9-2.449h1.224C572.734,463.616,568.326,464.473,566.612,464.473Z" transform="translate(-447.561 -378.453)" fill="#2c3d9a"/></g></svg>