<svg xmlns="http://www.w3.org/2000/svg" xmlns:xlink="http://www.w3.org/1999/xlink" width="130" height="130" viewBox="0 0 130 130"><defs><clipPath id="a"><circle cx="65" cy="65" r="65" transform="translate(260 8677)" fill="#fff" stroke="#707070" stroke-width="1"/></clipPath></defs><g transform="translate(-260 -8677)" clip-path="url(#a)"><g transform="translate(260 8683.971)"><path d="M94.39,14.788c8.483,9.453,12.9,21.387,14.146,33.164,1.218,11.776-.745,23.418-5.506,35.172-4.738,11.731-12.273,23.576-23.35,29.148-11.1,5.572-25.764,4.85-36.729-1.218-10.939-6.069-18.2-17.507-25.672-29.351S2.117,57.607,4.735,47.929s15.522-16.761,26.6-25.764C42.41,13.186,51.638,2.289,62.511.326,73.386-1.614,85.907,5.335,94.39,14.788Z" fill="#f0f0f0"/><path d="M15.206,94.438,7.841,74.077.477,53.715l21.316,3.8,21.316,3.8L29.157,77.88Z" fill="none" stroke="#b7c7fb" stroke-linecap="round" stroke-linejoin="round" stroke-width="0.953"/><path d="M8.155,17.418H77.1V83.8H8.155Z" fill="#eaf0ff" fill-rule="evenodd"/><path d="M28.152,28.324H66.573v2.652H28.152Z" fill="#b2c3fb" fill-rule="evenodd"/><path d="M28.152,40.147H66.573V42.8H28.152Z" fill="#b2c3fb" fill-rule="evenodd"/><path d="M28.152,51.97H66.573v2.652H28.152Z" fill="#b2c3fb" fill-rule="evenodd"/><path d="M22.093,27.108l-4.456,4.211L15.5,29.305" fill="none" stroke="#b2c3fb" stroke-linecap="round" stroke-linejoin="round" stroke-width="0.953"/><path d="M22.093,39.491,17.637,43.7,15.5,41.688" fill="none" stroke="#b2c3fb" stroke-linecap="round" stroke-linejoin="round" stroke-width="0.953"/><path d="M22.093,51.873l-4.456,4.211L15.5,54.07" fill="none" stroke="#b2c3fb" stroke-linecap="round" stroke-linejoin="round" stroke-width="0.953"/><path d="M28.152,63.793H66.573v2.652H28.152Z" fill="#f4f7ff" fill-rule="evenodd"/><path d="M28.152,75.616H66.573v2.652H28.152Z" fill="#f4f7ff" fill-rule="evenodd"/><path d="M96.5,70.85a16.512,16.512,0,1,1,16.512,16.512A16.512,16.512,0,0,1,96.5,70.85Z" fill="none" stroke="#e9efff" stroke-linecap="round" stroke-linejoin="round" stroke-width="0.953"/><path d="M72.139,46.606c-4.242-.847-9.514,4.422-9.145,12.2l5.118,1.063S72.508,46.68,72.139,46.606Z" fill="#46dbc9" fill-rule="evenodd"/><path d="M62.424,55.2a15.6,15.6,0,0,0-.118,2.834" fill="none" stroke="#1b3c87" stroke-linecap="round" stroke-linejoin="round" stroke-width="0.57"/><path d="M71.45,45.831c-2.686-.536-5.786,1.38-7.6,4.831" fill="none" stroke="#1b3c87" stroke-linecap="round" stroke-linejoin="round" stroke-width="0.57"/><path d="M81.978,43.425c16.014,0,19.112,18.516,16.985,44.309-6.943,2.912-24,4.4-31.543-.187C63.873,77.619,61.814,43.425,81.978,43.425Z" fill="#46dbc9" fill-rule="evenodd"/><path d="M70.438,26.812c0-6.795,4.1-12.3,9.164-12.3s9.163,5.508,9.163,12.3-4.1,12.3-9.163,12.3S70.438,33.607,70.438,26.812Z" fill="#fff" fill-rule="evenodd"/><path d="M77.89,26.82c0-.594.246-1.074.55-1.074s.55.481.55,1.074-.246,1.073-.55,1.073S77.89,27.413,77.89,26.82Z" fill="#1b3c87" fill-rule="evenodd"/><path d="M75.359,28.819a4.655,4.655,0,0,1-1.134,3.021" fill="none" stroke="#1b3c87" stroke-linecap="round" stroke-linejoin="round" stroke-width="0.57"/><path d="M77.453,34.511a3.214,3.214,0,0,0,2.34-1.309" fill="none" stroke="#1b3c87" stroke-linecap="round" stroke-linejoin="round" stroke-width="0.57"/><path d="M94.678,63.171c.518,1.48,1.66,5.421,1.66,5.421s-8.086-4.15-11.887-6.069" fill="none" stroke="#1b3c87" stroke-linecap="round" stroke-linejoin="round" stroke-width="0.57"/><path d="M74.981,63.9l-.965,3.183" fill="none" stroke="#1b3c87" stroke-linecap="round" stroke-linejoin="round" stroke-width="0.57"/><path d="M78.043,53.8l-1.285,4.234" fill="none" stroke="#1b3c87" stroke-linecap="round" stroke-linejoin="round" stroke-width="0.57"/><path d="M84.5,89.445c-6.76.432-14-.227-18.23-2.805-2.648-7.414-4.467-28.356,3.175-38.489" fill="none" stroke="#1b3c87" stroke-linecap="round" stroke-linejoin="round" stroke-width="0.57"/><path d="M74.034,44.129a14.118,14.118,0,0,1,6.8-1.612c16.014,0,19.112,18.516,16.985,44.309a26.6,26.6,0,0,1-3.8,1.215" fill="none" stroke="#1b3c87" stroke-linecap="round" stroke-linejoin="round" stroke-width="0.57"/><path d="M97.485,86.483c0,1.722-.267,27.491-.267,27.491" fill="none" stroke="#1b3c87" stroke-linecap="round" stroke-linejoin="round" stroke-width="0.57"/><path d="M77.774,59.227c-.965,0-5.14.532-2.777,4.392,1.354,2.212,1.913,1.576,2.481.876a11.338,11.338,0,0,1,1.564,1.138l-.009.022c1.194.931,16.952,14.689,20.193,15.513s6.885-2.38,8.286-4.791c1.547-2.659-1.386-13.445-1.9-14.634s-10,2.635-10,2.635,1.536,4.595,1.941,6.494c-.894-.5-14.987-7.391-16.823-9.509,0,.006-.006.017-.01.023C80.043,60.7,78.517,59.227,77.774,59.227Z" fill="#fff" fill-rule="evenodd"/><path d="M66.055,86.232l-.019,24.913" fill="none" stroke="#1b3c87" stroke-linecap="round" stroke-linejoin="round" stroke-width="0.57"/><path d="M77.992,102.043c.877,3.748,1.838,7.9,2.766,11.93" fill="none" stroke="#1b3c87" stroke-linecap="round" stroke-linejoin="round" stroke-width="0.57"/><path d="M87.453,31.906c-.052.626-1.408,11.182-.921,14.938-1.165.991-9.226,1.137-9.06-.348.278-2.487.87-6.347.365-8.313" fill="#fff" fill-rule="evenodd"/><path d="M76.759,45.4a34.076,34.076,0,0,0,.415-7.392" fill="none" stroke="#1b3c87" stroke-linecap="round" stroke-linejoin="round" stroke-width="0.57"/><path d="M86.632,32.319c-.052.626-1.3,9.673-.813,13.429a8.241,8.241,0,0,1-3.669.729" fill="none" stroke="#1b3c87" stroke-linecap="round" stroke-linejoin="round" stroke-width="0.57"/><path d="M82.906,36.9a7.274,7.274,0,0,1-4.018,1.242c-3.192,0-6-2.191-7.644-5.515" fill="none" stroke="#1b3c87" stroke-linecap="round" stroke-linejoin="round" stroke-width="0.57"/><path d="M70,28.84a16.371,16.371,0,0,1-.274-3c0-6.8,4.1-12.3,9.164-12.3s9.163,5.508,9.163,12.3a14.975,14.975,0,0,1-2.161,7.937" fill="none" stroke="#1b3c87" stroke-linecap="round" stroke-linejoin="round" stroke-width="0.57"/><path d="M87.979,33.588c1.028.186,2.765-5.367,3.119-8.716.631-5.967-5.627-13.558-10.3-14.027-.918-.092-1.954.852-1.391,2.433a13.188,13.188,0,0,0-6.672-3.092c-3.9-.5-5.784,2.09-5.784,3.245s.7,4.768,2.1,5.884c-1.131-.014-2.137.09-2.263,1.006C66.4,23.144,68,25.7,70.708,25.435a12.475,12.475,0,0,1,1.087-4.167c.453,4.077,10.818,2.711,10.8,3.391-.079,2.622,3.034,2.622,3.141,2.687C88.138,28.787,86.341,33.29,87.979,33.588Z" fill="#edca55" fill-rule="evenodd"/><path d="M66.091,13.338c.243,1.557.907,3.936,2,4.8-1.13-.014-2.137.09-2.263,1.006-.334,2.432.807,4.661,2.859,5.068" fill="none" stroke="#1b3c87" stroke-linecap="round" stroke-linejoin="round" stroke-width="0.57"/><path d="M87.282,15.038c-2.1-2.908-4.993-5.118-7.447-5.365-.918-.092-1.955.852-1.392,2.432a13.177,13.177,0,0,0-6.672-3.092,5.974,5.974,0,0,0-3.944.721" fill="none" stroke="#1b3c87" stroke-linecap="round" stroke-linejoin="round" stroke-width="0.57"/><path d="M86.229,30.83c.057.843.205,1.48.788,1.586,1.028.187,2.765-5.366,3.119-8.716a9.385,9.385,0,0,0-.209-3.033" fill="none" stroke="#1b3c87" stroke-linecap="round" stroke-linejoin="round" stroke-width="0.57"/><path d="M70.37,21.2a6.853,6.853,0,0,1,.462-1.109c.453,4.077,10.818,2.711,10.8,3.391a2.5,2.5,0,0,0,.178,1.06" fill="none" stroke="#1b3c87" stroke-linecap="round" stroke-linejoin="round" stroke-width="0.57"/><path d="M83.568,26.127a2.319,2.319,0,1,1,.9,4.19" fill="#fff" fill-rule="evenodd"/><path d="M83.357,25.643a2.319,2.319,0,1,1,.9,4.19" fill="none" stroke="#1b3c87" stroke-linecap="round" stroke-linejoin="round" stroke-width="0.57"/><path d="M56.017,58.508,72.865,61.2l-4.074,25.51-16.848-2.69Z" fill="#b2c3fb" fill-rule="evenodd"/><path d="M51.161,82.4l4.074-25.51,16.848,2.691L70.771,67.8" fill="none" stroke="#1b3c87" stroke-linecap="round" stroke-linejoin="round" stroke-width="0.57"/><path d="M69.269,77.2l-1.261,7.893-11.49-1.835" fill="none" stroke="#1b3c87" stroke-linecap="round" stroke-linejoin="round" stroke-width="0.57"/><path d="M51.177,79.159c-.767-5.8-.177-9.592,3.125-10.673,1.333-.436.02,8.039-.511,9.434S51.806,77.724,51.177,79.159Z" fill="#fff" fill-rule="evenodd"/><path d="M50.643,72.918c-.366-1.2-.157-3.789,3.972-5.253" fill="none" stroke="#1b3c87" stroke-linecap="round" stroke-linejoin="round" stroke-width="0.57"/><path d="M50.382,76.473c-.366-1.2-.157-3.789,3.972-5.252" fill="none" stroke="#1b3c87" stroke-linecap="round" stroke-linejoin="round" stroke-width="0.57"/><path d="M50.617,79.53c-.366-1.2-.157-3.79,3.972-5.253" fill="none" stroke="#1b3c87" stroke-linecap="round" stroke-linejoin="round" stroke-width="0.57"/><path d="M82.539,26.654a2.329,2.329,0,0,1,.819-1.011" fill="none" stroke="#1b3c87" stroke-linecap="round" stroke-linejoin="round" stroke-width="0.57"/><path d="M107.2,73.58a3.42,3.42,0,0,1-.369,1.228c-1.4,2.411-5.047,5.616-8.286,4.791S79.739,64.693,78.353,64.086" fill="none" stroke="#1b3c87" stroke-linecap="round" stroke-linejoin="round" stroke-width="0.57"/><path d="M104.928,60.174a50.369,50.369,0,0,1,1.779,7.049" fill="none" stroke="#1b3c87" stroke-linecap="round" stroke-linejoin="round" stroke-width="0.57"/><path d="M79.858,60.3c-1.147-3.22-3.618-2.337-6.025-.238" fill="none" stroke="#1b3c87" stroke-linecap="round" stroke-linejoin="round" stroke-width="0.57"/><path d="M77.2,60.717a6.091,6.091,0,0,0-3.109,1.239" fill="none" stroke="#1b3c87" stroke-linecap="round" stroke-linejoin="round" stroke-width="0.57"/><path d="M77.687,62.725a8.081,8.081,0,0,0-2.829,1.017" fill="none" stroke="#1b3c87" stroke-linecap="round" stroke-linejoin="round" stroke-width="0.57"/><path d="M93.131,45.437c7.523-2.557,14.757,13.694,14.4,15.4s-12.2,5.14-13.561,4.064S88.774,46.919,93.131,45.437Z" fill="#46dbc9" fill-rule="evenodd"/><path d="M95.994,63.837c-1.467.245-2.6.284-2.971-.006-.6-.473-1.677-4-2.326-7.938" fill="none" stroke="#1b3c87" stroke-linecap="round" stroke-linejoin="round" stroke-width="0.57"/><path d="M94.56,44.15c6.6.949,12.341,14.094,12.024,15.616-.193.929-3.806,2.375-7.27,3.32" fill="none" stroke="#1b3c87" stroke-linecap="round" stroke-linejoin="round" stroke-width="0.57"/><path d="M98.02,113.973l.025-26.014-31.138-.2-.11,26.212Z" fill="#3c3744" fill-rule="evenodd"/></g></g></svg>