<svg xmlns="http://www.w3.org/2000/svg" xmlns:xlink="http://www.w3.org/1999/xlink" width="130" height="130" viewBox="0 0 130 130"><defs><clipPath id="a"><circle cx="65" cy="65" r="65" transform="translate(1033 8987)" fill="#fff" stroke="#707070" stroke-width="1"/></clipPath></defs><g transform="translate(-1033 -8987)" clip-path="url(#a)"><g transform="translate(1033.132 8987)"><path d="M100.936,29.256c13.03,11.4,27.289,23.222,28.679,36.4C131.04,78.861,119.533,93.427,106.5,101.6s-27.6,9.941-45.122,12.827c-17.485,2.919-37.89,6.986-49.7-1.182S-3.376,84.666,3.993,71.635,29.361,52.965,41.18,41.527C53,30.126,58.63,12.954,67.356,9.893,76.082,6.8,87.9,17.855,100.936,29.256" fill="#f2f2f2"/><rect width="39.587" height="29.973" transform="translate(79.575 5.202)" fill="#d7e0ff"/><rect width="11.592" height="20.783" transform="translate(100.947 10.837)" fill="#eaf0ff"/><path d="M97.13,15.409a4.781,4.781,0,1,1-4.78-4.779,4.781,4.781,0,0,1,4.78,4.779" fill="#fb5d64"/><path d="M119.64,66.439a11.694,11.694,0,1,1-11.694-11.694A11.694,11.694,0,0,1,119.64,66.439" fill="#fff"/><rect width="25.058" height="25.058" transform="translate(101.827 44.719)" fill="none" stroke="#b2c3fb" stroke-linecap="round" stroke-linejoin="round" stroke-width="0.493"/><path d="M60.742,129.7h62.176" fill="none" stroke="#1b3c87" stroke-linecap="round" stroke-linejoin="round" stroke-width="0.607"/><path d="M.3,129.7H46.119" fill="none" stroke="#1b3c87" stroke-linecap="round" stroke-linejoin="round" stroke-width="0.607"/><path d="M71.8,45.168,71.548,46.4l-1.71.533s-.847-2.641-.964-3.238c-.822.613-5.562,1.942-6.379,2.061-.113-.636-.113-6.152,4.485-6.152,4.05,0,5.866,4.057,5.973,4.532-.237.138-1.151.477-1.151,1.038" fill="#eecb55"/><path d="M72.939,55.787c-1.028,0-8.487,7.527-8.793,9.1l-2.4,12.431,12.444-3.481.73-15.833-1.773-2.223Z" fill="#46dbc9"/><path d="M57.568,77.643c-.021-.867,7.122-23.42,7.928-24.186a2.676,2.676,0,0,1,2.034-.789,4.3,4.3,0,0,1,2.422,1.672,5.265,5.265,0,0,1-2.1,2.266L64.973,74.419Z" fill="#fff"/><path d="M66.274,91.167,76.6,103.947l-5.008,5.034L56.435,95.731,60.02,90.8Z" fill="#3c3744"/><path d="M63.554,114.042c-1.391-1.265-17.713-21.6-17.713-24.112,0-5.609,6.364-7.6,8.1-8.035,2.393-.217,13.006-1.105,14.676-1.036,1.2,1.3,15.182,4.314,17.208,4.054,0,1.015-1.612,8.109-13.044,8.109-1.2,0-10.211-.36-10.379-.36,0,2.11,5.777,15.843,6.328,16.774" fill="#3c3744"/><path d="M78.345,52.11C87.6,52.11,89.6,68.8,89.6,73.541c0,6.04-2.45,10.867-3.618,11.319C82.677,86.132,70.537,81.968,69.767,80c-3.753-9.6,2.424-27.886,8.584-27.886" fill="#46dbc9"/><path d="M70.445,40.682a8.417,8.417,0,0,1,1.871,2.436q.122.237.227.474" fill="none" stroke="#1b3c87" stroke-linecap="round" stroke-linejoin="round" stroke-width="0.607"/><path d="M62.791,48.02c-1.728-3.358-1-7.177,1.635-8.53a4.468,4.468,0,0,1,2.773-.416" fill="none" stroke="#1b3c87" stroke-linecap="round" stroke-linejoin="round" stroke-width="0.607"/><path d="M71.926,50.681a4.328,4.328,0,0,1-1.245.967,5.324,5.324,0,0,1-5.787-.995" fill="none" stroke="#1b3c87" stroke-linecap="round" stroke-linejoin="round" stroke-width="0.607"/><path d="M71.216,44.58a1.577,1.577,0,1,1,1.472,2.159A1.551,1.551,0,0,1,72,46.574" fill="none" stroke="#1b3c87" stroke-linecap="round" stroke-linejoin="round" stroke-width="0.607"/><path d="M72.548,56.108c-.232-.83-1.066-3.389-2.107-4.346" fill="none" stroke="#1b3c87" stroke-linecap="round" stroke-linejoin="round" stroke-width="0.607"/><path d="M73.378,47.134a24.214,24.214,0,0,0,3.934,5.507c-.043.469-.965,1.375-2,2.138" fill="none" stroke="#1b3c87" stroke-linecap="round" stroke-linejoin="round" stroke-width="0.607"/><path d="M69.673,46.211l1.288-.4.255-1.228" fill="none" stroke="#1b3c87" stroke-linecap="round" stroke-linejoin="round" stroke-width="0.607"/><path d="M66.21,43.961a9.939,9.939,0,0,0,2.077-.86c.084.434.556,1.95.806,2.743" fill="none" stroke="#1b3c87" stroke-linecap="round" stroke-linejoin="round" stroke-width="0.607"/><path d="M61.906,45.162c.316-.046,1.212-.271,2.243-.566" fill="none" stroke="#1b3c87" stroke-linecap="round" stroke-linejoin="round" stroke-width="0.607"/><path d="M71.331,80.943a5.312,5.312,0,0,1-2.394-1.771A22.862,22.862,0,0,1,68.007,68.6" fill="none" stroke="#1b3c87" stroke-linecap="round" stroke-linejoin="round" stroke-width="0.607"/><path d="M87.5,63.194a43.486,43.486,0,0,1,1.281,9.523c0,6.042-2.45,10.869-3.618,11.319-1.551.6-5.04,0-8.387-1.01" fill="none" stroke="#1b3c87" stroke-linecap="round" stroke-linejoin="round" stroke-width="0.607"/><path d="M76.292,51.523a3.454,3.454,0,0,1,1.23-.237,7.585,7.585,0,0,1,5.9,2.96" fill="none" stroke="#1b3c87" stroke-linecap="round" stroke-linejoin="round" stroke-width="0.607"/><path d="M69.853,60.615a26.846,26.846,0,0,1,2.467-5.246" fill="none" stroke="#1b3c87" stroke-linecap="round" stroke-linejoin="round" stroke-width="0.607"/><path d="M64.1,53.856a5.648,5.648,0,0,1,.574-1.224,2.676,2.676,0,0,1,2.034-.789,4.3,4.3,0,0,1,2.422,1.672" fill="none" stroke="#1b3c87" stroke-linecap="round" stroke-linejoin="round" stroke-width="0.607"/><path d="M58.759,69.777c1.212-3.874,2.751-8.612,3.965-12.128" fill="none" stroke="#1b3c87" stroke-linecap="round" stroke-linejoin="round" stroke-width="0.607"/><path d="M56.744,76.7a22.341,22.341,0,0,1,.648-2.454" fill="none" stroke="#1b3c87" stroke-linecap="round" stroke-linejoin="round" stroke-width="0.607"/><path d="M66.983,53.332a3.882,3.882,0,0,1,1.645,1.092" fill="none" stroke="#1b3c87" stroke-linecap="round" stroke-linejoin="round" stroke-width="0.607"/><path d="M66,54.58a3.891,3.891,0,0,1,1.645,1.092" fill="none" stroke="#1b3c87" stroke-linecap="round" stroke-linejoin="round" stroke-width="0.607"/><path d="M64.151,73.5c.028-.789,1.973-14.4,2.834-17.078" fill="none" stroke="#1b3c87" stroke-linecap="round" stroke-linejoin="round" stroke-width="0.607"/><path d="M68.33,58.071a15.6,15.6,0,0,1,3.812-3.215" fill="none" stroke="#1b3c87" stroke-linecap="round" stroke-linejoin="round" stroke-width="0.607"/><path d="M30.573,64.958l7.565,12.294" fill="none" stroke="#1b3c87" stroke-linecap="round" stroke-linejoin="round" stroke-width="0.607"/><path d="M85,84.089C85,85.1,83.392,92.2,71.958,92.2c-1.2,0-10.211-.36-10.379-.36,0,2.11,5.777,15.843,6.328,16.774" fill="none" stroke="#1b3c87" stroke-linecap="round" stroke-linejoin="round" stroke-width="0.607"/><path d="M53.118,81.075c-1.679.628-8.1,2.426-8.1,8.035,0,2.516,16.319,22.847,17.713,24.112" fill="none" stroke="#1b3c87" stroke-linecap="round" stroke-linejoin="round" stroke-width="0.607"/><path d="M61.914,114.13,69.4,109.36" fill="none" stroke="#1b3c87" stroke-linecap="round" stroke-linejoin="round" stroke-width="0.607"/><path d="M62.73,115.445l7.718-4.675" fill="none" stroke="#1b3c87" stroke-linecap="round" stroke-linejoin="round" stroke-width="0.607"/><path d="M65.817,103.823l4.8,4.333" fill="none" stroke="#1b3c87" stroke-linecap="round" stroke-linejoin="round" stroke-width="0.607"/><path d="M68.631,94.259l7.137,8.866" fill="none" stroke="#1b3c87" stroke-linecap="round" stroke-linejoin="round" stroke-width="0.607"/><path d="M76.6,102.488l-6.307,6.129" fill="none" stroke="#1b3c87" stroke-linecap="round" stroke-linejoin="round" stroke-width="0.607"/><path d="M77.391,103.67,71.084,109.8" fill="none" stroke="#1b3c87" stroke-linecap="round" stroke-linejoin="round" stroke-width="0.607"/><path d="M27.153,124.247v5.45" fill="none" stroke="#1b3c87" stroke-linecap="round" stroke-linejoin="round" stroke-width="0.607"/><path d="M27.153,81.075V114.13" fill="none" stroke="#1b3c87" stroke-linecap="round" stroke-linejoin="round" stroke-width="0.607"/><path d="M52.32,81.075V129.7" fill="none" stroke="#1b3c87" stroke-linecap="round" stroke-linejoin="round" stroke-width="0.607"/><path d="M81.588,56.149c4.406,1.533,2.163,10.969.923,11.288S73.794,64.8,73.561,64s2.881-9.645,8.027-7.853" fill="#46dbc9"/><path d="M75.995,56.716a4.439,4.439,0,0,1,4.769-1.391c4.406,1.533,2.163,10.969.921,11.288s-8.716-2.639-8.949-3.435a4.324,4.324,0,0,1,.375-1.664" fill="none" stroke="#1b3c87" stroke-linecap="round" stroke-linejoin="round" stroke-width="0.607"/><path d="M74.076,64.465c-.358.526-2.343,6.945-2.343,6.945s-14.023,6.047-14.722,6.359a3.438,3.438,0,0,0-2.8-.987c-3.116,0-3.656,2.067-3.656,2.511s4.738,1.431,6.009,1.4,19.047-2.735,19.682-3.052,4.889-10.36,4.889-10.36c-1.151-.061-6.458-1.7-7.06-2.814" fill="#fff"/><path d="M65.235,78.542c-4.486.686-8.88,1.316-9.494,1.329-1.271.033-6.009-.954-6.009-1.4s.539-2.511,3.656-2.511a3.421,3.421,0,0,1,2.8.987c.7-.317,14.722-6.359,14.722-6.359s1.985-6.414,2.343-6.945" fill="none" stroke="#1b3c87" stroke-linecap="round" stroke-linejoin="round" stroke-width="0.607"/><path d="M80.312,66.455S76.059,76.5,75.423,76.815c-.181.09-1.748.375-3.927.733" fill="none" stroke="#1b3c87" stroke-linecap="round" stroke-linejoin="round" stroke-width="0.607"/><rect width="27.139" height="2.518" transform="translate(68.055 92.563)" fill="#8088dc"/><path d="M84.214,94.259H67.23V91.741H94.364v2.518H89.6" fill="none" stroke="#1b3c87" stroke-linecap="round" stroke-linejoin="round" stroke-width="0.607"/><rect width="41.292" height="2.072" transform="translate(19.797 79.705)" fill="#8088dc"/><path d="M30.573,79h29.81v2.075H19.091V79h6.354" fill="none" stroke="#1b3c87" stroke-linecap="round" stroke-linejoin="round" stroke-width="0.607"/><rect width="14.542" height="1.743" transform="translate(38.847 77.962)" fill="#fb5d64"/><rect width="14.542" height="1.743" transform="translate(38.141 77.256)" fill="none" stroke="#1b3c87" stroke-linecap="round" stroke-linejoin="round" stroke-width="0.607"/><path d="M64.148,115.911l4.769,5.215-2.608,7.236,8-6.221-4.638-9.566" fill="#fff"/><path d="M71.622,117.471l-2.778-5.726" fill="none" stroke="#1b3c87" stroke-linecap="round" stroke-linejoin="round" stroke-width="0.607"/><path d="M63.325,115.087l4.769,5.215-2.607,7.236,8-6.221-.816-1.677" fill="none" stroke="#1b3c87" stroke-linecap="round" stroke-linejoin="round" stroke-width="0.607"/><path d="M77.215,105.465l2.656,4.509,1.834.954-3.49,8.1-.8-5.1-4.6-4.2" fill="#fff"/><path d="M73.181,109.985l-1.176-1.074" fill="none" stroke="#1b3c87" stroke-linecap="round" stroke-linejoin="round" stroke-width="0.607"/><path d="M76.391,104.642l2.656,4.508,1.834.955-3.49,8.1-.8-5.1-.987-.9" fill="none" stroke="#1b3c87" stroke-linecap="round" stroke-linejoin="round" stroke-width="0.607"/><path d="M74.238,94.259v35.193" fill="none" stroke="#1b3c87" stroke-linecap="round" stroke-linejoin="round" stroke-width="0.607"/><path d="M87.363,107.691v21.765" fill="none" stroke="#1b3c87" stroke-linecap="round" stroke-linejoin="round" stroke-width="0.607"/><path d="M87.363,94.259v7.413" fill="none" stroke="#1b3c87" stroke-linecap="round" stroke-linejoin="round" stroke-width="0.607"/><path d="M66.309,45.8c.081.28.268.47.419.426s.21-.3.13-.582-.266-.47-.419-.421-.209.3-.13.582" fill="#1b3c87"/><path d="M64.483,48.875a1.341,1.341,0,0,1-.1.3" fill="none" stroke="#1b3c87" stroke-linecap="round" stroke-linejoin="round" stroke-width="0.516"/><path d="M64.309,47.245a3.642,3.642,0,0,1,.214,1.13" fill="none" stroke="#1b3c87" stroke-linecap="round" stroke-linejoin="round" stroke-width="0.516"/><path d="M68.808,48.717a1.509,1.509,0,0,1-.709,1.275" fill="none" stroke="#1b3c87" stroke-linecap="round" stroke-linejoin="round" stroke-width="0.516"/><rect width="43.322" height="13.071" transform="translate(3.45 41.84)" fill="#d7e0ff"/><path d="M43.045,48.309A3.815,3.815,0,1,1,39.231,44.5a3.815,3.815,0,0,1,3.815,3.814" fill="#b2c3fb"/><path d="M32.024,46.1H10.49" fill="none" stroke="#eaf0ff" stroke-linecap="round" stroke-linejoin="round" stroke-width="0.607"/><path d="M32.024,50.523H20.614" fill="none" stroke="#eaf0ff" stroke-linecap="round" stroke-linejoin="round" stroke-width="0.607"/><rect width="25.747" height="32.67" transform="translate(35.834)" fill="#eaf0ff"/><path d="M45.841,11.714l7.548,17.743,15.845-11Z" fill="none" stroke="#b2c3fb" stroke-linecap="round" stroke-linejoin="round" stroke-width="0.493"/><rect width="14.825" height="6.192" transform="translate(8.551 16.424)" fill="#eaf0ff"/><rect width="14.825" height="6.192" transform="translate(1.653 24.077)" fill="#eaf0ff"/></g></g></svg>