<svg xmlns="http://www.w3.org/2000/svg" xmlns:xlink="http://www.w3.org/1999/xlink" width="130" height="130" viewBox="0 0 130 130"><defs><clipPath id="a"><circle cx="65" cy="65" r="65" transform="translate(540 8677)" fill="#fff" stroke="#707070" stroke-width="1"/></clipPath></defs><g transform="translate(-540 -8677)" clip-path="url(#a)"><g transform="translate(539.967 8680.823)"><path d="M117.585,10.317c8.567,10.637,5.951,30.444,4.544,48.844s-1.524,35.4-10.091,46.944c-8.6,11.557-25.586,17.623-40.937,15.983-15.351-1.667-29.035-11.068-42.542-22.625S1.7,74.233,2.1,60.942s14.547-26.161,28.059-36.8S56.553,5.114,72.878,1.664s36.147-1.982,44.707,8.653" fill="#f7f7f7"/><rect width="103.248" height="74.89" transform="translate(13.426 25.055)" fill="#d7e0ff"/><rect width="103.248" height="8.212" transform="translate(13.426 25.055)" fill="#eaf0ff"/><path d="M98.122,29.161a2.043,2.043,0,1,1-2.041-2.041,2.043,2.043,0,0,1,2.041,2.041" fill="#fb5d64"/><path d="M105.97,29.161a2.043,2.043,0,1,1-2.043-2.041,2.043,2.043,0,0,1,2.043,2.041" fill="#fb5d64"/><path d="M113.817,29.161a2.04,2.04,0,1,1,.007,0" fill="#fb5d64"/><path d="M103.83,43.126c-1.075,0-1.359,2.132-3.272,2.132H89.275V56.6H107.32V43.126Z" fill="#f4f7ff"/><path d="M80.809,43.126c-1.075,0-1.359,2.132-3.272,2.132H66.254V56.6H84.3V43.126Z" fill="#f4f7ff"/><path d="M54.516,45.258H43.231V56.6H61.278V43.126H57.787c-1.073,0-1.357,2.132-3.272,2.132" fill="#f4f7ff"/><path d="M84.072,66.459,79.728,82.275l14.28-2.768Z" fill="none" stroke="#eaf0ff" stroke-linecap="round" stroke-linejoin="round" stroke-width="0.517"/><circle cx="5.51" cy="5.51" r="5.51" transform="translate(60.107 95.188)" fill="none" stroke="#eaf0ff" stroke-linecap="round" stroke-linejoin="round" stroke-width="0.517"/><circle cx="2.93" cy="2.93" r="2.93" transform="translate(69.838 88.846)" fill="none" stroke="#eaf0ff" stroke-linecap="round" stroke-linejoin="round" stroke-width="0.517"/><path d="M39.959,18.455,56.18,21.9,35.536,37.4Z" fill="none" stroke="#b2c3fb" stroke-linecap="round" stroke-linejoin="round" stroke-width="0.517"/><rect width="29.475" height="43.712" transform="translate(100.558 63.705)" fill="#eaf0ff"/><path d="M124.485,77.161a9.19,9.19,0,1,1-9.19-9.19,9.19,9.19,0,0,1,9.19,9.19" fill="#cbd7ff"/><rect width="22.904" height="5.034" transform="translate(103.844 90.548)" fill="#b2c3fb"/><rect width="22.904" height="5.034" transform="translate(103.844 99.149)" fill="#b2c3fb"/><path d="M6.545,95.9c-.045.99-.775,8.078-1.667,10.754,2.988-.394,19.273-3.617,24.172-6.448-.389-2.649-21.073-4.581-22.5-4.306" fill="#3c3744"/><path d="M16.252,42.887a4.426,4.426,0,1,1-4.426-4.426,4.426,4.426,0,0,1,4.426,4.426" fill="#eecb55"/><path d="M30.091,50.561c.315-.148.773-1.145.773-2.623,0-3.674-2.79-5.4-7.253-5.4a9.855,9.855,0,0,0-9.128,5.536c-1.748,3.248-2.46,10.42-3.918,13-.923,1.631-2.881,4.935-4.385,8.042-.565.789-3.405,6.807.932,8.784s24.476,1.164,25.012.315-2.475-6.914-3.465-8.142-2.411-2.79-1.6-8.831.078-9.6.772-9.888a10.545,10.545,0,0,0,2.263-.8" fill="#eecb55"/><path d="M18.9,54.788a1.879,1.879,0,1,1-1.879-1.879A1.879,1.879,0,0,1,18.9,54.788" fill="#fff"/><path d="M5.832,95.188c-.045.99-.775,8.078-1.667,10.754" fill="none" stroke="#1b3c87" stroke-linecap="round" stroke-linejoin="round" stroke-width="0.636"/><path d="M47.465,65.9c1.455-2.3,1.033-4.962.408-4.144-.208.274-2.928,5.784-3.471,6.343h0a1.754,1.754,0,0,0-.9.184c-.551.448-.344,3.586-.551,3.862S34.883,84.5,34.537,84.874c-.034.138-1.033-4.516-1.338-5.339a17.466,17.466,0,0,1-3.329,1.946c.067.532.4,7.112,0,9.249.334.661,2.353,2.666,3.21,2.666a8.665,8.665,0,0,0,3.87-.954c1.927-1.323,9.364-18.4,9.909-18.758a9.475,9.475,0,0,0,3.15-4.73c0-.689.565-1.138-2.549-3.055" fill="#fff"/><path d="M25.51,68.26c4.852-1.585,9.266,9.432,8.922,10.32s-5.243,3.545-6.311,3.4-4.5-13.112-2.611-13.727" fill="#46dbc9"/><path d="M24.8,67.549c4.852-1.585,9.266,9.433,8.922,10.32s-5.243,3.545-6.311,3.407S22.907,68.164,24.8,67.549Z" fill="none" stroke="#1b3c87" stroke-linecap="round" stroke-linejoin="round" stroke-width="0.636"/><path d="M19.669,65.506C33.4,65.828,29.933,96.5,29.3,97.594c-.849,1.474-18.429,2.813-22.621-1.3-.97-.951-.048-31.092,12.988-30.787" fill="#46dbc9"/><path d="M17.366,64.915a7.879,7.879,0,0,1,1.591-.119c4.22.1,6.815,3.062,8.369,7.155" fill="none" stroke="#1b3c87" stroke-linecap="round" stroke-linejoin="round" stroke-width="0.636"/><path d="M29.349,83.048c.372,6.953-.477,13.345-.758,13.834-.849,1.474-18.429,2.813-22.621-1.3-.882-.861-.2-25.894,9.75-30.17" fill="none" stroke="#1b3c87" stroke-linecap="round" stroke-linejoin="round" stroke-width="0.636"/><path d="M28.936,47.168c.028,1.705-11.858,3.319-11.924,5.741s-.105,3.82-.105,3.82c.425,2.258-.5,10.241-.756,11.075,1,.928,6,.861,6.545.3a35.985,35.985,0,0,1,.083-4.823h0a4.837,4.837,0,0,0,.634.043c3.825,0,6.927-4.514,6.927-10.084,0-2.911-.048-3.681-1.4-6.076" fill="#fff"/><path d="M12.582,66.438C17.9,68.09,14.716,80.97,13.7,81.478S2.725,79.14,2.522,78.023s3.286-13.691,10.06-11.585" fill="#46dbc9"/><path d="M14.86,72.365c-.043,3.915-1.3,8.116-1.872,8.4-1.016.508-10.975-2.337-11.178-3.455a10.967,10.967,0,0,1,.766-3.288" fill="none" stroke="#1b3c87" stroke-linecap="round" stroke-linejoin="round" stroke-width="0.636"/><path d="M5.377,68.529c1.629-2.16,3.8-3.639,6.493-2.8a3.238,3.238,0,0,1,.627.267" fill="none" stroke="#1b3c87" stroke-linecap="round" stroke-linejoin="round" stroke-width="0.636"/><path d="M37.606,78.508c2.186-3.328,4.528-6.912,4.64-7.062.207-.276,0-3.414.551-3.862s4.065,0,4.065.4-1.435,1.722-1.786,1.821" fill="none" stroke="#1b3c87" stroke-linecap="round" stroke-linejoin="round" stroke-width="0.636"/><path d="M32.53,78.941c.3.825,1.266,5.37,1.3,5.233.088-.1.665-.954,1.48-2.181" fill="none" stroke="#1b3c87" stroke-linecap="round" stroke-linejoin="round" stroke-width="0.636"/><path d="M46.753,65.193c1.455-2.3,1.033-4.962.408-4.144-.208.274-2.928,5.784-3.471,6.343" fill="none" stroke="#1b3c87" stroke-linecap="round" stroke-linejoin="round" stroke-width="0.636"/><path d="M47.239,65.794c-.195.369-1.087,1.855-1.087,1.855" fill="none" stroke="#1b3c87" stroke-linecap="round" stroke-linejoin="round" stroke-width="0.636"/><path d="M48.193,66.381a17.926,17.926,0,0,1-1.331,2.47" fill="none" stroke="#1b3c87" stroke-linecap="round" stroke-linejoin="round" stroke-width="0.636"/><path d="M49.049,67.022a23.12,23.12,0,0,1-1.523,2.783" fill="none" stroke="#1b3c87" stroke-linecap="round" stroke-linejoin="round" stroke-width="0.636"/><path d="M46.743,72.49a4.193,4.193,0,0,1-.591.487c-.544.357-7.981,17.435-9.909,18.76a8.693,8.693,0,0,1-3.87.952c-.861,0-2.692-1.722-3.024-2.379" fill="none" stroke="#1b3c87" stroke-linecap="round" stroke-linejoin="round" stroke-width="0.636"/><path d="M49.3,68.248a6.639,6.639,0,0,1-.963,2.227" fill="none" stroke="#1b3c87" stroke-linecap="round" stroke-linejoin="round" stroke-width="0.636"/><path d="M28.074,58.913c-1.271,2.261-3.2,3.7-5.365,3.7a5.477,5.477,0,0,1-3.75-1.6" fill="none" stroke="#1b3c87" stroke-linecap="round" stroke-linejoin="round" stroke-width="0.636"/><path d="M28.228,46.457a13.262,13.262,0,0,1,1.4,6.075,14.3,14.3,0,0,1-.344,3.161" fill="none" stroke="#1b3c87" stroke-linecap="round" stroke-linejoin="round" stroke-width="0.636"/><path d="M17.366,55.617a1.876,1.876,0,1,1-.334-3.272" fill="none" stroke="#1b3c87" stroke-linecap="round" stroke-linejoin="round" stroke-width="0.636"/><path d="M23.092,51.958c0,.4-.172.722-.393.722s-.391-.324-.391-.722.172-.723.391-.723.393.324.393.723" fill="#1b3c87"/><path d="M26.669,55.332a1.838,1.838,0,0,0,.241.362" fill="none" stroke="#1b3c87" stroke-linecap="round" stroke-linejoin="round" stroke-width="0.636"/><path d="M26.285,53.11a4.95,4.95,0,0,0,.143,1.574" fill="none" stroke="#1b3c87" stroke-linecap="round" stroke-linejoin="round" stroke-width="0.636"/><path d="M20.889,56.758a2.074,2.074,0,0,0,1.417,1.417" fill="none" stroke="#1b3c87" stroke-linecap="round" stroke-linejoin="round" stroke-width="0.636"/><path d="M21.984,67.392a35.985,35.985,0,0,1,.083-4.823" fill="none" stroke="#1b3c87" stroke-linecap="round" stroke-linejoin="round" stroke-width="0.636"/><path d="M15.921,63.7a29.368,29.368,0,0,1-.479,3.388,4.976,4.976,0,0,0,2.549.665" fill="none" stroke="#1b3c87" stroke-linecap="round" stroke-linejoin="round" stroke-width="0.636"/><path d="M16.2,56.02a21.652,21.652,0,0,1,0,4.466" fill="none" stroke="#1b3c87" stroke-linecap="round" stroke-linejoin="round" stroke-width="0.636"/><path d="M7.838,45.151a4.425,4.425,0,0,1,1.941-7.2" fill="none" stroke="#1b3c87" stroke-linecap="round" stroke-linejoin="round" stroke-width="0.636"/><path d="M15.193,40.455a4.43,4.43,0,0,1-5.131,6.028" fill="none" stroke="#1b3c87" stroke-linecap="round" stroke-linejoin="round" stroke-width="0.636"/><path d="M26.557,42.337a4.806,4.806,0,0,1,3.6,4.89c0,1.478-.458,2.475-.775,2.623" fill="none" stroke="#1b3c87" stroke-linecap="round" stroke-linejoin="round" stroke-width="0.636"/><path d="M11.114,56.628c.779-3.14,1.483-7.087,2.654-9.27a9.783,9.783,0,0,1,8.539-5.512" fill="none" stroke="#1b3c87" stroke-linecap="round" stroke-linejoin="round" stroke-width="0.636"/><path d="M5.468,68.408c1.033-2.137,2.284-4.37,3.272-6.083" fill="none" stroke="#1b3c87" stroke-linecap="round" stroke-linejoin="round" stroke-width="0.636"/><path d="M26.233,65.994a5.143,5.143,0,0,0,.344,1.56" fill="none" stroke="#1b3c87" stroke-linecap="round" stroke-linejoin="round" stroke-width="0.636"/><path d="M26.271,61.176a15.728,15.728,0,0,0-.143,3.243" fill="none" stroke="#1b3c87" stroke-linecap="round" stroke-linejoin="round" stroke-width="0.636"/><path d="M28.691,45.334c0,3.57-12.387,3.893-12.387,6.864" fill="none" stroke="#1b3c87" stroke-linecap="round" stroke-linejoin="round" stroke-width="0.636"/><path d="M34.91,97.551c1.194.2,1.874-1.765,2.6-1.66a19.982,19.982,0,0,1,3.179.577,10,10,0,0,1-.3,2" fill="#eaf0ff"/><rect width="11.364" height="18.302" transform="translate(20.454 106.639) rotate(-80.45)" fill="#eaf0ff"/><path d="M38.639,103.93l-.847,5.036-10.465-1.76" fill="none" stroke="#1b3c87" stroke-linecap="round" stroke-linejoin="round" stroke-width="0.636"/><path d="M39.678,97.761l-.355,2.106" fill="none" stroke="#1b3c87" stroke-linecap="round" stroke-linejoin="round" stroke-width="0.636"/><path d="M21.388,106.207l-1.645-.282,1.895-11.207L37.006,97.3" fill="none" stroke="#1b3c87" stroke-linecap="round" stroke-linejoin="round" stroke-width="0.636"/><path d="M34.2,96.839c1.194.2,1.876-1.765,2.6-1.66a19.982,19.982,0,0,1,3.179.577,10,10,0,0,1-.3,2" fill="none" stroke="#1b3c87" stroke-linecap="round" stroke-linejoin="round" stroke-width="0.636"/><rect width="4.852" height="2.659" transform="translate(34.197 103.604) rotate(-80.45)" fill="#fb5d64"/><path d="M23.185,97.761l10.3,1.733" fill="none" stroke="#1b3c87" stroke-linecap="round" stroke-linejoin="round" stroke-width="0.636"/><path d="M31.566,101.421l1.533.258" fill="none" stroke="#1b3c87" stroke-linecap="round" stroke-linejoin="round" stroke-width="0.636"/><path d="M22.8,99.946l5.92,1" fill="none" stroke="#1b3c87" stroke-linecap="round" stroke-linejoin="round" stroke-width="0.636"/><path d="M34.375,98.245c-.269-2.067-.89-4.261-5.284-4.072C28.5,93.7,16.957,90.424,10,88.619a40.765,40.765,0,0,0,1.8-7.234c-.517-.1-8.142-2.442-8.142-2.442S.47,92.273,1.163,93.388c4.266,2.718,20.27,4.676,27.5,4.168.506.4.437.648,1.156.749s4.561-.06,4.561-.06" fill="#fff"/><path d="M20.606,91a72.167,72.167,0,0,1,7.771,2.461c4.4-.189,5.017,2,5.286,4.072" fill="none" stroke="#1b3c87" stroke-linecap="round" stroke-linejoin="round" stroke-width="0.636"/><path d="M11.089,80.68a41.366,41.366,0,0,1-1.8,7.234c2.422.625,5.4,1.43,8.278,2.239" fill="none" stroke="#1b3c87" stroke-linecap="round" stroke-linejoin="round" stroke-width="0.636"/><path d="M29.859,95.591a6.252,6.252,0,0,1,.215,2.179" fill="none" stroke="#1b3c87" stroke-linecap="round" stroke-linejoin="round" stroke-width="0.636"/><path d="M31.185,95.591a6.171,6.171,0,0,1,.215,2.179" fill="none" stroke="#1b3c87" stroke-linecap="round" stroke-linejoin="round" stroke-width="0.636"/><path d="M32.255,95.591a6.214,6.214,0,0,1,.214,2.179" fill="none" stroke="#1b3c87" stroke-linecap="round" stroke-linejoin="round" stroke-width="0.636"/><path d="M.629,89.273c-.3,1.857-.429,3.245-.172,3.4,5.965,3.789,23.991,4.382,27.5,4.168" fill="none" stroke="#1b3c87" stroke-linecap="round" stroke-linejoin="round" stroke-width="0.636"/><path d="M2.947,78.238c-.065.231-.68,2.814-1.3,5.737" fill="none" stroke="#1b3c87" stroke-linecap="round" stroke-linejoin="round" stroke-width="0.636"/></g></g></svg>