<svg xmlns="http://www.w3.org/2000/svg" xmlns:xlink="http://www.w3.org/1999/xlink" width="130" height="130" viewBox="0 0 130 130"><defs><clipPath id="a"><circle cx="65" cy="65" r="65" transform="translate(820 8677)" fill="#fff" stroke="#707070" stroke-width="1"/></clipPath></defs><g transform="translate(-820 -8677)" clip-path="url(#a)"><g transform="translate(820 8691.382)"><path d="M117.089,34.054c8.214,6.667,10.536,18.72,8.127,29a36.165,36.165,0,0,1-18.18,23.426c-8.684,4.628-18.954,5.305-28.513,7.831-9.571,2.544-18.432,6.938-28.311,6.918-9.89,0-20.764-4.423-30.39-11.684C10.2,82.319,1.863,72.26,1.44,62.445c-.4-9.806,7.119-19.379,12.353-29.189C19.038,23.421,21.981,13.308,29,6.973S47.106-1.97,56.408,1.654s16.811,13.407,27.6,18.938C94.811,26.137,108.884,27.425,117.089,34.054Z" fill="#f1f1f1"/><rect width="127.473" height="81.239" transform="translate(0 7.639)" fill="#eaf0ff"/><path d="M126.414,84.761l1.628,2.544L130,88.956l-5.464,6.155,1.155-5.549-2.146-1.992Z" fill="#fff"/><path d="M105.421,92.495c.05.4.093,1.4.147,2.078.293.562.462,1.076.689,1.5-.475.561-4.16,3.931-4.425,4.034s-3.734,0-3.734,0c0-.265,1.9-1.491,2.779-2.319.331-.413.88-4.857.88-5.749Z" fill="#fff"/><path d="M117.643,58.951c.126.916.634,12.988.634,14.927.731.889,7.562,9.721,7.562,10.769-.807.911-1.906,1.9-2.574,2.51-.422.388-10.865-10.8-11.056-11.373s-1.652-4-1.652-4.8,3.24-11.405,3.24-11.405Z" fill="#3b3744"/><path d="M117.516,71.092c.031.962.049,1.7.049,2.074.731.889,7.562,9.721,7.562,10.769-.667.678-2.056,1.935-2.574,2.51-.572-.031-10.865-10.8-11.056-11.373s-1.652-4-1.652-4.8,3.24-11.405,3.24-11.405l3.846-.63c.076.554.293,5.2.452,9.209" fill="none" stroke="#1b3c87" stroke-linecap="round" stroke-linejoin="round" stroke-width="0.237"/><path d="M105.574,59.6c-.186,1.031-3.871,32.186-3.871,33.173.431.555,2.918.635,3.35.37s4.3-18.51,4.617-19.578c1.206-.8,6.147-12,6.146-13.7" fill="#3b3744"/><path d="M111.828,39.924c6.17,0,5.958,17.8,5.606,19.094s-12.027,1.468-12.052.46C105.14,50,104.488,39.924,111.828,39.924Z" fill="#46dbc9"/><path d="M107.214,81.74c.9-4.179,1.756-8.261,1.909-8.77,1.2-.8,6.147-12,6.146-13.7" fill="none" stroke="#1b3c87" stroke-linecap="round" stroke-linejoin="round" stroke-width="0.237"/><path d="M103.541,71.089c-1.047,8.751-2.254,19.132-2.254,19.708.763.193,3.112.388,3.647.454a43.556,43.556,0,0,0,1.467-5.775" fill="none" stroke="#1b3c87" stroke-linecap="round" stroke-linejoin="round" stroke-width="0.237"/><path d="M105.027,59c-.044.237-.266,2.009-.584,4.6" fill="none" stroke="#1b3c87" stroke-linecap="round" stroke-linejoin="round" stroke-width="0.237"/><path d="M103.76,97.541a31.592,31.592,0,0,1-2.4,2.09c-.265.1-3.734,0-3.734,0,0-.265,1.9-1.491,2.779-2.319a8.147,8.147,0,0,0,.475-2.055" fill="none" stroke="#1b3c87" stroke-linecap="round" stroke-linejoin="round" stroke-width="0.237"/><path d="M101.137,93.286c.089-.775.146-1.435.146-1.723l3.663.457c.05.4.093,1.4.147,2.078.293.562.462,1.076.689,1.5-.127.148-.475.491-.927.92" fill="none" stroke="#1b3c87" stroke-linecap="round" stroke-linejoin="round" stroke-width="0.237"/><rect width="127.473" height="10.442" transform="translate(0 7.639)" fill="#d7dfff"/><rect width="78.907" height="5.038" transform="translate(26.059 10.341)" fill="#fff"/><rect width="12.724" height="5.038" transform="translate(110.39 10.341)" fill="#b2c3fb"/><circle cx="1.76" cy="1.76" r="1.76" transform="translate(2.727 11.1)" fill="#fb5e64"/><circle cx="1.76" cy="1.76" r="1.76" transform="translate(8.802 11.1)" fill="#fb5e64"/><circle cx="1.76" cy="1.76" r="1.76" transform="translate(14.877 11.1)" fill="#fb5e64"/><rect width="31.268" height="35.539" transform="translate(50.311 60.532) rotate(-80.04)" fill="none" stroke="#b6c6fc" stroke-linecap="round" stroke-linejoin="round" stroke-width="0.816"/><circle cx="17.187" cy="17.187" r="17.187" transform="translate(30.384 43.467)" fill="none" stroke="#b6c6fc" stroke-linecap="round" stroke-linejoin="round" stroke-width="0.816"/><path d="M113.139,59.523c-3.511.281-8.1.11-8.112-.52-.075-2.907-.187-5.871-.1-8.581" fill="none" stroke="#1b3c87" stroke-linecap="round" stroke-linejoin="round" stroke-width="0.237"/><path d="M105.14,47.423c.532-4.638,2.11-7.974,6.333-7.974,6.17,0,5.958,17.8,5.606,19.094-.064.237-.491.43-1.15.593" fill="none" stroke="#1b3c87" stroke-linecap="round" stroke-linejoin="round" stroke-width="0.237"/><path d="M113.139,41.2c0,.585-2.706.533-2.659-.248l.248-4.114h2.411Z" fill="#fff"/><path d="M112.783,40.848c0,.585-2.707.533-2.659-.248l.248-4.114h2.411Z" fill="none" stroke="#1b3c87" stroke-linecap="round" stroke-linejoin="round" stroke-width="0.237"/><ellipse cx="4.533" cy="3.037" rx="4.533" ry="3.037" transform="translate(109.374 37.19) rotate(-77.905)" fill="#fff"/><path d="M109.288,33.978a6.573,6.573,0,0,1,.14-1.558,6.041,6.041,0,0,1,1.2-2.595" fill="none" stroke="#1b3c87" stroke-linecap="round" stroke-linejoin="round" stroke-width="0.237"/><path d="M112.262,37.481a2.1,2.1,0,0,1-.8-.012,2.745,2.745,0,0,1-1.913-1.976" fill="none" stroke="#1b3c87" stroke-linecap="round" stroke-linejoin="round" stroke-width="0.237"/><path d="M113.832,28.548c2.61,0,3.916,2.75,4.509,5.7.475,2.373,1.661,4.39,1.661,6.407,0,3.022-1.978,5.7-4.034,5.7-3.186,0-4.39-3.11-4.39-4.509,0-1.978.593-3.268.593-5.7,0-1.922-1.187-3.352-1.187-6.17C110.984,29.255,112.128,28.548,113.832,28.548Z" fill="#eecb55"/><path d="M111.267,42a3.259,3.259,0,0,1-.045-.519c0-1.978.593-3.268.593-5.7,0-1.922-1.187-3.352-1.187-6.17,0-.712,1.141-1.424,2.848-1.424a3.732,3.732,0,0,1,3.214,2.056" fill="none" stroke="#1b3c87" stroke-linecap="round" stroke-linejoin="round" stroke-width="0.237"/><path d="M118.107,44.65a3.4,3.4,0,0,1-2.492,1.341,4.025,4.025,0,0,1-3.112-1.376" fill="none" stroke="#1b3c87" stroke-linecap="round" stroke-linejoin="round" stroke-width="0.237"/><path d="M118.144,34.579c.538,2.079,1.5,3.9,1.5,5.716a7.054,7.054,0,0,1-.651,2.957" fill="none" stroke="#1b3c87" stroke-linecap="round" stroke-linejoin="round" stroke-width="0.237"/><line x2="5.09" y2="0.635" transform="translate(100.692 90.723)" fill="none" stroke="#1b3c87" stroke-linecap="round" stroke-linejoin="round" stroke-width="0.237"/><line x2="5.089" y2="0.635" transform="translate(100.53 91.469)" fill="none" stroke="#1b3c87" stroke-linecap="round" stroke-linejoin="round" stroke-width="0.237"/><line y1="3.758" x2="3.823" transform="translate(122.09 83.158)" fill="none" stroke="#1b3c87" stroke-linecap="round" stroke-linejoin="round" stroke-width="0.237"/><line y1="3.757" x2="3.823" transform="translate(122.445 83.835)" fill="none" stroke="#1b3c87" stroke-linecap="round" stroke-linejoin="round" stroke-width="0.237"/><path d="M125.072,93.363l-1.13,1.273,1.155-5.549-2.146-1.992,2.87-2.809,1.628,2.544,1.958,1.652-2.691,3.03" fill="none" stroke="#1b3c87" stroke-linecap="round" stroke-linejoin="round" stroke-width="0.237"/><path d="M104.482,39.591A25.137,25.137,0,0,1,102,38.8c-.237-.528-3.282-11.714-3.8-13.872-.327.027-.746.558-.445,1.68-.575.466-1.514,1.4-.057,2.887.064.406,1.885,11.391,2.062,11.628a11.287,11.287,0,0,0,3.306,2.062A7.969,7.969,0,0,1,104.482,39.591Z" fill="#fff"/><path d="M110.745,44.614c.5-1.424-4.143-5.417-5.493-5.525-.79.406-2.686,3.548-2.254,5.091C104.488,45.124,109.92,46.967,110.745,44.614Z" fill="#46dbc9"/><path d="M99.208,29.28c-.568-2.112-1.055-3.962-1.233-4.714-.327.027-.765.356-.465,1.478" fill="none" stroke="#1b3c87" stroke-linecap="round" stroke-linejoin="round" stroke-width="0.237"/><path d="M104.245,39.235a25.136,25.136,0,0,1-2.477-.791c-.119-.274-1-3.423-1.891-6.689" fill="none" stroke="#1b3c87" stroke-linecap="round" stroke-linejoin="round" stroke-width="0.237"/><path d="M98.964,38.381c-.581-3.117-1.335-8.258-1.49-9.248-.533-.447-1.213-1.734-.581-2.291" fill="none" stroke="#1b3c87" stroke-linecap="round" stroke-linejoin="round" stroke-width="0.237"/><path d="M102.6,42.834a10.023,10.023,0,0,1-3.068-2.062,2.184,2.184,0,0,1-.189-.552" fill="none" stroke="#1b3c87" stroke-linecap="round" stroke-linejoin="round" stroke-width="0.237"/><path d="M108.124,45.286c1.085,0,1.97-.307,2.265-1.151.316-.9-1.424-2.83-3.091-4.153" fill="none" stroke="#1b3c87" stroke-linecap="round" stroke-linejoin="round" stroke-width="0.237"/><path d="M104.9,38.61c-.79.406-2.686,3.548-2.254,5.091a10.516,10.516,0,0,0,2.029.912" fill="none" stroke="#1b3c87" stroke-linecap="round" stroke-linejoin="round" stroke-width="0.237"/></g></g></svg>