<svg xmlns="http://www.w3.org/2000/svg" xmlns:xlink="http://www.w3.org/1999/xlink" width="130" height="130" viewBox="0 0 130 130"><defs><clipPath id="a"><circle cx="65" cy="65" r="65" transform="translate(1380 8677)" fill="#fff" stroke="#707070" stroke-width="1"/></clipPath></defs><g transform="translate(-1380 -8677)" clip-path="url(#a)"><g transform="translate(1379.999 8685.296)"><path d="M113.569,52.05c1.169,15.125,5.627,29.1.858,38.109s-18.8,13.046-35.1,17.449c-16.337,4.406-34.944,9.137-49.1,2.529C16.065,103.49,6.4,85.5,9.6,70.925,12.816,56.329,28.926,45.2,40.7,32.9,52.46,20.588,59.911,7.154,71.838,2.206c11.955-4.936,28.4-1.373,35.571,8.539,7.128,9.921,5.009,26.192,6.156,41.3" fill="#f2f2f2"/><rect width="7.245" height="9.644" transform="translate(105.546 96.126)" fill="#d7e0ff"/><rect width="90.515" height="68.499" transform="translate(9.417 16.475)" fill="#d7e0ff"/><path d="M13.833,19.277a1.29,1.29,0,1,1-1.289-1.289,1.29,1.29,0,0,1,1.289,1.289" fill="#fb5d64"/><path d="M18.786,19.277a1.29,1.29,0,1,1-1.29-1.289,1.29,1.29,0,0,1,1.29,1.289" fill="#fb5d64"/><path d="M23.742,19.277a1.289,1.289,0,1,1-1.289-1.289,1.289,1.289,0,0,1,1.289,1.289" fill="#fb5d64"/><rect width="1.821" height="1.821" transform="translate(106.572 99.699)" fill="#fb5d64"/><path d="M107.483,99.7V96.126" fill="#d7e0ff" stroke="#1b3c87" stroke-miterlimit="10" stroke-width="0.306"/><circle cx="2.488" cy="2.488" r="2.488" transform="translate(110.195 98.538)" fill="none" stroke="#d7e0ff" stroke-miterlimit="10" stroke-width="0.918"/><rect width="43.813" height="43.813" transform="matrix(0.5, -0.866, 0.866, 0.5, 49.275, 51.118)" fill="none" stroke="#b2c3fb" stroke-linecap="round" stroke-linejoin="round" stroke-width="0.458"/><path d="M23.271,86.967a1.788,1.788,0,0,0-1.821-1.289,3.648,3.648,0,0,0-1.935.82c.92.2,1.771,1.4,2.338,1.4.591,0,1.417-.334,1.417-.926" fill="#8088dc"/><rect width="12.078" height="3.4" transform="translate(117.923 103.64)" fill="#8088dc"/><path d="M109.636,24.348a9.089,9.089,0,1,0-17.508,0Z" fill="#8088dc"/><path d="M62.548,72.706A5.558,5.558,0,0,1,56.9,78.082c-4.195,0-14.854-18.057-15.186-18.75a5.134,5.134,0,0,1-3.588-3.49c-.084-.3,1.182-2.007,2.566-1.6.324.1-1.069-1.639-1.26-1.939-.435-.682-.176-1.612.038-1.612s2.981,3.762,3.187,3.778a8.282,8.282,0,0,1,1.913.92c.084.159-.011,2.416.3,2.84S55.99,70.164,55.99,70.164a23.159,23.159,0,0,1,1.381-4.449c.177-.315,5.172,3.523,5.172,7" fill="#fff"/><path d="M39.868,54.86c-.23-.315-.381-1.278.363-1.281,2.52-.007,3.829.78,3.829,1.169a11.921,11.921,0,0,0,.208,2.723c.066.114,1.135,1.293,2.583,2.868.657.747,1.738,1.885,1.738,1.885,2.945,3.188,6.366,6.864,6.675,7.2a24.782,24.782,0,0,1,1.213-3.858" fill="none" stroke="#1b3c87" stroke-linecap="round" stroke-linejoin="round" stroke-width="0.565"/><path d="M49.409,71.368c-3.925-5.158-7.9-11.893-8.422-12.724" fill="none" stroke="#1b3c87" stroke-linecap="round" stroke-linejoin="round" stroke-width="0.565"/><path d="M61.054,74.384c-.256.677-1.445,2.966-5.047,2.966a4.372,4.372,0,0,1-2.475-1.326" fill="none" stroke="#1b3c87" stroke-linecap="round" stroke-linejoin="round" stroke-width="0.565"/><path d="M65.105,47.4C64.843,45.9,63.7,42.774,63.7,40.048c0-4.1,2.529-6.419,7.29-6.419a5.407,5.407,0,0,1,5.2,3.284c.426.908.172,1.9.649,2.847,1.894,3.756,3.448,3.371,6.2,8.029.666,1.126,1.059,5.073.839,6.315a12.1,12.1,0,0,0-2.759.591,3.229,3.229,0,0,0-.9,2.257c-.55-.453-3.435-2.786-6.763-2.786-.9,0-5.163.779-6.276,1.62a2.929,2.929,0,0,0-1.458-.757,7.959,7.959,0,0,0-1.638.3c-.556-1.9,1.068-4.453,1.068-7.421A2.972,2.972,0,0,0,65.1,47.4" fill="#eecb55"/><path d="M65.909,55.162c-6.906,0-9.247,9.4-9.247,10.344s5.3,4.251,6.046,4.251S67.894,58.812,67.894,58.1s-.623-2.935-1.985-2.935" fill="#46dbc9"/><path d="M61.054,55.741c-3.749,2.62-5.123,8.305-5.123,9.032,0,.948,5.3,4.248,6.043,4.248S67.16,58.076,67.16,57.364s-.621-2.933-1.985-2.933" fill="none" stroke="#1b3c87" stroke-linecap="round" stroke-linejoin="round" stroke-width="0.565"/><path d="M72.72,54.337C89.541,53.23,87.182,89.15,85.889,90.565s-15.859,5.674-17.6,4.761-17.1-39.571,4.432-40.987" fill="#46dbc9"/><path d="M75.155,46.8s-.275,1.676-.3,2.2c-.066.879.306,6.212.44,7.124-.525.585-4.323,1.122-4.749.788a50.409,50.409,0,0,0-.51-5.043c-2.845-.368-5.076-3.789-5.076-7.954a11.133,11.133,0,0,1,.275-2.48A5.376,5.376,0,0,0,67.53,39.32l-.2-.485c.805,2.6,5.679,4.992,7.47,5.2l-.194.307a1.4,1.4,0,0,1,1.223-.846,1.829,1.829,0,0,1,0,3.573,1.3,1.3,0,0,1-.994-.5" fill="#fff"/><path d="M66.527,49.6a9.458,9.458,0,0,1-2.245-6.4,11.141,11.141,0,0,1,.275-2.48" fill="none" stroke="#1b3c87" stroke-linecap="round" stroke-linejoin="round" stroke-width="0.565"/><path d="M73,49.809a4.493,4.493,0,0,1-3.131,1.371,4.021,4.021,0,0,1-1.458-.276" fill="none" stroke="#1b3c87" stroke-linecap="round" stroke-linejoin="round" stroke-width="0.565"/><path d="M73.924,43.615a1.405,1.405,0,0,1,1.223-.847,1.829,1.829,0,0,1,0,3.573,1.3,1.3,0,0,1-.994-.5" fill="none" stroke="#1b3c87" stroke-linecap="round" stroke-linejoin="round" stroke-width="0.565"/><path d="M69.866,41.513a12.352,12.352,0,0,0,4.252,1.795" fill="none" stroke="#1b3c87" stroke-linecap="round" stroke-linejoin="round" stroke-width="0.565"/><path d="M66.649,38.113a4.859,4.859,0,0,0,1.328,1.95" fill="none" stroke="#1b3c87" stroke-linecap="round" stroke-linejoin="round" stroke-width="0.565"/><path d="M66.847,38.6a5.359,5.359,0,0,1-2.291,2.114" fill="none" stroke="#1b3c87" stroke-linecap="round" stroke-linejoin="round" stroke-width="0.565"/><path d="M77.046,40.619c1.513,2.168,2.972,2.56,5.255,6.427.666,1.126,1.068,5.02.849,6.26" fill="none" stroke="#1b3c87" stroke-linecap="round" stroke-linejoin="round" stroke-width="0.565"/><path d="M70.045,32.886h.21a5.411,5.411,0,0,1,5.2,3.284,4.875,4.875,0,0,1,.323,1.586" fill="none" stroke="#1b3c87" stroke-linecap="round" stroke-linejoin="round" stroke-width="0.565"/><path d="M63.361,54.587c-.557-1.9,1.067-4.453,1.067-7.421,0-1.182-1.461-4.778-1.461-7.862,0-2.792,1.172-4.757,3.423-5.728" fill="none" stroke="#1b3c87" stroke-linecap="round" stroke-linejoin="round" stroke-width="0.565"/><path d="M74.292,51.365c-.087-1.4-.146-2.7-.116-3.1" fill="none" stroke="#1b3c87" stroke-linecap="round" stroke-linejoin="round" stroke-width="0.565"/><path d="M72.425,56.095a5.21,5.21,0,0,0,2.191-.7c-.049-.327-.131-1.22-.2-2.273" fill="none" stroke="#1b3c87" stroke-linecap="round" stroke-linejoin="round" stroke-width="0.565"/><path d="M69.363,51.147a50,50,0,0,1,.51,5.042" fill="none" stroke="#1b3c87" stroke-linecap="round" stroke-linejoin="round" stroke-width="0.565"/><path d="M63.813,57.352A10.317,10.317,0,0,1,69.7,53.921" fill="none" stroke="#1b3c87" stroke-linecap="round" stroke-linejoin="round" stroke-width="0.565"/><path d="M60.8,72.237a27.055,27.055,0,0,1,.842-10.894" fill="none" stroke="#1b3c87" stroke-linecap="round" stroke-linejoin="round" stroke-width="0.565"/><path d="M85.985,83.966c-.156,3.259-.525,5.532-.829,5.866-1.293,1.412-15.859,5.674-17.6,4.761-.73-.382-3.849-7.386-5.649-15.5" fill="none" stroke="#1b3c87" stroke-linecap="round" stroke-linejoin="round" stroke-width="0.565"/><path d="M83.655,63.505a53.658,53.658,0,0,1,2.394,15.667" fill="none" stroke="#1b3c87" stroke-linecap="round" stroke-linejoin="round" stroke-width="0.565"/><path d="M74.458,53.722a9.3,9.3,0,0,1,4.853,2.454" fill="none" stroke="#1b3c87" stroke-linecap="round" stroke-linejoin="round" stroke-width="0.565"/><path d="M68.87,42.875c0,.437-.169.788-.378.788s-.38-.355-.38-.788.169-.788.38-.788.378.355.378.788" fill="#1b3c87"/><path d="M66.847,43.667a5.1,5.1,0,0,1-.92,2.4" fill="none" stroke="#1b3c87" stroke-linecap="round" stroke-linejoin="round" stroke-width="0.565"/><path d="M67.947,47.98a1.764,1.764,0,0,0,1.473-.954" fill="none" stroke="#1b3c87" stroke-linecap="round" stroke-linejoin="round" stroke-width="0.565"/><path d="M90.946,68.181s3.919,11.269,3.919,12.53-11.73,9.753-11.73,9.753l-5.992.5,10.4-10.679-3.9-9.721Z" fill="#fff"/><path d="M82.906,69.827c.225.566,3.9,9.721,3.9,9.721L76.581,90.119" fill="none" stroke="#1b3c87" stroke-linecap="round" stroke-linejoin="round" stroke-width="0.565"/><path d="M93.28,76.983c.5,1.626.851,2.843.851,2.993,0,.5-1.885,2.055-1.885,2.055" fill="none" stroke="#1b3c87" stroke-linecap="round" stroke-linejoin="round" stroke-width="0.565"/><path d="M90.214,67.223s.619,1.936,1.365,4.3" fill="none" stroke="#1b3c87" stroke-linecap="round" stroke-linejoin="round" stroke-width="0.565"/><path d="M80.209,55.106c6.918-1.956,12.537,10.1,11.9,11.763s-8.663,4.344-10.02,3.652-6.385-14.142-1.881-15.415" fill="#46dbc9"/><path d="M82.906,69.827a3.047,3.047,0,0,1-1.548-.038c-.419-.214-1.182-1.646-1.921-3.561" fill="none" stroke="#1b3c87" stroke-linecap="round" stroke-linejoin="round" stroke-width="0.565"/><path d="M91.17,64.47a3.166,3.166,0,0,1,.2,1.666c-.335.874-2.717,2.031-5.1,2.831" fill="none" stroke="#1b3c87" stroke-linecap="round" stroke-linejoin="round" stroke-width="0.565"/><path d="M77.734,59.61c-.293-2.58.058-4.761,1.742-5.238,3.822-1.08,7.248,2.116,9.44,5.474" fill="none" stroke="#1b3c87" stroke-linecap="round" stroke-linejoin="round" stroke-width="0.565"/><path d="M60.012,86.579c6.947,0,32.463,12.843,32.463,13.644s.139,5.757-.746,5.757c-27.062,0-39.189-5.2-39.189-14.032,0-3.514,3.624-5.369,7.472-5.369" fill="#3c3744"/><path d="M93.894,100.432c-.541,0-.853,4.992-.525,5.548a31.45,31.45,0,0,0,5.169.913c.55,0,3.76-.549,3.76-3.678,0-2.09-3.238-2.777-8.408-2.777" fill="#fff"/><path d="M67.655,88C77.739,91.692,91.75,98.9,91.75,99.491c0,.8.131,5.757-.747,5.757-27.062,0-39.189-5.2-39.189-14.032,0-3.514,3.626-5.369,7.472-5.369a10.378,10.378,0,0,1,1.852.2" fill="none" stroke="#1b3c87" stroke-linecap="round" stroke-linejoin="round" stroke-width="0.565"/><path d="M93.161,99.7c-.189,0-.351.615-.466,1.435" fill="none" stroke="#1b3c87" stroke-linecap="round" stroke-linejoin="round" stroke-width="0.565"/><path d="M92.694,101.134a13.146,13.146,0,0,0-.056,4.113,31.664,31.664,0,0,0,5.169.92c.55,0,3.761-.55,3.761-3.678,0-1.643-2-2.42-5.37-2.676" fill="none" stroke="#1b3c87" stroke-linecap="round" stroke-linejoin="round" stroke-width="0.565"/><path d="M39.452,50.54a4.847,4.847,0,0,1-.5-.719c-.193-.472-1.259.5-.254,1.982" fill="none" stroke="#1b3c87" stroke-linecap="round" stroke-linejoin="round" stroke-width="0.565"/><path d="M42.3,53.785c-.243-.2-1.1-1.146-1.888-2.07" fill="none" stroke="#1b3c87" stroke-linecap="round" stroke-linejoin="round" stroke-width="0.565"/><path d="M38.787,53.512c-1.093.418.507,2.461,1.314,3.192" fill="none" stroke="#1b3c87" stroke-linecap="round" stroke-linejoin="round" stroke-width="0.565"/><path d="M37.657,54.589c-.657.86,1.2,2.638,1.742,2.9" fill="none" stroke="#1b3c87" stroke-linecap="round" stroke-linejoin="round" stroke-width="0.565"/><path d="M96.516,81.6c3.678,0,5.78,3.678,5.78,5.867,0,12.48-35.923,18.515-36.783,18.515s-1.854-4.76-1.854-5.123S88.8,81.6,96.516,81.6" fill="#3c3744"/><path d="M69.827,94.908c4.158-2.957,9.6-6.62,14.59-9.459" fill="none" stroke="#1b3c87" stroke-linecap="round" stroke-linejoin="round" stroke-width="0.565"/><path d="M85.688,99.9a116.659,116.659,0,0,1-20.9,5.348c-.859,0-1.855-4.76-1.855-5.123a31.526,31.526,0,0,1,3.087-2.45" fill="none" stroke="#1b3c87" stroke-linecap="round" stroke-linejoin="round" stroke-width="0.565"/><path d="M88.519,83.257c2.97-1.457,5.548-2.391,7.265-2.391,3.678,0,5.78,3.678,5.78,5.867,0,3.044-2.136,5.7-5.38,7.987" fill="none" stroke="#1b3c87" stroke-linecap="round" stroke-linejoin="round" stroke-width="0.565"/><path d="M62.193,101.119c-.742,0-8.523,1.314-8.523,3.739,0,2.777,1.678,3.9,2.613,3.9s6.68-1.264,7.2-2.144-1.293-5.5-1.293-5.5" fill="#fff"/><path d="M60.125,107.066a6.126,6.126,0,0,0,2.627-1.174c.525-.88-1.291-5.5-1.291-5.5-.742,0-8.523,1.32-8.523,3.739,0,2.777,1.678,3.9,2.612,3.9a6.972,6.972,0,0,0,.971-.123" fill="none" stroke="#1b3c87" stroke-linecap="round" stroke-linejoin="round" stroke-width="0.565"/><path d="M108.61,23.323a9.089,9.089,0,1,0-17.508,0Z" fill="none" stroke="#1b3c87" stroke-linecap="round" stroke-linejoin="round" stroke-width="0.565"/><rect width="12.078" height="3.4" transform="translate(117.044 102.761)" fill="none" stroke="#1b3c87" stroke-linecap="round" stroke-linejoin="round" stroke-width="0.583"/><path d="M123.081,102.761V7.019H99.855v4.77" fill="none" stroke="#1b3c87" stroke-linecap="round" stroke-linejoin="round" stroke-width="0.583"/><rect width="24.75" height="3.569" transform="translate(12.161 104.461)" fill="#d7e0ff"/><rect width="24.75" height="2.964" transform="translate(15.939 101.581)" fill="#8088dc"/><rect width="24.75" height="2.964" transform="translate(13.098 98.618)" fill="#d7e0ff"/><path d="M27.084,83.89c-.6-.049-1.428-2.38-.673-3.547,1.588-2.453,5.707-3.25,7.232-6.722-.012,1.194,1.2,10.9-6.559,10.267" fill="#8088dc"/><path d="M24.536,92.425c0-4.262,3.2-11.053,5.226-12.46" fill="none" stroke="#1b3c87" stroke-linecap="round" stroke-linejoin="round" stroke-width="0.306"/><path d="M27.941,82.137a4.367,4.367,0,0,1-.284-1.83" fill="none" stroke="#1b3c87" stroke-linecap="round" stroke-linejoin="round" stroke-width="0.306"/><path d="M29.01,80.661a6.256,6.256,0,0,0,2.034-.2" fill="none" stroke="#1b3c87" stroke-linecap="round" stroke-linejoin="round" stroke-width="0.306"/><path d="M24.96,89.281a2.665,2.665,0,0,0-3.04-2.3" fill="none" stroke="#1b3c87" stroke-linecap="round" stroke-linejoin="round" stroke-width="0.306"/><path d="M22.615,86.967A1.63,1.63,0,0,0,22,86.34" fill="none" stroke="#1b3c87" stroke-linecap="round" stroke-linejoin="round" stroke-width="0.306"/><path d="M27.494,98.618l1.276-6.193H20.678l1.273,6.193Z" fill="#fb5d64"/><path d="M.23,36.221,15.248,74.149,39.262,47.5Z" fill="none" stroke="#b2c3fb" stroke-linecap="round" stroke-linejoin="round" stroke-width="0.458"/><path d="M24.05,33.631V44.868h5.02l2.459,4.23,2.459-4.231h5.02V33.631Z" fill="#f4f7ff"/><path d="M29.309,39.088a.78.78,0,1,1-.229-.552.782.782,0,0,1,.229.552" fill="#fb5d64"/><path d="M32.309,39.088a.778.778,0,1,1-.228-.552.782.782,0,0,1,.228.552" fill="#fb5d64"/><path d="M35.31,39.088a.78.78,0,1,1-.78-.78.78.78,0,0,1,.78.78" fill="#fb5d64"/></g></g></svg>