<?xml version="1.0" standalone="no"?><!DOCTYPE svg PUBLIC "-//W3C//DTD SVG 1.1//EN" "http://www.w3.org/Graphics/SVG/1.1/DTD/svg11.dtd"><svg class="icon" width="200px" height="200.00px" viewBox="0 0 1024 1024" version="1.1" xmlns="http://www.w3.org/2000/svg"><path fill="#ffffff" d="M672.497 792.31c-22.385 0-38.021-15.637-38.021-38.021V622.13c0-22.384 15.636-38.02 38.02-38.02 23.481 0 38.022 19.737 38.022 38.02v132.163c-0.005 22.38-15.637 38.016-38.021 38.016z m-308.368 0c-22.39 0-38.02-15.637-38.02-38.021V622.13c0-22.384 15.63-38.02 38.02-38.02 23.48 0 38.021 19.737 38.021 38.02v132.163c-0.005 22.38-15.636 38.016-38.02 38.016z m154.179-44.053c-22.39 0-38.021-15.636-38.021-38.02v-44.053c0-22.385 15.631-38.021 38.02-38.021 23.486 0 38.022 19.732 38.022 38.02v44.053c0 22.385-15.637 38.021-38.021 38.021zM804.649 880.415c-22.385 0-38.021-15.637-38.021-38.021V467.948c0-141.568-106.757-248.32-248.32-248.32-141.568 0-248.32 106.752-248.32 248.32v374.446c0 22.384-15.632 38.02-38.021 38.02H209.94c-105.978 0-192.204-86.225-192.204-192.204 0-99.748 78.095-183.516 176.21-191.616v-28.646c0-181.883 142.474-324.363 324.362-324.363 88.187 0 170.066 33.311 230.559 93.804 60.487 60.487 93.798 142.367 93.798 230.559v28.692c98.115 8.54 176.215 92.303 176.215 191.57 0 105.979-86.22 192.205-192.205 192.205H804.65z m38.021-77.04c56.197-7.835 100.168-57.237 100.168-115.165S898.862 580.88 842.67 573.046v230.328z m-648.72-230.33C137.755 580.88 93.784 630.283 93.784 688.21s43.976 107.33 100.168 115.164V573.046z" /></svg>