<svg xmlns="http://www.w3.org/2000/svg" width="21.532" height="25.667" viewBox="0 0 21.532 25.667"><defs><style>.a{fill:#757fa2;}</style></defs><path class="a" d="M223.693,153.859a3.466,3.466,0,0,1,3.466,3.466v6.585h5.891a2.263,2.263,0,0,1,2.263,2.263V175H219.535l-4.481-3.841a3.647,3.647,0,0,1-.511-5l.14-.169a3.655,3.655,0,0,1,5.018-.46l.161.136.366.324v-8.664a3.466,3.466,0,0,1,3.465-3.466Zm0,2.263a1.2,1.2,0,0,0-1.2,1.2v13.7l-4.132-3.673-.107-.086a1.392,1.392,0,0,0-1.866.21l-.087.109a1.384,1.384,0,0,0,.228,1.853l3.391,2.906,2.782,2.632h10.357v-3.017h-.005v-5.79H224.9v-8.848A1.2,1.2,0,0,0,223.693,156.122Zm-.122-6.789a7.543,7.543,0,0,1,5.294,12.916v-5.373h-.014a5.28,5.28,0,1,0-10.557.226l0,5.166a7.543,7.543,0,0,1,5.275-12.936Z" transform="translate(-213.781 -149.333)"/></svg>