<svg xmlns="http://www.w3.org/2000/svg" width="243.198" height="125.378" viewBox="0 0 243.198 125.378"><defs><style>.a{fill:#3f3d56;}.b{fill:#f2f2f2;}.c{fill:#ccc;}.d{fill:#a0616a;}.e{fill:#6c63ff;}.f{fill:#ffb8b8;}.g{fill:#2f2e41;}.h{fill:#0c2d63;}.i{fill:#84b0f2;}.j{fill:#fff;}.k{fill:#e6e6e6;}.l{fill:#ff6584;}</style></defs><g transform="translate(0 0)"><path class="a" d="M394.538,679.3H151.985a.323.323,0,1,1,0-.646H394.537a.323.323,0,1,1,0,.646Z" transform="translate(-151.662 -553.947)"/><circle class="b" cx="1.754" cy="1.754" r="1.754" transform="translate(74.284 12.073)"/><circle class="b" cx="1.754" cy="1.754" r="1.754" transform="translate(67.294 12.073)"/><circle class="b" cx="1.754" cy="1.754" r="1.754" transform="translate(60.304 12.073)"/><circle class="b" cx="1.754" cy="1.754" r="1.754" transform="translate(53.313 12.073)"/><circle class="b" cx="1.754" cy="1.754" r="1.754" transform="translate(74.284 19.396)"/><circle class="b" cx="1.754" cy="1.754" r="1.754" transform="translate(67.294 19.396)"/><circle class="b" cx="1.754" cy="1.754" r="1.754" transform="translate(60.304 19.396)"/><circle class="b" cx="1.754" cy="1.754" r="1.754" transform="translate(53.313 19.396)"/><circle class="b" cx="1.754" cy="1.754" r="1.754" transform="translate(74.284 26.719)"/><circle class="b" cx="1.754" cy="1.754" r="1.754" transform="translate(67.294 26.719)"/><circle class="b" cx="1.754" cy="1.754" r="1.754" transform="translate(60.304 26.719)"/><circle class="b" cx="1.754" cy="1.754" r="1.754" transform="translate(53.313 26.719)"/><circle class="b" cx="1.754" cy="1.754" r="1.754" transform="translate(74.284 34.042)"/><circle class="b" cx="1.754" cy="1.754" r="1.754" transform="translate(67.294 34.042)"/><circle class="b" cx="1.754" cy="1.754" r="1.754" transform="translate(60.304 34.042)"/><circle class="b" cx="1.754" cy="1.754" r="1.754" transform="translate(53.313 34.042)"/><circle class="b" cx="1.754" cy="1.754" r="1.754" transform="translate(74.284 41.365)"/><circle class="b" cx="1.754" cy="1.754" r="1.754" transform="translate(67.294 41.365)"/><circle class="b" cx="1.754" cy="1.754" r="1.754" transform="translate(60.304 41.365)"/><circle class="b" cx="1.754" cy="1.754" r="1.754" transform="translate(53.313 41.365)"/><circle class="b" cx="1.754" cy="1.754" r="1.754" transform="translate(74.284 48.688)"/><circle class="b" cx="1.754" cy="1.754" r="1.754" transform="translate(67.294 48.688)"/><circle class="b" cx="1.754" cy="1.754" r="1.754" transform="translate(60.304 48.688)"/><circle class="b" cx="1.754" cy="1.754" r="1.754" transform="translate(53.313 48.688)"/><path class="c" d="M375.19,572.154v.542a3.393,3.393,0,0,0,3.39,3.39h24.41a3.392,3.392,0,0,0,3.39-3.39v-.542a3.366,3.366,0,0,0-.787-2.17,3.49,3.49,0,0,0-.572-.542s-13.42-.3-13.42-.678H378.58A3.4,3.4,0,0,0,375.19,572.154Z" transform="translate(-314.564 -473.863)"/><rect class="c" width="3.526" height="22.783" transform="translate(74.654 102.089)"/><path class="c" d="M412.782,669.67c0,.381-5.343.147-11.934.147s-11.934.234-11.934-.147,5.343-3.4,11.934-3.4S412.782,669.289,412.782,669.67Z" transform="translate(-324.566 -544.922)"/><path class="d" d="M420.9,499.467a2.914,2.914,0,0,0-1.033-4.347l-7.473-25.464-5.69,2.787,9.135,24.154a2.929,2.929,0,0,0,5.061,2.87Z" transform="translate(-337.528 -401.635)"/><path class="e" d="M410,457.164l-6.369,1.724A1.306,1.306,0,0,1,402,457.78l-.77-6.533a3.628,3.628,0,1,1,7.01-1.876l2.624,6.009a1.306,1.306,0,0,1-.856,1.783Z" transform="translate(-333.448 -384.891)"/><path class="f" d="M313.515,426.928h3.325l1.582-8.624h-4.908Z" transform="translate(-228.482 -304.85)"/><path class="g" d="M462.051,664.961H468.6a4.173,4.173,0,0,1,4.173,4.173v.135H462.051Z" transform="translate(-377.867 -543.969)"/><path class="g" d="M419.041,567.542q-.058,0-.117-.006l-4.6-.335a1.22,1.22,0,0,1-1.033-1.635l6.159-13.836a.949.949,0,0,0-.053-.759.936.936,0,0,0-.6-.477c-2.9-.757-10.326-2.773-16.758-5.131-2.756-1.011-4.491-2.471-5.158-4.34a6.126,6.126,0,0,1,.477-4.807l.044-.074,6.052.55,6.561.558,14.378,7.71a5.448,5.448,0,0,1,2.392,6.993l-6.629,14.865A1.22,1.22,0,0,1,419.041,567.542Z" transform="translate(-330.149 -450.089)"/><circle class="f" cx="6.661" cy="6.661" r="6.661" transform="translate(67.694 45.906)"/><path class="f" d="M306.515,425.928h3.325l1.582-8.624h-4.908Z" transform="translate(-223.381 -304.122)"/><path class="h" d="M455.051,663.961H461.6a4.173,4.173,0,0,1,4.173,4.173v.135H455.051Z" transform="translate(-372.765 -543.241)"/><path class="h" d="M412.041,570.542c-.039,0-.078,0-.117-.006l-4.6-.335a1.22,1.22,0,0,1-1.033-1.635l6.159-13.836a.949.949,0,0,0-.053-.759.936.936,0,0,0-.6-.477c-2.9-.757-10.326-2.773-16.758-5.131-2.756-1.01-4.491-2.471-5.158-4.34a6.125,6.125,0,0,1,.477-4.807l.044-.074,6.052.55,6.561.558,14.378,7.71a5.448,5.448,0,0,1,2.392,6.993l-6.629,14.865a1.219,1.219,0,0,1-1.114.723Z" transform="translate(-325.048 -452.275)"/><path class="h" d="M403.872,444.609l-7.052-2.441s-4.427,3.4-2.3,11.838a20.888,20.888,0,0,1-.922,13.106,13.508,13.508,0,0,1-.71,1.5s7.865,9.493,15.188,2.441l-2.848-13.7S409.7,448.271,403.872,444.609Z" transform="translate(-327.462 -381.603)"/><path class="h" d="M400.237,390.621c-.948-1.419-1.7-3.387-.652-4.737,1.03-1.333,3.063-1.136,4.641-1.726a5.254,5.254,0,0,0,3.075-5.716,6.782,6.782,0,0,0-4.465-5.014,9.669,9.669,0,0,0-6.871.374,10.492,10.492,0,0,0-5.912,5.988,8.067,8.067,0,0,0,1.543,8.09c2.133,2.245,5.48,2.844,8.577,2.807" transform="translate(-325.054 -331.165)"/><path class="h" d="M323.225,383.69c-1.195.973-3.017.541-4.3-.313s-2.323-2.069-3.711-2.738c-2.446-1.18-5.4-.4-7.785.911s-4.491,3.112-7.006,4.138-5.724,1.076-7.628-.86a6.979,6.979,0,0,0,10.228,8.237c2.755-1.678,4.277-5.2,7.368-6.124a9.917,9.917,0,0,1,5.275.348,11.518,11.518,0,0,0,5.275.55c1.744-.381,3.376-1.948,3.154-3.72Z" transform="translate(-254.239 -336.34)"/><path class="i" d="M484.548,585.094a45.432,45.432,0,0,1,0-13.826,1.167,1.167,0,0,1,1.149-.978h10.814a1.152,1.152,0,0,1,.91.441,1.171,1.171,0,0,1,.219,1,27.752,27.752,0,0,0,0,12.89,1.171,1.171,0,0,1-.219,1,1.152,1.152,0,0,1-.91.441H485.7A1.167,1.167,0,0,1,484.548,585.094Z" transform="translate(-393.876 -474.975)"/><path class="j" d="M500.373,589.739H494.7a.814.814,0,0,1-.814-.814v-.318a.815.815,0,0,1,.814-.814h5.675a.815.815,0,0,1,.814.814v.318a.815.815,0,0,1-.814.814Z" transform="translate(-401.067 -487.732)"/><path class="j" d="M500.373,602.084H494.7a.815.815,0,0,1-.814-.814v-.318a.815.815,0,0,1,.814-.814h5.675a.815.815,0,0,1,.814.814v.318a.815.815,0,0,1-.814.814Z" transform="translate(-401.067 -496.728)"/><path class="f" d="M441.377,503.217a2.914,2.914,0,0,0-2.086-3.951l-13.6-22.789-4.814,4.12L435.76,501.7a2.929,2.929,0,0,0,5.617,1.514Z" transform="translate(-347.862 -406.606)"/><path class="h" d="M420.519,466.053l-5.736,3.261a1.307,1.307,0,0,1-1.864-.664l-2.378-6.134a3.628,3.628,0,0,1,6.319-3.567l4.042,5.163a1.306,1.306,0,0,1-.383,1.941Z" transform="translate(-339.986 -392.488)"/><path class="h" d="M373.009,519.614H262.893a1.763,1.763,0,0,0,0,3.526h3.119v38.378a1.763,1.763,0,0,0,3.526,0v-34.99L289.3,562.35a1.763,1.763,0,0,0,3.054-1.763L271.695,523.14h94.4v.023l-20.648,37.424a1.763,1.763,0,0,0,3.053,1.763l17.594-31.89v31.058a1.763,1.763,0,0,0,3.526,0V524.069l.513-.93h2.877a1.763,1.763,0,1,0,0-3.526Z" transform="translate(-231.44 -438.044)"/><rect class="c" width="23.325" height="1.899" rx="0.949" transform="translate(73.628 80.485)"/><path class="c" d="M489.032,477.43H464.893a1.765,1.765,0,0,1-1.763-1.763v-13.29a1.765,1.765,0,0,1,1.763-1.763h24.139a1.765,1.765,0,0,1,1.763,1.763v13.29A1.765,1.765,0,0,1,489.032,477.43Z" transform="translate(-378.653 -395.046)"/><circle class="j" cx="1.627" cy="1.627" r="1.627" transform="translate(96.682 72.349)"/><path class="k" d="M626.55,268.5V220.9a2.042,2.042,0,0,1,2.04-2.04h37.626a2.042,2.042,0,0,1,2.04,2.04v47.6a2.042,2.042,0,0,1-2.04,2.04H628.59A2.042,2.042,0,0,1,626.55,268.5Zm2.04-49.186A1.588,1.588,0,0,0,627,220.9v47.6a1.588,1.588,0,0,0,1.587,1.587h37.626A1.588,1.588,0,0,0,667.8,268.5V220.9a1.588,1.588,0,0,0-1.587-1.587Z" transform="translate(-497.75 -218.864)"/><path class="i" d="M711.215,270.459v-9.774a1.021,1.021,0,0,1,1.02-1.02h8.282a1.021,1.021,0,0,1,1.02,1.02v9.774a1.021,1.021,0,0,1-1.02,1.02h-8.282A1.021,1.021,0,0,1,711.215,270.459Z" transform="translate(-559.452 -248.599)"/><path class="c" d="M651.88,287.173V277.4a1.021,1.021,0,0,1,1.02-1.02h8.282a1.021,1.021,0,0,1,1.02,1.02v9.774a1.021,1.021,0,0,1-1.02,1.02H652.9A1.021,1.021,0,0,1,651.88,287.173Z" transform="translate(-516.21 -260.78)"/><path class="l" d="M699.515,338.152v-9.774a1.021,1.021,0,0,1,1.02-1.02h8.282a1.021,1.021,0,0,1,1.02,1.02v9.774a1.021,1.021,0,0,1-1.02,1.02h-8.282a1.021,1.021,0,0,1-1.02-1.02Z" transform="translate(-550.925 -297.932)"/><circle class="b" cx="1.754" cy="1.754" r="1.754" transform="translate(210 1.452)"/><circle class="b" cx="1.754" cy="1.754" r="1.754" transform="translate(210 8.443)"/><circle class="b" cx="1.754" cy="1.754" r="1.754" transform="translate(210 15.433)"/><circle class="b" cx="1.754" cy="1.754" r="1.754" transform="translate(210 22.423)"/><circle class="b" cx="1.754" cy="1.754" r="1.754" transform="translate(202.677 1.452)"/><circle class="b" cx="1.754" cy="1.754" r="1.754" transform="translate(202.677 8.443)"/><circle class="b" cx="1.754" cy="1.754" r="1.754" transform="translate(202.677 15.433)"/><circle class="b" cx="1.754" cy="1.754" r="1.754" transform="translate(202.677 22.423)"/><circle class="b" cx="1.754" cy="1.754" r="1.754" transform="translate(195.354 1.452)"/><circle class="b" cx="1.754" cy="1.754" r="1.754" transform="translate(195.354 8.443)"/><circle class="b" cx="1.754" cy="1.754" r="1.754" transform="translate(195.354 15.433)"/><circle class="b" cx="1.754" cy="1.754" r="1.754" transform="translate(195.354 22.423)"/><circle class="b" cx="1.754" cy="1.754" r="1.754" transform="translate(188.031 1.452)"/><circle class="b" cx="1.754" cy="1.754" r="1.754" transform="translate(188.031 8.443)"/><circle class="b" cx="1.754" cy="1.754" r="1.754" transform="translate(188.031 15.433)"/><circle class="b" cx="1.754" cy="1.754" r="1.754" transform="translate(188.031 22.423)"/><circle class="b" cx="1.754" cy="1.754" r="1.754" transform="translate(180.708 1.452)"/><circle class="b" cx="1.754" cy="1.754" r="1.754" transform="translate(180.708 8.443)"/><circle class="b" cx="1.754" cy="1.754" r="1.754" transform="translate(180.708 15.433)"/><circle class="b" cx="1.754" cy="1.754" r="1.754" transform="translate(180.708 22.423)"/><circle class="b" cx="1.754" cy="1.754" r="1.754" transform="translate(173.385 1.452)"/><circle class="b" cx="1.754" cy="1.754" r="1.754" transform="translate(173.385 8.443)"/><circle class="b" cx="1.754" cy="1.754" r="1.754" transform="translate(173.385 15.433)"/><circle class="b" cx="1.754" cy="1.754" r="1.754" transform="translate(173.385 22.423)"/><path class="f" d="M822.973,402.087a2.984,2.984,0,0,1,2.107-3.923,2.876,2.876,0,0,1,.394-.064l6.591-11.554-1.664-2.859,4.143-3.2,3.17,4.4a3.024,3.024,0,0,1-.071,3.61l-9.049,11.585a2.846,2.846,0,0,1,.084.281,2.984,2.984,0,0,1-2.538,3.659,2.9,2.9,0,0,1-.365.023A2.993,2.993,0,0,1,822.973,402.087Z" transform="translate(-640.767 -336.654)"/><path class="f" d="M611.195,416.425H607.87L606.288,403.6H611.2Z" transform="translate(-441.849 -294.134)"/><path class="h" d="M592.514,447.384h6.413v4.038H588.476A4.038,4.038,0,0,1,592.514,447.384Z" transform="translate(-428.868 -326.043)"/><path class="f" d="M712.2,416.425H708.87L707.288,403.6H712.2Z" transform="translate(-515.456 -294.134)"/><path class="h" d="M693.514,447.384h6.413v4.038h-10.45A4.038,4.038,0,0,1,693.514,447.384Z" transform="translate(-502.475 -326.043)"/><path class="e" d="M844.079,365.915l-7.465,2.837-1.823-5.063a3.029,3.029,0,0,1,1.357-3.661h0a3.029,3.029,0,0,1,3.868.755Z" transform="translate(-649.381 -321.454)"/><path class="h" d="M757.457,494.532,751.2,493.1a1.352,1.352,0,0,1-1.034-1.524c2.512-15.923,4.929-25.248,11.158-37.09.087-.221,1.06-4.7,1.694-7.672a1.348,1.348,0,0,1,1.143-1.363l11.675-1.8a1.511,1.511,0,0,1,.548-.083l.117.022v.115c0,.119-.12.137-.164.144l-.155.024a1.811,1.811,0,0,1,.482.327c5.115,6.152,7.775,26.319,11.153,48.6a1.216,1.216,0,0,1-.354.989,1.338,1.338,0,0,1-.96.434l-7.459.182a1.351,1.351,0,0,1-1.366-1.144l-5.024-29.034a1.078,1.078,0,0,0-2.033-.313c-4.053,8.255-7.833,15.393-11.556,29.635a1.343,1.343,0,0,1-1.3,1.011,1.366,1.366,0,0,1-.3-.034Z" transform="translate(-587.824 -382.629)"/><path class="i" d="M796.856,385.634a1.356,1.356,0,0,1-.565-.963c-.956-8.926-.29-15.911,2.036-21.355a6.778,6.778,0,0,1,4.493-3.846l6.035-.3.031.015a7.053,7.053,0,0,1,3.857,7.483c-1.941,5.116-3.566,10.443-2.327,14.74a1.389,1.389,0,0,1-.131,1.08,1.324,1.324,0,0,1-.845.626l-11.494,2.734a1.347,1.347,0,0,1-1.089-.211Z" transform="translate(-621.146 -321.113)"/><path class="f" d="M748.223,369.392l-11.574-9.131a2.846,2.846,0,0,1-.281.083,2.991,2.991,0,0,1-2.392-.459,2.96,2.96,0,0,1-1.255-2.1,2.984,2.984,0,0,1,5.868-1.031,2.853,2.853,0,0,1,.062.394l11.522,6.647,2.867-1.651,3.176,4.158-4.452,3.173a2.968,2.968,0,0,1-3.542-.086Z" transform="translate(-575.111 -317.68)"/><path class="e" d="M806.866,375.6l-6.6-4.491,3.1-4.4a3.029,3.029,0,0,1,3.778-.987h0a3.029,3.029,0,0,1,1.6,3.6Z" transform="translate(-624.348 -325.676)"/><circle class="f" cx="6.661" cy="6.661" r="6.661" transform="translate(179.033 22.476)"/><path class="h" d="M808.639,300.551c-1.712,1.172-3.96,2.376-5.709,1.128a3.182,3.182,0,0,1-1.044-3.668c.837-2.394,3.138-3.449,5.338-4.257,2.86-1.05,5.974-1.886,8.926-1.134s5.562,3.611,5.029,6.61c-.429,2.412-2.7,4.419-2.381,6.848.325,2.444,3.074,3.731,5.5,4.168s5.142.577,6.886,2.32c2.225,2.224,1.669,6.2-.424,8.546s-5.253,3.412-8.314,4.135c-4.056.958-8.443,1.462-12.3-.128s-6.85-5.873-5.734-9.889a13.8,13.8,0,0,1,2.655-4.525,12.61,12.61,0,0,0,2.569-4.567,4.748,4.748,0,0,0-.857-4.154,1.2,1.2,0,0,1-.161-1.407Z" transform="translate(-625.387 -272.405)"/></g></svg>