<svg xmlns="http://www.w3.org/2000/svg" width="169.134" height="133.625" viewBox="0 0 169.134 133.625"><defs><style>.a{fill:#e6e6e6;}.b{fill:#fff;}.c{fill:#84b0f2;}.d{fill:#f2f2f2;}.e{fill:#ffb8b8;}.f{fill:#0c2d63;}.g{fill:#3f3d56;}.h{fill:#2f2e41;}.i{fill:#cbcbcb;}.j{opacity:0.1;}.k{fill:#f1f1f1;}</style></defs><g transform="translate(0)"><rect class="a" width="101.43" height="48.131" transform="translate(67.703 2.781)"/><rect class="b" width="95.63" height="40.157" transform="translate(70.604 6.908)"/><rect class="c" width="101.43" height="4.309" transform="translate(67.66)"/><circle class="b" cx="0.799" cy="0.799" r="0.799" transform="translate(70.064 1.735)"/><circle class="b" cx="0.799" cy="0.799" r="0.799" transform="translate(73.095 1.735)"/><circle class="b" cx="0.799" cy="0.799" r="0.799" transform="translate(76.127 1.735)"/><rect class="d" width="15.899" height="27.161" transform="translate(127.821 13.406)"/><rect class="c" width="32.069" height="7.476" transform="translate(93.117 13.406)"/><rect class="d" width="32.069" height="8.044" transform="translate(93.117 22.964)"/><rect class="d" width="32.069" height="7.476" transform="translate(93.117 33.09)"/><path class="e" d="M342.1,434.834a3.909,3.909,0,0,0-4.329-3.908,3.765,3.765,0,0,0-.514.095l-13.228-11.338.79-4.261-6.52-2.113-1.966,6.828a3.96,3.96,0,0,0,1.68,4.42l16.272,10.292a3.738,3.738,0,0,0,.02.383,3.909,3.909,0,0,0,4.745,3.391,3.806,3.806,0,0,0,.461-.133A3.92,3.92,0,0,0,342.1,434.834Z" transform="translate(-293.705 -354.524)"/><path class="f" d="M268.468,571.807h17.055c0,.49,17.577.888,17.577.888a4.568,4.568,0,0,1,.75.711,4.408,4.408,0,0,1,1.03,2.842v.711a4.442,4.442,0,0,1-4.441,4.441H268.468a4.444,4.444,0,0,1-4.44-4.44v-.71A4.447,4.447,0,0,1,268.468,571.807Z" transform="translate(-252.961 -478.347)"/><rect class="f" width="4.618" height="29.84" transform="translate(29.44 102.875)"/><path class="g" d="M317.573,735.122c0,.559-7,.216-15.63.216s-15.63.343-15.63-.216,7-4.989,15.63-4.989S317.573,734.564,317.573,735.122Z" transform="translate(-270.37 -602.036)"/><path class="e" d="M196.7,549.578h4.355l2.072-11.3H196.7Z" transform="translate(-153.67 -420.522)"/><path class="h" d="M405.071,733.656h14.043v-.178a5.466,5.466,0,0,0-5.466-5.466h-8.577Z" transform="translate(-363.148 -600.379)"/><path class="i" d="M329.635,559.015l8.682-19.47a7.135,7.135,0,0,0-3.133-9.159l-18.832-10.1-8.594-.731-7.927-.721-.057.1a8.023,8.023,0,0,0-.625,6.3c.874,2.448,3.147,4.361,6.756,5.684,8.424,3.089,18.156,5.729,21.949,6.72a1.226,1.226,0,0,1,.786.625,1.243,1.243,0,0,1,.07.994l-8.066,18.122A1.6,1.6,0,0,0,322,559.516l6.027.439q.077.007.153.007A1.6,1.6,0,0,0,329.635,559.015Z" transform="translate(-280.088 -436.964)"/><path class="e" d="M183.714,549.578h4.355l2.072-11.3h-6.428Z" transform="translate(-143.522 -420.522)"/><path class="f" d="M392.081,733.656h14.043v-.178a5.466,5.466,0,0,0-5.466-5.466h-8.577Z" transform="translate(-353 -600.379)"/><path class="i" d="M321.364,564.232l8.682-19.47a7.135,7.135,0,0,0-3.133-9.159l-18.832-10.1-8.594-.731-6.209-.539v-.085a8.023,8.023,0,0,0-.625,6.3c.874,2.448,1.371,4.361,4.98,5.684,8.424,3.089,18.156,5.729,21.949,6.72a1.226,1.226,0,0,1,.785.625,1.243,1.243,0,0,1,.07.994l-8.066,18.122a1.6,1.6,0,0,0,1.353,2.142l6.027.439q.077.007.153.007a1.6,1.6,0,0,0,1.459-.947Z" transform="translate(-275.014 -441.115)"/><path class="f" d="M292.889,418.986c.416-.294,6.394,2.842,7.46.355-4.973-12.433-1.546-17.8-4.593-24.932a8.878,8.878,0,0,0-5.885-5.037l-7.9-.4-.041.02a9.238,9.238,0,0,0-5.051,9.8c.028,7.76,4.671,13.678,3.047,19.306a1.819,1.819,0,0,0,.172,1.415,1.735,1.735,0,0,0,1.107.82l10.436-1.392a1.764,1.764,0,0,0,1.427-.276Z" transform="translate(-262.902 -335.512)"/><circle class="e" cx="8.725" cy="8.725" r="8.725" transform="translate(12.979 33.06)"/><path class="f" d="M271.909,302.829c.464.2,1.413-3.491.988-4.23-.632-1.1-.6-1.091-1.015-1.818a2.108,2.108,0,0,1,.03-2.362,1.243,1.243,0,0,1,2.05.247c-.16-1.523,1.347-2.748,2.839-3.092s3.067-.13,4.567-.437c1.742-.355,3.553-1.815,2.859-3.73a2.7,2.7,0,0,0-.526-.865,6.654,6.654,0,0,0-3.024-1.661,20.027,20.027,0,0,0-7.042-1.475,10.23,10.23,0,0,0-9.039,6.611,9.294,9.294,0,0,0-.385,1.43,9.589,9.589,0,0,0,5.952,10.532Z" transform="translate(-252.984 -253.036)"/><path class="g" d="M480.858,435.248l1,5.941a.366.366,0,0,1-.021.2L473.988,461a.366.366,0,0,1-.7-.12L472.95,453a.366.366,0,0,1,.027-.153l7.181-17.673a.366.366,0,0,1,.7.077Z" transform="translate(-416.178 -371.425)"/><path class="c" d="M268.4,293.823l.951,5.1-6.966,17.9-.9-5.757Z" transform="translate(-204.28 -229.544)"/><path class="f" d="M367.227,518.006c.171.669,22.673,1.393,22.907,1.191a4.742,4.742,0,0,0,.541-.837c.236-.421.454-.844.454-.844l-.37-7.116-22.166-2.369s-.981,5.939-1.289,8.667A6.555,6.555,0,0,0,367.227,518.006Z" transform="translate(-333.58 -428.523)"/><path class="j" d="M213.111,375.323l0,6.131-9.8-.7.434-6.1Z" transform="translate(-158.831 -292.694)"/><path class="j" d="M168.825,381.119l.059-.007-.463,2.606-5.447-.387.186-2.615Z" transform="translate(-127.321 -297.427)"/><path class="j" d="M367.227,548.956c.171.669,22.673,1.393,22.907,1.191a4.74,4.74,0,0,0,.541-.837l-23.37-1.662A6.556,6.556,0,0,0,367.227,548.956Z" transform="translate(-333.58 -459.473)"/><path class="e" d="M312.208,465.784l18.981,3.542a3.739,3.739,0,0,0,.16.349,3.917,3.917,0,0,0,2.514,1.963,3.907,3.907,0,1,0-.892-7.246,3.756,3.756,0,0,0-.442.278l-16.487-5.632-.844-4.25-6.839.453.709,7.125A3.887,3.887,0,0,0,312.208,465.784Z" transform="translate(-287.596 -386.928)"/><path class="f" d="M306.963,426.444l9.937-3.266-2.318-6.656a3.967,3.967,0,0,0-4.4-2.609h0a3.967,3.967,0,0,0-3.315,3.957Z" transform="translate(-286.429 -354.953)"/><path class="i" d="M297.013,753.84H213.662a.219.219,0,0,1,0-.438h83.351a.219.219,0,0,1,0,.438Z" transform="translate(-213.443 -620.214)"/><path class="k" d="M712.575,719.476a13.966,13.966,0,0,1,5.775,6.574,12.024,12.024,0,0,1-14.477-7.492A13.967,13.967,0,0,1,712.575,719.476Z" transform="translate(-596.582 -592.744)"/><path class="k" d="M731.6,700a13.966,13.966,0,0,0,7.019,5.224,12.025,12.025,0,0,0-8.639-13.823A13.966,13.966,0,0,0,731.6,700Z" transform="translate(-616.889 -571.778)"/><path class="i" d="M713.6,753.443h-24.94a.219.219,0,1,1,0-.438H713.6a.219.219,0,0,1,0,.438Z" transform="translate(-584.528 -619.904)"/></g></svg>