<svg xmlns="http://www.w3.org/2000/svg" width="78.673" height="74.985" viewBox="0 0 78.673 74.985"><g transform="translate(0 -1.992)"><path d="M66.472,34.568A32.569,32.569,0,0,1,33.9,67.136C15.911,67.143,1.336,47.314,1.336,34.568a32.568,32.568,0,1,1,65.136,0Zm0,0" transform="translate(-0.099)" fill="#fff"/><path d="M66.987,64.414h2.459v15.98H66.987Zm-25.815,0H43.63v15.98H41.172Zm0,0" transform="translate(-3.065 -4.646)" fill="#2a5082"/><path d="M29.219,17.93H77.16V57.266H29.219Z" transform="translate(-2.175 -1.186)" fill="#fff"/><path d="M78.283,58.4H27.891V47.333h2.459v8.6H75.832V19.06H30.349V33.811H27.891V16.6H78.283Zm0,0" transform="translate(-2.076 -1.087)" fill="#2a5082"/><path d="M14.829,33.786A5.592,5.592,0,0,0,20.36,28V26.072a5.537,5.537,0,1,0-11.063,0V28a5.6,5.6,0,0,0,5.532,5.785Zm0,0" transform="translate(-0.692 -1.362)" fill="#fff"/><path d="M14.73,34.921a6.822,6.822,0,0,1-6.753-7.015V25.978a6.76,6.76,0,1,1,13.514,0v1.928a6.81,6.81,0,0,1-6.761,7.015Zm0-13.507a4.383,4.383,0,0,0-4.295,4.556V27.9a4.275,4.275,0,0,0,7.406,3.181,4.439,4.439,0,0,0,1.2-3.181V25.97a4.381,4.381,0,0,0-1.2-3.188A4.425,4.425,0,0,0,14.73,21.414Zm0,0" transform="translate(-0.594 -1.267)" fill="#2a5082"/><path d="M39.436,39.18H11.163c-5.808,0-9.826,1.859-9.826,7.368V57.611a5.019,5.019,0,0,0,4.917,4.917H22.226v-17.2H33.29A6.377,6.377,0,0,0,39.436,39.18Zm0,0" transform="translate(-0.099 -2.768)" fill="#a3d4ff"/><path d="M23.356,63.658H6.146A6.235,6.235,0,0,1,0,57.512V46.448c0-5.739,3.726-8.6,11.063-8.6H40.558V39.08a7.575,7.575,0,0,1-7.376,7.376H23.356Zm-12.3-23.348c-7.621,0-8.6,3.288-8.6,6.146V57.519a3.792,3.792,0,0,0,3.688,3.688H20.89V44H33.175a5.067,5.067,0,0,0,4.717-3.688Zm0,0" transform="translate(0 -2.668)" fill="#2a5082"/><path d="M7.969,47.14H22.72V80.33H7.969Z" transform="translate(-0.593 -3.36)" fill="#a3d4ff"/><path d="M21.392,45.658H23.85v33.19H21.392Zm-7.376,13.53h2.459V78.856H14.016ZM6.641,45.658H9.1v33.19H6.641Zm35.026,7.383h-9.22V50.583h7.99l3.688-4.925h7.291l7.376-12.285h4.917L67.4,27.227h3.158v2.459H68.8l-3.688,6.146H60.191L52.815,48.124h-7.46ZM36.143,76.4h7.376v2.459H36.143Zm25.807,0h7.376v2.459H61.95Zm0,0" transform="translate(-0.494 -1.878)" fill="#2a5082"/><path d="M26.563,11.289H79.413v8.6H26.563Z" transform="translate(-1.977 -0.692)" fill="#e9eaeb"/><path d="M80.551,21.024H25.234V9.961H80.551ZM27.693,18.566H78.085V12.419H27.693Zm0,0" transform="translate(-1.878 -0.593)" fill="#2a5082"/></g></svg>