<svg xmlns="http://www.w3.org/2000/svg" xmlns:xlink="http://www.w3.org/1999/xlink" width="7.09" height="10.704" viewBox="0 0 7.09 10.704"><defs><linearGradient id="a" x1="1" y1="1" x2="0.5" y2="1" gradientUnits="objectBoundingBox"><stop offset="0" stop-color="#2d3e9a"/><stop offset="0.472" stop-color="#5967b4"/><stop offset="1" stop-color="#a7b1ec"/></linearGradient></defs><path d="M112.436,268.37h-9.591a.446.446,0,0,1,0-.892h9.011l-2.676-2.32a.443.443,0,0,1,.58-.669l3.122,2.721a.684.684,0,0,1,.178.758.632.632,0,0,1-.624.4ZM112.3,267.835Zm-2.543,3.524,1.784-1.561a.443.443,0,0,0-.58-.669l-1.784,1.561a.434.434,0,0,0-.045.625.506.506,0,0,0,.357.134C109.581,271.493,109.671,271.448,109.76,271.359Z" transform="translate(271.465 -102.4) rotate(90)" opacity="0.5" fill="url(#a)"/></svg>