<svg xmlns="http://www.w3.org/2000/svg" width="79.978" height="75.024" viewBox="0 0 79.978 75.024"><g transform="translate(-316 -5749.633)"><path d="M40.6,11.4H60.086c.766,5.51,5.322,9.151,10.847,9.917V49.1c0,14.872-26.532,27.665-30.33,27.665S10.257,63.975,10.257,49.11V21.32c5.5-.774,10.05-4.384,10.847-9.925H40.6Zm0,0" transform="translate(315.394 5746.506)" fill="#fff"/><path d="M40.509,78.065c-2.563,0-10.55-3.634-17.388-8.526C16.579,64.888,8.8,57.558,8.8,49.008V20.023l1.2-.156c5.228-.742,9.018-4.158,9.659-8.745l.164-1.188H61.2l.164,1.188c.633,4.58,4.431,8.01,9.659,8.745l1.188.164V49.016c0,8.526-7.784,15.88-14.325,20.53C51.051,74.423,43.064,78.065,40.509,78.065Zm-28.954-55.7V49.024c0,13.833,25.883,26.282,28.954,26.282,1.321,0,8.495-2.806,15.794-8,4.916-3.493,13.16-10.519,13.16-18.287V22.391c-5.439-1.133-9.44-4.814-10.6-9.7h-36.7c-1.172,4.884-5.174,8.55-10.6,9.7Zm0,0" transform="translate(315.48 5746.592)" fill="#2a5082"/><path d="M61.754,76.233,60.16,73.959c11.308-8.01,17.052-16.552,17.052-25.391V35.7h2.759V48.591c0,9.777-6.119,19.076-18.217,27.642ZM49.641,2.608H60.676V5.367H49.641V2.608Zm-30.338,0H30.338V5.367H19.3V2.608ZM18.2,76.233C6.12,67.668.008,58.368.008,48.591V35.7H2.751V48.591c0,8.831,5.728,17.373,17.052,25.391l-1.6,2.251Zm0,0" transform="translate(316 5747.025)" fill="#bcc0c4"/><path d="M39.786,64.4a21.542,21.542,0,1,1,7.706-41.662l-.985,2.571A18.757,18.757,0,1,0,58.581,42.85h2.751A21.557,21.557,0,0,1,39.786,64.4Zm0,0" transform="translate(314.922 5745.92)" fill="#2a5082"/><path d="M59.814,22.932,41.636,41.1l-7.573-7.573-6.057,6.057L41.636,53.215,65.87,28.981l-6.057-6.049Zm0,0" transform="translate(314.345 5745.824)" fill="#a3d4ff"/><path d="M41.522,55.046,25.939,39.47l8.01-8.01,7.573,7.573L59.707,20.847l7.995,8.01ZM29.838,39.47,41.522,51.146,63.8,28.858l-4.111-4.111L41.506,42.94l-7.557-7.573-4.111,4.1Zm0,0" transform="translate(314.468 5745.947)" fill="#2a5082"/><path d="M77.22,19.152h2.759v2.759H77.22V19.152Zm0,5.517h2.759v2.759H77.22Zm0,5.517h2.759v2.759H77.22ZM0,19.152H2.759v2.759H0V19.152ZM0,24.67H2.759v2.759H0Zm0,5.517H2.759v2.759H0ZM38.606,2.608h2.759V5.367H38.606Zm-5.517,0h2.759V5.367H33.089Zm11.035,0h2.759V5.367H44.123Zm0,0" transform="translate(316 5747.025)" fill="#bcc0c4"/></g></svg>