<svg xmlns="http://www.w3.org/2000/svg" width="48.099" height="36.954" viewBox="0 0 48.099 36.954"><path d="M214.66,122.919a1.01,1.01,0,0,1-.738-.329.967.967,0,0,1-.155-.856,1.042,1.042,0,0,1,.9-.865,1.794,1.794,0,0,1,.325-.014s0,0,0-.009a1.138,1.138,0,0,1,.085-.988.84.84,0,0,1,.715-.348,1.234,1.234,0,0,1,.71.329,1.459,1.459,0,0,1,.583-.616,1.3,1.3,0,0,1,1.74.724,1.357,1.357,0,0,1-.033.776,1.407,1.407,0,0,1,1.053.08,1.062,1.062,0,0,1,.466.992,1.021,1.021,0,0,1-.973,1.124Zm0-.6h4.66c.108,0,.376-.061.376-.527,0-.249-.061-.414-.174-.484-.287-.169-.941.075-1.218.221l-.381-.442a1.4,1.4,0,0,0,.306-.983.583.583,0,0,0-.4-.357.577.577,0,0,0-.484,0,1.226,1.226,0,0,0-.47.715l-.536.1c-.1-.146-.376-.451-.593-.461-.028,0-.113,0-.226.132a.617.617,0,0,0,.009.372.989.989,0,0,0,.183.4.532.532,0,0,1,.24.169l-.024.339-.362.094a.593.593,0,0,1-.155-.075,1.245,1.245,0,0,0-.818-.023.444.444,0,0,0-.249.353.452.452,0,0,0,.033.353A.421.421,0,0,0,214.665,122.321Zm-20.179,3.9h-3.428l-.141-.038a1.145,1.145,0,0,1-.611-1.274,1.038,1.038,0,0,1,.55-.687,1.538,1.538,0,0,1,.828-.108,1.244,1.244,0,0,1,.014-.494.942.942,0,0,1,.992-.7,1.3,1.3,0,0,1,.992.4,1.641,1.641,0,0,1,.376.912,1.218,1.218,0,0,1,.889.1.671.671,0,0,1,.282.578c0,1.124-.616,1.284-.687,1.3Zm-3.344-.6h3.292c.038-.028.2-.179.2-.71,0-.047-.009-.08-.023-.089a1.159,1.159,0,0,0-.729.071l-.4-.306a1.306,1.306,0,0,0-.235-.87.7.7,0,0,0-.541-.2h0c-.306,0-.381.132-.414.23a.652.652,0,0,0,.113.564l-.263.536a1.514,1.514,0,0,0-1.02-.085.443.443,0,0,0-.235.31A.517.517,0,0,0,191.142,125.623Zm37.57,14.282h-3.428l-.141-.038a1.151,1.151,0,0,1-.611-1.274,1.038,1.038,0,0,1,.55-.687,1.538,1.538,0,0,1,.828-.108,1.243,1.243,0,0,1,.014-.494.942.942,0,0,1,.992-.7h.009a1.259,1.259,0,0,1,.983.4,1.641,1.641,0,0,1,.376.912,1.219,1.219,0,0,1,.889.1.671.671,0,0,1,.282.578c0,1.124-.616,1.284-.687,1.3Zm-3.344-.593h3.292c.038-.028.2-.179.2-.71,0-.047-.009-.08-.023-.089a1.159,1.159,0,0,0-.729.071l-.4-.306a1.306,1.306,0,0,0-.235-.87.692.692,0,0,0-.541-.2h0c-.306,0-.381.132-.414.23a.653.653,0,0,0,.113.564l-.263.536a1.514,1.514,0,0,0-1.02-.085.443.443,0,0,0-.235.31A.52.52,0,0,0,225.369,139.312Z" transform="translate(-181.356 -119.1)" fill="#3258e5"/><path d="M5.808,309.5c.188.245.376.494.569.734.042,1.147-.254,2.38.372,3.424.085,1.519.052,3.043.108,4.566.6.127,1.317.075,1.778.546-.155.865-1.411.061-1.867.743l.517.155c-.165.165-.334.324-.5.489-.066-.193-.193-.574-.259-.767l-.6-.273c-.4.075-1.044-.108-1.025.513a3.844,3.844,0,0,1,1.43.169l.042.113a4.245,4.245,0,0,1-1.707.042c-.042-.329-.089-.663-.132-.992-.165.329-.324.658-.489.988-.08-.23-.155-.456-.23-.682-.108.24-.221.48-.329.72a8.674,8.674,0,0,0-2.384-.268c0,.32,0,.64,0,.964,2.652.061,5.3.334,7.957.315a30.867,30.867,0,0,0,4.519.188c-.038-.141-.113-.419-.155-.56a45.528,45.528,0,0,0-5.827-.334l-.047-.456c1.735.118,3.466.249,5.2.386,0-.31,0-.616,0-.926-.216-.014-.649-.038-.865-.052l.089-.729a15.169,15.169,0,0,1,2.812-.108c.071-1.806-.127-3.621.108-5.418.24.028.724.08.964.1a13.544,13.544,0,0,1,.038-1.9,8.379,8.379,0,0,1,1.749-1.637c.922.705.715,1.876.7,2.892-.085.7.517,1.251.451,1.952-.024,1.359.024,2.723.038,4.082a2.257,2.257,0,0,1,1.105.353c-.47.014-.945.019-1.42.009a4.662,4.662,0,0,1,1.448.348,2.489,2.489,0,0,0-.386,1.162c.386.042.771.089,1.157.132l.108.875c8.907.2,17.8.837,26.669,1.651a1.1,1.1,0,0,1,1,.555v.4a1.041,1.041,0,0,0-.705.207.935.935,0,0,0,.705.4v.466c-.564.118-1.133.212-1.7.292-.259,1.063-.329,2.173-.682,3.212a5.916,5.916,0,0,1-2.666-.113,11.665,11.665,0,0,1-.437-2.22,10.068,10.068,0,0,0-.522,3.09,11.761,11.761,0,0,1-3.278.033,10.516,10.516,0,0,0-.32-2.84,15.063,15.063,0,0,0-.541,3.72c-1.152-.009-2.3.009-3.456-.028a9.8,9.8,0,0,0-.4-3.024,9.475,9.475,0,0,0-.466,3.518,23.648,23.648,0,0,1-4.162,0,8.357,8.357,0,0,0-.781-3.71c-.908.87-1.02,2.22-1.82,3.165a8.631,8.631,0,0,1,1.251-3.1c.155-.259.705-.456.87-.118a7.269,7.269,0,0,1,.814,3.5c1.152.019,2.309.019,3.461,0a9.874,9.874,0,0,1,.832-4.209,7.249,7.249,0,0,1,.691,3.663c.945,0,1.89,0,2.84.014a11.947,11.947,0,0,1,.447-3.137,6.206,6.206,0,0,1,.879-2.262c.169.287.339.569.508.856l-1,.127a8.183,8.183,0,0,1,.677,3.593c.879.014,1.764.019,2.648.009a9.351,9.351,0,0,1,.724-3.814c.165-.23.414.235.339.357.188.87.282,1.754.414,2.633.738.019,1.477.023,2.215.019a25.739,25.739,0,0,1,.668-3.165,6.255,6.255,0,0,1,1.557-.306l-1.1-.508.489-.461c-.56-.038-1.119-.08-1.679-.122.207.16.414.315.621.47l-.677.649c-.2-.221-.4-.437-.611-.658.1-.122.3-.367.4-.489-.456-.023-.912-.042-1.364-.061.141.216.282.433.419.649-.216.193-.428.386-.64.578-.273-.4-.527-.828-.207-1.289-.428-.038-.856-.08-1.279-.127.132.245.273.489.386.748a3.39,3.39,0,0,1-.517.992c-.249-.325-.621-.6-.7-1.025.127-.245.268-.48.419-.71-.494-.042-.988-.094-1.481-.151q.261.4.522.818c-.24.4-.48.809-.724,1.209-.268-.367-.7-.682-.724-1.171.118-.376.277-.734.414-1.105a9.382,9.382,0,0,0-.785.644,2.891,2.891,0,0,0-.856-.71c.193.4.409.8.63,1.2-.245.4-.5.809-.757,1.209-.315-.409-.635-.818-.945-1.227.235-.419.461-.837.663-1.265a5.883,5.883,0,0,0-.95.861,1.711,1.711,0,0,0-1.105-.926c.282.447.588.875.9,1.307-.339.47-.687.936-1.035,1.406-.15-.118-.447-.357-.6-.48l.165.785c-.6.047-1.2.108-1.8.165a13.36,13.36,0,0,1,.973-1.425c.08.16.235.475.315.635.094-.127.188-.249.282-.376-.56-.724.2-1.415.461-2.074A3.378,3.378,0,0,0,34.5,323.9c-.31-.3-.513-1.176-1.039-.955a9.449,9.449,0,0,1,.691,1.171c.024.64-.484,1.11-.851,1.566a7.732,7.732,0,0,1-.861-1.524,7.521,7.521,0,0,0,.522-1.256l-.019-.179c-.31.339-.593.705-.875,1.072-.306-.494-.536-1.129-1.162-1.293a18.528,18.528,0,0,0,.983,1.632,14.618,14.618,0,0,1-1.1,1.773,10.712,10.712,0,0,1-.936-1.665c.212-.635.6-1.194.832-1.825a3.806,3.806,0,0,0-1.138,1.43c-.353-.564-.593-1.284-1.279-1.524.3.625.7,1.19.983,1.82a7.619,7.619,0,0,1-1.035,2.069c-.372-.635-.729-1.279-1.077-1.923.324-.654.663-1.3.941-1.975-.672.235-.823,1-1.143,1.557-.287-.494-.56-.992-.823-1.5.372-.019.738-.047,1.11-.08-.795-.028-1.594,0-2.389-.028-.245.564-.508,1.119-.79,1.66-.4-.63-.47-1.655-1.317-1.843.386.757.79,1.5,1.124,2.281-.409.9-.832,1.8-1.26,2.695-.428-.87-.856-1.74-1.223-2.638.089-.306.169-.616.249-.926.146-.061.433-.188.578-.254-.15.386-.306.771-.466,1.152.273.621.555,1.232.837,1.843.324-.616.63-1.246.917-1.876-.287-.625-.588-1.237-.912-1.843l-.08.541c-.141-.155-.277-.315-.409-.47l.353-.277-.277-.325c-.8,0-1.6.038-2.408.061a18.029,18.029,0,0,1,1.077,2.333c-.245,1.176-1.185,2.135-1.166,3.381.24-.428.546-.8.992-.39a6.457,6.457,0,0,1,2.013,4.816c1.444,0,2.892,0,4.336,0,.1-.795-.094-1.754.531-2.375-.183.856.042,1.914-.381,2.662a40.489,40.489,0,0,1-4.778,0c-.118-.625-.085-1.274-.216-1.9a8.575,8.575,0,0,0-1.368-2.643l-1.147.1c-.038,2.116.075,4.232-.113,6.344a13.621,13.621,0,0,1-3.663.23c-1.679.047-3.367-.127-5.041.075-.155-.118-.31-.24-.466-.362l.6.052c-.315-1.538.024-3.141-.1-4.707l-.945.1q.021,1.975,0,3.95c.277.1.55.216.823.329-.3.085-.889.249-1.185.334.2.249.414.494.625.738a9.322,9.322,0,0,0-3.019.658c-1.89.611-3.852,1-5.695,1.735H.8V319.39c.9.014,1.8,0,2.7.024-.014-.071-.038-.2-.052-.268-.875-.089-1.909.174-2.643-.4,1.185.047,2.365-.042,3.546-.1a17.12,17.12,0,0,0-2.986-.042c-.169-.113-.334-.226-.5-.343.64-.028,1.279-.042,1.919-.047.061-1.754-.089-3.513.047-5.253.324-.221.762-.066,1.129-.113a4.982,4.982,0,0,1-.061-1.627A5.475,5.475,0,0,1,5.418,309.5h.39m.24.757c-.2.183-.4.372-.578.574A9.856,9.856,0,0,1,5.7,312.5c.075-.042.23-.132.31-.174.047-.691.014-1.378.042-2.06m12,.193-.658.616a4.546,4.546,0,0,1,.263,1.566c.089,0,.263,0,.357-.009,0-.724.014-1.448.038-2.173M4.4,312.011c-.8.061.4.71,0,0m1.97,1.514a26.357,26.357,0,0,1-3.273-.4c.024.136.071.409.089.541a32.322,32.322,0,0,0,3.372.24l-.188-.376m11.954.165a20.557,20.557,0,0,1-3.174-.31l-.094.489c1.162.047,2.314.268,3.475.249a4.482,4.482,0,0,0-.207-.428M6.42,314.4a27.428,27.428,0,0,0-3.282-.287c0,.339,0,.682,0,1.025a32.512,32.512,0,0,0,3.381.254c-.028-.325-.061-.658-.094-.992m12.015.212a22.829,22.829,0,0,0-3.306-.277v1.016c1.11.113,2.215.24,3.33.259,0-.334-.014-.668-.024-1M6.34,315.91c-1.068-.151-2.149-.221-3.217-.339-.009.879-.014,1.764.019,2.643,1.115-.019,2.229-.024,3.339.023a6.012,6.012,0,0,0-.141-2.328m12.053.193c-1.091-.089-2.177-.277-3.278-.287,0,.861,0,1.726,0,2.587,1.124.019,2.243.056,3.367.108a13.752,13.752,0,0,0-.089-2.408m-.56,2.775c-1.9-.061-3.8-.113-5.695-.052a3.53,3.53,0,0,0,1.538.155c1.383-.066,2.775-.028,4.157-.1m-.353.4c-.6.038-.475.658-.555,1.091.785.16.5-.682.555-1.091m-.912.071c-.437-.085-.564.748-.155.87.348-.08.372-.644.155-.87m-.72-.033-.823-.009c-.028.324-.056.649-.089.978.306.009.616.019.922.023,0-.329,0-.658-.009-.992m-1.242,0c-.475-.136-.555.809-.16.95.381-.089.4-.705.16-.95m-.6.047c-.127-.023-.381-.075-.508-.1,0,.339,0,.672-.009,1.011.108,0,.329,0,.442,0l.075-.917m6.485,1.4c-.569-.014-1.133-.019-1.7-.033l-.019.447c.555.042,1.11.094,1.665.146.009-.141.042-.423.056-.56m-2.14-.019c-1.5.028-3.052-.263-4.515.179a3,3,0,0,0,2.022.32c.795-.075,1.594-.009,2.389-.094.024-.1.075-.3.1-.4m-14.207.456c-.334-.019-.672-.042-1.006-.061q-.007,3.612,0,7.228c.339-.033.682-.061,1.02-.094-.019-2.356-.019-4.717-.014-7.073m-1.35-.024c-.541-.019-1.086-.033-1.627-.047-.033,5.352-.009,10.7-.009,16.05.5-.155,1-.315,1.5-.489.2-2.177.056-4.369.136-6.551q.832-.078,1.665-.169c0,1.787,0,3.569,0,5.356l1.373-.381c.179-1.693-.141-3.438.165-5.1a11.81,11.81,0,0,1,2.154-.2c0,1.561.014,3.123-.014,4.684.442-.169,1.02-.127,1.387-.433.075-1.472,0-2.953.028-4.425.546-.066,1.091-.127,1.641-.188.019,1.444,0,2.883.014,4.327.433-.085.992.1,1.35-.179.146-1.411-.066-2.84.108-4.251l.315-.1.165.122c.056,1.444,0,2.892.019,4.341l1.383.014c0-3.969.009-7.938,0-11.907-.447.014-.9.023-1.345.033-.019,1.98.033,3.964-.019,5.944l-.546.146c0-2.036-.009-4.073.009-6.114q-.72-.049-1.439-.085c-.014,2.112.014,4.218-.014,6.33q-.8.078-1.594.127.014-3.294,0-6.589l-1.4-.009c-.028,2.248-.019,4.5,0,6.753-.757.094-1.519.174-2.281.263-.042-2.384,0-4.769-.024-7.153-.484-.014-.964-.023-1.448-.019.024,2.427.061,4.849.014,7.275a14.16,14.16,0,0,1-1.669.183c.024-2.521.014-5.041.014-7.557m8.037.325c-.221-.009-.663-.024-.884-.033-.033,2.064,0,4.134-.024,6.2.31-.023.625-.052.931-.075,0-2.027.047-4.063-.024-6.09M7.84,321.36l-1.608-.085c0,2.253,0,4.505,0,6.758.522-.042,1.049-.085,1.571-.118.08-2.182.019-4.369.033-6.556m11.23.32-.964.009c.014,3.955,0,7.91,0,11.865l1.162.014c.019-1.6.009-3.212.014-4.816a1.834,1.834,0,0,0-.24-1.03,9.625,9.625,0,0,0,.235-3.118,8.973,8.973,0,0,0-.212-2.925m-1.354-.033c-.527,0-1.053,0-1.58,0,.009,3.955-.024,7.915-.019,11.874.536.019,1.068.028,1.6.028q0-5.947,0-11.9m-1.928-.042c-.221,0-.663.009-.884.014,0,3.969,0,7.938,0,11.907.226.009.668.028.894.033-.024-3.983.033-7.971,0-11.954m11.282,1.082c-.348-.127-.456-.019-.334.324.343.127.456.019.334-.324m-2.92-.061c-.795.047.362.743,0,0m-3.7,1.74a10.481,10.481,0,0,0-.837-1.749c.009,1.232.024,2.46-.009,3.692a9.11,9.11,0,0,0,.846-1.942m9.236-1.411h0m1.162.165c-.226.339-.447.682-.672,1.021a5.249,5.249,0,0,0,.691,1.115c.207-.371.414-.738.611-1.115-.212-.339-.423-.677-.63-1.021m-1.9,1.091c-.249-.419-.517-.828-.8-1.223-.216.437-.423.879-.621,1.331.23.4.466.79.705,1.176q.367-.642.72-1.284m4.858.108c.033-.414-.339-.682-.56-.983-.165.263-.324.531-.489.8.174.31.353.625.527.936a1.909,1.909,0,0,0,.522-.757m6.574-.771a.673.673,0,0,0-.014,1.176c.089-.155.259-.461.348-.611-.08-.146-.249-.428-.334-.564m-1.7.583c-.108-.169-.324-.508-.433-.672-.169.212-.334.423-.508.635.183.226.362.451.541.672.1-.16.3-.475.4-.635m-2.22-.024c-.216-.277-.433-.55-.654-.823a1.218,1.218,0,0,0-.16,1.754,6.675,6.675,0,0,0,.814-.931m5.94-.15c-.306-.254-.546.3-.292.489.3.287.569-.3.292-.489m3.372.24h0M34.763,325.32c-.724-.4-.052.8,0,0M7.826,329.966c-.536.052-1.077.1-1.613.15-.024,1.58.019,3.151-.019,4.731q.825-.2,1.637-.437c-.009-1.486,0-2.963,0-4.444m-3.7.381c-.249.028-.752.08-1.006.1-.009,1.745,0,3.485,0,5.234l1.02-.292c-.024-1.684,0-3.367-.009-5.046m11.926,3.616c-.861-.273-1.731.212-2.61.052a4.081,4.081,0,0,0-2.013.245c2.05.009,4.1-.042,6.146.042a4.074,4.074,0,0,0,1.51-.127,15.55,15.55,0,0,1-3.033-.212m-6.457.517a16.3,16.3,0,0,0-4.19,1.072c-.785.357-2.027-.038-2.417.926a4.746,4.746,0,0,0,1.425-.268c1.655-.517,3.334-.945,4.975-1.481Zm0,0" transform="translate(-0.8 -300.546)" fill="#3258e5"/><path d="M408.726,504.877a.465.465,0,0,1-.019-.7C409.324,504.026,409.371,505.075,408.726,504.877Zm1.721,3.09c-.259.494-.513.988-.795,1.472-.306-.593-.593-1.195-.87-1.8.4-.042.809-.08,1.209-.122.155.15.31.3.456.451m-.564.5a.34.34,0,1,0-.456-.5C409.164,508.216,409.625,508.86,409.883,508.465Zm4.326-.6a5.329,5.329,0,0,1,1,2,23.806,23.806,0,0,1-1.105,2.187c-.071-.042-.207-.127-.277-.174l-.118-.456c-.113.15-.226.3-.339.456.089.136.259.414.348.55-.72.08-1.444.146-2.168.212.339-.781.705-1.542,1.063-2.314.193.353.593.672.32,1.133.146-.141.287-.282.428-.423-.705-1.006-.141-2.206.437-3.113l.414-.056m.687,1.923a8.676,8.676,0,0,0-.9-1.59c-.625.964-.969,2.37.08,3.179.268-.531.536-1.063.818-1.59m-1.716,2.356c-.183-.362-.367-.72-.555-1.082-.174.386-.348.776-.517,1.162C412.376,512.213,412.912,512.171,413.18,512.148Zm16.826-2.06c.075.122.216.367.287.494-.108.277-.644.339-.748.033C429.55,510.281,429.7,510.107,430.006,510.088Zm-3.471.969c-.6.061-1.194.118-1.8.169.306-.447.625-.884.95-1.321.292.376.578.762.846,1.152m-.682-.451C425.144,510.205,425.778,511.414,425.854,510.605Zm-4.134.936q-.783.106-1.566.183v.616a2.072,2.072,0,0,1-1.383-.216c.456-.066.912-.108,1.373-.15l-.489-.32c.357-.517.687-1.053,1-1.594a10.01,10.01,0,0,1,1.063,1.481m-.776-.64c-.235-.31-.748.094-.546.4C420.643,511.574,421.236,511.235,420.944,510.9Zm0,0" transform="translate(-389.384 -486.057)" fill="#3258e5"/><path d="M421.711,632.026q-.7.085-1.411.155c.212-.108.625-.329.832-.437-.132-.249-.263-.5-.4-.743a1.961,1.961,0,0,0-.489,1.227c-.174.009-.517.024-.691.033.353-.668.729-1.317,1.119-1.961C421.029,630.869,421.377,631.443,421.711,632.026Zm-3.649-1.641c.353.654.715,1.3,1.006,1.98-.447.183-.762-.146-1.068-.376l.531.009c-.165-.31-.325-.621-.489-.931l-.564,1.086.564-.075c-.038.132-.118.4-.155.527l-.988-.132A23.8,23.8,0,0,1,418.061,630.385Zm-5.85.169c.249.527.508,1.044.79,1.557l-.075-.061c-.052.315-.113.635-.179.945l-.912-.3c.245,0,.729-.009.973-.014-.179-.447-.362-.884-.56-1.322a11.126,11.126,0,0,0-.724,1.51l-.324-.235C411.543,631.946,411.868,631.245,412.211,630.554Zm19.535.752c-.009.357-.607.343-.814.16C430.961,631.146,431.539,631.137,431.746,631.306Zm4.778.5c-.263.743-1.218.494-1.618.014A1.908,1.908,0,0,1,436.524,631.81Zm-8.9-.047c-.136.376-.79.329-1.1.174C426.691,631.626,427.321,631.617,427.627,631.763Zm5.154.762a1.307,1.307,0,0,1-1.98-.169A1.684,1.684,0,0,1,432.781,632.524Zm-7.792-.475c.174.315.108.517-.193.6C424.612,632.332,424.678,632.129,424.988,632.049Zm-.87.879a.823.823,0,0,1-.235-.893C424.358,631.786,424.546,632.868,424.118,632.929Zm4.609.212a2.149,2.149,0,0,1-2.3.038c.47-.922,1.646-.531,2.3-.038m-.908-.122c-.31-.212-.494-.155-.541.16C427.589,633.39,427.768,633.333,427.819,633.018Zm-4.331-.513a.54.54,0,0,1,.235.6,1.258,1.258,0,0,1-.818-.212C422.745,632.595,423.263,632.36,423.488,632.506Zm-9.89.635a11.68,11.68,0,0,1,1.811-.169,2.335,2.335,0,0,1-2.323.452c0-.287.023-.574.052-.856C413.293,632.755,413.439,632.952,413.6,633.14Zm5.592-.611a25.268,25.268,0,0,1-1.171,2.69c-.014-.865-.019-1.731.038-2.591.282-.024.851-.071,1.133-.1m-.6.522Zm-.969-.306c-.014.753-.009,1.5-.009,2.253a14.991,14.991,0,0,1-1.378-2.159c.461-.052.926-.085,1.387-.094m-.466.357c-.324.028-.372.2-.127.5C417.351,633.568,417.389,633.4,417.154,633.1Zm6.673.451a2.142,2.142,0,0,1-2.572.118c.635-.884,1.764-.456,2.572-.118m-1.086-.014c-.2-.165-.814-.221-.832.118C422.11,633.822,422.736,633.888,422.741,633.54ZM416,633.211c.188.292.372.583.555.875-.24-.052-.72-.16-.964-.212-.169.1-.339.212-.513.315a10.568,10.568,0,0,1,1.787.367c-.959.8-2.8,1.293-3.56-.014a2.206,2.206,0,0,1,1.674-.433c.033-.136.089-.4.118-.541.306-.113.607-.235.9-.357m-.183,1.641a1.681,1.681,0,0,0-2.032-.183A2.316,2.316,0,0,0,415.813,634.852Zm16.892-1.3c-.075.315-.988.324-1.063-.009A1.049,1.049,0,0,1,432.706,633.55Zm-19.008.273c.122.442-.795.545-.846.07C412.912,633.507,413.481,633.667,413.7,633.822Zm15.044.588a9.193,9.193,0,0,1-1.608-.019A1.212,1.212,0,0,1,428.741,634.41Zm-4.468.254c-.339-.1-.682-.2-1.021-.306a2.207,2.207,0,0,1,.776-.4A2.817,2.817,0,0,1,424.274,634.664Zm-.494.348c-.489-.108-1.27.273-1.538-.3A1.8,1.8,0,0,1,423.78,635.012Zm-6.687-.075c.254.56.287,1.18.522,1.745a30.215,30.215,0,0,0-3.391-.1c.39-.277.762-.7,1.279-.668.621.1,1.223.3,1.834.442l-.212-.541a3.175,3.175,0,0,1-1.237-.212C416.279,635.36,416.683,635.148,417.093,634.937Zm-3.127.536c.353-.089,1.082.372.423.564C414,636.39,413.514,635.68,413.965,635.473Zm0,0" transform="translate(-391.9 -606.26)" fill="#3258e5"/></svg>