<svg xmlns="http://www.w3.org/2000/svg" width="42.861" height="49.844" viewBox="0 0 42.861 49.844"><path d="M82.985,14.9a1,1,0,0,1-.747-.334.986.986,0,0,1-.159-.871,1.067,1.067,0,0,1,.911-.881,1.755,1.755,0,0,1,.329-.015s0,0,0-.01a1.166,1.166,0,0,1,.085-1.006.864.864,0,0,1,.727-.354,1.25,1.25,0,0,1,.722.334,1.418,1.418,0,0,1,.593-.622,1.191,1.191,0,0,1,1-.03,1.167,1.167,0,0,1,.772.762,1.377,1.377,0,0,1-.03.792,1.445,1.445,0,0,1,1.071.08,1.08,1.08,0,0,1,.473,1.011A1.042,1.042,0,0,1,87.73,14.9Zm.259-1.5a.729.729,0,0,0-.319.06.462.462,0,0,0-.254.359.456.456,0,0,0,.035.364.443.443,0,0,0,.279.115h4.74c.11,0,.383-.065.383-.538,0-.254-.06-.418-.179-.488-.289-.174-.956.075-1.235.224l-.383-.448a1.415,1.415,0,0,0,.309-1,.585.585,0,0,0-.408-.364.567.567,0,0,0-.493,0,1.222,1.222,0,0,0-.478.727l-.543.1c-.1-.149-.383-.458-.6-.468-.03,0-.115,0-.229.134a.6.6,0,0,0,.01.378,1.015,1.015,0,0,0,.184.4.489.489,0,0,1,.244.174l-.025.344-.368.095a.6.6,0,0,1-.159-.08,1.466,1.466,0,0,0-.508-.095Zm40.911,21.237h-3.486l-.144-.035A1.168,1.168,0,0,1,119.9,33.3a1.064,1.064,0,0,1,.563-.7,1.554,1.554,0,0,1,.842-.11,1.218,1.218,0,0,1,.015-.5.96.96,0,0,1,1.011-.712,1.387,1.387,0,0,1,1.006.4,1.686,1.686,0,0,1,.383.926,1.234,1.234,0,0,1,.9.1.673.673,0,0,1,.284.588c0,1.14-.622,1.3-.7,1.32Zm-3.4-.6H124.1c.04-.03.2-.179.2-.722,0-.05-.01-.08-.025-.09a1.17,1.17,0,0,0-.742.075l-.408-.314a1.329,1.329,0,0,0-.239-.886.728.728,0,0,0-.558-.2c-.309,0-.388.134-.418.234a.64.64,0,0,0,.115.573l-.269.543a1.536,1.536,0,0,0-1.036-.085.465.465,0,0,0-.239.314A.554.554,0,0,0,120.759,34.029Z" transform="translate(-82.046 -11.015)" fill="#3258e5"/><path d="M287.019,50.616h-1.155v-.652l.866-.518a.2.2,0,0,0,.095-.174V47.349a.183.183,0,0,0-.194-.194h-.383v-.961a.183.183,0,0,0-.194-.194H278.36a.183.183,0,0,0-.194.194v.961h-.383a.183.183,0,0,0-.194.194v1.922a.214.214,0,0,0,.095.174l.866.518v.652h-1.155a.183.183,0,0,0-.194.194V87.554h.383V51h9.232V77.166h.383V50.81A.169.169,0,0,0,287.019,50.616Zm-8.465-4.233h7.31v.772h-7.31Zm-.578,1.155h8.465v1.613l-.827.5H278.8l-.827-.5Zm.961,3.077v-.578h6.538v.578Zm0,0" transform="translate(-267.482 -44.258)" fill="#3258e5"/><path d="M250.812,92.4h6.538v.383h-6.538Zm0,4.81h.383v32.317h-.383Zm1.539,0h.383V127.6h-.383Zm1.539,0h.383v28.473h-.383Zm1.539,0h.383v26.546h-.383Zm1.539,0h.383v24.623h-.383Zm1.444,27.6a.17.17,0,0,0,.134-.06l1.25-1.25-.269-.269-1.115,1.115-1.115-1.115-.269.269,1.25,1.25A.17.17,0,0,0,258.41,124.811Zm-1.922,2.5a.171.171,0,0,0,.134-.06l1.25-1.25-.269-.269-1.115,1.115-1.115-1.115L255.1,126l1.25,1.25A.151.151,0,0,0,256.488,127.311Zm2.46-1.3,1.25,1.25a.181.181,0,0,0,.269,0l1.25-1.25-.269-.269-1.115,1.115-1.115-1.115Zm-4.387,3.421a.171.171,0,0,0,.134-.06l1.25-1.25-.269-.269-1.115,1.115-1.115-1.11-.269.269,1.25,1.25A.173.173,0,0,0,254.561,129.427Zm-1.728,2.5a.171.171,0,0,0,.134-.06l1.25-1.25-.269-.269-1.115,1.115-1.115-1.115-.269.269,1.25,1.25A.164.164,0,0,0,252.833,131.932Zm9.576-1.31,1.25,1.25a.181.181,0,0,0,.269,0l1.25-1.25-.269-.269-1.11,1.115-1.115-1.115Zm-4.058-1.25,1.25-1.25-.269-.269-1.115,1.115-1.115-1.115-.269.269,1.25,1.25a.2.2,0,0,0,.134.06A.219.219,0,0,0,258.351,129.372Zm2.216-1.519-.269.269,1.25,1.25a.181.181,0,0,0,.269,0l1.25-1.25-.269-.269-1.115,1.115Zm-8.351,5-1.115,1.115-1.115-1.115-.269.269,1.25,1.25a.181.181,0,0,0,.269,0l1.25-1.25Zm2.674,1.519,1.25-1.25-.269-.269-1.115,1.115-1.115-1.115-.269.269,1.25,1.25a.181.181,0,0,0,.269,0Zm4.442-1.519-1.115,1.115-1.115-1.115-.269.269,1.25,1.25a.181.181,0,0,0,.269,0l1.25-1.25Zm-10.347,3.615-1.115-1.115-.269.269,1.25,1.25a.181.181,0,0,0,.269,0l1.25-1.25-.269-.269Zm3.655,0-1.115-1.115-.269.269,1.25,1.25a.181.181,0,0,0,.269,0l1.25-1.25-.269-.269Zm3.461,0-1.115-1.115-.269.269,1.25,1.25a.181.181,0,0,0,.269,0l1.25-1.25-.269-.269Zm4.233,0-1.115-1.115-.269.269,1.25,1.25a.181.181,0,0,0,.269,0l1.25-1.25-.269-.269Zm3.655,0-1.115-1.115-.269.269,1.25,1.25a.181.181,0,0,0,.269,0l1.25-1.25-.269-.269Zm2.081-.846,1.25,1.25a.181.181,0,0,0,.269,0l1.25-1.25-.269-.269-1.115,1.115-1.115-1.115Zm-1.544-2.5,1.25,1.25a.181.181,0,0,0,.269,0l1.25-1.25-.269-.269-1.115,1.115-1.11-1.115-.274.269Zm-9.287-2.057H261.2v.383h-5.965ZM261,132.793h2.31v.383H261Zm0,0" transform="translate(-239.356 -88.347)" fill="#3258e5"/><path d="M202.4,45.993a.183.183,0,0,0-.194-.194h-.578V44.26a.183.183,0,0,0-.194-.194h-.961V38.3h-.383v5.771h-.961a.183.183,0,0,0-.194.194V45.8h-.578a.183.183,0,0,0-.194.194v1.539h-3.655V46a.183.183,0,0,0-.194-.194h-.578V44.265a.183.183,0,0,0-.194-.194h-.961V38.3H192.2v5.771h-.961a.183.183,0,0,0-.194.194V45.8h-.578a.183.183,0,0,0-.194.194V72.369l-2.923-3.426a.214.214,0,0,0-.154-.06.18.18,0,0,0-.154.075l-14.236,17.5a.2.2,0,0,0-.02.209.215.215,0,0,0,.174.115H202.2a.193.193,0,0,0,.174-.115.113.113,0,0,0,.02-.075v-40.6Zm-3.082-1.539h1.922V45.8h-1.922Zm-.767,1.733h3.461V86.063l-1.21-1.4h.06V47.726a.183.183,0,0,0-.194-.194h-2.116Zm-6.349,13.464h8.271v1.155h-8.271Zm3.077-1.155V49.265H197.2v10h-1.922Zm-3.077,2.694h8.271v1.155h-8.271Zm0,1.539h8.271v1.155h-8.271Zm0,1.539h8.271v1.155h-8.271Zm0,1.539h8.271v.772h-8.271Zm0,1.155h8.271v1.155h-8.271Zm0,1.539h8.271v1.155h-8.271V68.5Zm0,1.539h8.271v1.155h-8.271Zm0,1.539h8.271v1.155h-8.271Zm0,1.539h8.271v1.155h-8.271Zm8.271-13.848h-2.883V58.5h2.883Zm-2.883-1.155V56.958h2.883v1.155h-2.883Zm0-1.539V55.419h2.883v1.155Zm0-1.539V53.881h2.883v1.155Zm0-1.539V52.342h2.883V53.5Zm0-1.539V50.8h2.883v1.155Zm0-1.539V49.265h2.883V50.42Zm2.883-1.539h-8.271V47.92h8.271Zm-8.271.383H194.9V50.42h-2.694ZM194.9,50.8v1.155h-2.694V50.8Zm0,1.539V53.5h-2.694V52.342Zm0,1.539v1.155h-2.694V53.881Zm0,1.539v1.155h-2.694V55.419Zm0,1.539v1.155h-2.694V56.958Zm0,1.539v.772h-2.694V58.5Zm5.577,16.158V75.81h-7.25l-.981-1.155h8.231Zm0,1.539v1.155h-5.926l-.981-1.155Zm0,1.539v1.155H195.86l-.981-1.155Zm0,1.544v1.155h-3.291l-.981-1.155Zm0,1.539V81.97h-1.982l-.981-1.155Zm0,1.539v1.922l-1.633-1.922h1.633Zm-9.038-37.9h1.922V45.8h-1.922Zm-.772,28.278V46.187h3.461v1.344h-2.116a.183.183,0,0,0-.194.194V74.177l-1.23-1.444ZM173.373,86.392l13.833-17,4.616,5.388v.095h.075l9.889,11.542H173.373Zm0,0" transform="translate(-168.247 -36.941)" fill="#3258e5"/></svg>