<svg xmlns="http://www.w3.org/2000/svg" width="18.2" height="16.252" viewBox="0 0 18.2 16.252"><path d="M64,72.1a9.1,9.1,0,0,1,18.2,0v4.88a2.272,2.272,0,0,1-2.272,2.272H78.791a2.272,2.272,0,0,1-2.272-2.272V73.571A2.272,2.272,0,0,1,78.791,71.3h1.743a7.478,7.478,0,0,0-14.869,0h1.743a2.272,2.272,0,0,1,2.272,2.272V76.98a2.272,2.272,0,0,1-2.272,2.272H66.272A2.272,2.272,0,0,1,64,76.98V72.1Zm16.577.822H78.791a.649.649,0,0,0-.649.649V76.98a.649.649,0,0,0,.649.649h1.136a.649.649,0,0,0,.649-.649Zm-14.954,0V76.98a.649.649,0,0,0,.649.649h1.136a.649.649,0,0,0,.649-.649V73.571a.649.649,0,0,0-.649-.649Z" transform="translate(-64 -63)" fill="#fff"/></svg>