<svg xmlns="http://www.w3.org/2000/svg" width="16.198" height="18.991" viewBox="0 0 16.198 18.991"><path d="M105.464,20.676a.559.559,0,0,1,.559.559V35.757a.559.559,0,0,1-.559.559H93.734a.559.559,0,0,1-.559-.559V21.234a.559.559,0,0,1,.559-.559h11.73m0-1.676H93.734A2.233,2.233,0,0,0,91.5,21.234V35.757a2.233,2.233,0,0,0,2.234,2.234h11.73a2.233,2.233,0,0,0,2.234-2.234V21.234A2.233,2.233,0,0,0,105.464,19Z" transform="translate(-91.5 -19)" fill="#fff"/><path d="M468.514,30.149l-3.607-2.7-3.607,2.7V19h1.967v7.214l1.64-1.23,1.639,1.23V19h1.967Z" transform="translate(-454.935 -19)" fill="#fff"/></svg>