<svg xmlns="http://www.w3.org/2000/svg" width="25.543" height="51.546" viewBox="0 0 25.543 51.546"><defs><style>.a{fill:#b6cdf0;}</style></defs><path class="a" d="M252.362,58.146H228.975a1.075,1.075,0,1,1,0-2.151h3v-3.8a1.015,1.015,0,0,1-.225-.164l-1.04-1.04a1.077,1.077,0,0,1,1.265-1.71V46.563a.956.956,0,0,1-.23-.169l-1.029-1.029a1.082,1.082,0,0,1-.282-1.04,1.066,1.066,0,0,1,.763-.763,1.1,1.1,0,0,1,.783.087V40.94a1.016,1.016,0,0,1-.225-.164l-1.04-1.04a1.076,1.076,0,0,1,0-1.521,1.072,1.072,0,0,1,1.26-.195v-2.7a1.21,1.21,0,0,1-.23-.169l-1.034-1.034a1.073,1.073,0,0,1-.317-.763,1.053,1.053,0,0,1,.317-.758,1.1,1.1,0,0,1,1.265-.189V29.695a.956.956,0,0,1-.23-.169l-1.034-1.034a1.086,1.086,0,0,1-.282-1.04,1.074,1.074,0,0,1,.763-.763,1.089,1.089,0,0,1,.783.087V24.067a.956.956,0,0,1-.23-.169l-1.029-1.029a1.076,1.076,0,0,1,0-1.521,1.079,1.079,0,0,1,1.265-.195,1.078,1.078,0,0,1,.86-1.05V17.861a.961.961,0,0,1-.1.015.9.9,0,0,1-.978-.789.888.888,0,0,1,.789-.973,2.807,2.807,0,0,0,2.181-1.613.882.882,0,0,1,.8-.548.918.918,0,0,1,.819.5,3.857,3.857,0,0,0,2.366,1.695.887.887,0,0,1-.123,1.726v2.407l1.388.236V10.973a.7.7,0,0,1,1.393,0v9.535l1.357-.317V17.881a.8.8,0,0,1-.1.015.893.893,0,0,1-.978-.783.88.88,0,0,1,.789-.973,2.838,2.838,0,0,0,2.135-1.506.886.886,0,0,1,1.383-.942.892.892,0,0,1,.343.891,4.043,4.043,0,0,0,2.3,1.593.886.886,0,0,1-.123,1.715v2.043a.888.888,0,0,1,.686.63,1.071,1.071,0,0,1,.21.615,1.076,1.076,0,0,1,1.111,1.838l-1.111.763V26.8a1.083,1.083,0,0,1,1.362.358,1.069,1.069,0,0,1-.236,1.465l-1.127.773v3.016a1.078,1.078,0,0,1,1.116,1.838l-1.116.768v3.016a1.076,1.076,0,0,1,1.116,1.833l-1.116.768v3.016a1.076,1.076,0,0,1,1.116,1.833l-1.116.768v3.021a1.1,1.1,0,0,1,.7-.108,1.075,1.075,0,0,1,.415,1.946l-1.111.763V55.99h3a1.078,1.078,0,0,1-.005,2.156ZM228.975,56.62a.451.451,0,1,0,0,.9h23.387a.451.451,0,1,0,0-.9h-3.62v-5.1l.22-.123,1.162-.8a.464.464,0,0,0,.189-.287.45.45,0,0,0-.7-.451l-.876.6V45.9l.225-.123,1.157-.8a.449.449,0,0,0-.512-.737l-.876.6V40.28l.23-.128,1.157-.8a.449.449,0,0,0-.512-.737l-.871.6V34.652l.22-.118,1.162-.8a.449.449,0,0,0-.512-.737l-.871.594V29.024l.169-.087.174.266-.108-.292,1.152-.794a.451.451,0,0,0-.522-.732l-.865.594V23.407l.23-.118,1.152-.8a.45.45,0,1,0-.507-.743l-.876.6V21.169a.435.435,0,0,0-.108-.277l-.056-.067-.015-.087a.252.252,0,0,0-.246-.21h-.466v-3.41l.415.143a.256.256,0,0,0,.143-.492,4.386,4.386,0,0,1-2.74-2.018l-.056-.123.051-.128a.258.258,0,0,0-.087-.307.26.26,0,0,0-.389.317l.056.123-.051.128a3.46,3.46,0,0,1-2.694,2,.258.258,0,0,0-.236.282.266.266,0,0,0,.287.23,3.8,3.8,0,0,0,.4-.082l.389-.092v3.59l-2.612.609V10.973c0-.077-.133-.077-.133,0v10.3l-2.647-.451V17.108l.42.149a.248.248,0,0,0,.333-.2.259.259,0,0,0-.179-.287,4.448,4.448,0,0,1-2.745-2.018.283.283,0,0,0-.256-.154.248.248,0,0,0-.22.159,3.471,3.471,0,0,1-2.694,2,.266.266,0,0,0-.179.092.27.27,0,0,0-.056.189.259.259,0,0,0,.287.23,3.754,3.754,0,0,0,.41-.082l.389-.1v3.651l-.451-.02a.464.464,0,0,0-.277.133.446.446,0,0,0-.133.317v1.439l-.814-.809a.445.445,0,0,0-.635,0,.451.451,0,0,0,0,.635l1.029,1.029a.416.416,0,0,0,.189.1l.225.067v4.6l-.814-.809a.449.449,0,1,0-.635.635l1.029,1.029a.508.508,0,0,0,.189.1l.225.067v4.6l-.814-.809a.451.451,0,0,0-.635,0,.445.445,0,0,0,0,.635l1.029,1.029a.432.432,0,0,0,.184.1l.236.061v4.6l-.814-.809a.445.445,0,0,0-.635,0,.451.451,0,0,0,0,.635l1.029,1.029a.424.424,0,0,0,.184.1l.236.061v4.6l-.814-.809a.449.449,0,1,0-.635.635l1.029,1.029a.43.43,0,0,0,.195.1l.225.067v4.6l-.814-.814a.449.449,0,0,0-.63.64l1.029,1.029a.487.487,0,0,0,.184.1l.236.061v4.885h-3.62Zm16.73.026-.548-.026h-2.509l.276-.471-.005-1.434-.917.031.031,1.429.261.466-.538-.02h-2.5l.271-.471-.005-1.434-.917.031.031,1.429.246.461-.522-.015h-2.5l.277-.471-.005-1.434-.917.031.031,1.429.246.461-.522-.015H233.5V51.7h3.651l3.446.584a.4.4,0,0,0,.174-.005l3.446-.8h3.626V56.62h-1.8l.287-.476-.005-1.434-.917.031.031,1.429Zm1.244-.65h.261V52.114h-2.965l-3.334.778a1.011,1.011,0,0,1-.43.015l-3.4-.579-2.97.005V56h.486v-1.28a.6.6,0,0,1,.6-.6h.947a.6.6,0,0,1,.6.6V56h1.255v-1.28a.6.6,0,0,1,.6-.6h.942a.6.6,0,0,1,.6.6V56h1.26v-1.28a.6.6,0,0,1,.6-.6h.942a.6.6,0,0,1,.6.6V56h1.26v-1.28a.6.6,0,0,1,.6-.6h.942a.6.6,0,0,1,.6.6V56Zm-6.293-4.609-1.132-.195v-1.7l-.917.031.031,1.521-1.352-.23a.363.363,0,0,0-.077-.005h-1.08V49.5l-.917.031.031,1.285H233.5V46.092h3.651l3.446.584a.4.4,0,0,0,.174-.005l3.446-.8h3.626v4.721h-1.521V49.5l-.917.031.031,1.06h-1.311a.516.516,0,0,0-.1.01l-1.106.261V49.5l-.917.031.031,1.536-1.383.317Zm-.507-.722.486.082.773-.179V49.5a.6.6,0,0,1,.6-.6h.942a.6.6,0,0,1,.6.6v.568l.333-.077a.951.951,0,0,1,.246-.031h.681v-.466a.6.6,0,0,1,.6-.6h.942a.6.6,0,0,1,.6.6v.466h.261V46.491h-2.965l-3.334.783a1.014,1.014,0,0,1-.43.01l-3.39-.579-2.97.005v3.467h.487v-.686a.6.6,0,0,1,.6-.6h.942a.6.6,0,0,1,.6.6v.686h.456a.958.958,0,0,1,.174.015l.63.108v-.8a.6.6,0,0,1,.6-.6h.942a.6.6,0,0,1,.6.6v1.168Zm.507-4.9-1.132-.195v-1.7l-.917.026.031,1.521-1.352-.23a.387.387,0,0,0-.077-.005h-1.086V43.875l-.917.031.031,1.285H233.5V40.469h3.651l3.446.584a.523.523,0,0,0,.179-.005l3.441-.8h3.626V44.97H246.32V43.88l-.917.031.031,1.06h-1.311a.63.63,0,0,0-.1.01l-1.1.256V43.875l-.917.031.031,1.541Zm-.507-.722.486.082.773-.179V43.88a.6.6,0,0,1,.6-.6h.942a.6.6,0,0,1,.6.6v.574l.333-.077a1.01,1.01,0,0,1,.246-.031h.681V43.88a.6.6,0,0,1,.6-.6h.942a.6.6,0,0,1,.6.6v.466h.261V40.879h-2.965l-3.334.778a1.163,1.163,0,0,1-.42.015l-3.4-.579-2.97.005v3.467h.487V43.88a.6.6,0,0,1,.6-.6h.942a.61.61,0,0,1,.425.174.616.616,0,0,1,.179.42v.686h.456a1.015,1.015,0,0,1,.179.015l.62.108v-.8a.6.6,0,0,1,.6-.6h.942a.605.605,0,0,1,.425.179.592.592,0,0,1,.174.425v1.162Zm.507-4.9-1.132-.189v-1.7l-.917.031.031,1.521-1.352-.23a.363.363,0,0,0-.077-.005h-1.086V38.262l-.917.031.031,1.285H233.5V34.857h3.651l3.446.584a.4.4,0,0,0,.174-.005l3.446-.8h3.626v4.721H246.32V38.267l-.917.031.031,1.06h-1.311a.63.63,0,0,0-.1.01l-1.1.261V38.267L242,38.3l.031,1.541-1.378.307Zm-.507-.722.486.082.773-.179v-1.07a.6.6,0,0,1,.6-.6h.942a.6.6,0,0,1,.6.594v.574l.333-.077a.951.951,0,0,1,.246-.031h.681v-.461a.6.6,0,0,1,.6-.6h.942a.6.6,0,0,1,.6.6v.461h.261V35.251h-2.965l-3.334.783a1.011,1.011,0,0,1-.43.015l-3.4-.579-2.97.005v3.467h.486v-.686a.6.6,0,0,1,.6-.6h.947a.6.6,0,0,1,.6.6v.686h.456a1,1,0,0,1,.174.015l.625.108v-.8a.6.6,0,0,1,.6-.6h.942a.6.6,0,0,1,.6.6v1.162Zm.507-4.9-1.132-.189v-1.7l-.917.031.031,1.521-1.352-.23a.388.388,0,0,0-.077-.005h-1.086V32.645l-.917.031.031,1.28H233.5V29.234h3.651l3.446.584a.4.4,0,0,0,.174-.005l3.446-.8h3.626v4.721H246.32V32.645l-.917.031.031,1.06h-1.311a.568.568,0,0,0-.1.01l-1.106.261V32.645l-.917.031.031,1.541Zm-.507-.722.486.082.773-.179v-1.07a.6.6,0,0,1,.6-.6h.942a.6.6,0,0,1,.6.6v.568l.333-.077a.951.951,0,0,1,.246-.031h.681v-.461a.6.6,0,0,1,.6-.6h.942a.6.6,0,0,1,.6.6v.466h.261V29.639h-2.965l-3.334.778a1.216,1.216,0,0,1-.43.015l-3.4-.579-2.97.005v3.467h.486v-.681a.6.6,0,0,1,.6-.6h.947a.61.61,0,0,1,.425.174.616.616,0,0,1,.179.42v.686h.456a1.015,1.015,0,0,1,.179.015l.62.108v-.8a.6.6,0,0,1,.6-.6h.942a.6.6,0,0,1,.6.6Zm.507-4.9-1.132-.195v-1.7l-.917.031.031,1.521-1.352-.23a.441.441,0,0,0-.082-.005h-1.08V27.017l-.917.031.031,1.28H233.5V23.606h3.651l3.446.584a.4.4,0,0,0,.174-.005l3.446-.8h3.626v4.721H246.32V27.017l-.917.031.031,1.06h-1.311a.77.77,0,0,0-.1.01l-1.1.256V27.012l-.917.031.031,1.536Zm-.507-.722.486.082.773-.179v-1.07a.6.6,0,0,1,.6-.6h.942a.6.6,0,0,1,.6.594v.574l.333-.077a1.01,1.01,0,0,1,.246-.031h.681v-.461a.6.6,0,0,1,.6-.6h.942a.6.6,0,0,1,.6.594v.466h.261V24.011h-2.965l-3.334.783a1.011,1.011,0,0,1-.43.015l-3.4-.579-2.97.005V27.7h.486v-.686a.6.6,0,0,1,.6-.6h.947a.6.6,0,0,1,.6.594V27.7h.456a1.015,1.015,0,0,1,.179.015l.62.108v-.8a.6.6,0,0,1,.6-.6h.942a.6.6,0,0,1,.6.6v1.168Zm.507-4.9-3.369-.574a.441.441,0,0,0-.082-.005H233.5V21.266h3.943l3.267.553a.235.235,0,0,0,.1-.005l2.694-.63.133.031,4.2-.005v1.275h-3.713a.764.764,0,0,0-.108.01Zm-6.534-1.209h3.088a1.015,1.015,0,0,1,.179.015l3.247.553,3.247-.763a1,1,0,0,1,.246-.026l3.088-.02h-3.61a.528.528,0,0,1-.1-.01l-2.55.6a.889.889,0,0,1-.348.01l-3.216-.548-3.262.005v.184Zm-.148-.942V19.054h3.467V20.7h-3.021Zm.63-1.07h2.212v-.389H234.6Zm12.725.471h-3.467v-1.49h3.467Zm-2.837-.625H246.7v-.236h-2.212Zm2.837-1h-3.467V16.862l.164-.087a3.647,3.647,0,0,0,1.208-1.045l.225-.3.256.282a5.127,5.127,0,0,0,1.439,1.1l.169.087v2.018Zm-2.837-.63H246.7V17.272a5.774,5.774,0,0,1-1.193-.886,4.248,4.248,0,0,1-1.019.845Zm-7.051.63h-3.467V16.862l.164-.087a3.647,3.647,0,0,0,1.208-1.045l.225-.3.256.282a5.127,5.127,0,0,0,1.439,1.1l.169.087v2.018Zm-2.837-.63h2.207V17.272a5.773,5.773,0,0,1-1.193-.886,4.248,4.248,0,0,1-1.019.845Zm7.492-7.3-1.429-1.04-1.424,1.034.543-1.675-1.429-1.034h1.762l.543-1.675.543,1.675h1.762l-1.429,1.034ZM240.3,8.9l.23.169-.087.271.23-.169.23.169-.087-.271.23-.169h-.287l-.087-.271-.087.271Z" transform="translate(-227.9 -6.6)"/></svg>