<svg xmlns="http://www.w3.org/2000/svg" width="39.422" height="45.737" viewBox="0 0 39.422 45.737"><defs><style>.a{fill:#b6cdf0;}</style></defs><path class="a" d="M114.931,60.737h-9.823a.7.7,0,0,1-.707-.712v-2.4a.7.7,0,0,1,.707-.712h.166v-1.2h-.166A.7.7,0,0,1,104.4,55v-.869a.748.748,0,0,1,.231-.522l.046-.042,4.086-2.861v-.675h-1.257a.681.681,0,0,1-.5-.208l-.435-.435a.749.749,0,0,1-.208-.522.674.674,0,0,1,.236-.5l.042-.037,2.922-2.015c.018-.009.046-.023.079-.037V45h-1.257a.691.691,0,0,1-.5-.208l-.435-.435a.737.737,0,0,1-.208-.522.667.667,0,0,1,.236-.5l.042-.037,2.875-1.992a1.038,1.038,0,0,1,.125-.06V39.976h-2.131a.681.681,0,0,1-.5-.208l-.435-.435a.737.737,0,0,1-.208-.522.694.694,0,0,1,.236-.5l.042-.037,2.875-1.992c.042-.023.083-.042.125-.06V34.9c-.032-.014-.055-.028-.079-.037l-2.089-1.4a.765.765,0,0,1-.231-.522v-.874a.7.7,0,0,1,.712-.707h1.479c.74-.153,2.769-2.413,4.276-4.512l.037-.046a.922.922,0,0,1,.185-.148,1.783,1.783,0,0,1,.074-1.553,1.153,1.153,0,0,1-.217-.675V20.492a1.135,1.135,0,0,1,.643-1.031,1.791,1.791,0,0,1,.448-3.023V15h1.428v1.461a1.791,1.791,0,0,1,.448,3.023,1.139,1.139,0,0,1,.638,1.031v3.906a1.1,1.1,0,0,1-.222.661,1.8,1.8,0,0,1,.1,1.512.691.691,0,0,1,.37.2l3.952,4.586h1.415a.7.7,0,0,1,.712.707v.874a.7.7,0,0,1-.291.573l-1.817,1.341c-.023.009-.051.023-.088.037v1.456l2.741,1.9a.657.657,0,0,1,.31.564.737.737,0,0,1-.208.522l-.435.435a.7.7,0,0,1-.5.208h-1.9v1.391l2.746,1.9a.661.661,0,0,1,.31.564.758.758,0,0,1-.208.522l-.435.435a.678.678,0,0,1-.495.208h-1.045v1.391l2.746,1.9a.661.661,0,0,1,.31.564.73.73,0,0,1-.208.522l-.435.435a.681.681,0,0,1-.5.208h-.823v.749l2.016,2.016c.472.079.846.157,1.183.245a.7.7,0,0,1,.675-.495H130a.7.7,0,0,1,.707.712v1.068a13.647,13.647,0,0,1,1.47.841h1.045v-.823a.7.7,0,0,1,.712-.712h1.747a.7.7,0,0,1,.712.712v.814h2.732v-.823a.7.7,0,0,1,.712-.712h1.747a.7.7,0,0,1,.712.712V56.7h.818a.7.7,0,0,1,.712.712v2.4a.7.7,0,0,1-.712.707H131.743a.688.688,0,0,1-.495-.2,12.52,12.52,0,0,0-8.025-2.64,11.229,11.229,0,0,0-7.794,2.843A.668.668,0,0,1,114.931,60.737Zm-9.823-3.4a.269.269,0,0,0-.282.282v2.4a.269.269,0,0,0,.282.282h9.823a.243.243,0,0,0,.194-.083,11.661,11.661,0,0,1,8.1-2.972,12.922,12.922,0,0,1,8.312,2.755.276.276,0,0,0,.2.083H143.1a.269.269,0,0,0,.282-.282V57.4a.272.272,0,0,0-.282-.282h-1.243V54.348a.269.269,0,0,0-.282-.282h-1.747a.269.269,0,0,0-.282.282V55.6h-3.583V54.348a.269.269,0,0,0-.282-.282H133.93a.269.269,0,0,0-.282.282V55.6h-1.595L132,55.56a13.284,13.284,0,0,0-1.595-.911l-.12-.06V53.257a.269.269,0,0,0-.282-.282h-1.747a.269.269,0,0,0-.282.282V53.6l-.273-.083a10.76,10.76,0,0,0-1.438-.31L126.2,53.2l-2.247-2.233v-1.35H125.2a.243.243,0,0,0,.194-.083l.435-.435a.3.3,0,0,0,.083-.222.249.249,0,0,0-.106-.2l-2.945-2.043V44.59h1.47a.243.243,0,0,0,.194-.083l.435-.435a.32.32,0,0,0,.083-.222.256.256,0,0,0-.106-.2l-2.945-2.039V39.57h2.334a.259.259,0,0,0,.194-.083l.435-.435a.32.32,0,0,0,.083-.222.241.241,0,0,0-.111-.2l-2.9-2.029-.037-.12v-1.9l.176-.028a.425.425,0,0,0,.134-.051l1.766-1.308a.27.27,0,0,0,.116-.227V32.09a.269.269,0,0,0-.282-.282h-1.6l-4.068-4.72a.3.3,0,0,0-.213-.079h-.569l.2-.324a1.364,1.364,0,0,0-.023-1.5l-.1-.143.125-.125a.694.694,0,0,0,.208-.49V20.524a.7.7,0,0,0-.721-.721h-1.308a.7.7,0,0,0-.721.721v3.929a.714.714,0,0,0,.2.5l.12.12-.092.143a1.387,1.387,0,0,0-.227.758,1.334,1.334,0,0,0,.2.7l.18.291-.342.032a.356.356,0,0,0-.194.1c-.888,1.23-3.43,4.461-4.586,4.692l-1.521,0a.269.269,0,0,0-.282.282v.874a.367.367,0,0,0,.106.222l1.992,1.327a.377.377,0,0,0,.116.042l.19.023v2.006l-.176.032a.484.484,0,0,0-.139.051l-2.871,1.983a.263.263,0,0,0-.1.19.337.337,0,0,0,.083.222l.435.435a.249.249,0,0,0,.194.083h2.556V41.6l-.18.028a.425.425,0,0,0-.134.051l-2.871,1.988a.271.271,0,0,0-.1.19.307.307,0,0,0,.083.222l.435.435a.272.272,0,0,0,.2.083h1.683v2.029l-.176.028a.507.507,0,0,0-.134.051l-2.871,1.988a.262.262,0,0,0-.1.19.328.328,0,0,0,.083.222l.435.435a.243.243,0,0,0,.194.083h1.683v1.322l-4.271,2.986a.352.352,0,0,0-.1.213v.869a.269.269,0,0,0,.282.282h.592v2.057h-.587ZM116.2,15.425v1.336l-.148.051a1.371,1.371,0,0,0-.079,2.579l.5.2.508-.2a1.371,1.371,0,0,0-.079-2.579l-.148-.051V15.425Zm-1.253,44.322h-9.55V57.913h9.546a.248.248,0,0,0,.2-.088c.088-.092,2.261-2.316,8.094-2.316a18.536,18.536,0,0,1,4.576.532l.162.042v.083l.37.009a11.8,11.8,0,0,1,3.49,1.489.356.356,0,0,0,.134.032h10.849V59.53h-10.96l-.06-.051a13.475,13.475,0,0,0-8.566-2.787,13.141,13.141,0,0,0-5.959,1.354,9.584,9.584,0,0,0-2.325,1.576Zm-9.125-.425h8.82a10.11,10.11,0,0,1,2.441-1.66,13.581,13.581,0,0,1,6.148-1.4,13.966,13.966,0,0,1,8.778,2.838h10.383v-.985H131.965a.713.713,0,0,1-.361-.1l-.079-.051a12.367,12.367,0,0,0-3.273-1.368h-.707v-.18a18.178,18.178,0,0,0-4.313-.476c-5.654,0-7.771,2.163-7.789,2.187a.68.68,0,0,1-.5.217h-9.121Zm9-1.979h-2V56.165h2.122a.367.367,0,0,0,.222-.106,1.4,1.4,0,0,1,.25-.222l.342-.254v1.072l-.1.065a5.819,5.819,0,0,0-.767.573l-.069.051Zm-1.576-.425h1.41c.106-.092.259-.213.453-.351a.665.665,0,0,1-.171.023h-1.692Zm-.994.425h-1.179V54.63h1.179Zm-.754-.425h.328V55.06H111.5Zm-.994.425H108.01V56.165H110.5Zm-2.066-.425h1.641V56.59h-1.641Zm-.989.425h-1.179V54.63h1.179Zm-.758-.425h.328V55.06h-.328Zm26.955.213h-1.595l-.055-.037a9.91,9.91,0,0,0-1.581-.8l-.129-.055V55.217l.314.166a11.1,11.1,0,0,1,1.193.717l.028.014a.311.311,0,0,0,.148.046h1.678Zm-1.465-.425h1.04V56.59h-1.23A1.364,1.364,0,0,1,132.178,56.706Zm-1.47-.754.153.069c-.051-.028-.1-.06-.153-.088Zm10.581,1.174H140.11V54.635h1.179Zm-.753-.425h.328V55.06h-.328Zm-.994.425h-3.583v-.966h3.583Zm-3.157-.425h2.732V56.59h-2.732Zm-.994.425h-1.179V54.635h1.179Zm-.753-.425h.328V55.06h-.328Zm-18.329-.365V53.549h1.179v2.288l-.139.051a7.623,7.623,0,0,0-.735.305l-.305.143Zm.425-2.362v1.7c.106-.046.217-.092.328-.134V53.974Zm12.981,2.034-.282-.1c-.222-.079-.472-.157-.744-.236l-.153-.046V53.535h1.179l-.023,1.336-.042.083h.065Zm-.5-.619a.506.506,0,0,0,.079.023v-.023Zm-.25-.079a.319.319,0,0,1,.037.014l.291-.587v-.767h-.328Zm-10.9.324v-1.3l.143-.051a13.988,13.988,0,0,1,3.647-.67l.231-.018v1.378l-.2.014a16.564,16.564,0,0,0-3.546.578Zm.425-1v.439a17.333,17.333,0,0,1,3.167-.5v-.518A13.489,13.489,0,0,0,118.481,54.635Zm9.49.86-.259-.06a19.7,19.7,0,0,0-3.125-.448l-.2-.014v-1.4l.231.018a12.671,12.671,0,0,1,3.208.545l.148.046v1.308Zm-3.157-.92a20.139,20.139,0,0,1,2.732.388v-.472a12.453,12.453,0,0,0-2.732-.458Zm-.994.393h-1.179V52.675h1.179v.6l-.037.361.037.148Zm-.754-.43h.328l-.023-.55-.028-.236.051-.661h-.328v1.447Zm-8.131.194v-.014H113.7l.425-3.361h1.812l-.208,3.347Zm-.754-.439h1.142l.157-2.51H114.5Zm-3.68.43h-.633l.18-.319a.8.8,0,0,1,.06-.092l.055-.083h0l.282-.458c.827-1.345,1.193-1.992,1.35-2.3l.356-.675h-2.39V49.619h6.384V50.8h-3.948v.569h1.179l-.065.264c-.166.652-.5,1.687-.689,2.247l-.046.134-.915.06h-.878a.412.412,0,0,0-.1.014l-.176.046Zm.513-1.077h.629l.615-.042c.162-.495.4-1.239.564-1.817h-.717C111.889,52.194,111.514,52.832,111.015,53.646Zm-.832-3.273h5.533v-.328h-5.533Zm-.915,3.7H105.69l3.869-2.714h1.47Zm-2.228-.425h2l1.211-1.858h-.555Zm11.016.074v-.458a.157.157,0,0,0,0-.046c0-.009,0-.018,0-.028a.255.255,0,0,0-.217-.2h-1.072V51.362h1.41l.028.18c.079.522.227,1.336.319,1.835l.028.162-.213.1Zm-.282-1.165a.68.68,0,0,1,.166.018c-.046-.273-.092-.545-.134-.781h-.619v.767l.587,0Zm1.336.869-.032-.2c-.083-.476-.171-1.017-.24-1.433H118.8v-.213l.213-.018v-.194H120.9l.051.143c.143.411.4,1.008.587,1.433l.125.277-1.077.079c-.476.037-.948.069-1.267.106Zm.153-1.632c.055.351.129.772.2,1.165.305-.028.693-.06,1.086-.088l.476-.037c-.148-.337-.31-.726-.43-1.045h-1.331Zm4.613.31h-1.595l-.6-.744h1.452Zm-.55-1.3h-6.661V49.619h6.661V50.8Zm-6.236-.425H122.9v-.328h-5.811Zm7.688-1.354H108.006l2.769-1.835H122Zm-15.361-.425h13.947l-1.488-.985H110.9Zm12.754-1.946H116.71V44.59h5.459Zm-5.034-.425h4.609v-1.2h-4.609Zm-1.128.425h-5.191V44.59h5.191Zm-4.766-.425h4.336v-1.2h-4.336Zm13.189-2.154H108.214L110.89,42.2H121.74Zm-14.867-.43h13.512l-1.465-1.022H111.024Zm11.691-2.011h-4.5V39.57h4.5Zm-4.077-.425h3.647V40h-3.647Zm-1.234.425h-4.271V39.57h4.271ZM112.1,41.2h3.421V40H112.1Zm12.329-2.2H108.218l2.677-1.835h10.849Zm-14.834-.425h13.461l-1.438-.985H111.029ZM121.277,36.6h-4.461V34.545h4.461Zm-4.031-.425h3.606v-1.2h-3.606ZM116.1,36.6h-4.461V34.545H116.1Zm-4.031-.425h3.606v-1.2h-3.606Zm7.882-2.191h-3.208V27.518l.416,1.442a13.04,13.04,0,0,0,2.506,4.674Zm-2.783-.425h1.886a13.5,13.5,0,0,1-1.886-3.273Zm-6.278.421-1.47-.957-.125-.513.934.1.014,0a7.182,7.182,0,0,0,2.626-1.923,12.51,12.51,0,0,0,2.191-3l.06-.12h.587l-.129.3a25.825,25.825,0,0,1-1.664,3.19,16.2,16.2,0,0,1-2.616,2.871l-.055.046Zm-.67-.943.79.518.065,0a15.315,15.315,0,0,0,2.482-2.732c.176-.268.347-.559.508-.851-.259.319-.55.661-.888,1.008a7.494,7.494,0,0,1-2.806,2.034l-.092.032Zm5.746.943H112.24l.4-.37a13.9,13.9,0,0,0,3.13-4.637l.407-.943v5.741h-.213Zm-2.653-.425h2.441V30.024A13.966,13.966,0,0,1,113.313,33.556Zm9.121.384H120.9l-.065-.074a27.51,27.51,0,0,1-2.094-2.741,11.263,11.263,0,0,1-1.29-3.453l-.055-.259h.545l.065.1c.333.522,1.059,1.6,2.173,3.014a14.426,14.426,0,0,0,1.752,1.965l.023.018,1.8-.153-.12.518-1.2.952v.116Zm-1.341-.425h1.049l.837-.666-1.16.1-.153-.125a13.936,13.936,0,0,1-1.821-2.029c-.79-1-1.391-1.835-1.794-2.432a9.38,9.38,0,0,0,1.04,2.533,27.064,27.064,0,0,0,2,2.621Zm-4.632-6.74a.809.809,0,1,1,.578-1.378.8.8,0,0,1,.231.569A.81.81,0,0,1,116.461,26.774Zm0-1.188a.384.384,0,1,0,.384.384.377.377,0,0,0-.106-.268A.4.4,0,0,0,116.461,25.586Zm.809-.989h-1.618V20.358h1.618Zm-1.193-.425h.767V20.783h-.767Zm.384-5.256a.809.809,0,1,1,.578-1.378.8.8,0,0,1,.231.569A.81.81,0,0,1,116.461,18.915Zm0-1.188a.384.384,0,1,0,.384.384.379.379,0,0,0-.384-.384Z" transform="translate(-104.4 -15)"/></svg>