<svg xmlns="http://www.w3.org/2000/svg" width="142.857" height="135.977" viewBox="0 0 142.857 135.977">
  <g id="讨论1" transform="translate(-216 -145)">
    <path id="矩形_11" data-name="矩形 11" d="M411,228h97.127v88.041H411Z" transform="translate(-154.269 -65.663)" fill="#c1e1fb" stroke="#7dbcf7" stroke-linejoin="round" stroke-width="10" fill-rule="evenodd"/>
    <rect id="矩形_12" data-name="矩形 12" width="2.506" height="90.234" transform="translate(303.414 162.023)" fill="#7dbcf7"/>
    <g id="_3_拷贝" data-name="3 拷贝" transform="translate(255.688 145)">
      <path id="形状_2" data-name="形状 2" d="M477.451,145c-11.9,0-8.915,29-8.915,29H485.5S488.284,145,477.451,145Z" transform="translate(-455.212 -145)" fill="#262626" fill-rule="evenodd"/>
      <path id="bozi" d="M489.959,216.491s1.306,4.938,0,7.466c-1.4,2.717,9.075,3.077,7.765,0-1.122-2.636-.288-7.466-.288-7.466h-7.478Z" transform="translate(-472.321 -201.558)" fill="#eb8972" fill-rule="evenodd"/>
      <path id="lian" d="M483.7,153.249c10.831,0,6.258,18.091-.241,18.091C477.2,171.34,471.907,153.249,483.7,153.249Z" transform="translate(-461.921 -151.526)" fill="#ffb19f" fill-rule="evenodd"/>
      <path id="形状_3" data-name="形状 3" d="M481.348,148.142c1.821.957,10.712,20.9-3,4.159-1.751,6.648-7.1,9.051-8.787,9.051C466.858,161.352,471.139,142.734,481.348,148.142Z" transform="translate(-455.658 -146.706)" fill="#262626" fill-rule="evenodd"/>
      <path id="shang" d="M477.272,253.554c-3.954.072-6.266.818-8.424,3.705s.372,25.3.372,25.3,1.725,2.872,8.628,2.872,8.34-2.872,8.34-2.872,3.739-23.851,2.3-26.419S481.226,253.482,477.272,253.554Z" transform="translate(-455.033 -230.868)" fill="#eb8972" fill-rule="evenodd"/>
      <path id="xia" d="M450.248,393.843a93.171,93.171,0,0,0-1.235,18.3c.431,9.093,2.328,54.636-1.065,59.8-9.778,5.974,1.3,5.1,4.314.861,2.416-18.163,7.478-59.156,7.478-59.156s10.122,57.4,8.052,58.3c-11.008,6.649,1.686,6.01,4.889.574-1.726-2.872-2.233-55.258-2.376-61.814s-3.088-16.87-3.088-16.87Z" transform="translate(-436.062 -341.866)" fill="#eb8972" fill-rule="evenodd"/>
      <path id="xie" d="M438.189,769.006s-2.775,2.962-1.438,3.446c2.634.953,9.548-2.987,9.778-4.02a3.272,3.272,0,0,0-.288-2.01s-4.41,3.063-6.039,3.159,2.013-3.159,2.013-3.159Z" transform="translate(-430.042 -636.623)" fill="#2f2f2f" fill-rule="evenodd"/>
      <path id="xie-2" data-name="xie" d="M534.939,767.687s-2.816,3.031-1.459,3.526c2.674.975,9.691-3.056,9.924-4.115a3.372,3.372,0,0,0-.292-2.057s-4.476,3.134-6.13,3.232,2.043-3.232,2.043-3.232Z" transform="translate(-506.562 -635.53)" fill="#2f2f2f" fill-rule="evenodd"/>
      <path id="kuzi" d="M456.918,409.669l-2.674,60.181c1.352,1.924,34.977,1.831,33.086-.861l-10.07-61.675Z" transform="translate(-444.169 -352.523)" fill="#f3602c" fill-rule="evenodd"/>
      <path id="形状_1" data-name="形状 1" d="M412.718,311.362s-.863,30.248-2.013,31.3c-1.955,1.789-5.3,4.481-4.6,6.031.876,1.94,6.711-1.436,8.053-4.02s3.451-31.3,3.451-31.3Z" transform="translate(-406.009 -276.613)" fill="#ffb19f" fill-rule="evenodd"/>
      <path id="形状_5" data-name="形状 5" d="M572.665,313.867l3.667,15.216-3.169-1.3-4.6-11.613Z" transform="translate(-534.61 -278.595)" fill="#eb8972" fill-rule="evenodd"/>
      <path id="yifu" d="M445.893,254.28c3.309-.072,4.395-3.419,4.395-3.419s6.466,1.124,7.977,2.559,6.115,9.79,6.115,9.79l-6.9,5.169,2.513,16.6s-3.946,4.026-12.835,3.785c-7.958-.217-11.05-3.258-11.045-3.21l1.151-19.507-7.393-.535s2.717-8.071,4.228-9.792,8.139-4.279,8.139-4.279A3.367,3.367,0,0,0,445.893,254.28Z" transform="translate(-424.885 -228.749)" fill="#ffe1be" fill-rule="evenodd"/>
      <path id="形状_4" data-name="形状 4" d="M530.192,289.683c-.46.342-.666,2.432,2.346,4.75-1.61-.93-2.267-.6-1.842,0a4.726,4.726,0,0,0,3.06,1.971s9.336,17.134,11.624,15.368c3.3-2.545-8.211-16.625-8.211-16.625S533.423,287.283,530.192,289.683Z" transform="translate(-504.042 -259.102)" fill="#ffb19f" fill-rule="evenodd"/>
    </g>
    <g id="yizi" transform="translate(315.007 244.424)">
      <rect id="矩形_9_拷贝" data-name="矩形 9 拷贝" width="1.567" height="26.005" transform="translate(14.099 6.58)" fill="#66778a"/>
      <ellipse id="椭圆_4" data-name="椭圆 4" cx="2.976" cy="1.097" rx="2.976" ry="1.097" transform="translate(11.906 31.645)" fill="#66778a"/>
      <ellipse id="椭圆_2" data-name="椭圆 2" cx="13.316" cy="3.29" rx="13.316" ry="3.29" transform="translate(0 1.253)" fill="#2c3f54"/>
      <ellipse id="椭圆_2_拷贝" data-name="椭圆 2 拷贝" cx="13.316" cy="3.29" rx="13.316" ry="3.29" transform="translate(0 0)" fill="#425c7b"/>
    </g>
    <g id="ren" transform="translate(286.182 171.736)">
      <path id="tui" d="M615.039,579s-6.893,2.82-9.086,7.833S600,614.4,600,614.4l7.833,1.567,4.7-23.5s16.292-3.133,17.232-6.893S615.039,579,615.039,579Z" transform="translate(-589.974 -515.084)" fill="#393939" fill-rule="evenodd"/>
      <path id="xie-3" data-name="xie" d="M562.966,746.99s-3.765,3.64-5.953,3.76c-2.125-.694-4.864-.015-5.013,3.133,1.119,1.808,7.2.363,10.966.313,7.566.037,7.932-.371,6.893-4.386C568.82,746.8,562.966,746.99,562.966,746.99Z" transform="translate(-552 -647.984)" fill="#573434" fill-rule="evenodd"/>
      <path id="xie-4" data-name="xie" d="M673.966,752.991s-3.765,3.64-5.953,3.76c-2.125-.695-4.864-.015-5.013,3.133,1.119,1.808,7.2.363,10.966.313,7.566.036,7.932-.371,6.893-4.386C679.82,752.8,673.966,752.991,673.966,752.991Z" transform="translate(-639.815 -652.731)" fill="#573434" fill-rule="evenodd"/>
      <path id="tui-2" data-name="tui" d="M712.724,580.415s-22.4,3.6-24.125,9.086,3.133,27.885,3.133,27.885l8.773.313-1.88-22.245s12.376-.47,15.352-8.146S712.724,580.415,712.724,580.415Z" transform="translate(-659.774 -516.186)" fill="#424242" fill-rule="evenodd"/>
      <path id="形状_62" data-name="形状 62" d="M637.1,399.98l-17.859,24.752s-2.151,6.046,2.82,5.953,22.287-26.382,19.112-29.451S637.1,399.98,637.1,399.98Z" transform="translate(-604.833 -373.035)" fill="#2570c7" fill-rule="evenodd"/>
      <path id="yi" d="M685.606,372c2.243,0,7.591,3.091,9.4,7.519,5.138,12.584,5.013,36.658,5.013,36.658s-4.856,2.507-16.606,2.507S669,415.237,669,415.237s1.517-23.316,7.206-35.718C678.275,375.009,683.308,372,685.606,372Z" transform="translate(-644.562 -351.321)" fill="#4b48d5" fill-rule="evenodd"/>
      <path id="bo" d="M722.64,352.5l2.193,5.32s-2.148,3.711-5.013,3.443c-.446-.042-.292-1.951-.627-4.068A7.26,7.26,0,0,0,717,353.127Z" transform="translate(-682.536 -335.894)" fill="#e4875e" fill-rule="evenodd"/>
      <path id="lian-2" data-name="lian" d="M703.818,298.5c-10.771,0-6.712,15.666,0,15.666S714.589,298.5,703.818,298.5Z" transform="translate(-666.852 -293.174)" fill="#f5b08a" fill-rule="evenodd"/>
      <path id="fa" d="M682.515,278.953c.522,2.625,6.244,4.073,6.244,4.073L695,282.4a29.891,29.891,0,0,0,.313,5.953c.469,1.723,1.015,3.76,3.434,4.386.462-4.665,5.158-7.136,2.185-15.039-2.185-4.7-5.308-4.621-7.805-4.7-4.293.157-3.668,2.663-6.557,1.88C684.154,275.35,682.2,277.386,682.515,278.953Z" transform="translate(-655.228 -273)" fill="#393939" fill-rule="evenodd"/>
      <path id="ge" d="M665.438,421.127c-2.267,2.089,2.307,11.186-3.21,16.956-10.709,3.087-18.294,2.6-18.7,5.438-.651,4.524,4.73,3.668,4.73,3.668s20.971-.666,23.129-5.2c6.465-13.6,1.543-22.031.838-22.408C670.782,418.81,667.706,419.038,665.438,421.127Z" transform="translate(-624.364 -388.642)" fill="#2c88f3" fill-rule="evenodd"/>
      <path id="形状_63" data-name="形状 63" d="M639.069,529.562s-2.745,1.38-3.051,3.421,6.154,1.633,6.484,1.14S642.247,528.929,639.069,529.562Z" transform="translate(-618.46 -475.926)" fill="#f5b08a" fill-rule="evenodd"/>
      <path id="形状_63_拷贝" data-name="形状 63 拷贝" d="M607.422,531.058s-2.615,1.293-2.906,3.208,5.862,1.531,6.175,1.069S610.449,530.464,607.422,531.058Z" transform="translate(-593.539 -477.113)" fill="#e4875e" fill-rule="evenodd"/>
    </g>
    <g id="zhuo" transform="translate(216 230.325)">
      <rect id="矩形_6" data-name="矩形 6" width="134.724" height="3.76" transform="translate(0)" fill="#ec8f51"/>
      <rect id="矩形_6_拷贝" data-name="矩形 6 拷贝" width="27.258" height="3.76" transform="translate(107.779)" fill="#cb6724"/>
      <rect id="矩形_7" data-name="矩形 7" width="3.133" height="46.684" transform="translate(106.213 3.76)" fill="#8794a4"/>
      <rect id="矩形_7_拷贝" data-name="矩形 7 拷贝" width="3.133" height="46.684" transform="translate(128.145 3.76)" fill="#8794a4"/>
      <rect id="矩形_7_拷贝_2" data-name="矩形 7 拷贝 2" width="3.133" height="46.684" transform="translate(12.219 3.76)" fill="#8794a4"/>
      <rect id="矩形_7_拷贝_3" data-name="矩形 7 拷贝 3" width="3.133" height="46.684" transform="translate(34.151 3.76)" fill="#8794a4"/>
    </g>
    <g id="组_4" data-name="组 4" transform="translate(273.325 195.234)">
      <path id="圆角矩形_6" data-name="圆角矩形 6" d="M499.786,385.5h32.981a3.054,3.054,0,0,1,3,2.8l1.364,19.63a2.583,2.583,0,0,1-2.611,2.8H501.541a3.055,3.055,0,0,1-3-2.8l-1.364-19.63a2.583,2.583,0,0,1,2.611-2.8Z" transform="translate(-495.762 -385.499)" fill="#363636" fill-rule="evenodd"/>
      <path id="圆角矩形_6_拷贝" data-name="圆角矩形 6 拷贝" d="M493.068,385.5h32.981a3.054,3.054,0,0,1,3,2.8l1.365,19.63a2.583,2.583,0,0,1-2.611,2.8H494.823a3.054,3.054,0,0,1-3-2.8l-1.365-19.63a2.583,2.583,0,0,1,2.611-2.8Z" transform="translate(-490.447 -385.499)" fill="#555" fill-rule="evenodd"/>
      <path id="矩形_8" data-name="矩形 8" d="M571.875,457.641h4.21v20.336h-4.21Z" transform="translate(-554.867 -442.572)" fill="#363636" fill-rule="evenodd"/>
      <path id="矩形_10_拷贝" data-name="矩形 10 拷贝" d="M553.049,437.524H564.7l.772,7.712H553.821Z" transform="translate(-539.973 -426.657)" fill="#363636" fill-rule="evenodd"/>
      <path id="矩形_10" data-name="矩形 10" d="M549.69,437.524h11.648l.773,7.712H550.462Z" transform="translate(-537.316 -426.657)" fill="#444" fill-rule="evenodd"/>
    </g>
    <path id="形状_73" data-name="形状 73" d="M236.739,169c11.454,0,20.739,5.892,20.739,13.159s-9.285,13.159-20.739,13.159S216,189.427,216,182.159,225.285,169,236.739,169Zm15.645,17.545,8.733,7.311-15.282-2.193Z" transform="translate(0 -18.987)" fill="#fff" fill-rule="evenodd"/>
  </g>
</svg>
