<svg xmlns="http://www.w3.org/2000/svg" width="224" height="224" viewBox="0 0 224 224">
  <g id="Illustration_代理" data-name="Illustration/代理" transform="translate(0 -0.24)">
    <g id="代理">
      <rect id="矩形" width="224" height="224" transform="translate(0 0.24)" fill="rgba(216,216,216,0)"/>
      <g id="编组-27" transform="translate(4.595 14.888)">
        <g id="编组" transform="translate(0 37.495)">
          <path id="Fill-1" d="M177.84,96.54a69.07,69.07,0,0,1-5.952,20.8,69.79,69.79,0,0,1-63.36,40.417c-1.09,0-2.18-.023-3.258-.081A69.839,69.839,0,0,1,38.684,87.915a70.883,70.883,0,0,1,.626-9.4q.453-3.365,1.223-6.625c.388-1.64.829-3.258,1.333-4.851A69.817,69.817,0,0,1,108.529,18.07q2.574,0,5.1.185A69.851,69.851,0,0,1,177.84,96.54Z" transform="translate(-3.133 -1.463)" fill="rgba(185,192,200,0.28)" fill-rule="evenodd"/>
          <g id="编组-25" transform="translate(0 0)">
            <path id="Fill-1-2" data-name="Fill-1" d="M177.728,69.368a69.318,69.318,0,0,1-69.368,69.368c-1.083,0-2.164-.023-3.236-.08A69.363,69.363,0,0,1,38.992,69.368a70.391,70.391,0,0,1,.622-9.337q.45-3.342,1.215-6.58c.386-1.629.823-3.235,1.324-4.818A69.341,69.341,0,0,1,108.36,0q2.556,0,5.06.184a69.37,69.37,0,0,1,64.308,69.184" transform="translate(-3.158 0)" fill="#e8eef6" fill-rule="evenodd"/>
            <path id="Fill-3" d="M120.029,122.243a7.451,7.451,0,0,0-.6,9.015c1.456,2.09,3.96,3.344,5.158,5.589a7.206,7.206,0,0,1,.466,5.146,69.348,69.348,0,0,1-16.688,2.026c-1.082,0-2.164-.023-3.236-.08A69.363,69.363,0,0,1,38.991,74.652a70.391,70.391,0,0,1,.622-9.337,88.514,88.514,0,0,1,18.26,1.422c2.06.328,4.277.76,5.688,2.3,2.734,2.982.9,8.261,3.425,11.433,1.86,2.343,5.262,2.556,8.249,2.734a1.834,1.834,0,0,1,1.117.322c.53.466.363,1.307.242,2-.645,3.851,1.877,7.679,5.181,9.752s7.271,2.763,11.128,3.391c2.8.455,5.952.829,8.243-.857,2.407-1.768,2.908-5.1,3.218-8.071a3.684,3.684,0,0,1,3.69-3.316,3.581,3.581,0,0,1,2.516,1.03,57.546,57.546,0,0,1,15.145,25,7.37,7.37,0,0,1,.392,3.552c-.628,2.9-4.076,4.053-6.079,6.235" transform="translate(-3.158 -5.284)" fill="#d6dfe9" fill-rule="evenodd"/>
            <path id="Fill-5" d="M183.962,69.385a69.016,69.016,0,0,1-.529,8.566,7.5,7.5,0,0,1-4.727-1.4,1.871,1.871,0,0,0-2.855,1.525c0,.012-.006.023-.006.035q-.147,6.2-.293,12.406c-.046,2.1-.075,4.294.9,6.154a7.365,7.365,0,0,0,.414.685,6.667,6.667,0,0,1,.656,1.255,69.377,69.377,0,0,1-12.751,18.669l-.686-.789c.127-6,1.146-11.957,1.405-17.956S165.2,86.327,162.426,81c-3.1-5.941-8.641-10.166-14-14.2q-2.608-1.951-5.211-3.915a11.815,11.815,0,0,0-2.423-1.531,11.234,11.234,0,0,0-2.884-.668,101.465,101.465,0,0,0-10.149-.864,4.672,4.672,0,0,0-2.533.391.407.407,0,0,0-.046.029,5.011,5.011,0,0,1-7.121-1.894c-.547-1.065-1.054-2.153-1.508-3.264a4.766,4.766,0,0,1-.489-3.022A5.027,5.027,0,0,1,117.6,49.95l5.67-5.44a2.086,2.086,0,0,0-.99-3.546l-.093-.017a2.935,2.935,0,0,1-1.565-4.824l2.711-3.045c2.608-2.936,5.376-6.292,5.25-10.218-.086-2.614-1.462-4.985-2.389-7.432s-1.318-5.452.328-7.484c.312-.386.709-.806.6-1.284-.092-.426-.54-.662-.944-.84Q123.1,4.455,120,3.085c-.541-.242-1.117-.507-1.146-1.313a1.936,1.936,0,0,1,.8-1.572,69.37,69.37,0,0,1,64.308,69.184" transform="translate(-9.391 -0.016)" fill="#d6dfe9" fill-rule="evenodd"/>
            <path id="Fill-7" d="M89.4,53.687c5.375-1.254,11.011-2.894,14.727-6.976a24.374,24.374,0,0,0,3.819-6.137,71.672,71.672,0,0,0,3.155-7.866,8.983,8.983,0,0,0,.618-4.779c-.664-2.9-4.125-4.562-7.019-3.881s-5.093,3.186-6.147,5.965c-.793,2.091-1.113,4.486-2.679,6.083a31.264,31.264,0,0,1-3.416,2.395,14.836,14.836,0,0,0-2.722,3.078l-2.99,4.09a4.026,4.026,0,0,0-1.036,2.379,3.881,3.881,0,0,0,.745,1.866q1.131,1.8,2.391,3.512Z" transform="translate(-6.941 -1.935)" fill="#d6dfe9" fill-rule="evenodd"/>
            <path id="Fill-9" d="M76.131,19.487c-1.18,1.831-1.785,4.364-.489,6.114.374.5.91.984.875,1.606a1.961,1.961,0,0,1-.547,1.065A60.41,60.41,0,0,1,65.135,38.536,8.932,8.932,0,0,0,62.9,40.579a7.368,7.368,0,0,0-.944,2.55,32.961,32.961,0,0,0-.783,7.282c.006,1.324.035,2.8-.869,3.771-1.336,1.422-3.673.794-5.486.069q-6.191-2.487-12.383-4.98a69.51,69.51,0,0,1,35.3-41.379c.6.783,1.209,1.572,1.813,2.355a4.425,4.425,0,0,1,.95,1.7A3.556,3.556,0,0,1,80,14.242c-1.007,1.928-2.694,3.419-3.874,5.244" transform="translate(-3.436 -0.639)" fill="#d6dfe9" fill-rule="evenodd"/>
            <path id="Fill-11" d="M62.817,71.91A2.712,2.712,0,1,1,65.529,69.2a2.713,2.713,0,0,1-2.712,2.711m6.038-7.254a7.485,7.485,0,0,0-12.807,7.616l5.83,12.365a1.039,1.039,0,0,0,1.88,0l5.83-12.365a7.489,7.489,0,0,0-.733-7.616" transform="translate(-4.481 -4.988)" fill="#1967ff" fill-rule="evenodd"/>
            <path id="Fill-13" d="M93.436,40.322a1.589,1.589,0,1,1,1.59-1.589,1.591,1.591,0,0,1-1.59,1.589m3.539-4.253a4.388,4.388,0,0,0-7.508,4.464l3.418,7.249a.609.609,0,0,0,1.1,0l3.418-7.249a4.393,4.393,0,0,0-.43-4.464" transform="translate(-7.211 -2.776)" fill="#1967ff" fill-rule="evenodd"/>
            <path id="Fill-15" d="M97.826,93.811a2.157,2.157,0,1,1,2.157-2.157,2.159,2.159,0,0,1-2.157,2.157m4.8-5.769A5.954,5.954,0,0,0,92.441,94.1l4.637,9.835a.827.827,0,0,0,1.5,0l4.636-9.835a5.953,5.953,0,0,0-.582-6.057" transform="translate(-7.44 -6.933)" fill="#1967ff" fill-rule="evenodd"/>
            <path id="Fill-17" d="M144.835,36.173a3.2,3.2,0,1,1,3.2-3.2,3.2,3.2,0,0,1-3.2,3.2m7.127-8.561A8.834,8.834,0,0,0,136.845,36.6l6.881,14.594a1.227,1.227,0,0,0,2.219,0L152.825,36.6a8.84,8.84,0,0,0-.864-8.988" transform="translate(-11.014 -1.944)" fill="#1967ff" fill-rule="evenodd"/>
            <path id="Fill-19" d="M201.012,62.653c-4.26,2.665-8.9,5.377-13.862,8.105-8.843,4.872-18.714,9.818-29.289,14.673a1.67,1.67,0,0,1-2.225-.892l-.025-.057a1.664,1.664,0,0,1,.811-2.2c11.1-5.1,21.425-10.289,30.571-15.392,4.341-2.412,8.417-4.813,12.187-7.173C225.283,43.408,224.4,37,223.954,35.878a3.914,3.914,0,0,0-2.286-1.888c-1.652-.72-4.455-1.341-9.21-1.341-5.078,0-12.383.708-22.883,2.78q-5.372,1.062-11.219,2.47-.873-1.58-1.843-3.109,6.468-1.58,12.395-2.752c22.923-4.519,35.8-3.655,38.259,2.568s-6.338,15.664-26.153,28.047" transform="translate(-12.59 -2.364)" fill="#1967ff" fill-rule="evenodd" opacity="0.3"/>
            <path id="Fill-21" d="M124,97.619c.014.034.029.067.044.1a1.643,1.643,0,0,1-.848,2.206q-3.661,1.5-7.385,2.975A521.6,521.6,0,0,1,53.9,123.337c-5.336,1.353-10.431,2.51-15.232,3.459q-14.446,2.849-23.544,2.85c-8.359,0-13.286-1.807-14.72-5.417-2.458-6.223,6.343-15.659,26.158-28.047q4.949-3.091,10.546-6.252.338,1.762.771,3.489C13.407,107.413,1.859,118.512,3.615,122.957c.812,2.055,4.662,3.2,11.26,3.2,8.157,0,20.511-1.751,36.537-5.711,17.081-4.227,38.335-10.956,63.123-20.76q3.7-1.464,7.34-2.958a1.631,1.631,0,0,1,2.121.889" transform="translate(0 -7.283)" fill="#1967ff" fill-rule="evenodd" opacity="0.3"/>
            <path id="Fill-23" d="M12.836,129.739a5.181,5.181,0,1,1-5.181-5.181,5.18,5.18,0,0,1,5.181,5.181" transform="translate(-0.2 -10.087)" fill="#1967ff" fill-rule="evenodd"/>
            <path id="Fill-25" d="M217.043,30.768a5.181,5.181,0,1,1-5.181-5.181,5.181,5.181,0,0,1,5.181,5.181" transform="translate(-16.738 -2.072)" fill="#1967ff" fill-rule="evenodd"/>
            <path id="Fill-27" d="M150.542,93.357a5.757,5.757,0,1,1-5.757-5.757,5.757,5.757,0,0,1,5.757,5.757" transform="translate(-11.259 -7.094)" fill="#1967ff" fill-rule="evenodd"/>
          </g>
        </g>
        <g id="编组-14" transform="translate(11.028 31.062)">
          <path id="Fill-1-3" data-name="Fill-1" d="M63,37.275V15.261A4.28,4.28,0,0,0,58.7,11H19.3A4.281,4.281,0,0,0,15,15.261V37.986a4.28,4.28,0,0,0,4.3,4.261H66.426a.947.947,0,0,0,.676-1.618Z" transform="translate(-1.215 -0.891)" fill="rgba(25,103,255,0.31)" fill-rule="evenodd"/>
          <path id="Fill-1-4" data-name="Fill-1" d="M61.574,34V5.514A5.514,5.514,0,0,0,56.06,0H5.514A5.515,5.515,0,0,0,0,5.514V34.923a5.514,5.514,0,0,0,5.514,5.514h60.45a1.227,1.227,0,0,0,.868-2.094Z" transform="translate(0)" fill="#1967ff" fill-rule="evenodd"/>
          <path id="Fill-1-5" data-name="Fill-1" d="M61.574,26.651V5.514A5.514,5.514,0,0,0,56.06,0H5.514A5.515,5.515,0,0,0,0,5.514V27.57a5.514,5.514,0,0,0,5.514,5.514h60.45a1.227,1.227,0,0,0,.868-2.094Z" transform="translate(197.694 92.821) rotate(180)" fill="#e4e4e4" fill-rule="evenodd"/>
          <path id="Fill-1-6" data-name="Fill-1" d="M61.574,26.651V5.514A5.514,5.514,0,0,0,56.06,0H5.514A5.515,5.515,0,0,0,0,5.514V27.57a5.514,5.514,0,0,0,5.514,5.514h60.45a1.227,1.227,0,0,0,.868-2.094Z" transform="translate(197.694 89.144) rotate(180)" fill="#fff" fill-rule="evenodd"/>
        </g>
        <g id="编组-13" transform="translate(3.676 0)">
          <path id="Fill-9-2" data-name="Fill-9" d="M8.91,126.239,5.24,129.91a.918.918,0,0,1-1.3,0L.27,126.239a.918.918,0,0,1,0-1.3l3.671-3.671a.918.918,0,0,1,1.3,0L8.91,124.94a.918.918,0,0,1,0,1.3" transform="translate(0 -9.983)" fill="#bbd9fa" fill-rule="evenodd"/>
          <path id="Fill-11-2" data-name="Fill-11" d="M56.793,195.68l-7.112,7.112a.918.918,0,0,1-1.3,0L41.27,195.68a.918.918,0,0,1,0-1.3l7.112-7.111a.918.918,0,0,1,1.3,0l7.112,7.111a.918.918,0,0,1,0,1.3" transform="translate(-3.32 -15.328)" fill="#ffbbd8" fill-rule="evenodd"/>
          <rect id="矩形-2" data-name="矩形" width="12.866" height="12.866" rx="2" transform="translate(193.087 148.696) rotate(-45)" fill="#c4d8fc"/>
          <rect id="矩形-3" data-name="矩形" width="25.732" height="25.732" rx="2" transform="translate(143.742 30.196) rotate(-45)" fill="#33c8cd" opacity="0.252"/>
        </g>
        <g id="编组-26" transform="translate(21.137 37.495)">
          <g id="编组-6">
            <rect id="矩形-4" data-name="矩形" width="42" height="4" rx="2" transform="translate(0.268 -0.144)" fill="#f8f9fa"/>
            <rect id="矩形备份-28" width="42" height="4" rx="2" transform="translate(0.268 11.856)" fill="#f8f9fa"/>
            <rect id="矩形备份-29" width="25" height="4" rx="2" transform="translate(0.268 23.856)" fill="#f8f9fa"/>
          </g>
          <g id="编组-6-2" data-name="编组-6" transform="translate(135.095 55.141)">
            <rect id="矩形-5" data-name="矩形" width="42" height="4" rx="2" transform="translate(0.172 -0.285)" fill="#1967ff"/>
            <rect id="矩形备份-28-2" data-name="矩形备份-28" width="42" height="4" rx="2" transform="translate(0.172 8.715)" fill="#1967ff"/>
            <rect id="矩形备份-29-2" data-name="矩形备份-29" width="26" height="3" rx="1.5" transform="translate(0.172 18.715)" fill="#1967ff"/>
          </g>
        </g>
      </g>
    </g>
  </g>
</svg>
