<svg xmlns="http://www.w3.org/2000/svg" width="82.789" height="82.789" viewBox="0 0 82.789 82.789"><g transform="translate(-24.4 -23.7)"><path d="M82.13,31.432A37.847,37.847,0,0,1,97.9,45.879c.569.949,1.1,1.931,1.584,2.929a1.5,1.5,0,0,0,2.714-1.254c-.528-1.1-1.106-2.17-1.733-3.209A40.236,40.236,0,0,0,83.4,28.726a1.495,1.495,0,1,0-1.271,2.706ZM104.7,63.585a1.493,1.493,0,0,0-1.493,1.493A37.4,37.4,0,1,1,65.794,27.687a1.493,1.493,0,0,0,0-2.987,40.394,40.394,0,1,0,40.394,40.394A1.5,1.5,0,0,0,104.7,63.585Z" transform="translate(0 0)" fill="#fff" stroke="#fff" stroke-width="2"/><path d="M607.193,44.293m-1.493,0a1.493,1.493,0,1,0,1.493-1.493A1.493,1.493,0,0,0,605.7,44.293Z" transform="translate(-532.422 -16.607)" fill="#fff" stroke="#fff" stroke-width="2"/><path d="M951.693,388.793m-1.493,0a1.493,1.493,0,1,0,1.493-1.493A1.493,1.493,0,0,0,950.2,388.793Z" transform="translate(-848.5 -332.684)" fill="#fff" stroke="#fff" stroke-width="2"/><path d="M380.7,337.9a4.726,4.726,0,0,0-2.351.635A4.661,4.661,0,0,0,376,342.611v19.661a4.7,4.7,0,0,0,7.054,4.076l17.021-9.826a4.708,4.708,0,0,0,0-8.152l-17.021-9.835A4.726,4.726,0,0,0,380.7,337.9Zm18.489,14.546a1.443,1.443,0,0,1-.734,1.271l-17.021,9.826a1.461,1.461,0,0,1-1.469,0,1.428,1.428,0,0,1-.734-1.271V342.611a1.469,1.469,0,0,1,2.2-1.271l17.021,9.826A1.463,1.463,0,0,1,399.192,352.446Z" transform="translate(-321.674 -287.359)" fill="#fff" stroke="#fff" stroke-width="2"/></g></svg>