<svg xmlns="http://www.w3.org/2000/svg" width="86.756" height="86.756" viewBox="0 0 86.756 86.756"><g transform="translate(-64 -64)"><path d="M146.616,80a7.746,7.746,0,0,0-7.746,7.746V99.6a4.834,4.834,0,0,0-1.549-.232c-2.7,0-2.7,1.549-5.407,1.549s-2.711-1.549-5.422-1.549v.775l4.648,13.943-15.508,19.071v-8.226a4.648,4.648,0,0,0-4.648-4.648H84.648A4.648,4.648,0,0,0,80,124.927V87.746A7.746,7.746,0,0,1,87.746,80Z" transform="translate(-14.451 -14.451)" fill="#cee6f4"/><path d="M80,496m4.648,0h20.14q4.648,0,4.648,4.648V534.73q0,4.648-4.648,4.648H84.648Q80,539.378,80,534.73V500.648Q80,496,84.648,496Z" transform="translate(-14.451 -390.171)" fill="#1b45af"/><path d="M346.845,500.648V534.73a4.648,4.648,0,0,1-4.648,4.648H336a4.648,4.648,0,0,0,4.648-4.648V500.648A4.648,4.648,0,0,0,336,496h6.2A4.648,4.648,0,0,1,346.845,500.648Z" transform="translate(-245.663 -390.171)" fill="#0a2872"/><path d="M144,560h17.041v6.2H144Z" transform="translate(-72.254 -447.974)" fill="#76b4e2"/><path d="M698.337,463.279a18.219,18.219,0,0,1-6.2,13.649v-1.549h-4.648a18.235,18.235,0,0,0,3.548-18.219,17.77,17.77,0,0,0-3.1-5.407L672,432h6.2l16.05,19.753a17.771,17.771,0,0,1,3.1,5.407A18.221,18.221,0,0,1,698.337,463.279Z" transform="translate(-549.13 -332.368)" fill="#2c7013"/><path d="M489.829,463.279a18.126,18.126,0,0,1-4.648,12.1h-7.746v6.2H461.649a18.234,18.234,0,0,1-12.936-5.36c-.248-.248-.48-.5-.713-.759V451.071L463.492,432h6.2l16.05,19.753a17.769,17.769,0,0,1,3.1,5.407A18.219,18.219,0,0,1,489.829,463.279Z" transform="translate(-346.819 -332.368)" fill="#458c28"/><path d="M752,764.394h12.394v6.2H752Zm0-6.2h12.394v6.2H752Zm0-6.2h12.394v6.2H752Z" transform="translate(-621.384 -621.384)" fill="#aa9335"/><path d="M759.746,764.394a6.2,6.2,0,0,1-6.2,6.2H752v-6.2Zm0-6.2a6.2,6.2,0,0,1-6.2,6.2H752v-6.2Zm0-6.2a6.2,6.2,0,0,1-6.2,6.2H752V752Z" transform="translate(-621.384 -621.384)" fill="#d1b339"/><path d="M621.943,807.275a6.971,6.971,0,1,1-3.842-6.2A6.971,6.971,0,0,1,621.943,807.275Z" transform="translate(-491.327 -665.039)" fill="#aa9335"/><path d="M619.43,804.748a4.471,4.471,0,1,1-.806-3.1A6.894,6.894,0,0,1,619.43,804.748Z" transform="translate(-491.912 -665.611)" fill="#d1b339"/><path d="M682.844,280v.775L678.2,294.718H672l4.415-13.246a6.336,6.336,0,0,0,1.007.077C680.133,281.549,680.133,280,682.844,280Z" transform="translate(-549.13 -195.086)" fill="#2c7013"/><path d="M575.26,281.442l-4.415,13.246h-6.2l-4.415-13.246-.232-.7v-.775a4.322,4.322,0,0,1,2.324.573,5.454,5.454,0,0,0,3.1.976,4.415,4.415,0,0,0,2.324-.558,5.453,5.453,0,0,1,3.1-.992,4.834,4.834,0,0,1,1.549.232,3.549,3.549,0,0,1,.775.341A7.08,7.08,0,0,0,575.26,281.442Z" transform="translate(-447.974 -195.055)" fill="#458c28"/><path d="M703.492,87.746v3.1H688v-3.1a7.746,7.746,0,0,1,15.492,0Z" transform="translate(-563.581 -14.451)" fill="#acd5ea"/><path d="M90.337,526.477H70.2a6.2,6.2,0,0,1-6.2-6.2V486.2a6.2,6.2,0,0,1,6.2-6.2h20.14a6.2,6.2,0,0,1,6.2,6.2v15.492a1.549,1.549,0,1,1-3.1,0V486.2a3.1,3.1,0,0,0-3.1-3.1H70.2a3.1,3.1,0,0,0-3.1,3.1V520.28a3.1,3.1,0,0,0,3.1,3.1h20.14a3.1,3.1,0,0,0,3.1-3.1V507.886a1.549,1.549,0,1,1,3.1,0V520.28A6.2,6.2,0,0,1,90.337,526.477Z" transform="translate(0 -375.72)" fill="#0d182d"/><path d="M154.337,526.477h-6.2a1.549,1.549,0,1,1,0-3.1,3.1,3.1,0,0,0,3.1-3.1V507.886a1.549,1.549,0,1,1,3.1,0V520.28a6.2,6.2,0,0,1-.837,3.1h.837a3.1,3.1,0,0,0,3.1-3.1V486.2a3.1,3.1,0,0,0-3.1-3.1H153.5a6.2,6.2,0,0,1,.837,3.1v15.492a1.549,1.549,0,0,1-3.1,0V486.2a3.1,3.1,0,0,0-3.1-3.1,1.549,1.549,0,1,1,0-3.1h6.2a6.2,6.2,0,0,1,6.2,6.2V520.28A6.2,6.2,0,0,1,154.337,526.477ZM131.1,501.689h-1.549a1.549,1.549,0,1,1,0-3.1H131.1a1.549,1.549,0,1,1,0,3.1Zm7.746,0H137.3a1.549,1.549,0,1,1,0-3.1h1.549a1.549,1.549,0,1,1,0,3.1Z" transform="translate(-57.803 -375.72)" fill="#0d182d"/><path d="M146.591,443.886h-1.549a1.549,1.549,0,1,1,0-3.1h1.549a1.549,1.549,0,1,1,0,3.1Zm-15.492,6.2h-1.549a1.549,1.549,0,0,1,0-3.1H131.1a1.549,1.549,0,1,1,0,3.1Zm7.746,0H137.3a1.549,1.549,0,0,1,0-3.1h1.549a1.549,1.549,0,1,1,0,3.1Zm7.746,0h-1.549a1.549,1.549,0,0,1,0-3.1h1.549a1.549,1.549,0,1,1,0,3.1Zm-15.492,6.2h-1.549a1.549,1.549,0,1,1,0-3.1H131.1a1.549,1.549,0,1,1,0,3.1Zm7.746,0H137.3a1.549,1.549,0,1,1,0-3.1h1.549a1.549,1.549,0,1,1,0,3.1Zm7.746,6.2a1.549,1.549,0,0,1-1.549-1.549v-6.2a1.549,1.549,0,0,1,3.1,0v6.2A1.549,1.549,0,0,1,146.591,462.476Zm-15.492,0h-1.549a1.549,1.549,0,0,1,0-3.1H131.1a1.549,1.549,0,1,1,0,3.1Zm7.746,0H137.3a1.549,1.549,0,0,1,0-3.1h1.549a1.549,1.549,0,1,1,0,3.1Zm7.746-24.787H129.549A1.549,1.549,0,0,1,128,436.14v-6.2a1.549,1.549,0,0,1,1.549-1.549h3.1a1.549,1.549,0,1,1,0,3.1H131.1v3.1h13.943v-3.1h-6.2a1.549,1.549,0,1,1,0-3.1h7.746a1.549,1.549,0,0,1,1.549,1.549v6.2A1.549,1.549,0,0,1,146.591,437.689Zm41.829,30.984H172.633a19.722,19.722,0,0,1-14.036-5.81c-.263-.279-.527-.542-.775-.837a1.549,1.549,0,0,1-.387-1.022V436.62a1.549,1.549,0,0,1,.341-.976l7.947-9.776a1.553,1.553,0,0,1,2.417,1.952l-7.607,9.3v23.238a2.122,2.122,0,0,0,.263.263,16.561,16.561,0,0,0,11.836,4.958H186.87v-4.648a1.549,1.549,0,0,1,1.549-1.549h12.394a1.55,1.55,0,0,1,.744.186,16.732,16.732,0,0,0,2.944-16.329,16.437,16.437,0,0,0-2.773-4.958l-15.6-19.179H175.282l-3.331,4.074a1.547,1.547,0,1,1-2.4-1.952l3.78-4.648a1.549,1.549,0,0,1,1.146-.573H186.87a1.549,1.549,0,0,1,1.208.573l16.05,19.753a19.071,19.071,0,0,1,3.284,5.872,19.8,19.8,0,0,1-5.577,21.5,1.549,1.549,0,0,1-2.572-1.224h-9.3v4.648A1.549,1.549,0,0,1,188.419,468.673Z" transform="translate(-57.803 -317.917)" fill="#0d182d"/><path d="M749.943,873.3H737.549A1.549,1.549,0,0,1,736,871.746v-6.2A1.549,1.549,0,0,1,737.549,864h12.394a1.549,1.549,0,0,1,1.549,1.549v6.2A1.549,1.549,0,0,1,749.943,873.3ZM739.1,870.2h9.3v-3.1h-9.3Z" transform="translate(-606.933 -722.539)" fill="#0d182d"/><path d="M749.943,809.3H737.549A1.549,1.549,0,0,1,736,807.746v-6.2A1.549,1.549,0,0,1,737.549,800h12.394a1.549,1.549,0,0,1,1.549,1.549v6.2A1.549,1.549,0,0,1,749.943,809.3ZM739.1,806.2h9.3v-3.1h-9.3Z" transform="translate(-606.933 -664.736)" fill="#0d182d"/><path d="M749.943,745.3H737.549A1.549,1.549,0,0,1,736,743.746v-6.2A1.549,1.549,0,0,1,737.549,736h12.394a1.549,1.549,0,0,1,1.549,1.549v6.2A1.549,1.549,0,0,1,749.943,745.3ZM739.1,742.2h9.3v-3.1h-9.3Z" transform="translate(-606.933 -606.933)" fill="#0d182d"/><path d="M596.648,575.492h-3.1a1.549,1.549,0,0,1,0-3.1h3.1a1.549,1.549,0,0,0,0-3.1,4.648,4.648,0,0,1,0-9.3h3.1a1.549,1.549,0,0,1,0,3.1h-3.1a1.549,1.549,0,1,0,0,3.1,4.648,4.648,0,0,1,0,9.3Z" transform="translate(-476.876 -447.974)" fill="#d1b339"/><path d="M600.356,801.039a8.536,8.536,0,0,1-8.521-8.521,6.73,6.73,0,0,1,0-.976,1.562,1.562,0,1,1,3.1.4v.573a5.422,5.422,0,1,0,5.422-5.422,5.36,5.36,0,0,0-3.393,1.193,1.549,1.549,0,1,1-1.952-2.386A8.273,8.273,0,0,1,600.356,784a8.521,8.521,0,0,1,0,17.041Z" transform="translate(-476.711 -650.283)" fill="#0d182d"/><path d="M625.549,534.2A1.549,1.549,0,0,1,624,532.648v-3.1a1.549,1.549,0,0,1,3.1,0v3.1A1.549,1.549,0,0,1,625.549,534.2Zm0,15.492A1.549,1.549,0,0,1,624,548.14v-3.1a1.549,1.549,0,0,1,3.1,0v3.1A1.549,1.549,0,0,1,625.549,549.689Z" transform="translate(-505.777 -419.073)" fill="#d1b339"/><path d="M562.434,281.8H550.041a1.549,1.549,0,0,1-1.549-1.053L543.844,266.8a1.845,1.845,0,0,1,0-.5v-.775a1.549,1.549,0,0,1,1.549-1.549,6.321,6.321,0,0,1,3.486.976,3.563,3.563,0,0,0,3.873,0,6.2,6.2,0,0,1,3.486-.976,6.676,6.676,0,0,1,2.06.31,7.886,7.886,0,0,1,1.441.666,3.558,3.558,0,0,0,3.873,0,6.321,6.321,0,0,1,3.47-.976,1.549,1.549,0,0,1,1.549,1.549v.775a1.847,1.847,0,0,1,0,.5l-4.648,13.943A1.549,1.549,0,0,1,562.434,281.8Zm-11.278-3.1h10.163l3.656-10.953a6.2,6.2,0,0,1-3.315.883,6.413,6.413,0,0,1-3.47-.961,5.038,5.038,0,0,0-.868-.434,3.5,3.5,0,0,0-1.1-.155,3.222,3.222,0,0,0-1.921.573,6.321,6.321,0,0,1-3.486.976,6.2,6.2,0,0,1-3.315-.883Z" transform="translate(-433.367 -180.619)" fill="#0d182d"/><path d="M112.893,105.829a1.549,1.549,0,0,1-1.208-2.525l3.253-4-4.384-13.122a1.843,1.843,0,0,1-.077-.5v-.775a1.549,1.549,0,0,1,1.549-1.549,6.321,6.321,0,0,1,3.486.976,3.563,3.563,0,0,0,3.873,0,6.2,6.2,0,0,1,3.486-.976V73.3a9.3,9.3,0,0,1,2.37-6.2H73.3a6.2,6.2,0,0,0-6.2,6.2V87.238a1.549,1.549,0,0,1-3.1,0V73.3A9.3,9.3,0,0,1,73.3,64h58.87a1.549,1.549,0,0,1,0,3.1,6.2,6.2,0,0,0-6.2,6.2V85.147a1.562,1.562,0,0,1-2.045,1.472,3.1,3.1,0,0,0-1.069-.155,3.222,3.222,0,0,0-1.921.573,6.321,6.321,0,0,1-3.486.976,6.2,6.2,0,0,1-3.315-.883l4.09,12.006a1.549,1.549,0,0,1-.263,1.472l-3.8,4.648a1.549,1.549,0,0,1-1.27.573Zm-11.712,14.423a1.425,1.425,0,0,1-.511-.093,1.549,1.549,0,0,1-1.038-1.456v-8.226a3.1,3.1,0,0,0-3.1-3.1H70.2a3.1,3.1,0,0,0-3.1,3.1,1.549,1.549,0,1,1-3.1,0V93.435a1.549,1.549,0,1,1,3.1,0v11.681a6.2,6.2,0,0,1,3.1-.837H96.534a6.2,6.2,0,0,1,6.2,6.2v3.858l5.19-6.383a1.553,1.553,0,1,1,2.417,1.952l-7.947,9.776a1.549,1.549,0,0,1-1.208.573Z" fill="#0d182d"/><path d="M212.166,77.943H196.673a1.549,1.549,0,0,1-1.549-1.549V73.3a9.3,9.3,0,0,1,18.591,0v3.1A1.549,1.549,0,0,1,212.166,77.943Zm-13.943-3.1h12.394V73.3a6.2,6.2,0,0,0-12.394,0ZM148.648,88.787h-3.1a1.549,1.549,0,0,1,0-3.1h3.1a1.549,1.549,0,1,0,0-3.1,4.648,4.648,0,0,1,0-9.3h3.1a1.549,1.549,0,0,1,0,3.1h-3.1a1.549,1.549,0,1,0,0,3.1,4.648,4.648,0,1,1,0,9.3Z" transform="translate(-72.254)" fill="#0d182d"/><path d="M177.549,134.2A1.549,1.549,0,0,1,176,132.648v-3.1a1.549,1.549,0,0,1,3.1,0v3.1A1.549,1.549,0,0,1,177.549,134.2Zm0,15.492A1.549,1.549,0,0,1,176,148.14v-3.1a1.549,1.549,0,0,1,3.1,0v3.1A1.549,1.549,0,0,1,177.549,149.689Zm40.28-15.492H191.492a1.549,1.549,0,1,1,0-3.1h26.337a1.549,1.549,0,0,1,0,3.1Zm-13.943,7.746H191.492a1.549,1.549,0,1,1,0-3.1h12.394a1.549,1.549,0,0,1,0,3.1Zm0,7.746H191.492a1.549,1.549,0,1,1,0-3.1h12.394a1.549,1.549,0,0,1,0,3.1Z" transform="translate(-101.155 -57.803)" fill="#0d182d"/><path d="M593.041,419.1H577.549a1.549,1.549,0,0,1,0-3.1h15.492a1.549,1.549,0,0,1,0,3.1Z" transform="translate(-462.425 -317.917)" fill="#aa9335"/><path d="M737.465,375.687a1.549,1.549,0,0,1-1.1-2.649l4.648-4.648a1.556,1.556,0,1,1,2.2,2.2l-4.648,4.648A1.549,1.549,0,0,1,737.465,375.687Z" transform="translate(-606.849 -274.506)" fill="#aa9335"/><path d="M743.332,420.234a1.547,1.547,0,0,1-.372,0l-6.2-1.549a1.593,1.593,0,0,1,.744-3.1l6.2,1.549a1.56,1.56,0,0,1-.372,3.1Z" transform="translate(-606.519 -317.503)" fill="#aa9335"/></g></svg>