<svg xmlns="http://www.w3.org/2000/svg" width="93.118" height="86.756" viewBox="0 0 93.118 86.756"><g transform="translate(-32 -65.584)"><path d="M342.918,413.955H305.671a1.523,1.523,0,0,1-1.273-2.39l18.624-26.383a1.552,1.552,0,0,1,2.545,0l18.624,26.383a1.523,1.523,0,0,1-1.273,2.39Zm-34.252-3.1h31.256L324.294,388.7Z" transform="translate(-245.735 -287.998)" fill="#5ea2cc"/><path d="M195.794,263.424a1.552,1.552,0,0,1-.59-.124,1.783,1.783,0,0,1-.559-.295,1.552,1.552,0,0,1-.45-1.1,1.629,1.629,0,0,1,.45-1.1,1.552,1.552,0,0,1,1.692-.326,1.784,1.784,0,0,1,.512.326,1.63,1.63,0,0,1,.45,1.1,1.552,1.552,0,0,1-.124.59,1.785,1.785,0,0,1-.326.512A1.552,1.552,0,0,1,195.794,263.424Zm17.475,26.942a1.557,1.557,0,1,1,1.552,1.459A1.552,1.552,0,0,1,213.269,290.366Zm-.931-5.634a1.558,1.558,0,1,1,1.878,1.148,1.411,1.411,0,0,1-.357,0A1.552,1.552,0,0,1,212.338,284.732Zm-1.816-5.385a1.008,1.008,0,1,1,0,.031Zm-2.731-4.982a.878.878,0,1,1,0,.031Zm-3.554-4.439a.632.632,0,1,1,0,.031Zm-4.283-3.74a.494.494,0,1,1,0,.031ZM214.619,297.8a1.537,1.537,0,0,1-1.552-1.552,1.629,1.629,0,0,1,.45-1.1,1.647,1.647,0,0,1,1.412-.419l.279.093a1.176,1.176,0,0,1,.279.14,2.445,2.445,0,0,1,.233.186,1.693,1.693,0,0,1,.45,1.1,1.3,1.3,0,0,1-.124.59,1.4,1.4,0,0,1-.838.838,1.551,1.551,0,0,1-.59.124Zm-67.883,0a1.552,1.552,0,0,1-.59-.124,1.4,1.4,0,0,1-.838-.838,1.552,1.552,0,0,1-.124-.59,1.63,1.63,0,0,1,.45-1.1,1.784,1.784,0,0,1,.512-.326,1.428,1.428,0,0,1,1.179,0,1.785,1.785,0,0,1,.512.326,1.629,1.629,0,0,1,.45,1.1,1.552,1.552,0,0,1-.109.59,2.266,2.266,0,0,1-.341.512,1.785,1.785,0,0,1-.512.326A1.552,1.552,0,0,1,146.737,297.8Zm-.2-5.959a1.55,1.55,0,1,1,1.552-1.443A1.552,1.552,0,0,1,146.535,291.84Zm.621-5.928a1.811,1.811,0,1,1,.295,0,1.555,1.555,0,0,1-.326,0Zm1.661-5.727a1.519,1.519,0,1,1-.031,0Zm2.623-5.339a1.24,1.24,0,1,1-.031,0Zm3.507-4.811a1.5,1.5,0,1,1-.031,0Zm4.3-4.128a1.583,1.583,0,1,1-.031,0Zm6.316-2.483a1.529,1.529,0,1,1,1.443-.962,2.267,2.267,0,0,1-.295.543A1.552,1.552,0,0,1,165.562,263.424Zm-2.871,59.657a1.552,1.552,0,0,1-.59-.124,1.785,1.785,0,0,1-.512-.326,1.552,1.552,0,0,1-.326-1.692,1.785,1.785,0,0,1,.326-.512,1.6,1.6,0,0,1,2.2,0,1.785,1.785,0,0,1,.326.512,1.3,1.3,0,0,1,.124.59A1.552,1.552,0,0,1,162.691,323.081Zm16.435,3.554a1.552,1.552,0,1,1,1.552,1.552A1.552,1.552,0,0,1,179.126,326.635Zm6.3-.295a1.555,1.555,0,1,1,1.816,1.257h-.357a1.552,1.552,0,0,1-1.474-1.257Zm-11.3,1.242a1.508,1.508,0,1,1,.248.031Zm17.413-2.669a1.555,1.555,0,1,1,2.018.885,1.428,1.428,0,0,1-.559.109A1.552,1.552,0,0,1,191.542,324.913Zm-23.792.869a1.6,1.6,0,1,1,.621.109,1.427,1.427,0,0,1-.605-.109Zm30.915-2.7a1.552,1.552,0,0,1-.59-.124,1.785,1.785,0,0,1-.512-.326,1.552,1.552,0,0,1-.326-1.692,1.786,1.786,0,0,1,.326-.512,1.552,1.552,0,0,1,2.2,0,1.785,1.785,0,0,1,.326.512,1.552,1.552,0,0,1-.326,1.692,1.785,1.785,0,0,1-.512.326,1.552,1.552,0,0,1-.59.124Z" transform="translate(-102.119 -175.847)" fill="#d1b339"/><path d="M79.033,148.207a15.52,15.52,0,1,1-6.658-12.742A15.519,15.519,0,0,1,79.033,148.207Zm58.974,0a15.52,15.52,0,1,1-6.658-12.742A15.519,15.519,0,0,1,138.007,148.207ZM108.52,95.44a15.52,15.52,0,0,1-26.057,11.376,15.83,15.83,0,0,1-2.219-2.545A15.52,15.52,0,1,1,108.52,95.44Z" transform="translate(-14.441 -12.938)" fill="#aa9335"/><path d="M75.133,144.456A15.52,15.52,0,0,1,50.752,157.2a15.52,15.52,0,0,1,21.6-21.6A15.52,15.52,0,0,1,75.133,144.456Zm58.974,0A15.52,15.52,0,0,1,109.727,157.2a15.52,15.52,0,0,1,21.6-21.6A15.52,15.52,0,0,1,134.108,144.456ZM104.621,91.689a15.52,15.52,0,0,1-24.4,12.711,15.52,15.52,0,0,1,21.619-21.572,15.52,15.52,0,0,1,2.778,8.862Z" transform="translate(-14.422 -13.067)" fill="#d1b339"/><path d="M460.416,150.208a6.208,6.208,0,0,1-11.857,2.545,6.1,6.1,0,0,1-.559-2.545A6.208,6.208,0,0,1,454.208,144a6.1,6.1,0,0,1,2.545.559A6.208,6.208,0,0,1,460.416,150.208Z" transform="translate(-375.649 -70.81)" fill="#acd5ea"/><path d="M424.436,280.73a15.52,15.52,0,0,1-21.076,0,10.864,10.864,0,0,1,21.076,0Z" transform="translate(-335.339 -186.853)" fill="#76b4e2"/><path d="M764.416,694.208a6.208,6.208,0,0,1-11.857,2.545,6.1,6.1,0,0,1-.559-2.545A6.208,6.208,0,0,1,758.208,688a6.1,6.1,0,0,1,2.545.559A6.208,6.208,0,0,1,764.416,694.208Z" transform="translate(-650.162 -562.044)" fill="#acd5ea"/><path d="M728.436,824.731a15.52,15.52,0,0,1-21.076,0,10.864,10.864,0,0,1,21.076,0Z" transform="translate(-609.852 -678.086)" fill="#76b4e2"/><path d="M156.416,694.208a6.208,6.208,0,0,1-11.857,2.545,6.1,6.1,0,0,1-.559-2.545A6.208,6.208,0,0,1,150.208,688a6.1,6.1,0,0,1,2.545.559A6.208,6.208,0,0,1,156.416,694.208Z" transform="translate(-101.136 -562.044)" fill="#acd5ea"/><path d="M182.8,147.1a6.208,6.208,0,0,1-6.208,6.208,6.1,6.1,0,0,1-2.545-.559,6.1,6.1,0,0,1-.559-2.545A6.208,6.208,0,0,1,179.7,144a6.1,6.1,0,0,1,2.545.559A6.1,6.1,0,0,1,182.8,147.1Zm29.487,52.767a6.208,6.208,0,0,1-6.208,6.208,6.1,6.1,0,0,1-2.545-.559,6.1,6.1,0,0,1-.559-2.545,6.208,6.208,0,0,1,6.208-6.208,6.1,6.1,0,0,1,2.545.559A6.1,6.1,0,0,1,212.286,199.871Zm-58.974,0a6.208,6.208,0,0,1-6.208,6.208,6.1,6.1,0,0,1-2.545-.559,6.1,6.1,0,0,1-.559-2.545,6.208,6.208,0,0,1,6.208-6.208,6.1,6.1,0,0,1,2.545.559A6.1,6.1,0,0,1,153.312,199.871Z" transform="translate(-101.136 -70.81)" fill="#cee6f4"/><path d="M120.436,824.731a15.52,15.52,0,0,1-21.076,0,10.864,10.864,0,0,1,21.076,0Z" transform="translate(-60.826 -678.086)" fill="#76b4e2"/><path d="M49.072,152.34a17.072,17.072,0,1,1,17.072-17.072A17.072,17.072,0,0,1,49.072,152.34Zm0-31.039a13.968,13.968,0,1,0,13.968,13.968A13.968,13.968,0,0,0,49.072,121.3Zm58.974,31.039a17.072,17.072,0,1,1,17.072-17.072,17.072,17.072,0,0,1-17.072,17.072Zm0-31.039a13.968,13.968,0,1,0,13.968,13.968A13.968,13.968,0,0,0,108.046,121.3ZM78.559,99.573a17.129,17.129,0,0,1-16.73-20.532,1.583,1.583,0,0,1,3.1.621,14.324,14.324,0,0,0-.341,2.84A13.968,13.968,0,1,0,67.2,74.4a1.584,1.584,0,1,1-2.607-1.8A17.094,17.094,0,1,1,78.559,99.573Z" transform="translate(0 0)" fill="#0d182d"/><path d="M439.76,143.52a7.76,7.76,0,1,1,7.76-7.76A7.76,7.76,0,0,1,439.76,143.52Zm0-12.416a4.656,4.656,0,1,0,4.656,4.656A4.656,4.656,0,0,0,439.76,131.1Z" transform="translate(-361.201 -56.362)" fill="#0d182d"/><path d="M399.377,271.59a16.885,16.885,0,0,1-11.593-4.563,1.552,1.552,0,0,1-.45-1.552,12.416,12.416,0,0,1,24.086,0,1.552,1.552,0,0,1-.45,1.552A16.885,16.885,0,0,1,399.377,271.59Zm-8.769-6.208a13.968,13.968,0,0,0,17.537,0,9.312,9.312,0,0,0-17.537,0Zm38.256,46.559a7.76,7.76,0,1,1,7.76-7.76A7.76,7.76,0,0,1,428.865,311.94Zm0-12.416a4.656,4.656,0,1,0,4.656,4.656A4.656,4.656,0,0,0,428.865,299.525Z" transform="translate(-320.819 -172.016)" fill="#0d182d"/><path d="M194.676,699.927a16.885,16.885,0,0,1-11.593-4.563,1.552,1.552,0,0,1-.45-1.552,12.416,12.416,0,0,1,2.592-5.059,1.552,1.552,0,1,1,2.359,2.018,9.2,9.2,0,0,0-1.676,2.949,13.968,13.968,0,0,0,17.537,0,9.312,9.312,0,0,0-8.769-6.208,9.829,9.829,0,0,0-2.825.435A1.552,1.552,0,1,1,190.92,685a12.555,12.555,0,0,1,3.756-.59,12.416,12.416,0,0,1,12.043,9.451,1.552,1.552,0,0,1-.45,1.552A16.886,16.886,0,0,1,194.676,699.927ZM135.7,687.511a7.76,7.76,0,1,1,7.511-9.684,1.555,1.555,0,0,1-3.011.776,4.656,4.656,0,1,0-1.071,4.252,1.552,1.552,0,0,1,2.3,2.08,7.76,7.76,0,0,1-5.727,2.576Z" transform="translate(-86.63 -547.587)" fill="#0d182d"/><path d="M95.377,815.59a16.885,16.885,0,0,1-11.593-4.563,1.552,1.552,0,0,1-.45-1.552,12.416,12.416,0,0,1,24.086,0,1.552,1.552,0,0,1-.45,1.552A16.886,16.886,0,0,1,95.377,815.59Zm-8.769-6.208a13.968,13.968,0,0,0,17.537,0,9.312,9.312,0,0,0-17.537,0Z" transform="translate(-46.306 -663.25)" fill="#0d182d"/></g></svg>