<svg xmlns="http://www.w3.org/2000/svg" width="55" height="55.062" viewBox="0 0 55 55.062"><defs><style>.a{fill:#ff7e00;}.b{fill:#0c2d63;}</style></defs><g transform="translate(-61.269 -60.672)"><path d="M464.811,363.129v-6.35h4.618v1.732A4.618,4.618,0,0,1,464.811,363.129Z" transform="translate(-379.149 -278.275)"/><path class="a" d="M325.99,60.672H306.483a3.464,3.464,0,0,0-3.464,3.464V77.35a3.464,3.464,0,0,0,3.464,3.464H325.99a3.464,3.464,0,0,0,3.464-3.464V64.136A3.464,3.464,0,0,0,325.99,60.672ZM324.835,76.2h-17.2V65.29h17.2Z" transform="translate(-228.236 0)"/><path class="a" d="M390.315,221.867V223.6h5.2v-1.732Zm9.237,0V223.6h5.2v-1.732Z" transform="translate(-309.655 -151.394)"/><path class="b" d="M68.748,450.867a2.2,2.2,0,0,0-2.082,2.309V462.6H64.392a3.307,3.307,0,0,0-3.123,3.464V477.03a3.307,3.307,0,0,0,3.123,3.464h8.916a3.307,3.307,0,0,0,3.123-3.464V466.062a3.307,3.307,0,0,0-3.123-3.464H70.83v-7.112h9.108a4.409,4.409,0,0,0,4.164-4.618Zm3.518,16.349v8.659H65.433v-8.659Zm43.377,11.125-4.034-4.474a17.863,17.863,0,0,0-1.369-21.654,13.879,13.879,0,0,0-20.593-.52,17.856,17.856,0,0,0-1.428,22.792c5.089,6.8,14.1,7.966,20.46,2.645l4.034,4.48a1.941,1.941,0,0,0,2.946,0,2.492,2.492,0,0,0,0-3.267Zm-8.328-5.992a9.979,9.979,0,0,1-12.985,1.912,12.5,12.5,0,0,1-5.025-13.418c1.256-5.218,5.515-8.85,10.385-8.855a9.963,9.963,0,0,1,4.055.872,11.712,11.712,0,0,1,6.491,8.687,12.8,12.8,0,0,1-2.936,10.8Z" transform="translate(0 -366.55)"/></g></svg>