<svg xmlns="http://www.w3.org/2000/svg" width="146" height="146" viewBox="0 0 146 146"><g transform="translate(0 -0.081)"><g transform="translate(0 0.082)"><rect width="146" height="146" transform="translate(0 0)" fill="rgba(216,216,216,0)"/><g transform="translate(10.735 10.735)"><rect width="124" height="124" transform="translate(0.265 0.264)" fill="rgba(216,216,216,0)"/><g transform="translate(1.735 11.809)"><circle cx="52.5" cy="52.5" r="52.5" transform="translate(14.53 1.456)" fill="#e1e8f1" opacity="0.4"/><rect width="61" height="104" rx="14" transform="translate(39.53 0.456)" fill="#ced7e2"/><rect width="57" height="94" rx="14" transform="translate(41.53 14.456)" fill="#ced7e2" opacity="0.3"/><rect width="57" height="94" rx="10" transform="translate(41.53 5.456)" fill="#fff"/><path d="M5.764,89.389,3.389,91.764a.594.594,0,0,1-.841,0L.174,89.389a.594.594,0,0,1,0-.841l2.374-2.374a.594.594,0,0,1,.841,0l2.374,2.374a.594.594,0,0,1,0,.841" transform="translate(0 -34.396)" fill="#bbd9fa" fill-rule="evenodd"/><path d="M29.925,119.456l-4.47,4.469a.577.577,0,0,1-.817,0l-4.47-4.469a.578.578,0,0,1,0-.818l4.47-4.469a.577.577,0,0,1,.817,0l4.47,4.469a.578.578,0,0,1,0,.818" transform="translate(-8.124 -45.769)" fill="#ffbbd8" fill-rule="evenodd"/><path d="M105.891,10a.891.891,0,0,1,.086,1.777l-.086,0a.891.891,0,1,1,0-1.781Zm12.47,0a.891.891,0,0,1,0,1.781h-9.5a.891.891,0,0,1,0-1.781Z" transform="translate(-42.649 -3.526)" fill="#adcbdf" fill-rule="evenodd"/><path d="M179.327,136.678a17.324,17.324,0,0,0,2.349,2.672" transform="translate(-72.84 -54.98)" fill="none" stroke="#c4cbda" stroke-linecap="round" stroke-width="1" fill-rule="evenodd"/><path d="M6,0H58a6,6,0,0,1,6,6V16a6,6,0,0,1-6,6H6a6,6,0,0,1-6-6V6A6,6,0,0,1,6,0Z" transform="translate(13.53 14.456)" fill="#2d3e9a"/><rect width="58.194" height="20.476" rx="6" transform="translate(16.627 18.944)" fill="#2d3e9a" opacity="0.3"/><g transform="translate(17.814 17.757)"><path d="M10.689,5.344A5.344,5.344,0,1,1,5.344,0a5.344,5.344,0,0,1,5.344,5.344" fill="#fff" fill-rule="evenodd"/><path d="M8.069,7.179a1.768,1.768,0,0,0,.692-1.4,1.792,1.792,0,0,0-3.584,0,1.77,1.77,0,0,0,.692,1.4A2.974,2.974,0,0,0,4,9.6a.3.3,0,0,0,.3.342h5.34a.3.3,0,0,0,.3-.342A2.972,2.972,0,0,0,8.069,7.179" transform="translate(-1.625 -1.625)" fill="#f2f5f9" fill-rule="evenodd"/></g><path d="M150.529,42.058h0a5.529,5.529,0,1,1,5.53-5.529,5.529,5.529,0,0,1-5.53,5.529" transform="translate(-58.897 -12.056)" fill="#1a66ff" fill-rule="evenodd" opacity="0.3"/><path d="M169.53,171.058h0a5.529,5.529,0,1,1,5.529-5.53,5.53,5.53,0,0,1-5.529,5.53" transform="translate(-66.614 -64.453)" fill="#ffa900" fill-rule="evenodd"/><path d="M170.468,175.624h0a4.157,4.157,0,1,1,4.156-4.157,4.157,4.157,0,0,1-4.156,4.157" transform="translate(-67.553 -67.423)" fill="#ffa900" fill-rule="evenodd" opacity="0.3"/><path d="M171.9,167.972l.157-.868a.342.342,0,0,0-.319-.2c-.4,0-.645.526-.645.921,0,.3.147.445.358.445.141,0,.276-.082.45-.3m-2.672-.141a2.7,2.7,0,0,1,2.716-2.819,2.023,2.023,0,0,1,2.135,2.147,1.5,1.5,0,0,1-1.355,1.675.634.634,0,0,1-.688-.466h-.011a1.024,1.024,0,0,1-.742.412.805.805,0,0,1-.792-.91,1.418,1.418,0,0,1,1.225-1.485.491.491,0,0,1,.471.3h.011l.087-.255h.493l-.266,1.323c-.1.4,0,.58.293.58.374,0,.764-.444.764-1.149a1.552,1.552,0,0,0-1.691-1.68,2.2,2.2,0,0,0-2.108,2.3,1.7,1.7,0,0,0,1.81,1.815,2.041,2.041,0,0,0,.948-.249l.179.444a2.368,2.368,0,0,1-1.192.3,2.15,2.15,0,0,1-2.287-2.286" transform="translate(-68.738 -66.489)" fill="#f2f5f9" fill-rule="evenodd"/><path d="M153.419,38.92l.121-.976h-.9l-.121.976Zm-1.6.677h-.612V38.92h.691l.121-.976h-.648v-.683h.733l.178-1.375h.606l-.164,1.375h.9l.178-1.375h.612l-.164,1.375h.641v.683h-.727l-.121.976h.683V39.6h-.762l-.185,1.545h-.626l.185-1.545h-.89l-.192,1.545h-.619Z" transform="translate(-61.42 -14.04)" fill="#f2f5f9" fill-rule="evenodd"/><g transform="translate(32.618 17.177)"><rect width="41" height="1" rx="0.5" transform="translate(-0.088 0.279)" fill="#fff"/><rect width="41" height="1" rx="0.5" transform="translate(-0.088 7.279)" fill="#fff"/><rect width="27" height="1" rx="0.5" transform="translate(-0.088 14.279)" fill="#fff"/></g><rect width="12" height="3" rx="1.5" transform="translate(46.53 41.456)" fill="#1a66ff"/><rect width="33" height="3" rx="1.5" transform="translate(60.53 41.456)" fill="#e5ecf5"/><rect width="31" height="3" rx="1.5" transform="translate(62.53 93.456)" fill="#33c8cd"/><path d="M167,47.905l7.743,5.4a9.683,9.683,0,0,1,2.4,13.48q-.094.135-.193.267a18.527,18.527,0,0,0-2.586,17.434l5.1,14.043h0" transform="translate(-67.833 -18.922)" fill="none" stroke="#e4edf5" stroke-linecap="round" stroke-width="2" stroke-dasharray="9" fill-rule="evenodd"/><g transform="translate(41.563 49.382)"><rect width="47" height="29" rx="2" transform="translate(4.967 0.073)" fill="#e5ecf5"/><path d="M15.025,12.73l.089.084L27.8,25.5l6.882-6.882a2.088,2.088,0,0,1,2.87-.078l.083.079L55.352,36.336,54.086,37.6,36.365,19.88a.3.3,0,0,0-.381-.035l-.041.035-6.882,6.882,4.618,4.618a2.088,2.088,0,0,1,.085,2.864l-.084.089L15.122,52.889a2.088,2.088,0,0,1-2.864.084l-.089-.084L-6.4,34.324A2.088,2.088,0,0,1-6.48,31.46l.084-.089L12.161,12.814A2.088,2.088,0,0,1,15.025,12.73Zm-1.557,1.315-.041.035L-5.13,32.637a.3.3,0,0,0-.034.381l.035.041L13.435,51.624a.3.3,0,0,0,.381.035l.041-.035L32.414,33.067a.3.3,0,0,0,.034-.381l-.035-.041L13.849,14.08A.3.3,0,0,0,13.468,14.045ZM30.939,6a2.387,2.387,0,1,1-2.386,2.387A2.386,2.386,0,0,1,30.939,6Z" transform="translate(7.007 -3.184)" fill="#fff"/></g><rect width="54" height="20" rx="6" transform="translate(66.53 68.456)" fill="#33c8cd"/><rect width="43.942" height="16.6" rx="6" transform="translate(72.445 73.588)" fill="#33c8cd" opacity="0.3"/><g transform="translate(106.293 72.982)"><path d="M10.689,5.344A5.344,5.344,0,1,1,5.344,0a5.344,5.344,0,0,1,5.344,5.344" fill="#fff" fill-rule="evenodd"/><path d="M8.069,7.179a1.769,1.769,0,0,0,.692-1.4,1.792,1.792,0,0,0-3.584,0,1.769,1.769,0,0,0,.692,1.4A2.975,2.975,0,0,0,4,9.6a.3.3,0,0,0,.3.342h5.34a.3.3,0,0,0,.3-.342A2.973,2.973,0,0,0,8.069,7.179" transform="translate(-1.625 -1.625)" fill="#f2f5f9" fill-rule="evenodd"/></g><g transform="translate(74.486 73)"><rect width="24" height="3" rx="1.5" transform="translate(0.044 0.456)" fill="#fff"/><rect width="18" height="2" rx="1" transform="translate(0.044 7.456)" fill="#fff"/></g><rect width="22" height="24" rx="4" transform="translate(26.53 73.456)" fill="#42d77b"/><rect width="17" height="17" rx="4" transform="translate(29.53 81.456)" fill="#42d77b" opacity="0.3"/><path d="M63.39,139.723a.7.7,0,0,1-.049-1.4h.049a.7.7,0,0,1,0,1.4Zm-3.44,0a.7.7,0,0,1-.008-1.4h.007a.7.7,0,0,1,0,1.4Zm6.49.9c0-2.271-2.112-4.112-4.72-4.112S57,138.356,57,140.625s2.114,4.115,4.72,4.115a5.294,5.294,0,0,0,1.987-.383c.622.339,1.3.7,1.335.707.024.026-.11-.638-.255-1.309a3.921,3.921,0,0,0,1.653-3.129Zm-12-4.613a.7.7,0,0,1,0-1.4h.007a.7.7,0,0,1,0,1.4Zm4.229-1.4a.689.689,0,1,1-.007,0Zm2.8,1.6c.164,0,.326.007.489.023A5.34,5.34,0,0,0,56.507,132C53.466,132,51,134.2,51,136.914a4.724,4.724,0,0,0,1.981,3.777c-.154.79-.346,1.827-.318,1.792.042-.014,1.106-.618,1.775-1.012a6.091,6.091,0,0,0,2.069.359c.077,0,.152,0,.229,0a4.306,4.306,0,0,1-.128-1.049,4.719,4.719,0,0,1,4.865-4.563Z" transform="translate(-20.715 -53.08)" fill="#fff" fill-rule="evenodd"/></g></g></g></g></svg>