<svg xmlns="http://www.w3.org/2000/svg" width="21.039" height="22.264" viewBox="0 0 21.039 22.264"><g transform="translate(-99.738 -74.086)"><path d="M114.971,96.35h-9.427a5.813,5.813,0,0,1-5.806-5.806V79.892a5.813,5.813,0,0,1,5.806-5.806h9.426a5.813,5.813,0,0,1,5.806,5.806.645.645,0,0,1-1.29,0,4.521,4.521,0,0,0-4.516-4.516h-9.426a4.521,4.521,0,0,0-4.516,4.516V90.544a4.521,4.521,0,0,0,4.516,4.516h9.426a4.521,4.521,0,0,0,4.516-4.516V83.982a.645.645,0,1,1,1.29,0v6.561A5.811,5.811,0,0,1,114.971,96.35Z" fill="#472d22"/><path d="M884.05,354.423a.645.645,0,0,1-.645-.645v-.365a.645.645,0,1,1,1.29,0v.365A.645.645,0,0,1,884.05,354.423Z" transform="translate(-763.918 -271.659)" fill="#472d22"/><path d="M263.958,99.686a5.145,5.145,0,0,0-1.711.292v6.866c0,.657.645,1.03,1.094.634l1.724-1.524a.606.606,0,0,1,.831.006l1.635,1.484c.448.406,1.1.035,1.1-.627v-7.13Z" transform="translate(-158.413 -24.955)" fill="#2d3e9a"/><path d="M237.974,83.329a1.237,1.237,0,0,1-.511-.111,1.441,1.441,0,0,1-.817-1.33V75.023a.647.647,0,0,1,.431-.609A5.781,5.781,0,0,1,239,74.086h4.672a.645.645,0,0,1,.645.645v7.13A1.441,1.441,0,0,1,243.5,83.2a1.245,1.245,0,0,1-1.355-.228L240.521,81.5,238.811,83a1.258,1.258,0,0,1-.837.324Zm-.037-7.826v6.384a.226.226,0,0,0,.037.135l1.708-1.508a1.253,1.253,0,0,1,1.692.012L242.992,82a.22.22,0,0,0,.037-.135V75.377H239a4.543,4.543,0,0,0-1.066.126Zm11.338,17.14h-4.046a.645.645,0,1,1,0-1.29h4.046a.645.645,0,0,1,0,1.29Z" transform="translate(-133.458 0)" fill="#472d22"/></g></svg>