<svg xmlns="http://www.w3.org/2000/svg" width="26.943" height="21.413" viewBox="0 0 26.943 21.413"><g transform="translate(-1.919 -0.129)"><path d="M53.851,384.681m-6.589,0a6.589,6.589,0,1,0,6.589-6.589A6.589,6.589,0,0,0,47.262,384.681Z" transform="translate(-44.395 -370.059)" fill="#2d3e9a"/><path d="M486.962,476.859a.659.659,0,0,1-.468-.194l-2.329-2.329-2.329,2.329a.659.659,0,1,1-.932-.932l2.8-2.794a.659.659,0,0,1,.929,0l2.8,2.794a.659.659,0,0,1-.465,1.127Z" transform="translate(-468.778 -462.734)" fill="#472d22"/><path d="M21.976,21.541H18.352a.659.659,0,0,1,0-1.318h3.479a.613.613,0,0,1,.112,0,5.93,5.93,0,0,0,1.15-11.66A.659.659,0,0,1,22.6,7.99a7.248,7.248,0,0,0-14.424,0,.659.659,0,0,1-.5.573A5.93,5.93,0,0,0,8.83,20.223a.659.659,0,0,1,.115,0h6.441a.659.659,0,0,1,0,1.318H8.8a.7.7,0,0,1-.188-.026A7.248,7.248,0,0,1,6.919,7.4a8.566,8.566,0,0,1,16.934,0,7.248,7.248,0,0,1-1.7,14.121A.659.659,0,0,1,21.976,21.541Z" transform="translate(0 0)" fill="#472d22"/><path d="M615.057,530.089a.659.659,0,0,1-.659-.659v-8.9a.659.659,0,0,1,1.318,0v8.9a.659.659,0,0,1-.659.659Z" transform="translate(-599.671 -508.877)" fill="#472d22"/></g></svg>