<svg xmlns="http://www.w3.org/2000/svg" width="22.845" height="15.131" viewBox="0 0 22.845 15.131"><path d="M123.82,272.9H103.352a.952.952,0,1,1,0-1.9h19.231l-5.712-4.951a.945.945,0,1,1,1.238-1.428l6.664,5.807a1.461,1.461,0,0,1,.381,1.618,1.348,1.348,0,0,1-1.333.857ZM123.535,271.758Zm-5.427,7.521,3.808-3.332a.945.945,0,0,0-1.238-1.428l-3.808,3.332a.925.925,0,0,0-.1,1.333,1.081,1.081,0,0,0,.762.286C117.727,279.565,117.918,279.47,118.108,279.279Z" transform="translate(-102.4 -264.376)" fill="#6e6e6e" opacity="0.5"/></svg>