<svg xmlns="http://www.w3.org/2000/svg" width="204.044" height="136.696" viewBox="0 0 204.044 136.696"><defs><style>.a{fill:#2f2e41;}.b{fill:#ffb8b8;}.c{fill:#3f3d56;}.d{fill:#6c709a;}.e{fill:#e6e6e6;}.f{fill:#ccc;}.g{fill:#fff;}.h{fill:#f2f2f2;}</style></defs><g transform="translate(0 0.001)"><path class="a" d="M879.566,375.355l.606-4.855a6.556,6.556,0,1,1,13.011,1.623l-.606,4.855a.882.882,0,0,1-.983.765l-11.264-1.405A.882.882,0,0,1,879.566,375.355Z" transform="translate(-717.017 -314.862)"/><circle class="b" cx="4.807" cy="4.807" r="4.807" transform="translate(163.137 52.328)"/><path class="a" d="M875.011,375.755a5.192,5.192,0,0,1,5.788-4.5l.971.121a5.192,5.192,0,0,1,4.5,5.788l-.012.1L884.21,377l-.456-2.047-.384,1.942-1.061-.132-.23-1.033-.194.98L875,375.852Z" transform="translate(-713.445 -319.92)"/><path class="b" d="M795.014,465.651a2.214,2.214,0,0,0,3.309.761l4.366,2.558,2.2-2.274-6.216-3.525a2.226,2.226,0,0,0-3.66,2.481Z" transform="translate(-650.579 -391.37)"/><path class="c" d="M828.354,456.93a49.7,49.7,0,0,1-9.2-1.522l-.1-.025.892-4.516,8.655,1.71,4.7-6.622,5.4-.549-.151.2c-.07.092-7.029,9.253-8.112,10.79C830.165,456.783,829.385,456.93,828.354,456.93Z" transform="translate(-669.61 -378.054)"/><path class="c" d="M849.69,468.613l-.129-.062a10.527,10.527,0,0,1-4.18-3.942c-1.41-2.586,5.192-13.554,5.654-14.316l.007-3.483,2.375-6.412,3.029-1.712-2.6,6.068Z" transform="translate(-690.084 -372.789)"/><path class="b" d="M707.8,575.177H704.9l-1.377-11.166H707.8Z" transform="translate(-551.223 -441.913)"/><path class="a" d="M821.609,749.255h-9.334v-.118a3.633,3.633,0,0,1,3.633-3.633h5.7Z" transform="translate(-664.299 -613.185)"/><path class="b" d="M839.614,565.468l-2.751.9-4.786-10.182,4.06-1.33Z" transform="translate(-651.947 -434.741)"/><path class="a" d="M970,736.506l-8.869,2.906-.037-.112a3.633,3.633,0,0,1,2.321-4.584h0l5.418-1.775Z" transform="translate(-780.759 -603.342)"/><path class="a" d="M851.333,542.328l-8.252-13.777-6.966-14.719-6.269,13-2.49,16.84-8.734.121.034-.137,13.365-53.106,10.467,1.564-.477,6.909.284.4c2.365,3.359,4.81,6.832,3.407,10.576l3.975,11.8,8.8,19.654Z" transform="translate(-669.271 -413.427)"/><path class="d" d="M873.33,453.91c-1.517,0-3.247-1.732-2.349-4.689l-.058-.042,2.156-9.527c-1.882-2.691.6-4.912.832-5.111l1.184-2.132,5.225-3.314,2.644,21.967-.039.037C881.016,452.928,874.6,453.91,873.33,453.91Z" transform="translate(-710.103 -365.274)"/><path class="c" d="M914.316,455.045a2.576,2.576,0,0,1-.617-.065c-.2-.051-.532-.31-1.041-1.965-2.021-6.581-4.407-26.38-2.674-28.318l.04-.044,2.846.474a4.207,4.207,0,0,1,2.624-.891,1.739,1.739,0,0,1,1.19.7l.02.026.907,12.9,3.322,15.182-.08.036C920.66,453.172,916.512,455.045,914.316,455.045Z" transform="translate(-740.387 -361.452)"/><path class="b" d="M914.939,512.553a2.214,2.214,0,0,0,2.092-2.674l4.167-2.87-1.127-2.958-5.828,4.136a2.226,2.226,0,0,0,.7,4.366Z" transform="translate(-742.924 -424.003)"/><path class="c" d="M932.442,448.624l-3.712-2.722,5.217-7.115-4-7.066,1.791-5.122.116.221c.054.1,5.4,10.289,6.333,11.921.97,1.7-5.406,9.473-5.677,9.8Z" transform="translate(-755.544 -363.318)"/><path class="e" d="M416.41,614.125l-3.159-1.33-2.167-15.836H382.226l-2.349,15.771-2.826,1.413a.671.671,0,0,0,.3,1.271h38.8a.671.671,0,0,0,.26-1.29Z" transform="translate(-323.003 -496.798)"/><path class="f" d="M273.885,524.177H132.126a2.809,2.809,0,0,1-2.8-2.809v-19.99H276.687v19.99A2.809,2.809,0,0,1,273.885,524.177Z" transform="translate(-129.195 -421.909)"/><path class="c" d="M276.367,223.2H128.726V137.666a3.39,3.39,0,0,1,3.386-3.386H272.981a3.39,3.39,0,0,1,3.386,3.386Z" transform="translate(-128.726 -134.281)"/><path class="g" d="M290.018,239.458h-130a2.613,2.613,0,0,1-2.61-2.61V165.566a2.613,2.613,0,0,1,2.61-2.61h130a2.613,2.613,0,0,1,2.61,2.61v71.282A2.613,2.613,0,0,1,290.018,239.458Z" transform="translate(-151.195 -156.749)"/><path class="f" d="M372.5,680.582H299.453a.339.339,0,0,1-.333-.245.331.331,0,0,1,.32-.415h73.038a.35.35,0,0,1,.35.258.331.331,0,0,1-.323.4Z" transform="translate(-262.224 -561.8)"/><rect class="h" width="31.389" height="23.98" transform="translate(106.046 17.732)"/><rect class="g" width="28.27" height="21.597" transform="translate(107.605 18.923)"/><path class="c" d="M692.759,241.246h.011a7.537,7.537,0,0,0,.169-15.043.172.172,0,0,0-.186.17l-.165,14.7A.172.172,0,0,0,692.759,241.246Z" transform="translate(-570.523 -206.303)"/><path class="e" d="M658.622,237.433a.222.222,0,0,1,.156.067l5.06,5.175a.22.22,0,0,1,.063.157l-.079,7.034a.219.219,0,0,1-.071.16.222.222,0,0,1-.167.058,7.586,7.586,0,0,1-5.13-12.576.222.222,0,0,1,.16-.075Z" transform="translate(-542.296 -215.103)"/><path class="d" d="M672.8,225.927a.223.223,0,0,1,.151.062.219.219,0,0,1,.068.162l-.071,6.346a.221.221,0,0,1-.379.152l-4.416-4.516a.222.222,0,0,1,.012-.321,7.6,7.6,0,0,1,4.621-1.885Z" transform="translate(-551.325 -206.088)"/><path class="d" d="M669.535,304.82a1.354,1.354,0,1,1-1.338-1.369A1.354,1.354,0,0,1,669.535,304.82Z" transform="translate(-550.339 -266.829)"/><path class="c" d="M687.4,305.021a1.354,1.354,0,1,1-1.338-1.369A1.354,1.354,0,0,1,687.4,305.021Z" transform="translate(-564.336 -266.987)"/><path class="e" d="M705.266,305.221a1.354,1.354,0,1,1-1.338-1.369A1.354,1.354,0,0,1,705.266,305.221Z" transform="translate(-578.334 -267.144)"/><rect class="h" width="31.389" height="23.98" transform="translate(105.715 45.486)"/><rect class="g" width="28.27" height="21.597" transform="translate(107.275 46.678)"/><circle class="c" cx="1.174" cy="1.174" r="1.174" transform="translate(110.898 51.428)"/><path class="c" d="M685.271,372.343a.8.8,0,0,1,0,1.592H672.926a.8.8,0,1,1,0-1.592h12.345m0-.195H672.926a.991.991,0,1,0,0,1.982h12.345a.991.991,0,0,0,0-1.982Z" transform="translate(-554.341 -320.655)"/><path class="d" d="M673.816,374.131h-9.293a.991.991,0,0,1,0-1.982h9.293a.991.991,0,0,1,0,1.982Z" transform="translate(-547.757 -320.655)"/><circle class="c" cx="1.174" cy="1.174" r="1.174" transform="translate(110.898 56.303)"/><path class="c" d="M685.271,394.858a.8.8,0,0,1,0,1.592H672.926a.8.8,0,1,1,0-1.592h12.345m0-.2H672.926a.991.991,0,1,0,0,1.982h12.345a.991.991,0,0,0,0-1.982Z" transform="translate(-554.341 -338.296)"/><path class="d" d="M677.325,396.646h-12.8a.991.991,0,1,1,0-1.982h12.8a.991.991,0,1,1,0,1.982Z" transform="translate(-547.756 -338.296)"/><circle class="c" cx="1.174" cy="1.174" r="1.174" transform="translate(110.898 61.177)"/><path class="c" d="M685.271,417.373a.8.8,0,0,1,0,1.592H672.926a.8.8,0,1,1,0-1.592h12.345m0-.195H672.926a.991.991,0,1,0,0,1.982h12.345a.991.991,0,1,0,0-1.982Z" transform="translate(-554.341 -355.936)"/><path class="d" d="M669.721,419.161h-5.2a.991.991,0,1,1,0-1.982h5.2a.991.991,0,0,1,0,1.982Z" transform="translate(-547.756 -355.937)"/><rect class="h" width="87.695" height="44.944" transform="translate(11.081 21.974)"/><rect class="g" width="81.849" height="40.477" transform="translate(14.004 24.208)"/><path class="c" d="M307.987,299.7H248.32a.187.187,0,0,1-.187-.187v-28.6a.187.187,0,1,1,.373,0v28.411h59.48a.187.187,0,0,1,0,.373Z" transform="translate(-222.284 -241.19)"/><path class="d" d="M286.236,363.981h-5.427a.555.555,0,0,1-.554-.554v-7.481a.555.555,0,0,1,.554-.554h5.427a.555.555,0,0,1,.554.554v7.481A.555.555,0,0,1,286.236,363.981Z" transform="translate(-247.452 -307.526)"/><path class="d" d="M331.952,338.3h-5.427a.555.555,0,0,1-.554-.554V323.168a.555.555,0,0,1,.554-.554h5.427a.555.555,0,0,1,.554.554v14.577A.555.555,0,0,1,331.952,338.3Z" transform="translate(-283.271 -281.843)"/><path class="d" d="M377.667,363.981H372.24a.555.555,0,0,1-.554-.554v-7.481a.555.555,0,0,1,.554-.554h5.427a.555.555,0,0,1,.554.554v7.481a.555.555,0,0,1-.554.554Z" transform="translate(-319.089 -307.526)"/><path class="d" d="M423.383,328.161h-5.427a.543.543,0,0,1-.554-.529V310.2a.543.543,0,0,1,.554-.529h5.427a.543.543,0,0,1,.554.529v17.428A.543.543,0,0,1,423.383,328.161Z" transform="translate(-354.909 -271.706)"/><path class="d" d="M469.1,309.914h-5.427a.555.555,0,0,1-.554-.554V286.941a.555.555,0,0,1,.554-.554H469.1a.555.555,0,0,1,.554.554V309.36A.555.555,0,0,1,469.1,309.914Z" transform="translate(-390.728 -253.459)"/><circle class="c" cx="1.12" cy="1.12" r="1.12" transform="translate(34.95 43.385)"/><circle class="c" cx="1.12" cy="1.12" r="1.12" transform="translate(44.847 36.102)"/><circle class="c" cx="1.12" cy="1.12" r="1.12" transform="translate(54.743 43.385)"/><circle class="c" cx="1.12" cy="1.12" r="1.12" transform="translate(64.64 32.554)"/><circle class="c" cx="1.12" cy="1.12" r="1.12" transform="translate(74.537 28.446)"/><path class="c" d="M186.035,151.579l-9.92-7.43-9.785,7.329-.224-.3,10.009-7.5,9.873,7.4L195.8,140.34l.039-.016,9.9-3.987.14.346-9.857,3.972Z" transform="translate(-130.147 -106.823)"/><path class="f" d="M770.966,764.153h-82.48a.216.216,0,1,1,0-.433h82.48a.216.216,0,0,1,0,.433Z" transform="translate(-567.139 -627.458)"/></g></svg>