<svg xmlns="http://www.w3.org/2000/svg" width="28.987" height="28.987" viewBox="0 0 28.987 28.987"><g transform="translate(-105.813 -75.093)"><path d="M284.934,95.626c-3.019,0-5.677-2.416-6.764-6.039-.966,0-1.691-1.329-1.691-3.019a4.343,4.343,0,0,1,.242-1.329,8.157,8.157,0,0,1-.242-1.691,8.455,8.455,0,0,1,16.909,0,4.4,4.4,0,0,1-.242,1.691,4.342,4.342,0,0,1,.242,1.329c0,1.691-.725,3.019-1.691,3.019-1.087,3.623-3.744,6.039-6.764,6.039Zm-5.918-7.609.242.725c.845,3.382,3.14,5.677,5.677,5.677s4.831-2.295,5.677-5.677l.242-.845.725.483c.242,0,.6-.6.6-1.812a4.109,4.109,0,0,0-.121-1.208v-.242a8.311,8.311,0,0,0,.242-1.57,7.247,7.247,0,1,0-14.493,0,3.838,3.838,0,0,0,.242,1.57v.242a3.722,3.722,0,0,0-.121,1.208c0,1.208.483,1.812.6,1.812l.483-.362Z" transform="translate(-164.627)" fill="#2c3d9a"/><path d="M134.8,222.612H105.813v-1.449a7.8,7.8,0,0,1,5.314-7.368l3.5-1.208.242.242a7.415,7.415,0,0,0,5.435,2.536,7.669,7.669,0,0,0,5.435-2.536l.242-.242,3.5,1.208a7.919,7.919,0,0,1,5.314,7.368v1.449ZM107.021,221.4h26.571v-.242a6.762,6.762,0,0,0-4.469-6.281l-2.657-.966a8.191,8.191,0,0,1-12.078,0l-2.778.966a6.762,6.762,0,0,0-4.469,6.281v.242Zm21.016-17.03c-4.106,0-8.455-2.778-10.266-4.831-.966,3.261-4.59,4.71-4.71,4.831l-.483-1.087s4.227-1.691,4.227-5.314h1.208c.242.845,5.073,5.314,10.025,5.314v1.087Zm-10.749.121h1.208V205.7h-1.208Zm4.831,0h1.208V205.7h-1.208Z" transform="translate(0 -118.532)" fill="#2c3d9a"/><path d="M208.271,324.293c-.483-.121-5.073-.6-6.4-1.932l-.483-.483.483-.483c1.208-1.208,2.295-5.435,2.295-7.368h1.208a17.446,17.446,0,0,1-2.174,7.73,23.38,23.38,0,0,0,5.193,1.329l-.121,1.208Zm8.575,0-.121-1.208a20.38,20.38,0,0,0,5.193-1.329,17.446,17.446,0,0,1-2.174-7.73h1.208c0,1.932,1.087,6.281,2.295,7.368l.483.483-.483.483c-1.329,1.329-5.918,1.932-6.4,1.932Z" transform="translate(-92.192 -230.479)" fill="#2c3d9a"/></g></svg>