<svg xmlns="http://www.w3.org/2000/svg" width="119.556" height="144.242" viewBox="0 0 119.556 144.242"><g transform="translate(-111.743 -104.697)"><path d="M137.5,111.5H247.056v99.307H137.5Z" transform="translate(-20.757 -1.803)" fill="#d6ecfd" stroke="#a8d1f8" stroke-linejoin="round" stroke-width="10" fill-rule="evenodd"/><rect width="3.378" height="102.006" transform="translate(168.894 109.103)" fill="#a8d1f8"/><g transform="translate(113.5 186.79)"><path d="M0,0H110.788V4.053H0Z" transform="translate(0 0)" fill="#ec8f51"/><rect width="31.075" height="4.053" transform="translate(0 0)" fill="#cb6724"/><rect width="4.053" height="45.261" transform="translate(77.011 4.053)" fill="#6a7888"/><rect width="3.378" height="52.016" transform="translate(102.006 4.053)" fill="#6a7888"/><rect width="3.378" height="45.261" transform="translate(2.702 4.053)" fill="#8794a4"/><rect width="3.378" height="52.016" transform="translate(27.697 4.053)" fill="#8794a4"/></g><g transform="translate(133.509 146.805)"><rect width="4.749" height="22.938" transform="translate(21.137 16.644)" fill="#363636"/><path d="M235.339,321.5h37.2a3.446,3.446,0,0,1,3.386,3.163l1.539,22.142a2.914,2.914,0,0,1-2.946,3.163h-37.2a3.446,3.446,0,0,1-3.386-3.163l-1.539-22.142a2.914,2.914,0,0,1,2.946-3.163Z" transform="translate(-232.382 -321.498)" fill="#363636" fill-rule="evenodd"/><path d="M246.38,321.5h37.2a3.446,3.446,0,0,1,3.386,3.163l1.539,22.142a2.914,2.914,0,0,1-2.946,3.163h-37.2a3.446,3.446,0,0,1-3.386-3.163l-1.539-22.142a2.914,2.914,0,0,1,2.946-3.163Z" transform="translate(-241.472 -321.498)" fill="#e7efff" stroke="#555" stroke-linejoin="round" stroke-width="4" fill-rule="evenodd"/><g transform="translate(12.417 6.884)"><rect width="2.027" height="10.133" transform="translate(0 0)" fill="#2e83f2"/><rect width="2.702" height="6.755" transform="translate(2.702 3.378)" fill="#2e83f2"/><rect width="2.027" height="4.053" transform="translate(9.458 6.08)" fill="#2e83f2"/><rect width="2.027" height="6.755" transform="translate(6.08 3.378)" fill="#2e83f2"/><circle cx="4.391" cy="4.391" r="4.391" transform="translate(19.591 1.351)" fill="#2e83f2"/></g></g><g transform="translate(153.503 124.949)"><path d="M352.61,824.215s-6.028.179-7.026,2.494,11.881,4.383,15,1.7c1.092-3.027-.608-6.771-.608-6.771Z" transform="translate(-345.529 -711.404)" fill="#483020" fill-rule="evenodd"/><path d="M403.3,564.587s-21.5,5.124-23.325,11.309c-.852,2.886-2.474,31.806-2.474,31.806a14.7,14.7,0,0,0,4.948,1.06c2.5,0,4.948-2.12,4.948-2.12l1.767-25.8s34.487-.624,34.634-14.136S403.3,564.587,403.3,564.587Z" transform="translate(-371.851 -496.082)" fill="#343434" fill-rule="evenodd"/><path d="M449.441,822.929s-6.016-.025-7.086,2.258,11.707,4.786,14.9,2.2c1.186-2.992-.389-6.794-.389-6.794Z" transform="translate(-425.193 -710.549)" fill="#483020" fill-rule="evenodd"/><path d="M493.547,596.029s-21.444,5.13-23.266,11.322c-.85,2.889-2.115,26.889-2.115,26.889a6.671,6.671,0,0,0,4.229,1.769,14.332,14.332,0,0,0,5.64-1.769l1.41-21.936s34.4-.625,34.545-14.152S493.547,596.029,493.547,596.029Z" transform="translate(-446.496 -521.964)" fill="#343434" fill-rule="evenodd"/><path d="M540.1,217.509c-12.122,0-7.554,17.675,0,17.675S552.221,217.509,540.1,217.509Z" transform="translate(-499.563 -214.029)" fill="#f5b08a" fill-rule="evenodd"/><path d="M569.346,299.529l2.468,6s-2.418,4.187-5.642,3.884c-.5-.047-.328-2.2-.705-4.59a8.194,8.194,0,0,0-2.467-4.59Z" transform="translate(-524.572 -281.556)" fill="#e4875e" fill-rule="evenodd"/><path d="M537.243,313.578c14.538,5.3,6.361,47,6.361,47s-1.132,4.144-8.582,3.908c-13.216-.418-16.219-3.889-16.219-3.889s-1.269-29.666,6.778-42.782C528.616,312.872,534.814,312.693,537.243,313.578Z" transform="translate(-488.125 -292.783)" fill="#4b48d5" fill-rule="evenodd"/><path d="M521.2,202.708c-.263,4.562,2.2,5.472,4.382,8.914.449.707,1.341-2.769,2.016-.081.467,4.847,2.711,6.109,3.888,6.008a21.8,21.8,0,0,1,7.984.713c-.894-4.486,4.9-7.629,1.911-16.616C531.332,193.18,529.293,201.159,521.2,202.708Z" transform="translate(-490.141 -197.815)" fill="#393939" fill-rule="evenodd"/><path d="M370.974,518.894s-3.564-.677-5.655,1.06-1.208,3.328-.707,3.534,7.775-.353,7.775-.353Z" transform="translate(-360.731 -462.051)" fill="#f5b08a" fill-rule="evenodd"/><path d="M424.329,370.147c-1.845,3.152-.48,13.313-4.038,19.029-12.051,3.483-20.588,2.928-21.049,6.136-.733,5.1,5.323,4.139,5.323,4.139s23.6-.751,26.028-5.87c7.275-15.341,1.736-24.856.943-25.282C429.917,367.431,426.084,367.149,424.329,370.147Z" transform="translate(-389.7 -337.69)" fill="#2c88f3" fill-rule="evenodd"/></g><g transform="translate(169.617 159.897)"><path d="M473.968,397.03s17.67-1.237,20.851,4.948c1.084,2.108.9,33.382-8.482,42.762s-44.529,7.156-49.123,3.887,24.389.028,32.16-10.6C478.456,425.6,473.968,397.03,473.968,397.03Z" transform="translate(-436.723 -396.692)" fill="#3a2828" fill-rule="evenodd"/><path d="M475.4,399.108s2.667,32.28-9.189,39.581c-4.748,2.924-14.555,5.034-21.113,5.68-4.768.469-6.663.864-5.392,2.448,1.385,1.727,11.374.581,23.678-3.534,18.757-6.274,15.9-44.441,14.136-47S475.4,399.108,475.4,399.108Z" transform="translate(-438.861 -395.59)" fill="#493434" fill-rule="evenodd"/><ellipse cx="7.431" cy="2.702" rx="7.431" ry="2.702" transform="translate(28.325 83.638)" fill="#768394"/><rect width="4.053" height="34.452" transform="translate(33.73 51.888)" fill="#8794a4"/></g><path d="M190.207,219.5h15.9a.707.707,0,0,1,.707.707v9.9a.707.707,0,0,1-.707.707h-15.9a.707.707,0,0,1-.707-.707v-9.9A.707.707,0,0,1,190.207,219.5Zm10.6,10.249,2.827,4.594.353-4.948Z" transform="translate(-63.568 -90.719)" fill="#598ff0" fill-rule="evenodd"/></g></svg>