<svg xmlns="http://www.w3.org/2000/svg" width="88.329" height="77.018" viewBox="0 0 88.329 77.018"><g transform="translate(8.329 4.08)"><path d="M2.665,34.039a32.047,32.047,0,0,0,64.094.025v-.017a32.047,32.047,0,0,0-64.094-.008Z" transform="translate(-10.994 -6.081)" fill="#fff"/><path d="M46.228,60.39H5a5,5,0,0,1-5-5V12.92A5,5,0,0,1,5,7.937h54.96a5,5,0,0,1,5.006,4.983v6.256h-2.5V12.92a2.507,2.507,0,0,0-2.5-2.5H5a2.5,2.5,0,0,0-2.484,2.5V55.4A2.5,2.5,0,0,0,5,57.9H46.236V60.39Zm-.875,10.88-2.14-2.132h-22.7L18.385,71.27,16.62,69.5l2.866-2.859H44.252L47.111,69.5Zm0,0" transform="translate(0.04 0.059)" fill="#2a5082"/><path d="M41.317,67.907h-2.5v-5H25.072v5h-2.5v-7.49H41.317ZM1.345,50.42H46.308v2.5H1.345Zm27.476,5h6.248v2.5H28.821Zm0,0" transform="translate(-0.04 -2.459)" fill="#2a5082"/><path d="M81.853,31.359V27.61A3.76,3.76,0,0,0,78.1,23.861H56.876a3.76,3.76,0,0,0-3.749,3.749v3.749Zm0,0" transform="translate(-3.11 -0.885)" fill="#a3d4ff"/><path d="M83.032,32.53H51.8v-5a5,5,0,0,1,5-5H78.025a5,5,0,0,1,5,5v5ZM54.3,30.03H80.524v-2.5a2.507,2.507,0,0,0-2.5-2.5H56.8a2.507,2.507,0,0,0-2.5,2.5Zm0,0" transform="translate(-3.032 -0.806)" fill="#2a5082"/><path d="M53.127,66.353v5a3.745,3.745,0,0,0,1.093,2.663,3.794,3.794,0,0,0,2.655,1.109H78.112a3.75,3.75,0,0,0,3.749-3.749v-5Zm0,0" transform="translate(-3.11 -3.404)" fill="#a3d4ff"/><path d="M78.033,76.263H56.8a5,5,0,0,1-5-5v-6.24H83.024v6.248A5,5,0,0,1,78.033,76.263ZM54.3,67.524v3.749a2.507,2.507,0,0,0,2.5,2.5H78.025a2.507,2.507,0,0,0,2.5-2.5V67.524Zm0,0" transform="translate(-3.032 -3.325)" fill="#2a5082"/><path d="M64.295,66.727h6.248v2.5H64.295Zm18.737-2.5h-2.5V33H54.3V39.25H51.807V30.5H83.032ZM51.8,44.241h2.5V64.227H51.8Zm0,0" transform="translate(-3.032 -1.278)" fill="#2a5082"/><path d="M63.244,49.447l-1.765-1.773,2.859-2.835-2.859-2.89,1.773-1.757,4.616,4.655Zm0,0" transform="translate(-3.605 -1.853)" fill="#2a5082"/><path d="M45.509,43.18H64.245v2.5H45.509Zm-9.614,2.109-5.881-5.85,5.881-5.889,1.765,1.765-4.108,4.124,4.108,4.085Zm0,0" transform="translate(-1.74 -1.459)" fill="#2a5082"/><path d="M30.251,37.338H55.228v2.5H30.251ZM6.157,39.47,4.392,37.7,22.754,19.328l8.38,8.38-1.765,1.765-6.615-6.615Zm0,0" transform="translate(-0.221 -0.616)" fill="#2a5082"/><path d="M47.023,30.566,36.667,20.209l-6.615,6.607-1.765-1.765,8.38-8.38L48.788,28.8l-1.765,1.765Zm9.263,29.983-1.765-1.765,9.63-9.63,8.38,8.38L70.766,59.3l-6.607-6.607-7.873,7.857Zm0,0" transform="translate(-1.637 -0.458)" fill="#2a5082"/><path d="M71.215,57.519,69.45,55.754l5.881-5.881L79.962,54.5,78.2,56.269l-2.866-2.859Zm0,0" transform="translate(-4.078 -2.427)" fill="#2a5082"/></g></svg>