<svg xmlns="http://www.w3.org/2000/svg" xmlns:xlink="http://www.w3.org/1999/xlink" width="540.43" height="347.411" viewBox="0 0 540.43 347.411"><defs><clipPath id="a"><path d="M173.63,214.856s-130.09,54.222-4.844,206.562c0,0,38.394,51.355,197.726,84.548,0,0,193.238-2.172,207.078-182.739S449.035,164.572,414.909,188.33c-29.574,20.589-108.841,48.876-175.406,18.21C239.5,206.54,219.27,193.4,173.63,214.856Z" transform="translate(-114.35 -172.618)"/></clipPath><clipPath id="f"><path d="M330.618,575.681h-183.6a4.241,4.241,0,0,1-4.241-4.241V544.863a4.24,4.24,0,0,1,4.241-4.241h183.6a4.241,4.241,0,0,1,4.241,4.241v26.578A4.24,4.24,0,0,1,330.618,575.681Z" transform="translate(-142.774 -540.622)"/></clipPath><clipPath id="g"><path d="M25.31,0V5.161s13.958.65,25.309,15.785H0L1.851.135Z" transform="translate(0)"/></clipPath><clipPath id="h"><path d="M280.562,459.09,270.141,589.955l25.509.09,13.116-120.8,9.1,120.708h31.5L334.989,459.09Z" transform="translate(-270.141 -459.09)"/></clipPath><clipPath id="i"><path d="M24.614,0l.7,5.157s13.958.65,25.31,15.785H0V.142Z" transform="translate(0 0)"/></clipPath><clipPath id="j"><path d="M732.333,451.129s5.613-22.189,24.68-34.006c0,0,14.3,2.067,10.149,34.006,0,0,4.5-28.493,28.025-23.073a40.378,40.378,0,0,0-9.341,23.989s22.143,6.112,16.377,26.871c0,0,11.3-9.918,20.759-11.533,0,0-9.688,18.914-6,28.832a27.589,27.589,0,0,1,24.219-3s-15.454,15.454-12.225,26.526c0,0,16.376-6.92,26.756-1.615,0,0-11.533,7.842-18.453,27.448,0,0,7.842,1.846,15.685,18.222,0,0-5.488,3.718-17.069,3.46,0,0,20.612,8.347,17.11,30.237H722.185Z" transform="translate(-722.185 -417.123)"/></clipPath><clipPath id="k"><path d="M492.328,461.295a6.228,6.228,0,0,0-6.228,6.228V595.111s-.051,20.721,8.461,19.668H679.852V467.522a6.228,6.228,0,0,0-6.228-6.228h-181.3Z" transform="translate(-486.1 -461.294)"/></clipPath><clipPath id="l"><path d="M795.872,307.383h-137.6l32.665-22.189V227.785a5.1,5.1,0,0,1,5.1-5.1h99.838a5.1,5.1,0,0,1,5.1,5.1v74.5A5.1,5.1,0,0,1,795.872,307.383Z" transform="translate(-658.271 -222.687)"/></clipPath></defs><g transform="translate(-56.063 -172.618)"><g transform="translate(91.541 172.618)"><path d="M173.63,214.856s-130.09,54.222-4.844,206.562c0,0,38.394,51.355,197.726,84.548,0,0,193.238-2.172,207.078-182.739S449.035,164.572,414.909,188.33c-29.574,20.589-108.841,48.876-175.406,18.21C239.5,206.54,219.27,193.4,173.63,214.856Z" transform="translate(-114.35 -172.618)" fill="#ffebe5"/><g transform="translate(0)" clip-path="url(#a)"><path d="M72.718,388.224h-.03l.03-.607-.6-.077.009-.091c.625-6.3,7.206-62.371,45.333-91.63,19.971-15.326,45.19-20.618,74.958-15.728,60.178,9.883,101.443-25.235,120.683-47.05,30.269-34.32,43.037-75.033,38.865-89.114l1.167-.346c2.315,7.815-.2,22.136-6.741,38.309a186.409,186.409,0,0,1-32.377,51.955c-15.306,17.354-32.6,30.38-51.406,38.714a122.03,122.03,0,0,1-70.388,8.732c-29.42-4.832-54.325.38-74.02,15.493-37.721,28.947-44.244,84.54-44.863,90.785C73.276,388.162,72.88,388.224,72.718,388.224Z" transform="translate(-97.823 -161.255)" fill="#fff"/></g><g transform="translate(0)" clip-path="url(#a)"><path d="M183.673,466.886l-1.206-.164c.054-.392,5.627-39.593,30.417-78.338,14.569-22.769,32.825-40.935,54.261-54,26.792-16.322,58.645-24.662,94.674-24.787,43.058-.149,72.382-12.265,87.157-36.013,15.032-24.16,12.082-56.236,6.96-78.89a225.6,225.6,0,0,0-14.918-43.92l1.094-.534a226.871,226.871,0,0,1,15.005,44.159c5.178,22.883,8.148,55.307-7.106,79.825C435,298.359,405.33,310.669,361.824,310.82,280.778,311.1,236.667,353.49,213.933,389,189.273,427.524,183.726,466.5,183.673,466.886Z" transform="translate(-141.006 -163.863)" fill="#fff"/></g><g transform="translate(0)" clip-path="url(#a)"><path d="M824.046,319.586c-37.978-19.064-68-40.364-89.233-63.306-17.656-19.077-29.426-39.47-34.983-60.612a113.318,113.318,0,0,1,1-60.973c4.463-15.049,10.591-24.267,10.652-24.359l1.01.679c-.061.09-6.1,9.19-10.512,24.08a112.1,112.1,0,0,0-.968,60.288C713.3,242.078,754.875,283.5,824.591,318.5Z" transform="translate(-342.013 -148.246)" fill="#fff"/></g><g transform="translate(0)" clip-path="url(#a)"><path d="M295.14,645.871a79.551,79.551,0,0,1-11.805-.73l.206-1.2c.3.051,30.562,4.961,66.606-11.661,33.276-15.346,78.438-52.717,104.614-143.6,12.8-44.438,34.195-70.739,63.593-78.172,15.554-3.931,33.432-2.569,53.136,4.05,15.723,5.283,32.645,13.908,50.293,25.636a365.42,365.42,0,0,1,52.276,42.517l-.869.852a364.2,364.2,0,0,0-52.1-42.368c-27.556-18.309-67.7-38.291-102.44-29.507-28.948,7.319-50.049,33.336-62.719,77.327-11.615,40.327-27.9,73.629-48.412,98.983-16.426,20.3-35.58,35.586-56.93,45.418A133.849,133.849,0,0,1,295.14,645.871Z" transform="translate(-180.478 -264.851)" fill="#fff"/></g><g transform="translate(0)" clip-path="url(#a)"><path d="M329.217,667.5l-1-.691c.19-.277,19.206-28.092,30.73-60.85,10.589-30.1,16.84-70.657-13.517-92.945-10.977-8.058-22.575-10.436-34.47-7.063-22.643,6.42-42.786,32.68-55.7,53.579a335.389,335.389,0,0,0-22.853,44.356l-1.128-.458a336.675,336.675,0,0,1,22.946-44.538c13.023-21.083,33.381-47.585,56.4-54.11,12.273-3.481,24.226-1.04,35.522,7.254,13.69,10.051,21.3,24.516,22.622,42.993,1.052,14.717-1.87,32-8.684,51.357C348.505,639.294,329.409,667.225,329.217,667.5Z" transform="translate(-160.106 -302.001)" fill="#fff"/></g></g><path d="M592.341,721.759H60.215a4.164,4.164,0,0,1-4.152-4.152h0a4.164,4.164,0,0,1,4.152-4.152H592.341a4.164,4.164,0,0,1,4.152,4.152h0A4.164,4.164,0,0,1,592.341,721.759Z" transform="translate(0 -211.642)" fill="#26205c"/><path d="M582.353,339.712H463.675l-26.63,33.936V250.558a6.337,6.337,0,0,1,6.338-6.338h138.97a6.338,6.338,0,0,1,6.338,6.338v82.816A6.337,6.337,0,0,1,582.353,339.712Z" transform="translate(-149.086 -28.019)" fill="#fff"/><circle cx="21.732" cy="21.732" r="21.732" transform="translate(233.758 229.489)" fill="#f66"/><rect width="71.561" height="17.602" transform="translate(120.221 242.77)" fill="#5a78ec"/><rect width="52.242" height="17.602" transform="translate(152.451 272.113)" fill="#eaeaff"/><g transform="translate(108.842 396.614)"><path d="M330.618,575.681h-183.6a4.241,4.241,0,0,1-4.241-4.241V544.863a4.24,4.24,0,0,1,4.241-4.241h183.6a4.241,4.241,0,0,1,4.241,4.241v26.578A4.24,4.24,0,0,1,330.618,575.681Z" transform="translate(-142.774 -540.622)" fill="#fff"/><g clip-path="url(#f)"><rect width="51.436" height="61.663" transform="translate(154.31 -13.687)" fill="#f66"/></g></g><path d="M338.209,566.3h-183.6a4.241,4.241,0,0,1-4.241-4.241V535.481a4.24,4.24,0,0,1,4.241-4.241h183.6a4.24,4.24,0,0,1,4.241,4.241v26.578A4.241,4.241,0,0,1,338.209,566.3Z" transform="translate(-36.902 -140.337)" fill="none" stroke="#232323" stroke-linecap="round" stroke-linejoin="round" stroke-miterlimit="10" stroke-width="2"/><path d="M417.3,567.865a9.607,9.607,0,1,1,9.607-9.607A9.617,9.617,0,0,1,417.3,567.865Zm0-18a8.389,8.389,0,1,0,8.389,8.389A8.4,8.4,0,0,0,417.3,549.869Z" transform="translate(-137.599 -147.15)" fill="#fff"/><path d="M443.109,582.951a.605.605,0,0,1-.393-.144l-9.444-7.985a.609.609,0,1,1,.786-.929l9.444,7.985a.608.608,0,0,1-.393,1.073Z" transform="translate(-147.526 -156.971)" fill="#fff"/><rect width="120.341" height="11.533" transform="translate(302.273 225.7)" fill="#f1f1f1"/><rect width="120.341" height="11.533" transform="translate(302.273 241.758)" fill="#f1f1f1"/><rect width="70.518" height="11.533" transform="translate(302.273 257.359)" fill="#f1f1f1"/><rect width="21.142" height="21.142" transform="translate(300.927 278.499)" fill="#ffd840"/><rect width="21.142" height="21.142" transform="translate(335.694 278.499)" fill="#f66"/><path d="M436.913,352.926c-6.475,0-11.3-1.777-14.147-5.332-4.765-5.942-3.541-16.079,3.538-29.315a.609.609,0,1,1,1.074.575c-6.734,12.591-8.035,22.527-3.662,27.979,11.1,13.837,54.473-2.456,96.69-36.317,20.528-16.465,37.7-34.59,48.338-51.036,10.523-16.262,13.4-28.857,8.1-35.465-6.582-8.207-25.185-5.971-49.761,5.98a.609.609,0,1,1-.533-1.1c25.124-12.216,44.281-14.328,51.243-5.647,5.655,7.05,2.8,20.15-8.027,36.888-10.712,16.553-27.971,34.78-48.6,51.325S479,340.9,460.517,347.765C451.25,351.206,443.281,352.926,436.913,352.926Z" transform="translate(-142.383 -17.747)" fill="#ffd840"/><circle cx="4.455" cy="4.455" r="4.455" transform="translate(397.014 268.764)" fill="#5a78ec"/><g transform="translate(179.799 242.771)"><g transform="translate(1.293 239.151)"><path d="M293.066,680.774v5.161s13.958.65,25.309,15.785h-50.62l1.851-20.811Z" transform="translate(-263.932 -680.774)" fill="#26205c"/><g transform="translate(50.62 38.107) rotate(180)" clip-path="url(#g)"><rect width="88.498" height="1.261" transform="translate(-20.851 18.423)" fill="#fff"/></g></g><g transform="translate(22.687)"><path d="M324.06,315.654l-1.8-1.411a11.1,11.1,0,1,0-.8,2.557C325.3,317.233,324.06,315.654,324.06,315.654Z" transform="translate(-298.042 -293.066)" fill="#ffb7b7"/><path d="M298.779,308.456,303,306.962s-2.645-10.2,7.394-4.452c0,0-.041-3.759,3.44-2.63s4.295,3.321,6.37,2.195c0,0,6.316-6.973-.535-10.271s-10.764-5.977-16.328-1.776S294.059,299.381,298.779,308.456Z" transform="translate(-296.623 -287.873)" fill="#26205c"/></g><path d="M278.493,351.243l40.115-4.611a9.549,9.549,0,0,1,10.269,6.851l6.112,61.575H280.563l-10.115-52.083A9.424,9.424,0,0,1,278.493,351.243Z" transform="translate(-263.573 -310.842)" fill="#5a78ec"/><path d="M267.287,410.644h0a8.749,8.749,0,0,1-7.272-10.01l5.787-36.543a8.749,8.749,0,0,1,10.01-7.273h0a8.749,8.749,0,0,1,7.272,10.01L277.3,403.371A8.748,8.748,0,0,1,267.287,410.644Z" transform="translate(-259.567 -314.81)" fill="#5a78ec"/><path d="M371.445,391.929h0a8.749,8.749,0,0,1-12.14-2.388l-19.7-29.346a8.749,8.749,0,0,1,2.388-12.14h0a8.749,8.749,0,0,1,12.14,2.388l19.7,29.346A8.749,8.749,0,0,1,371.445,391.929Z" transform="translate(-290.174 -310.842)" fill="#5a78ec"/><g transform="translate(105.604 60.268)"><path d="M459.759,396.5h0a5.542,5.542,0,0,0-6.165-4.8l-5.223.649L445,395.716a1.587,1.587,0,1,1-2.245-2.245l.491-.491-5.553.69a5.526,5.526,0,0,0,1.362,10.967l15.9-1.975A5.542,5.542,0,0,0,459.759,396.5Z" transform="translate(-432.848 -388.752)" fill="#ffb7b7"/><path d="M455.938,389.6a1.587,1.587,0,0,0-2.245-2.245l-3.765,3.765,5.126-.637Z" transform="translate(-439.532 -386.888)" fill="#ffb7b7"/><path d="M448.825,396.16a1.592,1.592,0,0,0,2.245,0l3.372-3.372-5.126.637-.491.491A1.59,1.59,0,0,0,448.825,396.16Z" transform="translate(-438.919 -389.197)" fill="#ffb7b7"/></g><path d="M417.8,390.135l1.4,14.7a1.366,1.366,0,0,1-1.23,1.489l-37.549,3.633a8.749,8.749,0,0,1-9.539-7.879h0a8.749,8.749,0,0,1,7.879-9.539L416.31,388.9A1.37,1.37,0,0,1,417.8,390.135Z" transform="translate(-302.98 -327.405)" fill="#5a78ec"/><g transform="translate(6.568 104.216)"><path d="M280.562,459.09,270.141,589.955l25.509.09,13.116-120.8,9.1,120.708h31.5L334.989,459.09Z" transform="translate(-270.141 -459.09)" fill="#26205c"/><g clip-path="url(#h)"><path d="M281.011,473.456l2.7,4.835,17.878-10.637-4.835-7.045,48.487.691-1.382-2.21H279.036Z" transform="translate(-273.622 -459.09)" fill="#13113d"/></g></g><path d="M290.756,452.817l-12.764,7.369a1.374,1.374,0,0,1-1.877-.5l-15.592-27.006a8.748,8.748,0,0,1,3.2-11.951h0a8.748,8.748,0,0,1,11.951,3.2l15.586,27A1.385,1.385,0,0,1,290.756,452.817Z" transform="translate(-259.35 -339.402)" fill="#5a78ec"/><path d="M271.4,674.088l-.6,4.2,23.458.089.2-4.2Z" transform="translate(-263.83 -439.007)" fill="#ffb7b7"/><g transform="translate(51.912 239.154)"><path d="M375.534,680.78l.7,5.157s13.958.65,25.31,15.785H350.92v-20.8Z" transform="translate(-347.095 -680.78)" fill="#26205c"/><g transform="translate(50.62 38.1) rotate(180)" clip-path="url(#i)"><rect width="88.498" height="1.261" transform="translate(-20.851 18.419)" fill="#fff"/></g></g><path d="M350.907,674.088l.007,4.2,24.615-.132-.415-4.073Z" transform="translate(-295.178 -439.007)" fill="#ffb7b7"/><path d="M291.064,381.02l-4.341,28.41,11.033,19.109h2.01l-11.241-20.3Z" transform="translate(-270.062 -324.323)" fill="#4c6ac8"/><path d="M344.258,374.464l17.449,25.993v3.889Z" transform="translate(-292.576 -321.758)" fill="#4c6ac8"/><line x2="17.754" y2="26.447" transform="translate(49.431 49.354)" fill="none" stroke="#232323" stroke-linecap="round" stroke-linejoin="round" stroke-miterlimit="10" stroke-width="2"/><path d="M289.977,481.1l.56,1.123,7.443-3.163,5.1-4.072.889-1.28-.619-.713Z" transform="translate(-271.335 -360.313)" fill="#ffb7b7"/><path d="M298.2,470.5s-.064,6.8-16.433,11.413L273.2,590.845" transform="translate(-264.771 -359.337)" fill="none" stroke="#fff" stroke-linecap="round" stroke-linejoin="round" stroke-miterlimit="10" stroke-width="2"/><path d="M358.591,469.3s.354,6.493,8.725,9.256l13.343,111.82" transform="translate(-298.185 -358.87)" fill="none" stroke="#fff" stroke-linecap="round" stroke-linejoin="round" stroke-miterlimit="10" stroke-width="2"/><path d="M290.777,377.388l-4.6,30.04,10.583,18.331" transform="translate(-269.847 -322.902)" fill="none" stroke="#232323" stroke-linecap="round" stroke-linejoin="round" stroke-miterlimit="10" stroke-width="2"/></g><g transform="translate(461.517 321.443)"><path d="M732.333,451.129s5.613-22.189,24.68-34.006c0,0,14.3,2.067,10.149,34.006,0,0,4.5-28.493,28.025-23.073a40.378,40.378,0,0,0-9.341,23.989s22.143,6.112,16.377,26.871c0,0,11.3-9.918,20.759-11.533,0,0-9.688,18.914-6,28.832a27.589,27.589,0,0,1,24.219-3s-15.454,15.454-12.225,26.526c0,0,16.376-6.92,26.756-1.615,0,0-11.533,7.842-18.453,27.448,0,0,7.842,1.846,15.685,18.222,0,0-5.488,3.718-17.069,3.46,0,0,20.612,8.347,17.11,30.237H722.185Z" transform="translate(-722.185 -417.123)" fill="#adcd55"/><g clip-path="url(#j)"><path d="M708.669,456.857h55.573a12.226,12.226,0,0,1,2.348.247,7.9,7.9,0,0,1,6.242,7.345c.13,2.261.267,5.073.267,6.919v88.6h25.679s29.755,12.225,35.291,55.588H720.586Z" transform="translate(-716.896 -432.672)" fill="#6f8037" opacity="0.64"/></g></g><g transform="translate(317.817 343.415)"><g transform="translate(0 4.914)"><path d="M492.328,461.295a6.228,6.228,0,0,0-6.228,6.228V595.111s-.051,20.721,8.461,19.668H679.852V467.522a6.228,6.228,0,0,0-6.228-6.228h-181.3Z" transform="translate(-486.1 -461.294)" fill="#5a78ec"/><g clip-path="url(#k)"><rect width="235.731" height="95.492" transform="translate(-24.219 96.32)" fill="#4d6bce"/></g></g><path d="M775.346,681.411s-2.768-32.775-30.908-49.844H570.984s33.214,2.811,41.979,49.844Z" transform="translate(-519.317 -523.012)" fill="#5a78ec"/><path d="M515.153,681.406s11.932,1.32,15.052-26.319c2.786-24.678,24.121-23.525,24.121-23.525s33.561-1.384,36.79,49.843Z" transform="translate(-497.469 -523.007)" fill="#3a59af"/><path d="M656.8,504.869H517.743a2.591,2.591,0,0,1-2.591-2.591v-7.2a2.591,2.591,0,0,1,2.591-2.591H656.8a2.59,2.59,0,0,1,2.591,2.591v7.2A2.59,2.59,0,0,1,656.8,504.869Z" transform="translate(-497.469 -468.586)" fill="#fff"/><path d="M616.665,536.543H517.743a2.59,2.59,0,0,1-2.591-2.59v-7.2a2.591,2.591,0,0,1,2.591-2.591h98.922a2.591,2.591,0,0,1,2.591,2.591v7.2A2.59,2.59,0,0,1,616.665,536.543Z" transform="translate(-497.469 -480.981)" fill="#fff"/><path d="M575.888,558.393H516.232a1.08,1.08,0,0,1-1.08-1.08v-.4a1.08,1.08,0,0,1,1.08-1.081h59.656a1.081,1.081,0,0,1,1.08,1.081v.4A1.08,1.08,0,0,1,575.888,558.393Z" transform="translate(-497.469 -493.375)" fill="#fff"/><path d="M705.993,645.08H646.337a1.081,1.081,0,0,1-1.08-1.08v-.4a1.081,1.081,0,0,1,1.08-1.08h59.656a1.08,1.08,0,0,1,1.08,1.08v.4A1.08,1.08,0,0,1,705.993,645.08Z" transform="translate(-548.382 -527.298)" fill="#fff"/><path d="M740.977,655.691H651.643a1.081,1.081,0,0,1-1.08-1.08v-.4a1.08,1.08,0,0,1,1.08-1.08h89.334a1.08,1.08,0,0,1,1.08,1.08v.4A1.081,1.081,0,0,1,740.977,655.691Z" transform="translate(-550.458 -531.45)" fill="#fff"/><path d="M730.963,668.674H658.717a1.081,1.081,0,0,1-1.08-1.08v-.4a1.08,1.08,0,0,1,1.08-1.08h72.246a1.081,1.081,0,0,1,1.08,1.08v.4A1.081,1.081,0,0,1,730.963,668.674Z" transform="translate(-553.226 -536.53)" fill="#fff"/><path d="M535.6,569.813H516.233a1.08,1.08,0,0,1-1.08-1.081v-.4a1.08,1.08,0,0,1,1.08-1.08H535.6a1.081,1.081,0,0,1,1.081,1.08v.4A1.081,1.081,0,0,1,535.6,569.813Z" transform="translate(-497.469 -497.844)" fill="#fff"/><path d="M623.96,569.813H561.075a1.08,1.08,0,0,1-1.08-1.081v-.4a1.08,1.08,0,0,1,1.08-1.08H623.96a1.081,1.081,0,0,1,1.081,1.08v.4A1.081,1.081,0,0,1,623.96,569.813Z" transform="translate(-515.017 -497.844)" fill="#fff"/><path d="M556.591,581.233H516.233a1.08,1.08,0,0,1-1.08-1.08v-.4a1.08,1.08,0,0,1,1.08-1.08h40.357a1.081,1.081,0,0,1,1.08,1.08v.4A1.08,1.08,0,0,1,556.591,581.233Z" transform="translate(-497.469 -502.313)" fill="#fff"/><path d="M604.882,581.233H597.2a1.08,1.08,0,0,1-1.08-1.08v-.4a1.081,1.081,0,0,1,1.08-1.08h7.681a1.081,1.081,0,0,1,1.08,1.08v.4A1.08,1.08,0,0,1,604.882,581.233Z" transform="translate(-529.154 -502.313)" fill="#fff"/><path d="M520.684,592.653h-4.452a1.08,1.08,0,0,1-1.08-1.08v-.4a1.08,1.08,0,0,1,1.08-1.08h4.452a1.081,1.081,0,0,1,1.08,1.08v.4A1.08,1.08,0,0,1,520.684,592.653Z" transform="translate(-497.469 -506.782)" fill="#fff"/><path d="M558.282,592.653H533.916a1.08,1.08,0,0,1-1.08-1.08v-.4a1.08,1.08,0,0,1,1.08-1.08h24.365a1.081,1.081,0,0,1,1.08,1.08v.4A1.08,1.08,0,0,1,558.282,592.653Z" transform="translate(-504.389 -506.782)" fill="#fff"/><path d="M843.672,660.583,845.2,663.9a1,1,0,0,0,.747.582l3.407.531a1.087,1.087,0,0,1,.55,1.816l-2.466,2.578a1.114,1.114,0,0,0-.286.943l.582,3.641a1.009,1.009,0,0,1-1.44,1.122l-3.048-1.719a.933.933,0,0,0-.924,0l-3.048,1.719a1.009,1.009,0,0,1-1.44-1.122l.582-3.641a1.114,1.114,0,0,0-.286-.943l-2.466-2.578a1.087,1.087,0,0,1,.55-1.816l3.407-.531a1,1,0,0,0,.748-.582l1.523-3.312A.965.965,0,0,1,843.672,660.583Z" transform="translate(-622.773 -534.134)" fill="#fff"/><path d="M499.609,588.267a.608.608,0,0,1-.609-.609V460.44a7.228,7.228,0,0,1,7.219-7.219H685.746a7.152,7.152,0,0,1,7.144,7.144v98.644a.609.609,0,0,1-1.217,0V460.365a5.933,5.933,0,0,0-5.927-5.927H506.219a6.009,6.009,0,0,0-6,6V587.659A.609.609,0,0,1,499.609,588.267Z" transform="translate(-491.148 -453.221)" fill="#232323"/></g><g transform="translate(422.614 199.585)"><g transform="translate(0 3.508)"><path d="M795.872,307.383h-137.6l32.665-22.189V227.785a5.1,5.1,0,0,1,5.1-5.1h99.838a5.1,5.1,0,0,1,5.1,5.1v74.5A5.1,5.1,0,0,1,795.872,307.383Z" transform="translate(-658.271 -222.687)" fill="#f66"/><g clip-path="url(#l)"><rect width="154.54" height="39.673" transform="translate(4.996 -23.759)" fill="#fff"/></g></g><circle cx="3.361" cy="3.361" r="3.361" transform="translate(101.357 8.526)" fill="#f06361"/><circle cx="3.361" cy="3.361" r="3.361" transform="translate(113.713 8.526)" fill="#f8bb3f"/><circle cx="3.361" cy="3.361" r="3.361" transform="translate(126.068 8.526)" fill="#2fc843"/><path d="M793.594,285.956h27.359A27.359,27.359,0,1,1,793.594,258.6h.029Z" transform="translate(-700.52 -233.231)" fill="#fff"/><path d="M813.559,283.658l-.043-27.359h.043a27.49,27.49,0,0,1,27.359,27.359Z" transform="translate(-719.022 -232.332)" fill="#fff"/><rect width="14.566" height="14.566" transform="translate(42.593 26.114)" fill="#fff"/><rect width="14.566" height="14.566" transform="translate(42.593 46.423)" fill="#fff"/><path d="M752.089,330.005H728.855a.61.61,0,0,1-.608-.608h0a.61.61,0,0,1,.608-.608h23.234a.61.61,0,0,1,.608.608h0A.609.609,0,0,1,752.089,330.005Z" transform="translate(-685.654 -260.699)" fill="#fff"/><path d="M752.089,336.574H728.855a.61.61,0,0,1-.608-.608h0a.61.61,0,0,1,.608-.608h23.234a.61.61,0,0,1,.608.608h0A.61.61,0,0,1,752.089,336.574Z" transform="translate(-685.654 -263.269)" fill="#fff"/><path d="M739.519,343.142H728.856a.61.61,0,0,1-.608-.608h0a.61.61,0,0,1,.608-.608h10.663a.61.61,0,0,1,.608.608h0A.611.611,0,0,1,739.519,343.142Z" transform="translate(-685.654 -265.839)" fill="#fff"/><path d="M822.545,301.268H729.161a8.692,8.692,0,0,1-8.682-8.682V225.605a8.692,8.692,0,0,1,8.682-8.682h93.384a8.692,8.692,0,0,1,8.682,8.682v66.981A8.692,8.692,0,0,1,822.545,301.268ZM729.161,218.14a7.473,7.473,0,0,0-7.465,7.465v66.981a7.473,7.473,0,0,0,7.465,7.464h93.384a7.473,7.473,0,0,0,7.464-7.464V225.605a7.473,7.473,0,0,0-7.464-7.465Z" transform="translate(-682.614 -216.923)" fill="#232323"/></g><path d="M374.094,308.5l-.95,1.074a1.421,1.421,0,0,1-2,.122l-8.806-7.79a1.42,1.42,0,0,1-.122-2l.95-1.074a1.42,1.42,0,0,1,2-.122l8.806,7.79A1.421,1.421,0,0,1,374.094,308.5Z" transform="translate(-119.666 -49.205)" fill="#fff"/><path d="M394.148,284.2l1.057.97a1.421,1.421,0,0,1,.086,2L379.309,304.6a1.421,1.421,0,0,1-2,.086l-1.057-.97a1.421,1.421,0,0,1-.086-2l15.982-17.419A1.422,1.422,0,0,1,394.148,284.2Z" transform="translate(-125.117 -43.521)" fill="#fff"/><path d="M202.3,337.549H184.067a.608.608,0,0,1-.609-.609V316.4a.609.609,0,0,1,1.217,0v19.934H202.3a.609.609,0,0,1,0,1.217Z" transform="translate(-49.852 -56.026)" fill="#232323"/><path d="M850.636,585.964a.694.694,0,0,1-.077,0,.608.608,0,0,1-.527-.68c1.842-14.507,14.55-33.594,15.091-34.4a.609.609,0,0,1,1.011.678c-.131.195-13.089,19.655-14.894,33.875A.609.609,0,0,1,850.636,585.964Z" transform="translate(-310.695 -147.916)" fill="#5a6c1c"/><path d="M828.579,573.194a.609.609,0,0,1-.607-.567c-1.608-23.318,13.3-50.98,13.452-51.257a.608.608,0,1,1,1.068.583c-.149.273-14.889,27.63-13.305,50.591a.609.609,0,0,1-.566.649Z" transform="translate(-302.017 -136.35)" fill="#5a6c1c"/><path d="M862.951,609.328a.609.609,0,0,1-.511-.939c10.264-15.914,19.648-19.136,20.043-19.265a.609.609,0,0,1,.38,1.157c-.092.031-9.4,3.263-19.4,18.769A.609.609,0,0,1,862.951,609.328Z" transform="translate(-315.515 -162.976)" fill="#5a6c1c"/><path d="M200.351,399.843H185.41a1.958,1.958,0,0,1-1.952-1.952h0a1.958,1.958,0,0,1,1.952-1.952h14.941a1.958,1.958,0,0,1,1.952,1.952h0A1.957,1.957,0,0,1,200.351,399.843Z" transform="translate(-49.852 -87.39)" fill="#ffd840"/><path d="M200.351,427.462H185.41a1.958,1.958,0,0,1-1.952-1.952h0a1.958,1.958,0,0,1,1.952-1.952h14.941a1.958,1.958,0,0,1,1.952,1.952h0A1.957,1.957,0,0,1,200.351,427.462Z" transform="translate(-49.852 -98.198)" fill="#ffd840"/><path d="M173.625,413.75H153.5a1.958,1.958,0,0,1-1.952-1.952h0a1.958,1.958,0,0,1,1.952-1.952h20.127a1.958,1.958,0,0,1,1.952,1.952h0A1.957,1.957,0,0,1,173.625,413.75Z" transform="translate(-37.365 -92.832)" fill="#ffd840"/><path d="M227.941,413.75H207.814a1.958,1.958,0,0,1-1.952-1.952h0a1.958,1.958,0,0,1,1.952-1.952h20.127a1.958,1.958,0,0,1,1.952,1.952h0A1.958,1.958,0,0,1,227.941,413.75Z" transform="translate(-58.62 -92.832)" fill="#ffd840"/></g></svg>