<svg xmlns="http://www.w3.org/2000/svg" width="35.357" height="29.537" viewBox="0 0 35.357 29.537"><g transform="translate(-7.284 -95.711)"><path d="M100.041,171.3a12.907,12.907,0,1,0,12.907,12.907A12.907,12.907,0,0,0,100.041,171.3Zm0,22.45a9.54,9.54,0,1,1,9.54-9.54,9.54,9.54,0,0,1-9.54,9.54Z" transform="translate(-77.043 -72.937)" fill="#e9eaeb"/><path d="M88.256,361.116H87.133A12.9,12.9,0,0,1,88.9,354.6l.967.566a11.777,11.777,0,0,0-1.607,5.947Zm11.785,12.907V372.9a11.775,11.775,0,0,0,11.173-8.037l1.064.358a12.9,12.9,0,0,1-12.237,8.8Z" transform="translate(-77.043 -249.793)" fill="#bcc0c4"/><path d="M177.066,254.618a9.05,9.05,0,0,0-1.27-3.189l.945-.6a10.175,10.175,0,0,1,1.427,3.583Zm-8.981,12a10.269,10.269,0,1,1,6.051-18.564l-.663.907a9.141,9.141,0,1,0,3.591,9.141l1.1.213A10.279,10.279,0,0,1,168.085,266.622Z" transform="translate(-145.239 -145.088)" fill="#2c3d9a"/><path d="M30.042,98.756A14.453,14.453,0,0,0,16,98.555l-.533-.988a15.576,15.576,0,0,1,15.139.216ZM16.015,125.248a15.566,15.566,0,0,1-6.8-21.492l.983.543a14.443,14.443,0,0,0,6.31,19.941Zm13.976-.168-.508-1a14.547,14.547,0,0,0,7.11-8.443l1.069.34a15.68,15.68,0,0,1-7.671,9.1Zm6.8-17.539a14.349,14.349,0,0,0-1.016-2.7l1.016-.508a15.472,15.472,0,0,1,1.1,2.915Z" transform="translate(0 0)" fill="#bcc0c4"/><path d="M264.99,346.557a5.773,5.773,0,0,0-.609-1.681l.983-.541a6.9,6.9,0,0,1,.726,2.009Zm-5.718,8.062a6.945,6.945,0,1,1,3.545-12.915l-.571.957a5.822,5.822,0,1,0,2.6,6.7l1.074.325a6.907,6.907,0,0,1-6.65,4.929Z" transform="translate(-236.426 -236.408)" fill="#2c3d9a"/><path d="M346.769,438.784a3.762,3.762,0,1,1,1.653-7.14l-.5,1.016a2.639,2.639,0,1,0,1.272,3.4l1.051.427A3.755,3.755,0,0,1,346.769,438.784Z" transform="translate(-323.924 -323.756)" fill="#2c3d9a"/><path d="M454.381,522.585h19.644v1.122H454.381Z" transform="translate(-431.383 -411.872)" fill="#2c3d9a"/><path d="M826.681,474.683h-3.342l-1.712,1.676v1.122l1.712,1.691h3.342V478.6l-1.125-1.686,1.125-1.683Z" transform="translate(-785.723 -365.653)" fill="#a3d4ff"/><path d="M460.6,163.587h-4.134l-2.031-2.031v-1.579l2.031-2h4.131v1.285l-1.016,1.524,1.016,1.524Zm-3.672-1.122h2.445l-1.127-1.691,1.117-1.676h-2.433l-1.379,1.351v.653Zm-15.3-1.948,13.666-13.5.789.8-13.666,13.5Z" transform="translate(-419.078 -49.507)" fill="#2c3d9a"/><path d="M696.287,147.1l-2.4,2.379v2.382l.414.289.411.289H697.1l2.382-2.273-.4-.343-1.983-.371-.4-1.97-.406-.383Z" transform="translate(-662.475 -49.584)" fill="#a3d4ff"/><path d="M681.708,131.532h-2.793l-1.209-.846v-2.907l2.948-2.93.929.879.363,1.777,1.772.32.98.846Zm-2.428-1.122h1.978l1.661-1.587-1.909-.356-.406-1.976-1.777,1.755v1.864Z" transform="translate(-646.859 -28.114)" fill="#2a5082"/></g></svg>