<svg xmlns="http://www.w3.org/2000/svg" width="87.515" height="75.404" viewBox="0 0 87.515 75.404"><path d="M1.278,31.194A25.308,25.308,0,1,0,26.6,5.886,25.312,25.312,0,0,0,1.278,31.194Zm0,0" transform="translate(0.038 -5.886)" fill="#fff"/><path d="M73.809,20.663a6.451,6.451,0,0,1,6.633,6.385V68.536H7.97V27.056c0-3.65,2.265-6.385,6.017-6.385H73.809Zm0,0" transform="translate(0.236 -5.449)" fill="#fff"/><path d="M81.858,69.977H6.616V27.1c0-4.573,3.043-7.761,7.393-7.761H73.858a7.794,7.794,0,0,1,8,7.761V69.977ZM9.351,67.216H79.123V27.1a5.1,5.1,0,0,0-5.274-5.051H14.01c-2.829,0-4.658,1.966-4.658,5.051V67.216Zm0,0" transform="translate(0.196 -5.488)" fill="#2a5082"/><path d="M1.3,67.16H86.109v2.274a8.676,8.676,0,0,1-8.675,8.675H10.885a9.6,9.6,0,0,1-9.59-9.59V67.16Zm0,0" transform="translate(0.038 -4.073)" fill="#fff"/><path d="M77.481,79.516H10.009C4.658,79.516,0,74.4,0,68.558V65.84H87.515v2.718C87.515,74.4,82.831,79.516,77.481,79.516ZM2.709,68.6c0,3.872,3.154,8.205,7.3,8.205H77.481c4.171,0,7.3-4.333,7.3-8.205Zm0,0" transform="translate(0 -4.112)" fill="#2a5082"/><path d="M37.922,72.529H52.965v2.735H37.922ZM73.487,41.067h2.735V64.315H73.487ZM14.665,64.315H11.929V24.647H37.922v2.735H14.665Zm0,0" transform="translate(0.353 -5.331)" fill="#2a5082"/><path d="M84.93,11.483V33.441A4.031,4.031,0,0,1,80.9,37.475H58.741l-8.3,10.573a1.374,1.374,0,0,1-2.436-.846V37.475H45.288a4.148,4.148,0,0,1-4.128-4.128V11.483a4.115,4.115,0,0,1,4.1-4.1H80.819A4.106,4.106,0,0,1,84.93,11.483Zm0,0" transform="translate(1.218 -5.842)" fill="#a3d4ff"/><path d="M49.421,49.985a2.777,2.777,0,0,1-.915-.154,2.713,2.713,0,0,1-1.846-2.59V38.882H45.318a5.508,5.508,0,0,1-5.479-5.487V11.522a5.475,5.475,0,0,1,5.47-5.47H80.866a5.475,5.475,0,0,1,5.47,5.47V33.48a5.4,5.4,0,0,1-5.4,5.4H59.481L51.558,48.908a2.7,2.7,0,0,1-2.137,1.077ZM45.3,8.787a2.743,2.743,0,0,0-2.735,2.735V33.394a2.771,2.771,0,0,0,2.761,2.761H49.4V47.25l8.744-11.1H80.934A2.676,2.676,0,0,0,83.6,33.48V11.522a2.736,2.736,0,0,0-2.727-2.735H45.3Zm0,0" transform="translate(1.179 -5.881)" fill="#2a5082"/><path d="M55.77,20.663h2.735V23.4H55.77Zm5.479,0h2.735V23.4H61.249Zm5.47,0h2.735V23.4H66.719Zm0,0" transform="translate(1.65 -5.449)" fill="#2a5082"/><path d="M30.879,48.564c-2.949,0-12.317,2.855-12.317,6.53v8.513H43.178V55.094C43.2,51.436,33.828,48.564,30.879,48.564Zm0,0" transform="translate(0.549 -4.623)" fill="#e9eaeb"/><path d="M44.6,63.647H41.867V55.134c0-2.3-7.932-5.171-10.94-5.171s-10.94,2.88-10.94,5.171v8.513H17.251V55.134c0-5.051,10.727-7.906,13.676-7.906S44.6,50.108,44.6,55.134Zm0,0" transform="translate(0.51 -4.663)" fill="#2a5082"/><path d="M37.528,38.779a6.154,6.154,0,0,0-12.308,0v4.1a6.154,6.154,0,1,0,12.308,0Zm0,0" transform="translate(0.746 -5.095)" fill="#fff"/><path d="M31.4,50.443a7.522,7.522,0,0,1-7.5-7.522v-4.1a7.522,7.522,0,0,1,15.043,0v4.1A7.529,7.529,0,0,1,31.4,50.443Zm0-16.411a4.8,4.8,0,0,0-4.786,4.786v4.1a4.79,4.79,0,0,0,9.573,0v-4.1A4.773,4.773,0,0,0,31.4,34.032Zm0,0" transform="translate(0.707 -5.134)" fill="#2a5082"/></svg>