<svg xmlns="http://www.w3.org/2000/svg" width="157.014" height="34" viewBox="0 0 157.014 34"><defs><style>.a,.c{fill:#fff;}.a{font-size:24px;font-family:SegoeUI, Segoe UI;}.b{font-family:YuGothicUI-Regular, Yu Gothic UI;}</style></defs><g transform="translate(0 1)"><text class="a" transform="translate(34.014 25)"><tspan x="0" y="0">Java</tspan><tspan class="b" y="0">大数据</tspan></text><path class="c" d="M139.867,102.121a5.3,5.3,0,0,1-2.852-.519,1.877,1.877,0,0,1-.7-1.317.289.289,0,0,0-.295-.287q-.619-.006-1.239,0a.275.275,0,0,0-.3.243,3.05,3.05,0,0,0,.982,2.4,5.2,5.2,0,0,0,2.906,1.094,10.514,10.514,0,0,0,3.3-.141,4.077,4.077,0,0,0,2.188-1.179,3.049,3.049,0,0,0,.516-2.909,2.437,2.437,0,0,0-1.6-1.428c-1.669-.587-3.474-.541-5.177-.987-.3-.091-.657-.193-.789-.506a1.115,1.115,0,0,1,.37-1.245,3.336,3.336,0,0,1,1.761-.438,5.308,5.308,0,0,1,2.456.352,1.873,1.873,0,0,1,.9,1.294.317.317,0,0,0,.3.308c.409.008.819,0,1.23,0a.3.3,0,0,0,.322-.219,3.174,3.174,0,0,0-1.548-2.746,7.668,7.668,0,0,0-4.2-.643,4.571,4.571,0,0,0-2.838,1.141,2.836,2.836,0,0,0-.566,2.95,2.517,2.517,0,0,0,1.588,1.385c1.665.6,3.49.408,5.169.94.329.111.709.282.81.646a1.291,1.291,0,0,1-.352,1.234,3.873,3.873,0,0,1-2.338.572Zm7.589-11.013q-4.875-2.757-9.753-5.51a2.187,2.187,0,0,0-2.135,0l-9.717,5.488a2.011,2.011,0,0,0-1.05,1.75v11.052a2.025,2.025,0,0,0,1.09,1.767c.93.506,1.834,1.064,2.782,1.538a4,4,0,0,0,3.571.1,2.774,2.774,0,0,0,1.3-2.505c.007-3.648,0-7.3,0-10.941a.287.287,0,0,0-.27-.333q-.621-.007-1.243,0a.274.274,0,0,0-.3.278c-.005,3.624,0,7.248,0,10.874a1.226,1.226,0,0,1-.8,1.152,2,2,0,0,1-1.617-.216l-2.585-1.461a.309.309,0,0,1-.176-.306V92.893a.338.338,0,0,1,.2-.339q4.842-2.728,9.683-5.46a.336.336,0,0,1,.381,0l9.684,5.459a.342.342,0,0,1,.2.339v10.939a.316.316,0,0,1-.175.31q-4.768,2.7-9.542,5.386c-.151.083-.331.22-.509.117-.835-.472-1.656-.962-2.488-1.438a.269.269,0,0,0-.3-.018,6.8,6.8,0,0,1-1.15.537c-.18.073-.4.094-.526.261a1.716,1.716,0,0,0,.563.4l2.916,1.686a2.126,2.126,0,0,0,2.158.06q4.859-2.739,9.718-5.482a2.029,2.029,0,0,0,1.09-1.766V92.836a2.008,2.008,0,0,0-1.015-1.728Z" transform="translate(-124.8 -82.32)"/></g></svg>