<svg xmlns="http://www.w3.org/2000/svg" xmlns:xlink="http://www.w3.org/1999/xlink" width="130" height="130" viewBox="0 0 130 130"><defs><clipPath id="a"><circle cx="65" cy="65" r="65" transform="translate(260 8857)" fill="#fff" stroke="#707070" stroke-width="1"/></clipPath></defs><g transform="translate(-260 -8857)" clip-path="url(#a)"><g transform="translate(260.483 8857.043)"><path d="M104.232,14.277c9,9.2,12.507,23.347,15.37,37.84s5.085,29.367-1.082,38.834c-6.136,9.468-20.659,13.529-34.481,17.825-13.82,4.324-26.94,8.913-37.2,5.289-10.226-3.624-17.59-15.4-27.291-27.935C9.879,73.624-2.131,60.387.323,50.248c2.484-10.11,19.4-17.094,32.786-25.568C46.492,16.235,56.339,6.329,68.5,3.525,80.68.748,95.2,5.043,104.232,14.277Z" fill="#f0f0f0"/><path d="M43.675,121.356,21.175,9.8,129.033,46.095Z" fill="#d6deff" fill-rule="evenodd"/><path d="M66.049,87.257,74,119.439h6.562l-4.45-61.89-9.034,1.124Z" fill="#3c3744" fill-rule="evenodd"/><path d="M75.385,63.734,74.844,56.2,65.81,57.329,64.777,85.914l2.422,9.8" fill="none" stroke="#1b3c87" stroke-linecap="round" stroke-linejoin="round" stroke-width="0.553"/><path d="M69.011,103.046l3.72,15.049h6.562l-2.51-34.916" fill="none" stroke="#1b3c87" stroke-linecap="round" stroke-linejoin="round" stroke-width="0.553"/><path d="M55.518,57.228c.042,1.673-.46,63.159-.46,63.159h7.027c.544-2.968,8.951-62.406,8.951-62.406S55.477,55.555,55.518,57.228Z" fill="#3c3744" fill-rule="evenodd"/><path d="M72.378,14.375c-.357,2.5,1.782,6.465-.225,10-2.677,4.71-13.883,1.722-15,1.175-.737-.361-1.481-.829-1.419-3.577s4.421-6.636,4.673-9.739c.155-1.886,1.115-6.7,3.112-7.536C71.556.172,72.735,11.876,72.378,14.375Z" fill="#fb5d64" fill-rule="evenodd"/><path d="M56.465,18.335c1.323-2.125,3.166-4.433,3.328-6.42.155-1.884,1.062-6.873,3.112-7.536" fill="none" stroke="#1b3c87" stroke-linecap="round" stroke-linejoin="round" stroke-width="0.553"/><path d="M56.539,25.234A3.08,3.08,0,0,1,55.2,23.072" fill="none" stroke="#1b3c87" stroke-linecap="round" stroke-linejoin="round" stroke-width="0.553"/><path d="M89.784,13.907h19.435v10.7H89.784Z" fill="#eaf0ff" fill-rule="evenodd"/><path d="M69.443,60.339l.539-3.806s-15.56-2.426-15.518-.753c.015.579-.036,8.327-.109,18.211" fill="none" stroke="#1b3c87" stroke-linecap="round" stroke-linejoin="round" stroke-width="0.553"/><path d="M63.122,104.73C64.578,94.608,66.5,81.095,67.94,70.953" fill="none" stroke="#1b3c87" stroke-linecap="round" stroke-linejoin="round" stroke-width="0.553"/><path d="M54.231,90.654c-.113,14.621-.225,28.287-.225,28.287h7.027c.074-.406.3-1.866.622-4.086" fill="none" stroke="#1b3c87" stroke-linecap="round" stroke-linejoin="round" stroke-width="0.553"/><path d="M82.419,37.463c.567.963,2.212,3.652,2.212,3.652s7.92-11.347,8.4-12.033.4-2.69.92-2.666,9.994-.181,9.994.725-5.507,2.176-6.595,2.9S87.058,49.692,83.477,49.692,76.5,45.114,76.2,43.913,77.758,29.541,82.419,37.463Z" fill="#fff" fill-rule="evenodd"/><path d="M96.579,25.25c2.924.022,6.762.149,6.762.726,0,.907-5.507,2.175-6.595,2.9-.515.344-2.849,4.767-5.545,9.33" fill="none" stroke="#1b3c87" stroke-linecap="round" stroke-linejoin="round" stroke-width="0.553"/><path d="M85.695,46.428c-1.1,1.289-2.079,2.1-2.819,2.1-3.581,0-6.981-4.578-7.275-5.779s1.556-14.372,6.217-6.449c.566.963,2.212,3.652,2.212,3.652s7.92-11.347,8.4-12.033a5.621,5.621,0,0,0,.477-1.78" fill="none" stroke="#1b3c87" stroke-linecap="round" stroke-linejoin="round" stroke-width="0.553"/><path d="M73.147,25.142c4.847-2.15,10.035,9.228,10.16,11.68-1.428,1.049-8.024,3.832-9.587,3.676C72.412,38.46,67.375,27.7,73.147,25.142Z" fill="#46dbc9" fill-rule="evenodd"/><path d="M72.209,24.294c4.847-2.15,10.034,9.228,10.16,11.68-1.428,1.049-8.024,3.832-9.587,3.676C71.475,37.612,66.438,26.854,72.209,24.294Z" fill="none" stroke="#1b3c87" stroke-linecap="round" stroke-linejoin="round" stroke-width="0.553"/><path d="M95.91,13.057h12.256v10.7H88.732v-7.2" fill="none" stroke="#1b3c87" stroke-linecap="round" stroke-linejoin="round" stroke-width="0.553"/><path d="M101.848,16.63l4.134,4.626" fill="none" stroke="#1b3c87" stroke-linecap="round" stroke-linejoin="round" stroke-width="0.553"/><path d="M92.008,14.8l6.4,3.528" fill="none" stroke="#1b3c87" stroke-linecap="round" stroke-linejoin="round" stroke-width="0.553"/><path d="M98.557,18.428l9.359-5.1" fill="none" stroke="#1b3c87" stroke-linecap="round" stroke-linejoin="round" stroke-width="0.553"/><path d="M88.8,23.742,95.2,16.591" fill="none" stroke="#1b3c87" stroke-linecap="round" stroke-linejoin="round" stroke-width="0.553"/><path d="M51.8,118.953H63.72" fill="none" stroke="#1b3c87" stroke-linecap="round" stroke-linejoin="round" stroke-width="0.553"/><path d="M51.619,121.127H63.538" fill="none" stroke="#1b3c87" stroke-linecap="round" stroke-linejoin="round" stroke-width="0.553"/><path d="M71.606,118.124h9.179" fill="none" stroke="#1b3c87" stroke-linecap="round" stroke-linejoin="round" stroke-width="0.553"/><path d="M71.82,120.138H81" fill="none" stroke="#1b3c87" stroke-linecap="round" stroke-linejoin="round" stroke-width="0.553"/><path d="M66.782,21.924c10.7.1,12.8,18.6,9.588,35.788-1.688,1.215-17.894,2.127-20.7.236S52.264,21.79,66.782,21.924Z" fill="#46dbc9" fill-rule="evenodd"/><path d="M60.015,58.149c-2.43-.135-4.41-.449-5.234-1-2.8-1.891-3.41-36.159,11.107-36.024,5.756.054,9.022,5.431,10.312,13.063" fill="none" stroke="#1b3c87" stroke-linecap="round" stroke-linejoin="round" stroke-width="0.553"/><path d="M76.82,44.726a80.388,80.388,0,0,1-1.343,12.182c-.667.48-3.6.912-7.072,1.144" fill="none" stroke="#1b3c87" stroke-linecap="round" stroke-linejoin="round" stroke-width="0.553"/><path d="M58.166,24.973c5.506,1.02,2.466,14.476.971,16.768-1.893.075-9.294-1.445-10.515-2.542C48.847,36.559,51.609,23.757,58.166,24.973Z" fill="#46dbc9" fill-rule="evenodd"/><path d="M48.194,38.282c.224-2.641,2.986-15.444,9.543-14.227" fill="none" stroke="#1b3c87" stroke-linecap="round" stroke-linejoin="round" stroke-width="0.553"/><path d="M60.8,32.516c-.324,3.6-1.385,7.217-2.1,8.307a30.272,30.272,0,0,1-5.841-.908" fill="none" stroke="#1b3c87" stroke-linecap="round" stroke-linejoin="round" stroke-width="0.553"/><path d="M49.947,39.5c-.553,1.706-2.5,8.964-2.288,11.062s9.474,16.436,10.9,17.543c.6-1.037,2.052-3.619,2.052-3.619-.784-1.153-5.487-14.523-5.442-15.975a29.782,29.782,0,0,1,2.344-7.14" fill="#fff" fill-rule="evenodd"/><path d="M54.785,49.686a9.131,9.131,0,0,1-.4-1.858,29.823,29.823,0,0,1,2.343-7.14" fill="none" stroke="#1b3c87" stroke-linecap="round" stroke-linejoin="round" stroke-width="0.553"/><path d="M48.153,42.443c-.692,2.74-1.416,6.114-1.285,7.437.207,2.1,9.474,16.436,10.9,17.543.6-1.037,2.052-3.619,2.052-3.619a85.275,85.275,0,0,1-3.378-8.885" fill="none" stroke="#1b3c87" stroke-linecap="round" stroke-linejoin="round" stroke-width="0.553"/><path d="M54.821,122.177l-.2,4.557-.871,3.193L64.938,130l-3.367-5.442.044-2.424" fill="#fff" fill-rule="evenodd"/><path d="M57.4,129l6.723.044L60.751,123.6l.043-2.424" fill="none" stroke="#1b3c87" stroke-linecap="round" stroke-linejoin="round" stroke-width="0.553"/><path d="M54,121.22l-.2,4.557-.871,3.193" fill="none" stroke="#1b3c87" stroke-linecap="round" stroke-linejoin="round" stroke-width="0.553"/><path d="M74.136,120.781l.549,2.277-.915,6.524,15.062-.122L80.4,123.808l-.163-3.069" fill="#fff" fill-rule="evenodd"/><path d="M79.577,123.263l-.163-3.069" fill="none" stroke="#1b3c87" stroke-linecap="round" stroke-linejoin="round" stroke-width="0.553"/><path d="M73.316,120.234l.549,2.277-.915,6.524,15.062-.122L82.26,125.06" fill="none" stroke="#1b3c87" stroke-linecap="round" stroke-linejoin="round" stroke-width="0.553"/><path d="M105.6,13.486a3.312,3.312,0,1,1,3.312,3.311,3.312,3.312,0,0,1-3.312-3.311Z" fill="#fb5d64" fill-rule="evenodd"/><path d="M111.572,13.9a3.312,3.312,0,1,1-3.178-4.246" fill="none" stroke="#1b3c87" stroke-linecap="round" stroke-linejoin="round" stroke-width="0.553"/><path d="M61.2,11.5c-.21-4.367,2.3-8.036,5.6-8.193s6.155,3.249,6.366,7.617-2.3,8.036-5.6,8.2S61.41,15.866,61.2,11.5Z" fill="#fff" fill-rule="evenodd"/><path d="M61.979,14.359a68.137,68.137,0,0,1,.98,10.11c1,.874,4.821.753,5.48-.1a22.165,22.165,0,0,1,.051-5.6" fill="#fff" fill-rule="evenodd"/><path d="M67.88,23.664c-.145-1.36-.4-4.241-.077-5.133" fill="none" stroke="#1b3c87" stroke-linecap="round" stroke-linejoin="round" stroke-width="0.553"/><path d="M62.068,18.343a46.931,46.931,0,0,1,.333,5.425,5.188,5.188,0,0,0,3.136.587" fill="none" stroke="#1b3c87" stroke-linecap="round" stroke-linejoin="round" stroke-width="0.553"/><path d="M61.421,13.657c.052.26.143.814.25,1.551" fill="none" stroke="#1b3c87" stroke-linecap="round" stroke-linejoin="round" stroke-width="0.553"/><path d="M72.345,13.583c-.793,2.827-2.8,4.871-5.253,4.989a4.82,4.82,0,0,1-2.757-.728" fill="none" stroke="#1b3c87" stroke-linecap="round" stroke-linejoin="round" stroke-width="0.553"/><path d="M72.072,7.308a9.956,9.956,0,0,1,.535,2.119" fill="none" stroke="#1b3c87" stroke-linecap="round" stroke-linejoin="round" stroke-width="0.553"/><path d="M65.983,10.358c-.023-.479.182-.877.457-.891s.518.364.541.843-.182.877-.457.891S66.007,10.836,65.983,10.358Z" fill="#1b3c87" fill-rule="evenodd"/><path d="M74.816,8.987s0-.006.011-.006.012,0,.012.005,0,.006-.011.006S74.816,8.991,74.816,8.987Z" fill="#1b3c87" fill-rule="evenodd"/><path d="M68.856,10.617a2.775,2.775,0,0,0,1.58,2.374" fill="none" stroke="#1b3c87" stroke-linecap="round" stroke-linejoin="round" stroke-width="0.553"/><path d="M66.3,14.5a1.186,1.186,0,0,0,.946,1.138" fill="none" stroke="#1b3c87" stroke-linecap="round" stroke-linejoin="round" stroke-width="0.553"/><path d="M72,14.574c-.277,1.357.585,4.815.442,6.41a3.4,3.4,0,0,1-1.026,2.3" fill="none" stroke="#1b3c87" stroke-linecap="round" stroke-linejoin="round" stroke-width="0.553"/><path d="M60.358,2.715a2.053,2.053,0,1,1,2.149,1.952,2.053,2.053,0,0,1-2.149-1.952Z" fill="#fb5d64" fill-rule="evenodd"/><path d="M60.427,3.614a2.053,2.053,0,1,1,3.454-.4" fill="none" stroke="#1b3c87" stroke-linecap="round" stroke-linejoin="round" stroke-width="0.553"/><path d="M66.846,3.137c-3.305.159-5.813,3.828-5.6,8.2A10.351,10.351,0,0,0,61.459,13a30.519,30.519,0,0,1,3.45-4.249,33.69,33.69,0,0,0,7.5-1.48C71.307,4.717,69.194,3.024,66.846,3.137Z" fill="#fb5d64" fill-rule="evenodd"/><path d="M60.938,8.267A10.363,10.363,0,0,0,60.96,12.5a30.528,30.528,0,0,1,3.45-4.249,25.769,25.769,0,0,0,4.275-.632" fill="none" stroke="#1b3c87" stroke-linecap="round" stroke-linejoin="round" stroke-width="0.553"/><path d="M61.1,7.612Q60.98,8,60.9,8.4" fill="none" stroke="#1b3c87" stroke-linecap="round" stroke-linejoin="round" stroke-width="0.553"/><path d="M71.869,6.911C70.764,4.357,68.651,2.665,66.3,2.777c-2.4.116-4.386,2.088-5.208,4.834" fill="none" stroke="#1b3c87" stroke-linecap="round" stroke-linejoin="round" stroke-width="0.553"/><path d="M62.516,13.354a1.5,1.5,0,1,1,.045-2.326" fill="#fff" fill-rule="evenodd"/><path d="M62.147,13.069a1.5,1.5,0,1,1,.045-2.326" fill="none" stroke="#1b3c87" stroke-linecap="round" stroke-linejoin="round" stroke-width="0.553"/></g></g></svg>