<svg xmlns="http://www.w3.org/2000/svg" xmlns:xlink="http://www.w3.org/1999/xlink" width="130" height="130" viewBox="0 0 130 130"><defs><clipPath id="a"><circle cx="65" cy="65" r="65" transform="translate(453 9078)" fill="#fff" stroke="#707070" stroke-width="1"/></clipPath></defs><g transform="translate(-453 -9078)" clip-path="url(#a)"><g transform="translate(453 9086.981)"><path d="M101.467,22.2C112.041,34.444,120.211,47.4,121,61.111c.765,13.716-5.874,28.225-16.448,37.924-10.547,9.7-25.055,14.591-37.486,12.541-12.4-2.077-22.787-11.093-35.957-20.793C17.968,81.084,2.012,70.7,2.5,60.838c.464-9.891,17.377-19.29,30.547-31.558C46.22,17.04,55.619,1.957,66.794.181S90.92,9.963,101.467,22.2Z" fill="#f7f7f7"/><path d="M14.013,43.589,21.5,35.5l7.485-8.087L32.244,37.94,35.5,48.467,24.758,46.028Z" fill="none" stroke="#b2c3fb" stroke-linecap="round" stroke-linejoin="round" stroke-width="0.212"/><path d="M111.239,26.306l-4.188,15.25,13.769-2.668Z" fill="none" stroke="#eaf0ff" stroke-linecap="round" stroke-linejoin="round" stroke-width="0.212"/><path d="M24.321,27.556H59.377V64.231H24.321Z" fill="#d7e0ff"/><path d="M37.11,23.357h68.206V72.512H37.11Z" fill="#eaf0ff" opacity="0.67"/><path d="M79.81,36.229a8.761,8.761,0,1,1,8.761,8.761A8.761,8.761,0,0,1,79.81,36.229Z" fill="#d7e0ff"/><path d="M64.435,79.482a8.945,8.945,0,1,1,8.945,8.944A8.945,8.945,0,0,1,64.435,79.482Z" fill="none" stroke="#eaf0ff" stroke-linecap="round" stroke-linejoin="round" stroke-width="0.212"/><path d="M92.022,19.408v6.78h.042v7.238L87.007,28.02H72.465V19.408Z" fill="#fff"/><path d="M47.754,31v6.78h-.042v7.238l5.058-5.407H67.312V31Z" fill="#fff"/><path d="M101.382,48.278c0,4.849,2.108,5.729,2.108,6.608a44.2,44.2,0,0,1-1.228,6.337c.711,1,5.729,1.513,6.686,1.254a65.63,65.63,0,0,1,1.552-7.5c.272-.414,3.31-2.846,3.31-4.862,0-4.513-.3-10.513-3.3-10.513C106.865,39.6,101.382,41.373,101.382,48.278Z" fill="#fff"/><path d="M116.52,62.707a71.765,71.765,0,0,0-7.415.967c-.029,2.476.646,28.725.748,32.673H124.33l5.129-29.782a3.858,3.858,0,0,0-3.858-3.858s-6.231.09-8.65,0C116.82,62.7,116.677,62.7,116.52,62.707Z" fill="#3c3744"/><path d="M40.417,85.006c.826-.455,8.8-6.36,9.24-6.912s2-3.707,2.134-3.913.969-.591,1.074-.5c.643.546-.387,2.4-.51,2.687.6-.546,4.383-3.506,4.847-3.36,3.334,1.047,2.087,5.5-.009,6.581-.573.3-3.713,1.5-4.014,1.758S39.672,92.6,39.376,92.815C39.211,92.057,39.59,85.461,40.417,85.006Z" fill="#fff"/><path d="M88.228,69.58c-.568.841-2.006,2.94-2.574,3.759-6.115-8.045-12.446-12.7-14.108-20.644-1.609-1.024-1.517,2.63-.308,5.366-1.887,1.207-3.674,2.418-3.125,3.313,2.1,3.423,2.735,2.346,3.521,2.417s7.077,12.968,8.89,15a14.744,14.744,0,0,0,6.5,5.02c.444-3.779,3.227-12.728,3.795-13.407C90.311,70.036,88.8,68.739,88.228,69.58Z" fill="#fff"/><path d="M90.257,71.311c-1.893-1.444-3.173-2.581-3.207-3.115-.08-1.262,7.485-12.019,12.633-8.607C101.867,61.176,94,74.1,90.257,71.311Z" fill="#46dbc9"/><path d="M94.415,59.088a4.675,4.675,0,0,1,4.858-.037" fill="none" stroke="#1b3c87" stroke-linecap="round" stroke-linejoin="round" stroke-width="0.531"/><path d="M89.848,70.773c-1.922-1.406-3.173-2.581-3.207-3.115S88,64.791,90.011,62.61" fill="none" stroke="#1b3c87" stroke-linecap="round" stroke-linejoin="round" stroke-width="0.531"/><path d="M104.478,58.741c-15.139.138-18.159,26.136-18.86,37.607h28.66c3.616-11.252,6.29-35.26-7.422-37.426A14.477,14.477,0,0,0,104.478,58.741Z" fill="#46dbc9"/><path d="M4.67,61.941A3.858,3.858,0,0,0,.812,65.8S3.588,88.27,4.6,96.461H25.46c0-1.321-.042-29.193-.256-34.52Z" fill="#3c3744"/><path d="M30.485,61.019c-13.88,0-16.622,24.209-16.219,35.441h25.44C41.97,85.337,42.346,61.019,30.485,61.019Z" fill="#46dbc9"/><path d="M39.981,78.649a70.856,70.856,0,0,1-1.335,17.763" fill="none" stroke="#1b3c87" stroke-linecap="round" stroke-linejoin="round" stroke-width="0.531"/><path d="M33.1,61.016c2.471,1.315,4.155,4.062,5.247,7.53" fill="none" stroke="#1b3c87" stroke-linecap="round" stroke-linejoin="round" stroke-width="0.531"/><path d="M22.025,63.351a11.84,11.84,0,0,1,3.681-2.523" fill="none" stroke="#1b3c87" stroke-linecap="round" stroke-linejoin="round" stroke-width="0.531"/><path d="M40.149,84.313c.932-.491,8.313-5.947,9-6.671s1.827-3.691,2.325-4.13.831-.68,1.128-.352-.224,1.969-.871,2.831a20.825,20.825,0,0,1,5.1-3.622" fill="none" stroke="#1b3c87" stroke-linecap="round" stroke-linejoin="round" stroke-width="0.531"/><path d="M44.8,87.5c-2.6,2.24-4.952,4.282-5.366,4.653" fill="none" stroke="#1b3c87" stroke-linecap="round" stroke-linejoin="round" stroke-width="0.531"/><path d="M56.869,78.85a42.833,42.833,0,0,0-4.418,2.165c-.3.211-1.407,1.14-2.865,2.379" fill="none" stroke="#1b3c87" stroke-linecap="round" stroke-linejoin="round" stroke-width="0.531"/><path d="M53.337,76.226c.354-.293,1.451-1.077,2.544-1.784a10.782,10.782,0,0,1,2.437-1.321" fill="none" stroke="#1b3c87" stroke-linecap="round" stroke-linejoin="round" stroke-width="0.531"/><path d="M54.218,77.25c.354-.293,1.451-1.077,2.544-1.784A10.824,10.824,0,0,1,59.2,74.145" fill="none" stroke="#1b3c87" stroke-linecap="round" stroke-linejoin="round" stroke-width="0.531"/><path d="M54.642,78.635c.314-.264,1.288-.971,2.258-1.609a9.592,9.592,0,0,1,2.164-1.191" fill="none" stroke="#1b3c87" stroke-linecap="round" stroke-linejoin="round" stroke-width="0.531"/><path d="M110.5,54.9c-.276.788-1.52,6.617-1.612,7.537-1.168.42-5.974-.278-6.578-1.2a25.846,25.846,0,0,0,1.167-6.618" fill="#fff"/><path d="M101.953,60.716a25.846,25.846,0,0,0,1.167-6.618" fill="none" stroke="#1b3c87" stroke-linecap="round" stroke-linejoin="round" stroke-width="0.531"/><path d="M110.142,54.376c-.276.788-1.52,6.617-1.612,7.537a9.127,9.127,0,0,1-3.377-.076" fill="none" stroke="#1b3c87" stroke-linecap="round" stroke-linejoin="round" stroke-width="0.531"/><path d="M101.517,44.76A12.555,12.555,0,0,1,103,41.749" fill="none" stroke="#1b3c87" stroke-linecap="round" stroke-linejoin="round" stroke-width="0.531"/><path d="M107.561,55.507a4.67,4.67,0,0,1-1.908,0c-2.961-.633-4.846-3.934-4.678-7.78" fill="none" stroke="#1b3c87" stroke-linecap="round" stroke-linejoin="round" stroke-width="0.531"/><path d="M109.154,59.039c10.592,5.1,7.87,27.311,4.423,37.365" fill="none" stroke="#1b3c87" stroke-linecap="round" stroke-linejoin="round" stroke-width="0.531"/><path d="M87.6,78.484c2.321-9.692,6.688-19.12,14.9-20.383" fill="none" stroke="#1b3c87" stroke-linecap="round" stroke-linejoin="round" stroke-width="0.531"/><path d="M85.119,96.414c.129-2.311.367-5.333.8-8.671" fill="none" stroke="#1b3c87" stroke-linecap="round" stroke-linejoin="round" stroke-width="0.531"/><path d="M112.278,86.558c.191,2.825.4,5.433.559,6.212-.845,1.027-2.809,3.636-2.809,3.636" fill="none" stroke="#1b3c87" stroke-linecap="round" stroke-linejoin="round" stroke-width="0.531"/><path d="M111.747,77.934c.024.354.095,1.6.191,3.226" fill="none" stroke="#1b3c87" stroke-linecap="round" stroke-linejoin="round" stroke-width="0.531"/><path d="M87.7,69.078c-.283.415-2.524,3.745-2.524,3.745s-10.025-11.862-10.7-12.792a19.658,19.658,0,0,1-3.113-6.913c-.106-.7-.446-1.535-1.035-1.145-.93.7-.322,4.285.392,5.51" fill="none" stroke="#1b3c87" stroke-linecap="round" stroke-linejoin="round" stroke-width="0.531"/><path d="M69.552,57.893a6.437,6.437,0,0,0,1.508,3.38" fill="none" stroke="#1b3c87" stroke-linecap="round" stroke-linejoin="round" stroke-width="0.531"/><path d="M68.463,58.992A6.432,6.432,0,0,0,70.3,62.206" fill="none" stroke="#1b3c87" stroke-linecap="round" stroke-linejoin="round" stroke-width="0.531"/><path d="M67.383,60.116a6.434,6.434,0,0,0,2.025,3.1" fill="none" stroke="#1b3c87" stroke-linecap="round" stroke-linejoin="round" stroke-width="0.531"/><path d="M77.568,74.6c-2.076-3.686-3.837-7.793-5.994-10.8" fill="none" stroke="#1b3c87" stroke-linecap="round" stroke-linejoin="round" stroke-width="0.531"/><path d="M86.6,83.237a10.431,10.431,0,0,1-4.945-2.918" fill="none" stroke="#1b3c87" stroke-linecap="round" stroke-linejoin="round" stroke-width="0.531"/><path d="M102.636,45.507c.153-.725.7-1.223,1.225-1.113a1.2,1.2,0,0,1,.672,1.512" fill="none" stroke="#1b3c87" stroke-linecap="round" stroke-linejoin="round" stroke-width="0.531"/><path d="M107.654,46.671c.152-.725.7-1.223,1.225-1.113a1.2,1.2,0,0,1,.672,1.512" fill="none" stroke="#1b3c87" stroke-linecap="round" stroke-linejoin="round" stroke-width="0.531"/><path d="M105.433,46.985a7.182,7.182,0,0,1-1.509,1.576" fill="none" stroke="#1b3c87" stroke-linecap="round" stroke-linejoin="round" stroke-width="0.531"/><path d="M105.645,50.038a7.005,7.005,0,0,0,2.4-.033,2.032,2.032,0,0,1-1.832,2.553" fill="none" stroke="#1b3c87" stroke-linecap="round" stroke-linejoin="round" stroke-width="0.531"/><path d="M12.984,61.34H24.658" fill="none" stroke="#1b3c87" stroke-linecap="round" stroke-linejoin="round" stroke-width="0.531"/><path d="M4.12,96.407.265,65.2A3.858,3.858,0,0,1,4.124,61.34H5.577" fill="none" stroke="#1b3c87" stroke-linecap="round" stroke-linejoin="round" stroke-width="0.531"/><path d="M124.3,62.231h-8.075" fill="none" stroke="#1b3c87" stroke-linecap="round" stroke-linejoin="round" stroke-width="0.531"/><path d="M123.477,96.413l4.581-26.4" fill="none" stroke="#1b3c87" stroke-linecap="round" stroke-linejoin="round" stroke-width="0.531"/><path d="M46.936,41.564l0,2.525,5.223-5.336h14.4V30.133H64.488" fill="none" stroke="#1b3c87" stroke-linecap="round" stroke-linejoin="round" stroke-width="0.531"/><path d="M59.949,30.133H46.94v7.173" fill="none" stroke="#1b3c87" stroke-linecap="round" stroke-linejoin="round" stroke-width="0.531"/><path d="M49.218,32.744H63.454" fill="none" stroke="#1b3c87" stroke-linecap="round" stroke-linejoin="round" stroke-width="0.531"/><path d="M49.218,36.109h4.97" fill="none" stroke="#1b3c87" stroke-linecap="round" stroke-linejoin="round" stroke-width="0.531"/><path d="M88.455,18.615h2.712v8.621l.008,5.336-5.222-5.336h-14.4v-1.16" fill="none" stroke="#1b3c87" stroke-linecap="round" stroke-linejoin="round" stroke-width="0.531"/><path d="M71.555,22.745v-4.13H82.411" fill="none" stroke="#1b3c87" stroke-linecap="round" stroke-linejoin="round" stroke-width="0.531"/><path d="M88.89,21.226H74.654" fill="none" stroke="#1b3c87" stroke-linecap="round" stroke-linejoin="round" stroke-width="0.531"/><path d="M79.714,24.591h-4.97" fill="none" stroke="#1b3c87" stroke-linecap="round" stroke-linejoin="round" stroke-width="0.531"/><path d="M10.65,76.122l.015.038c-.506,1.134-5.038,13.964-4.838,15.027A6.483,6.483,0,0,0,7.87,94.579c.357.2,3.933.966,8.2,1.881H41.791c-.525-1.338-2.721-2.441-4.753-2.445a3.07,3.07,0,0,0-2.551.919,112.268,112.268,0,0,0-18.954-6.278l-.276-.715c.839-1.605,3.369-6.249,3.722-6.973-1.344-.683-8.237-4.792-8.3-4.828l0-.013a.038.038,0,0,1,0,.007Z" fill="#fff"/><path d="M6.766,85.758a24.349,24.349,0,0,0-1.253,4.784,6.483,6.483,0,0,0,2.043,3.392c.432.241,5.492,1.319,10.89,2.485" fill="none" stroke="#1b3c87" stroke-linecap="round" stroke-linejoin="round" stroke-width="0.531"/><path d="M10.326,75.478c-.2.432-1.17,3.124-2.188,6.121" fill="none" stroke="#1b3c87" stroke-linecap="round" stroke-linejoin="round" stroke-width="0.531"/><path d="M18.728,80.281c-.523.852-3.922,7.271-4.007,7.54,1.607.47,11.152,2.567,19.516,6.427a3.069,3.069,0,0,1,2.55-.919c2.346,0,4.871,1.218,4.871,3.08" fill="none" stroke="#1b3c87" stroke-linecap="round" stroke-linejoin="round" stroke-width="0.531"/><path d="M22.508,64.618c5.785,3.382-.278,16.25-1.843,16.659-3.076.212-10.16-4.229-10.841-6.026S16.8,61.28,22.508,64.618Z" fill="#46dbc9"/><path d="M24.25,72.078c-.861,4.114-3.084,8.11-3.946,8.336-3.076.212-10.16-4.229-10.841-6.027-.25-.658.62-2.711,2.1-4.883" fill="none" stroke="#1b3c87" stroke-linecap="round" stroke-linejoin="round" stroke-width="0.531"/><path d="M15.143,65.432c2.22-1.906,4.763-2.988,7.005-1.678a4.531,4.531,0,0,1,1.892,2.163" fill="none" stroke="#1b3c87" stroke-linecap="round" stroke-linejoin="round" stroke-width="0.531"/><path d="M25.914,63.66c.842-2.29.712-9.987.629-10.748-.1-.919-.793-7.546.869-8.946S31.627,41,33.135,41.1s5.994,4.622,5.994,10.088-4.97,8.077-6.136,8.113c-.159,1.214-.147,4.463-.147,5.64C32.368,65.4,27.136,65.25,25.914,63.66Z" fill="#fff"/><path d="M26.744,48.12c-.779-.048-1.384.655-2.034,1.326-.583-4.313,1.45-11.9,4.366-12.417.5.02.564.684.418,1.269a12.446,12.446,0,0,1,6.724-2.608,2.414,2.414,0,0,1,2.558,2,9.48,9.48,0,0,1-1.162,3.732,2.663,2.663,0,0,1,1.287-.363c.972,0,1.211,1.508,1.211,1.957,0,1.568-1.661,3.165-2.485,3.165a3.463,3.463,0,0,1-1.778-1.051,2.083,2.083,0,0,1,.245.939c0,.423-.611.655-.977.655-.969,0-2.89-1.89-4.647-1.89a1.685,1.685,0,0,0-1.323,1.31,18.959,18.959,0,0,1,.1,2.78c-.454.357-.664-.706-2.465-.821" fill="#eecb55"/><path d="M37.761,53.923C36.638,56.7,34.344,58.6,31.7,58.6a5.812,5.812,0,0,1-3.645-1.33" fill="none" stroke="#1b3c87" stroke-linecap="round" stroke-linejoin="round" stroke-width="0.531"/><path d="M37.505,45.638a9.488,9.488,0,0,1,.989,4.424,10.813,10.813,0,0,1-.064,1.176" fill="none" stroke="#1b3c87" stroke-linecap="round" stroke-linejoin="round" stroke-width="0.531"/><path d="M32.219,64.249A39.04,39.04,0,0,1,32.37,58.6" fill="none" stroke="#1b3c87" stroke-linecap="round" stroke-linejoin="round" stroke-width="0.531"/><path d="M25.9,59.372a17.271,17.271,0,0,1-.565,3.571,6.406,6.406,0,0,0,3.483,1.34" fill="none" stroke="#1b3c87" stroke-linecap="round" stroke-linejoin="round" stroke-width="0.531"/><path d="M25.9,52.307a33.576,33.576,0,0,1,.127,4.337" fill="none" stroke="#1b3c87" stroke-linecap="round" stroke-linejoin="round" stroke-width="0.531"/><path d="M30.732,48.386c0-.408.176-.74.392-.74s.392.331.392.74-.176.74-.392.74S30.732,48.795,30.732,48.386Z" fill="#1b3c87"/><path d="M36.315,48.682c0-.408.176-.74.392-.74s.392.331.392.74-.176.74-.392.74S36.315,49.091,36.315,48.682Z" fill="#1b3c87"/><path d="M34.742,50.34a3.873,3.873,0,0,0,1.212,2.166" fill="none" stroke="#1b3c87" stroke-linecap="round" stroke-linejoin="round" stroke-width="0.531"/><path d="M34.421,54.086a4.018,4.018,0,0,1-1.946-1.239c-.477.23-.716,1.854.257,2.1" fill="none" stroke="#1b3c87" stroke-linecap="round" stroke-linejoin="round" stroke-width="0.531"/><path d="M37.514,45.635a.963.963,0,0,1-.315.062c-.778,0-2.084-1.306-2.084-1.306.294.719.47.925.47,1.218s-.367.616-.91.631c-1.322.038-2.782-1.884-4.638-1.884a1.7,1.7,0,0,0-1.429,1.462c0,.54.17,2.092.17,2.464a.332.332,0,0,1-.243.315" fill="none" stroke="#1b3c87" stroke-linecap="round" stroke-linejoin="round" stroke-width="0.531"/><path d="M34.771,35.339a6.764,6.764,0,0,1,.889-.062,2.407,2.407,0,0,1,2.6,2.054,7.582,7.582,0,0,1-1.35,3.742,3.017,3.017,0,0,1,1.423-.44c1.052,0,1.247,1.115,1.247,1.952a3.58,3.58,0,0,1-2.062,3.049" fill="none" stroke="#1b3c87" stroke-linecap="round" stroke-linejoin="round" stroke-width="0.531"/><path d="M25.79,39.591c.946-1.985,2.051-3.037,2.564-3.037.99,0,.669,1.043.629,1.378a12.185,12.185,0,0,1,3.493-1.982" fill="none" stroke="#1b3c87" stroke-linecap="round" stroke-linejoin="round" stroke-width="0.531"/><path d="M24.18,46.685a19.323,19.323,0,0,1,.854-5.164" fill="none" stroke="#1b3c87" stroke-linecap="round" stroke-linejoin="round" stroke-width="0.531"/><path d="M27.195,52.541a2.364,2.364,0,1,1,1.715-3.436" fill="#fff"/><path d="M26.922,52.315a2.364,2.364,0,1,1,1.715-3.436" fill="none" stroke="#1b3c87" stroke-linecap="round" stroke-linejoin="round" stroke-width="0.531"/><path d="M121.411,77.093c-1.731.889-5.055,1.407-9.26,1.554.117,2.469.682,10.254.982,14.526-.655.955-1.611,2.2-2.372,3.174h7.162c1.122-1.805,2.671-4.394,2.9-5.011C121.177,90.388,121.277,81.208,121.411,77.093Z" fill="#fff"/><path d="M121.062,76.3c-.032,1.13-.35,13.954-.62,14.749a43.687,43.687,0,0,1-3.165,5.373" fill="none" stroke="#1b3c87" stroke-linecap="round" stroke-linejoin="round" stroke-width="0.531"/><path d="M113.795,62.047c5.813-1.269,9.8,12.859,8.953,14.047s-11.327,2.911-12.263,2.06S108.927,63.11,113.795,62.047Z" fill="#46dbc9"/><path d="M115.247,77.57c-2.525.372-4.859.508-5.278.126-.549-.5-.99-5.591-.278-9.929" fill="none" stroke="#1b3c87" stroke-linecap="round" stroke-linejoin="round" stroke-width="0.531"/><path d="M114.233,61.516c5.288.337,8.8,13,8,14.12a5.8,5.8,0,0,1-2.489,1.038" fill="none" stroke="#1b3c87" stroke-linecap="round" stroke-linejoin="round" stroke-width="0.531"/><path d="M115.031,49.333c1.493-1.479,2.3-4.7,2.3-6.454,0-3.615-2.127-5.1-2.524-5.1s-.816.837-.752,1.422c-.359-.5-3.511-3.581-9.191-3.581-1.574,0-2.7.762-2.7,2.016a2.411,2.411,0,0,0,.722,1.766,1.2,1.2,0,0,0-1.126,1.293c0,1.057,1.418,1.557,1.981,1.557a2.838,2.838,0,0,0,1.8-1.133c.125.6-.253,1.59,1.064,1.6a11.1,11.1,0,0,0,3.336-1.578c-.445.765-1.056,1.116-1.056,1.981,0,.809.4,1.376,1.008,1.376a6.441,6.441,0,0,0,2.7-1.211c.069.549-.543,4.381-.359,5.426.615.046,1.369-.737,1.379-.095" fill="#e49d75"/><path d="M108.26,41.431a7.789,7.789,0,0,0,1.271-.762c-.445.765-1.056,1.115-1.056,1.981,0,.809.4,1.376,1.008,1.376a6.453,6.453,0,0,0,2.7-1.209c.07.549-.543,4.381-.358,5.426.615.046,1.369-.736,1.379-.095" fill="none" stroke="#1b3c87" stroke-linecap="round" stroke-linejoin="round" stroke-width="0.531"/><path d="M106.137,35.242a15.083,15.083,0,0,0-1.68-.093c-1.574,0-2.7.762-2.7,2.016a2.412,2.412,0,0,0,.722,1.765,1.2,1.2,0,0,0-1.126,1.293c0,1.057,1.418,1.557,1.981,1.557a2.837,2.837,0,0,0,1.8-1.133c.115.553-.193,1.426.765,1.576" fill="none" stroke="#1b3c87" stroke-linecap="round" stroke-linejoin="round" stroke-width="0.531"/><path d="M116.721,44.242a9.816,9.816,0,0,0,.2-1.834c0-3.615-2.127-5.1-2.524-5.1s-.815.836-.752,1.422a10.492,10.492,0,0,0-4.425-2.785" fill="none" stroke="#1b3c87" stroke-linecap="round" stroke-linejoin="round" stroke-width="0.531"/><path d="M114.623,48.862a6.583,6.583,0,0,0,1.3-2.022" fill="none" stroke="#1b3c87" stroke-linecap="round" stroke-linejoin="round" stroke-width="0.531"/><path d="M112.824,48.259a1.546,1.546,0,1,1-.93,1.948" fill="none" stroke="#1b3c87" stroke-linecap="round" stroke-linejoin="round" stroke-width="0.531"/><path d="M1.646,96.418H129.735" fill="none" stroke="#1b3c87" stroke-linecap="round" stroke-linejoin="round" stroke-width="0.531"/></g></g></svg>