<svg xmlns="http://www.w3.org/2000/svg" xmlns:xlink="http://www.w3.org/1999/xlink" width="130" height="130" viewBox="0 0 130 130"><defs><clipPath id="a"><circle cx="65" cy="65" r="65" transform="translate(1100 8677)" fill="#fff" stroke="#707070" stroke-width="1"/></clipPath></defs><g transform="translate(-1100 -8677)" clip-path="url(#a)"><g transform="translate(1100 8677.173)"><path d="M.335,0H129.665A.335.335,0,0,1,130,.335V129.32a.335.335,0,0,1-.335.335H.335A.335.335,0,0,1,0,129.32V.335A.335.335,0,0,1,.335,0Z" fill="#eaf0ff" fill-rule="evenodd"/><path d="M20.07,21.715H94.694a.335.335,0,0,1,.335.335v7.717a.335.335,0,0,1-.335.335H20.07a.335.335,0,0,1-.335-.335V22.05a.335.335,0,0,1,.335-.335Z" fill="#fff" fill-rule="evenodd"/><path d="M38.007,32.56H54.66a.335.335,0,0,1,.335.335v5.536a.335.335,0,0,1-.335.335H38.007a.335.335,0,0,1-.335-.335V32.9a.335.335,0,0,1,.335-.337Z" fill="#b2c3fb" fill-rule="evenodd"/><path d="M97,45.013c-.01-.9-1.162-2.886-1.577-2.813s-3.093,1.485-3.945,1.931-10.7.128-11.914.093-1.7-.967-3.168-1.715-2.031,3.007-2.056,3.669c-.042,1.032,1.981-.077,2.633.1s13.3,3.093,14.086,3.119a13.5,13.5,0,0,0,4.768-2.275C96.145,46.6,97.009,45.916,97,45.013Z" fill="#fff" fill-rule="evenodd"/><path d="M79.768,72.172h34.994c.389,0,.7.442.7.986V89.443c0,.544-.315.986-.7.986H79.768c-.389,0-.7-.442-.7-.986V73.158C79.063,72.614,79.379,72.172,79.768,72.172Z" fill="#b2c3fb" fill-rule="evenodd"/><path d="M79.768,92.34h34.994c.389,0,.7.442.7.986v16.285c0,.544-.315.986-.7.986H79.768c-.389,0-.7-.442-.7-.986V93.327C79.063,92.782,79.379,92.34,79.768,92.34Z" fill="#b2c3fb" fill-rule="evenodd"/><path d="M80.763,55.943l4.422,7.136" fill="none" stroke="#1b3c87" stroke-linecap="round" stroke-linejoin="round" stroke-width="0.504"/><path d="M72.352,74.4l4.075,6.818" fill="none" stroke="#1b3c87" stroke-linecap="round" stroke-linejoin="round" stroke-width="0.504"/><path d="M85.836,91.148l7.916-.656" fill="none" stroke="#1b3c87" stroke-linecap="round" stroke-linejoin="round" stroke-width="0.504"/><path d="M86.064,92.637l7.916-.656" fill="none" stroke="#1b3c87" stroke-linecap="round" stroke-linejoin="round" stroke-width="0.504"/><path d="M103.26,61.263c-.7.058-13.59,3.308-15.261,3.862S74.56,75.557,74.008,76.114c.359.628,2.53,4.206,2.53,4.206l9.292-4.49S103.962,61.2,103.26,61.263Z" fill="#3c3744" fill-rule="evenodd"/><path d="M79.295,70.5c-3.07,2.5-5.91,4.9-6.175,5.171.359.629,2.531,4.206,2.531,4.206l9.292-4.49s18.131-14.625,17.429-14.567-13.59,3.308-15.261,3.862a25.165,25.165,0,0,0-3.95,2.74" fill="none" stroke="#1b3c87" stroke-linecap="round" stroke-linejoin="round" stroke-width="0.504"/><path d="M112.605,58.177c5.279,13.064-4.309,16.885-17.774,17.369-.213,1.634-1.4,15.606-1.4,15.606l-5.759.472s-3.875-19.008-3-20.315,15.741-9.59,17.054-10.162S112.379,57.612,112.605,58.177Z" fill="#3c3744" fill-rule="evenodd"/><path d="M104.373,73.6a45.713,45.713,0,0,1-10.328,1.368c-.213,1.634-1.4,15.606-1.4,15.606l-5.759.472s-.636-3.118-1.334-6.915" fill="none" stroke="#1b3c87" stroke-linecap="round" stroke-linejoin="round" stroke-width="0.504"/><path d="M93.08,64.9c3.705-2.126,7.251-4.063,7.863-4.329,1.314-.571,10.646-3.534,10.875-2.969,3.131,7.749,1.031,12.246-4.006,14.723" fill="none" stroke="#1b3c87" stroke-linecap="round" stroke-linejoin="round" stroke-width="0.504"/><path d="M84.889,80.4c-.784-4.591-1.41-9.059-1-9.67.366-.545,3.163-2.3,6.4-4.209" fill="none" stroke="#1b3c87" stroke-linecap="round" stroke-linejoin="round" stroke-width="0.504"/><path d="M95.979,39.2a4.272,4.272,0,0,1,1.637-.826" fill="none" stroke="#1b3c87" stroke-linecap="round" stroke-linejoin="round" stroke-width="0.504"/><path d="M95.164,44.078c-.555-.975-1.337-2.774-1.054-3.2a4.032,4.032,0,0,1,.479-.521" fill="none" stroke="#1b3c87" stroke-linecap="round" stroke-linejoin="round" stroke-width="0.504"/><path d="M96.236,45.425c-.371-.417-1.906-3.69-1.573-4.192s3.261-2.942,5.013-2.657C99.205,39.978,96.606,45.843,96.236,45.425Z" fill="#46dbc9" fill-rule="evenodd"/><path d="M101.355,36.888c8.943-3.257,12.1,19.313,11.566,21.546-2.287,2.281-11.329,3.864-12.455,3.171C95.9,56.661,92.32,40.178,101.355,36.888Z" fill="#46dbc9" fill-rule="evenodd"/><path d="M95.148,49.043c-.419-4.142.2-8.263,2.619-10.766" fill="none" stroke="#1b3c87" stroke-linecap="round" stroke-linejoin="round" stroke-width="0.504"/><path d="M111.039,48.991c1.009,4.256,1.352,8.134,1.145,8.994-2.287,2.281-11.329,3.864-12.455,3.171-1.742-1.887-3.341-5.458-4.15-9.334" fill="none" stroke="#1b3c87" stroke-linecap="round" stroke-linejoin="round" stroke-width="0.504"/><path d="M97.766,38.276a7.45,7.45,0,0,1,2.853-1.839c4.682-1.705,7.779,3.67,9.59,9.5" fill="none" stroke="#1b3c87" stroke-linecap="round" stroke-linejoin="round" stroke-width="0.504"/><path d="M82.465,43.74c-1.758.005-3.134-.006-3.331-.04-.559-.1-2.976-1.93-3.631-1.939" fill="none" stroke="#1b3c87" stroke-linecap="round" stroke-linejoin="round" stroke-width="0.504"/><path d="M94.218,41.982c-.97.471-2.489,1.218-3.151,1.622-.524.04-2.477.08-4.657.106" fill="none" stroke="#1b3c87" stroke-linecap="round" stroke-linejoin="round" stroke-width="0.504"/><path d="M74,45.65c.831.614,1.981-.077,2.633.1s13.307,3.093,14.086,3.119a11.088,11.088,0,0,0,4.318-2.053" fill="none" stroke="#1b3c87" stroke-linecap="round" stroke-linejoin="round" stroke-width="0.504"/><path d="M99.636,47.449c-.479.994-1.536,3.746-1.843,4.745-.9.51-9.194,4.514-11.567,6.127-.617.067-2.546-.626-3.025-.58a.619.619,0,0,0-.578.359c-1.087.059-1.51,2.29-.128,2.732s2.281.833,3.25.277,15.015-4.075,16.061-4.788c1.412-.961,2.215-3.042,3.03-4.758.855-1.8.464-.85.464-1.519S100.116,46.455,99.636,47.449Z" fill="#fff" fill-rule="evenodd"/><path d="M80.686,57.938a5.325,5.325,0,0,0,2.141.845" fill="none" stroke="#1b3c87" stroke-linecap="round" stroke-linejoin="round" stroke-width="0.504"/><path d="M81.214,59.107a4.186,4.186,0,0,0,2.454.755" fill="none" stroke="#1b3c87" stroke-linecap="round" stroke-linejoin="round" stroke-width="0.504"/><path d="M99.556,56.386a11.709,11.709,0,0,0,1.659-.615c1.122-.671,3.331-5.059,3.4-6.117" fill="none" stroke="#1b3c87" stroke-linecap="round" stroke-linejoin="round" stroke-width="0.504"/><path d="M81.7,60.255a5.858,5.858,0,0,0,2.715.653c.6-.107,1.151-.634,2.056-.84.516-.118,4.867-1.279,8.723-2.38" fill="none" stroke="#1b3c87" stroke-linecap="round" stroke-linejoin="round" stroke-width="0.504"/><path d="M99.041,47.022c-.479.994-1.536,3.746-1.843,4.745-.9.51-9.195,4.514-11.567,6.127-.617.068-2.546-.626-3.025-.58a.621.621,0,0,0-.579.359" fill="none" stroke="#1b3c87" stroke-linecap="round" stroke-linejoin="round" stroke-width="0.504"/><path d="M107.013,38.445c3.958,1.712.7,11.554-.61,12.466-1.678.355-7.347-2.686-8.227-3.665C97.993,46.375,102.168,36.351,107.013,38.445Z" fill="#46dbc9" fill-rule="evenodd"/><path d="M101.461,48.933a16.487,16.487,0,0,1-3.69-2.271" fill="none" stroke="#1b3c87" stroke-linecap="round" stroke-linejoin="round" stroke-width="0.504"/><path d="M99.708,42.073c1.645-2.715,4.166-5.395,6.9-4.212,3.958,1.712.7,11.554-.61,12.466a4.729,4.729,0,0,1-2.146-.378" fill="none" stroke="#1b3c87" stroke-linecap="round" stroke-linejoin="round" stroke-width="0.504"/><path d="M93.226,92.653l-.135,2.894.586,3.317-10.511,1.4,4.942-4.434-.389-2.725" fill="#fff" fill-rule="evenodd"/><path d="M87.552,95.3l-.389-2.725" fill="none" stroke="#1b3c87" stroke-linecap="round" stroke-linejoin="round" stroke-width="0.504"/><path d="M92.671,92.12l-.135,2.894.584,3.317-10.51,1.4,2.705-2.427" fill="none" stroke="#1b3c87" stroke-linecap="round" stroke-linejoin="round" stroke-width="0.504"/><path d="M75.141,81.486l-1.929.873-2.582,2.8-6.307-8.585,6.236,2.24,2.13-1.5" fill="#fff" fill-rule="evenodd"/><path d="M67.111,80.721l-3.6-4.9,6.237,2.239,2.13-1.5" fill="none" stroke="#1b3c87" stroke-linecap="round" stroke-linejoin="round" stroke-width="0.504"/><path d="M74.331,80.737,72.4,81.61l-2.582,2.8-1.29-1.756" fill="none" stroke="#1b3c87" stroke-linecap="round" stroke-linejoin="round" stroke-width="0.504"/><path d="M71.117,75.262l4.075,6.818" fill="none" stroke="#1b3c87" stroke-linecap="round" stroke-linejoin="round" stroke-width="0.504"/><path d="M59.1,38.213l16.464,2.5a.335.335,0,0,1,.282.381l-.831,5.473a.336.336,0,0,1-.382.282L58.17,44.35a.336.336,0,0,1-.282-.382l.831-5.473a.335.335,0,0,1,.381-.282Z" fill="#b2c3fb" fill-rule="evenodd"/><path d="M77.579,43.946c-.411-.092-1.337-.092-1.808-.185-.868-.173-1.629-.629-2.192-.676a.686.686,0,0,0-.815.484c-.106.742,2.046,1.436,2.762,1.523" fill="#fff" stroke="#1b3c87" stroke-linecap="round" stroke-linejoin="round" stroke-width="0.504" fill-rule="evenodd"/><path d="M9.109,56.241a5.427,5.427,0,1,1,5.427,5.427A5.426,5.426,0,0,1,9.109,56.241Z" fill="#fff" fill-rule="evenodd"/><path d="M24.537,53.674H70.6" fill="none" stroke="#d7e0ff" stroke-linecap="round" stroke-linejoin="round" stroke-width="0.795"/><path d="M24.537,58.809H46.921" fill="none" stroke="#d7e0ff" stroke-linecap="round" stroke-linejoin="round" stroke-width="0.795"/><path d="M9.109,73.118a5.427,5.427,0,1,1,5.427,5.427A5.426,5.426,0,0,1,9.109,73.118Z" fill="#fff" fill-rule="evenodd"/><path d="M24.537,70.551H70.6" fill="none" stroke="#d7e0ff" stroke-linecap="round" stroke-linejoin="round" stroke-width="0.795"/><path d="M24.537,75.685H46.921" fill="none" stroke="#d7e0ff" stroke-linecap="round" stroke-linejoin="round" stroke-width="0.795"/><path d="M9.109,90a5.427,5.427,0,1,1,5.427,5.428A5.427,5.427,0,0,1,9.109,90Z" fill="#fff" fill-rule="evenodd"/><path d="M24.537,87.429H70.6" fill="none" stroke="#d7e0ff" stroke-linecap="round" stroke-linejoin="round" stroke-width="0.795"/><path d="M24.537,92.563H46.921" fill="none" stroke="#d7e0ff" stroke-linecap="round" stroke-linejoin="round" stroke-width="0.795"/><path d="M9.109,106.873a5.427,5.427,0,1,1,5.427,5.427A5.426,5.426,0,0,1,9.109,106.873Z" fill="#fff" fill-rule="evenodd"/><path d="M24.537,104.306H70.6" fill="none" stroke="#d7e0ff" stroke-linecap="round" stroke-linejoin="round" stroke-width="0.795"/><path d="M24.537,109.44H46.921" fill="none" stroke="#d7e0ff" stroke-linecap="round" stroke-linejoin="round" stroke-width="0.795"/><path d="M76.256,53.51A3.288,3.288,0,1,1,79.544,56.8a3.288,3.288,0,0,1-3.288-3.288Z" fill="#fff" fill-rule="evenodd"/><path d="M76.371,51.169a3.288,3.288,0,1,1-.277,3.3" fill="none" stroke="#1b3c87" stroke-linecap="round" stroke-linejoin="round" stroke-width="0.504"/><path d="M99.926,34.806a10.615,10.615,0,0,1,.992,3.131,6.827,6.827,0,0,0,3.226-.822,38.579,38.579,0,0,1-.8-4.822C103.42,31.755,99.641,34.292,99.926,34.806Z" fill="#fff" fill-rule="evenodd"/><path d="M102.13,37.328a4.236,4.236,0,0,0,1.474-.589,38.51,38.51,0,0,1-.8-4.822c.076-.538-3.7,2-3.418,2.513a10.617,10.617,0,0,1,.992,3.131" fill="none" stroke="#1b3c87" stroke-linecap="round" stroke-linejoin="round" stroke-width="0.504"/><path d="M95.034,29.646c0-3.215,1.935-5.822,4.323-5.822s4.323,2.607,4.323,5.822-1.935,5.822-4.323,5.822S95.034,32.861,95.034,29.646Z" fill="#fff" fill-rule="evenodd"/><path d="M97.046,29.189a2.676,2.676,0,0,1-.737,1.547" fill="none" stroke="#1b3c87" stroke-linecap="round" stroke-linejoin="round" stroke-width="0.504"/><path d="M98.144,28.809c0-.366.165-.66.37-.66s.37.3.37.66-.165.66-.37.66S98.144,29.174,98.144,28.809Z" fill="#1b3c87" fill-rule="evenodd"/><path d="M98.385,32.267a.462.462,0,1,1,.462.482A.473.473,0,0,1,98.385,32.267Z" fill="none" stroke="#1b3c87" stroke-linecap="round" stroke-linejoin="round" stroke-width="0.504"/><path d="M94.708,30.219a7.844,7.844,0,0,1-.067-1.025c0-3.216,1.936-5.822,4.323-5.822s4.323,2.606,4.323,5.822-1.936,5.822-4.323,5.822a4.339,4.339,0,0,1-3.8-3.035" fill="none" stroke="#1b3c87" stroke-linecap="round" stroke-linejoin="round" stroke-width="0.504"/><path d="M103.5,30.625c.29-.435,1.317-6.5-.847-7.429-.432-.186-.52.306-.76.82-.351-1.564-2.438-3.5-3.152-3.431s-1.372,1.75-1.361,2.23c-.454-.664-1.8-1.655-2.308-1.592-1.365.167-.584,3.291-.357,3.854a1.656,1.656,0,0,0-1.662,1.26,2.317,2.317,0,0,0,1.743,2.273c.6.074,1.723-1.382,2.746-1.679.628.466.767.622,1.059.582s1.217-.5,1.489-.341.924,2.313,1.272,2.422S103.208,31.06,103.5,30.625Z" fill="#eecb55" fill-rule="evenodd"/><path d="M94.308,24.59a1.655,1.655,0,0,0-1.662,1.26,2.317,2.317,0,0,0,1.744,2.273c.435.054,1.138-.688,1.88-1.218" fill="none" stroke="#1b3c87" stroke-linecap="round" stroke-linejoin="round" stroke-width="0.504"/><path d="M102.935,23.305a1.59,1.59,0,0,0-.689-.6c-.432-.186-.52.306-.76.82-.351-1.564-2.438-3.5-3.152-3.431s-1.372,1.749-1.361,2.23c-.454-.664-1.8-1.655-2.308-1.592-.8.1-.862,1.206-.732,2.222" fill="none" stroke="#1b3c87" stroke-linecap="round" stroke-linejoin="round" stroke-width="0.504"/><path d="M97.134,26.444c.628.466.767.622,1.058.582s1.217-.5,1.489-.341.923,2.313,1.272,2.422,1.848,1.465,2.138,1.031a12.96,12.96,0,0,0,.481-4.366" fill="none" stroke="#1b3c87" stroke-linecap="round" stroke-linejoin="round" stroke-width="0.504"/><path d="M101.069,30.65a1.273,1.273,0,1,1,1.273,1.273,1.273,1.273,0,0,1-1.273-1.273Z" fill="#fff" fill-rule="evenodd"/><path d="M101.069,29.565a1.272,1.272,0,1,1,.353,2.137" fill="none" stroke="#1b3c87" stroke-linecap="round" stroke-linejoin="round" stroke-width="0.504"/><path d="M.335,0H129.665A1.27,1.27,0,0,1,130,.023V8.641a1.27,1.27,0,0,1-.335.023H.335A1.27,1.27,0,0,1,0,8.641V.023A1.27,1.27,0,0,1,.335,0Z" fill="#d7e0ff" fill-rule="evenodd"/><path d="M4.219,4.331A2.26,2.26,0,1,1,6.478,6.626,2.277,2.277,0,0,1,4.219,4.331Z" fill="#fb5e64" fill-rule="evenodd"/><path d="M12.993,4.331a2.26,2.26,0,1,1,2.259,2.295A2.277,2.277,0,0,1,12.993,4.331Z" fill="#fb5e64" fill-rule="evenodd"/><path d="M21.766,4.331a2.26,2.26,0,1,1,2.259,2.295A2.277,2.277,0,0,1,21.766,4.331Z" fill="#fb5e64" fill-rule="evenodd"/></g></g></svg>