<svg xmlns="http://www.w3.org/2000/svg" xmlns:xlink="http://www.w3.org/1999/xlink" width="130" height="130" viewBox="0 0 130 130"><defs><clipPath id="a"><circle cx="65" cy="65" r="65" transform="translate(820 8857)" fill="#fff" stroke="#707070" stroke-width="1"/></clipPath></defs><g transform="translate(-820 -8857)" clip-path="url(#a)"><g transform="translate(828.131 8857)"><path d="M91.924,10.884c10.364,6.459,19.291,16.879,21.329,28.509,2.066,11.626-2.755,24.49-9.129,37.26C97.752,89.452,89.829,102.231,77,111.01c-12.832,8.813-30.571,13.664-44.15,8.21C19.3,113.795,9.912,98.035,4.772,82.879A85.119,85.119,0,0,1,1.443,39.3C4.026,25.466,10.026,12.348,20.015,5.831S43.986-.6,56.874.693C69.735,1.957,81.562,4.453,91.924,10.884Z" fill="#f0f0f0"/><path d="M97.969,130c-.855-1.493-12.283-26.249-12.283-28.2,0-.666,3.623-21,5.227-21.235a52.593,52.593,0,0,0,6.689-2.3c.143,1.647,8.648,51.73,8.648,51.73Z" fill="#3b3744"/><path d="M71.514,130c0-3.245.116-51.285.116-51.285s20.638.786,22.378.87c0,10-14.4,42.643-14.4,50.415Z" fill="#3b3744"/><path d="M83.228,37.765c-.617-.971-3.484-5.777-3.738-6.609s-2.009-15.438-2.009-15.438l-4.955.251s-.539,15.619,0,16.8,4.487,8.83,4.487,8.83l3.052,1.94Z" fill="#fff"/><path d="M71.683,29.729a10.476,10.476,0,0,0,.212,2.416c.539,1.184,4.487,8.83,4.487,8.83l3.052,1.94L82.6,37.139c-.617-.971-3.484-5.777-3.738-6.609s-2.009-15.438-2.009-15.438l-4.955.251s-.2,5.87-.235,10.685" fill="none" stroke="#1b3c87" stroke-linecap="round" stroke-linejoin="round" stroke-width="0.401"/><path d="M106.314,1.954h3.694a1.427,1.427,0,0,1,1.427,1.427v8.584a1.427,1.427,0,0,1-1.427,1.427h-3.694Z" transform="translate(-0.231 10.59) rotate(-5.56)" fill="#b2c3fb"/><path d="M37.293,8.9l-9.3,6.651L38.4,20.283h0l68.477-6.67L105.771,2.229Z" fill="#d8dfff"/><path d="M87.569,36.5C100.718,36.5,97.7,72.966,97.6,78.27c-2.055,2.485-23.37,1.884-26.088.2C70.834,72.668,73.335,36.5,87.569,36.5Z" fill="#46dbc9"/><path d="M96.365,50.146c1.707,10.847.667,24.417.609,27.5-1.165,1.409-8.523,1.827-15.171,1.618" fill="none" stroke="#1b3c87" stroke-linecap="round" stroke-linejoin="round" stroke-width="0.401"/><path d="M71.279,67c1.312-12.657,5.49-31.127,15.661-31.127,3.576,0,5.956,2.7,7.524,6.729" fill="none" stroke="#1b3c87" stroke-linecap="round" stroke-linejoin="round" stroke-width="0.401"/><path d="M76.638,78.953c-2.811-.259-5-.643-5.752-1.113a32.939,32.939,0,0,1-.072-4.171" fill="none" stroke="#1b3c87" stroke-linecap="round" stroke-linejoin="round" stroke-width="0.401"/><path d="M89.356,94.978c-1.96,5.669-4.028,10.859-4.639,12.668-1.178,3.485-5.738,19.369-5.738,21.727" fill="none" stroke="#1b3c87" stroke-linecap="round" stroke-linejoin="round" stroke-width="0.401"/><path d="M93.38,78.834a39.327,39.327,0,0,1-1.935,9.688" fill="none" stroke="#1b3c87" stroke-linecap="round" stroke-linejoin="round" stroke-width="0.401"/><path d="M70.886,119.008v10.364" fill="none" stroke="#1b3c87" stroke-linecap="round" stroke-linejoin="round" stroke-width="0.401"/><path d="M70.886,77.84v33.4" fill="none" stroke="#1b3c87" stroke-linecap="round" stroke-linejoin="round" stroke-width="0.401"/><path d="M96.974,77.642c0,3.007,7.535,47.131,8.643,51.73" fill="none" stroke="#1b3c87" stroke-linecap="round" stroke-linejoin="round" stroke-width="0.401"/><path d="M92.561,119.437c-2.793-6.187-5.851-13.283-6.531-15.335" fill="none" stroke="#1b3c87" stroke-linecap="round" stroke-linejoin="round" stroke-width="0.401"/><path d="M97.341,129.372c-.389-.593-1.273-2.375-2.386-4.745" fill="none" stroke="#1b3c87" stroke-linecap="round" stroke-linejoin="round" stroke-width="0.401"/><circle cx="2.203" cy="2.203" r="2.203" transform="translate(14.805 50.956)" fill="#b2c3fb"/><circle cx="2.08" cy="2.08" r="2.08" transform="translate(57.337 54.765)" fill="#fb5d64"/><circle cx="2.08" cy="2.08" r="2.08" transform="translate(38.536 101.426)" fill="#fff"/><rect width="14.641" height="31.247" transform="translate(12.26 28.313) rotate(-40.62)" fill="#fff"/><path d="M92.124,31.986a57.308,57.308,0,0,0-.365,7.468c-.715.687-4.124.825-5.526-.412a11.523,11.523,0,0,0,.55-5.225C86.424,31.068,92.124,31.986,92.124,31.986Z" fill="#fff"/><path d="M86.023,37.4a9.434,9.434,0,0,0,.251-4.088c-.357-2.75,5.343-1.831,5.343-1.831a57.308,57.308,0,0,0-.365,7.468c-.555.534-2.739.736-4.343.219" fill="none" stroke="#1b3c87" stroke-linecap="round" stroke-linejoin="round" stroke-width="0.401"/><ellipse cx="6.303" cy="8.269" rx="6.303" ry="8.269" transform="translate(81.45 17.759)" fill="#fff"/><path d="M81.094,27.306a10.717,10.717,0,0,1-.147-1.781c0-4.567,2.822-8.269,6.3-8.269s6.3,3.7,6.3,8.269a10.136,10.136,0,0,1-1.073,4.617" fill="none" stroke="#1b3c87" stroke-linecap="round" stroke-linejoin="round" stroke-width="0.401"/><path d="M89.338,33.331a4.971,4.971,0,0,1-2.087.463c-2.291,0-4.3-1.6-5.4-4" fill="none" stroke="#1b3c87" stroke-linecap="round" stroke-linejoin="round" stroke-width="0.401"/><ellipse cx="0.27" cy="0.728" rx="0.27" ry="0.728" transform="translate(84.176 25.342)" fill="#1b3c87"/><path d="M83.267,26.249a3.931,3.931,0,0,1-1.044,2.12" fill="none" stroke="#1b3c87" stroke-linecap="round" stroke-linejoin="round" stroke-width="0.401"/><path d="M83.831,31.209a3.039,3.039,0,0,0,1.94-1.361" fill="none" stroke="#1b3c87" stroke-linecap="round" stroke-linejoin="round" stroke-width="0.401"/><path d="M90.625,28.18c.273.369.548,3.037,1.13,3.211s3.054-4.521,3.054-6.405c0-3.406-2.009-11.037-4.963-11.037-1.071,0-1.168,1.655-1.168,2.3a4.931,4.931,0,0,0-4.01-2.763c-3.465,0-3.41,3.265-2.8,5.84A1.978,1.978,0,0,0,80.5,18.9c-.661,0-1.012.865-1.012,1.771A3.2,3.2,0,0,0,81.575,24a18.992,18.992,0,0,0,5.275.5C87.062,24.993,88.659,28.219,90.625,28.18Z" fill="#ecc953"/><path d="M82.483,23.69a27.988,27.988,0,0,0,3.738.183c.214.486,1.81,3.718,3.777,3.679.273.369.548,3.037,1.13,3.211.152.046.435-.241.767-.725" fill="none" stroke="#1b3c87" stroke-linecap="round" stroke-linejoin="round" stroke-width="0.401"/><path d="M81.734,13.689c-1.069,1.13-.913,3.233-.5,5a1.978,1.978,0,0,0-1.363-.428c-.661,0-1.012.865-1.012,1.771a3.3,3.3,0,0,0,1.256,2.877" fill="none" stroke="#1b3c87" stroke-linecap="round" stroke-linejoin="round" stroke-width="0.401"/><path d="M90.9,14.169a2.381,2.381,0,0,0-1.678-.846c-1.071,0-1.168,1.654-1.168,2.3a4.931,4.931,0,0,0-4.01-2.763h-.268" fill="none" stroke="#1b3c87" stroke-linecap="round" stroke-linejoin="round" stroke-width="0.401"/><path d="M93.3,27.415a8.992,8.992,0,0,0,.879-3.056A21.774,21.774,0,0,0,92.2,16.133" fill="none" stroke="#1b3c87" stroke-linecap="round" stroke-linejoin="round" stroke-width="0.401"/><circle cx="1.988" cy="1.988" r="1.988" transform="translate(87.653 25.101)" fill="#fff"/><path d="M88.145,24.867a1.989,1.989,0,1,1,.993,3.711" fill="none" stroke="#1b3c87" stroke-linecap="round" stroke-linejoin="round" stroke-width="0.401"/><path d="M83.9,42.436c-1.382-.628-11.32-4.234-12.182-5.1S64.4,24.073,64.192,23.486a4.313,4.313,0,0,0,.5-2.261c-.02-1.093-.722-1.393-.776-4.806-.018-1.169-1.733.064-1.712,2.488-2.035-.156-4.617-5.12-6.187-2.934,5.4,10.9,11.355,27.7,11.856,28.2s13.412,7.019,13.7,6.841S84.489,43.149,83.9,42.436Z" fill="#fff"/><path d="M96.3,52.608c1.016-3.977-5.09-10.378-11.691-11-1.088.588-4.3,7.921-3.917,10.266C83.174,54.522,94.686,58.914,96.3,52.608Z" fill="#46dbc9"/><path d="M83.545,41.4c-1.324,1.726-3.822,7.753-3.485,9.836a9.317,9.317,0,0,0,2.2,1.581" fill="none" stroke="#1b3c87" stroke-linecap="round" stroke-linejoin="round" stroke-width="0.401"/><path d="M83.977,40.975a1.6,1.6,0,0,0-.432.43" fill="none" stroke="#1b3c87" stroke-linecap="round" stroke-linejoin="round" stroke-width="0.401"/><path d="M87.139,54.736c3.738.946,7.641.722,8.529-2.757.8-3.14-2.833-7.787-7.646-9.922" fill="none" stroke="#1b3c87" stroke-linecap="round" stroke-linejoin="round" stroke-width="0.401"/><path d="M56.265,16.895q-.43-.789-.879-1.552c-.414-.594,1.453-1.736,4.427,2.173" fill="none" stroke="#1b3c87" stroke-linecap="round" stroke-linejoin="round" stroke-width="0.401"/><path d="M69.819,45.023c-1.275-.7-2.248-1.256-2.572-1.483-1.119-.794-4.435-13.764-9.91-24.616" fill="none" stroke="#1b3c87" stroke-linecap="round" stroke-linejoin="round" stroke-width="0.401"/><path d="M80.049,50.381c-.377-.144-3.741-1.884-6.941-3.586" fill="none" stroke="#1b3c87" stroke-linecap="round" stroke-linejoin="round" stroke-width="0.401"/><path d="M65.424,26.541c-1.024-1.968-1.791-3.488-1.86-3.684a4.313,4.313,0,0,0,.5-2.261c-.02-1.093-.722-1.393-.776-4.806-.018-1.169-1.733.064-1.712,2.488" fill="none" stroke="#1b3c87" stroke-linecap="round" stroke-linejoin="round" stroke-width="0.401"/><path d="M83.267,41.808c-1.382-.628-11.32-4.234-12.182-5.1A51.1,51.1,0,0,1,68,31.4" fill="none" stroke="#1b3c87" stroke-linecap="round" stroke-linejoin="round" stroke-width="0.401"/><path d="M56.019,65.817,28.886,72.794,48.493,92.8Z" fill="none" stroke="#d8dfff" stroke-linecap="round" stroke-linejoin="round" stroke-width="0.401"/></g></g></svg>