<svg xmlns="http://www.w3.org/2000/svg" xmlns:xlink="http://www.w3.org/1999/xlink" width="130" height="130" viewBox="0 0 130 130"><defs><clipPath id="a"><circle cx="65" cy="65" r="65" transform="translate(1380 8857)" fill="#fff" stroke="#707070" stroke-width="1"/></clipPath></defs><g transform="translate(-1380 -8857)" clip-path="url(#a)"><g transform="translate(1380 8868.237)"><path d="M74.5,89.739c-12.431.652-24.177,4.779-34.8,1.875S19.61,78.739,17.817,67.671C16.023,56.636,21.865,44.507,29.435,36.3c7.536-8.209,16.814-12.5,25.783-15.75a94.19,94.19,0,0,1,28.835-6.065c11.208-.571,24.942.556,29.388,7.732s-.381,20.353-1.984,33.451.031,26.069-5.716,31.151S86.928,89.089,74.5,89.739Z" fill="#f0f0f0"/><path d="M66.483,64.588c.826.121,3.05.482,3.05.482L73.1,66.662l4.749-8.635-5.966,3.518-2.955-1.672" fill="#fff"/><path d="M31.807,83.608H7.619L0,44.05H24.188Z" fill="#eaf0ff"/><path d="M52.166,54.791c7.42,1.945,15.3,4.239,15.3,4.239-.515,1.112-2.284,5.222-2.284,5.222l-38.373,3.74c.6-2.113,9.25-15.888,13.02-15.888a41.145,41.145,0,0,1,6.58,1.242" fill="none" stroke="#1b3c87" stroke-linecap="round" stroke-linejoin="round" stroke-width="0.314"/><line x2="2.119" y2="5.479" transform="translate(71.265 58.314)" fill="none" stroke="#1b3c87" stroke-linecap="round" stroke-linejoin="round" stroke-width="0.314"/><line x1="2.966" y2="6.828" transform="translate(64.751 58.424)" fill="none" stroke="#1b3c87" stroke-linecap="round" stroke-linejoin="round" stroke-width="0.314"/><line x1="2.966" y2="6.828" transform="translate(65.701 58.424)" fill="none" stroke="#1b3c87" stroke-linecap="round" stroke-linejoin="round" stroke-width="0.314"/><line x2="2.119" y2="5.479" transform="translate(72.012 57.796)" fill="none" stroke="#1b3c87" stroke-linecap="round" stroke-linejoin="round" stroke-width="0.314"/><path d="M65.855,63.96c.826.121,3.05.482,3.05.482l3.572,1.592L77.226,57.4,71.26,60.917l-2.955-1.672" fill="none" stroke="#1b3c87" stroke-linecap="round" stroke-linejoin="round" stroke-width="0.314"/><rect width="77.984" height="1.724" transform="translate(43.824 65.511)" fill="#d8dfff"/><line y1="39.473" x2="9.71" transform="translate(47.885 67.235)" fill="none" stroke="#d8dfff" stroke-linecap="round" stroke-linejoin="round" stroke-width="0.314"/><line y1="40.021" x2="9.845" transform="translate(57.338 67.315)" fill="none" stroke="#d8dfff" stroke-linecap="round" stroke-linejoin="round" stroke-width="0.314"/><line x1="5.459" y1="22.194" transform="translate(67.273 67.315)" fill="none" stroke="#d8dfff" stroke-linecap="round" stroke-linejoin="round" stroke-width="0.314"/><line x1="2.727" y1="11.082" transform="translate(74.391 96.254)" fill="none" stroke="#d8dfff" stroke-linecap="round" stroke-linejoin="round" stroke-width="0.314"/><line x1="9.845" y1="40.021" transform="translate(57.82 67.315)" fill="none" stroke="#d8dfff" stroke-linecap="round" stroke-linejoin="round" stroke-width="0.314"/><line y1="39.473" x2="9.71" transform="translate(91.166 67.235)" fill="none" stroke="#d8dfff" stroke-linecap="round" stroke-linejoin="round" stroke-width="0.314"/><line y1="12.17" x2="2.995" transform="translate(107.47 67.315)" fill="none" stroke="#d8dfff" stroke-linecap="round" stroke-linejoin="round" stroke-width="0.314"/><line y1="15.155" x2="3.729" transform="translate(100.618 92.181)" fill="none" stroke="#d8dfff" stroke-linecap="round" stroke-linejoin="round" stroke-width="0.314"/><line x1="9.845" y1="40.021" transform="translate(110.553 67.315)" fill="none" stroke="#d8dfff" stroke-linecap="round" stroke-linejoin="round" stroke-width="0.314"/><line x1="9.845" y1="40.021" transform="translate(101.1 67.315)" fill="none" stroke="#d8dfff" stroke-linecap="round" stroke-linejoin="round" stroke-width="0.314"/><line x2="28.765" transform="translate(7.619 83.608)" fill="none" stroke="#1b3c87" stroke-linecap="round" stroke-linejoin="round" stroke-width="0.314"/><line y2="2.622" transform="translate(22.001 103.025)" fill="none" stroke="#1b3c87" stroke-linecap="round" stroke-linejoin="round" stroke-width="0.314"/><line y2="1.853" transform="translate(22.001 95.896)" fill="none" stroke="#1b3c87" stroke-linecap="round" stroke-linejoin="round" stroke-width="0.314"/><line y2="10.424" transform="translate(22.001 83.608)" fill="none" stroke="#1b3c87" stroke-linecap="round" stroke-linejoin="round" stroke-width="0.314"/><line x2="9.354" transform="translate(17.324 105.647)" fill="none" stroke="#1b3c87" stroke-linecap="round" stroke-linejoin="round" stroke-width="0.314"/><rect width="40.194" height="40.194" transform="translate(72.829 7.807)" fill="#d8dfff"/><rect width="24.909" height="6.522" rx="2.908" transform="translate(76.187 15.078)" fill="#fff"/><circle cx="3.261" cy="3.261" r="3.261" transform="translate(103.143 15.076)" fill="#fff"/><line x2="33.478" transform="translate(76.187 25.262)" fill="none" stroke="#fff" stroke-linecap="round" stroke-linejoin="round" stroke-width="0.314"/><line x2="33.478" transform="translate(76.187 30.079)" fill="none" stroke="#fff" stroke-linecap="round" stroke-linejoin="round" stroke-width="0.314"/><line x2="16.962" transform="translate(76.187 34.895)" fill="none" stroke="#fff" stroke-linecap="round" stroke-linejoin="round" stroke-width="0.314"/><rect width="9.771" height="9.771" rx="1.884" transform="translate(56.658 34.278)" fill="#d8dfff"/><circle cx="2.462" cy="2.462" r="2.462" transform="translate(63.439 31.776)" fill="#fa5d63"/><rect width="37.432" height="13.048" transform="translate(54.649)" fill="#eaf0ff"/><line x2="24.574" transform="translate(61.077 3.854)" fill="none" stroke="#b2c3fb" stroke-linecap="round" stroke-linejoin="round" stroke-width="0.314"/><line x2="11.464" transform="translate(61.077 9.194)" fill="none" stroke="#b2c3fb" stroke-linecap="round" stroke-linejoin="round" stroke-width="0.314"/><path d="M40.15,17.989,36.7,25.942l8.614-.984Z" fill="none" stroke="#b6c6fc" stroke-linecap="round" stroke-linejoin="round" stroke-width="0.314"/><rect width="3.693" height="7.281" transform="translate(119.101 15.854) rotate(-76.4)" fill="none" stroke="#b6c6fc" stroke-linecap="round" stroke-linejoin="round" stroke-width="0.314"/><path d="M14.219,74.546c.1,1.069,1.884,9.69,7.553,9.69,8.428,0,22.15-10.638,26.725-14.211,2.923-.6,24.962-6.908,24.962-6.908-.407-1.218-1.273-3.465-1.273-3.465s-20.2,1.28-23.785,1.876-20.356,5.809-21.169,6.043S14.219,74.546,14.219,74.546Z" fill="#3b3744"/><path d="M27.44,68.62c.6-2.113,9.25-15.888,13.02-15.888S68.09,59.657,68.09,59.657c-.515,1.112-2.284,5.222-2.284,5.222Z" fill="#3b3744"/><path d="M50.469,60.589c-1.2.116-2.148.225-2.7.314-3.579.6-20.356,5.809-21.169,6.043s-13.01,6.971-13.01,6.971c.1,1.069,1.884,9.69,7.553,9.69,4.035,0,9.283-2.438,14.161-5.372" fill="none" stroke="#1b3c87" stroke-linecap="round" stroke-linejoin="round" stroke-width="0.314"/><path d="M40.926,74.573c2.959-2.068,5.443-4,6.944-5.171,2.923-.6,24.962-6.908,24.962-6.908-.407-1.218-1.273-3.465-1.273-3.465s-6.908.438-13.357.92" fill="none" stroke="#1b3c87" stroke-linecap="round" stroke-linejoin="round" stroke-width="0.314"/><path d="M24.984,51.18A21.954,21.954,0,0,1,27,54.6c1.3-.524,13.188-4.867,14.2-5.084s5.233-1.072,5.682,2.041c-.772.648-2.542.074-3.862.361s-15.552,8.541-16.55,8.762-6.7-1.57-6.7-1.57S22.45,51.6,24.984,51.18Z" fill="#fff"/><path d="M18.475,42.773c3,0,6.878,5.4,7.6,7.514a7.1,7.1,0,0,1-2.465,2.443C23.135,52.852,15.026,42.773,18.475,42.773Z" fill="#46dbc9"/><path d="M25.05,48.76a7.12,7.12,0,0,1,.394.9A7.1,7.1,0,0,1,22.979,52.1c-.473.122-8.581-9.957-5.132-9.957,1.942,0,4.256,2.267,5.839,4.438" fill="none" stroke="#1b3c87" stroke-linecap="round" stroke-linejoin="round" stroke-width="0.314"/><path d="M40.1,52.369c-4.415,2.313-13.47,7.5-14.255,7.679-.992.22-6.7-1.57-6.7-1.57s2.669-7.5,5.208-7.925a21.954,21.954,0,0,1,2.019,3.415c.314-.129,1.269-.485,2.539-.953" fill="none" stroke="#1b3c87" stroke-linecap="round" stroke-linejoin="round" stroke-width="0.314"/><path d="M33.421,51.367c3.316-1.2,6.639-2.374,7.157-2.487,1.022-.225,5.233-1.072,5.682,2.041-.772.648-2.542.074-3.862.361" fill="none" stroke="#1b3c87" stroke-linecap="round" stroke-linejoin="round" stroke-width="0.314"/><path d="M18.839,43.645c5.338,3.854,7.175,15.166,9.106,23.736C26.323,69.2,16.373,75.545,14.2,75.056c-4.84-11.775-10.756-32.763.485-32.763a6.944,6.944,0,0,1,4.156,1.352" fill="#46dbc9"/><path d="M13.045,73.125c-4.724-11.949-9.828-31.46,1.009-31.46A7.384,7.384,0,0,1,19.726,44.4" fill="none" stroke="#1b3c87" stroke-linecap="round" stroke-linejoin="round" stroke-width="0.314"/><path d="M22.243,48.378c2.446,5.181,3.736,12.436,5.073,18.368a36.843,36.843,0,0,1-6.239,4.446" fill="none" stroke="#1b3c87" stroke-linecap="round" stroke-linejoin="round" stroke-width="0.314"/><path d="M6.938,57.82c-.077,1.135-1.185,17.394-.771,23.1.195,2.686,1.046,4.6,1.063,5.523.066,3.266,2.647,4.923,3.642,4.923s1.11-.341,1.11-.739S9.9,85.9,9.9,84.307s2.655-24.783,2.959-26.149S6.938,57.82,6.938,57.82Z" fill="#fff"/><path d="M9.3,83.294c.237-3.443,2.644-24.466,2.941-25.765.314-1.366-5.927-.338-5.927-.338-.041.592-.361,5.3-.6,10.472" fill="none" stroke="#1b3c87" stroke-linecap="round" stroke-linejoin="round" stroke-width="0.314"/><path d="M5.462,75.081c-.033,2.08-.017,3.917.077,5.212.195,2.686,1.046,4.6,1.063,5.523.066,3.266,2.647,4.923,3.642,4.923s1.11-.341,1.11-.739a25.063,25.063,0,0,0-.934-2.444" fill="none" stroke="#1b3c87" stroke-linecap="round" stroke-linejoin="round" stroke-width="0.314"/><path d="M11.388,45.215c3.594.187,3.123,12.943,1.961,13.412s-6.724-.11-7.3-.912S6.449,44.963,11.388,45.215Z" fill="#46dbc9"/><path d="M10.351,38.448a25.045,25.045,0,0,1,.889,5.08,4.194,4.194,0,0,0,3.226-.124,14.106,14.106,0,0,1-.562-3.933C13.925,38.236,10.351,38.448,10.351,38.448Z" fill="#fff"/><path d="M13.676,42.232a15.243,15.243,0,0,1-.4-3.385c.022-1.237-3.553-1.024-3.553-1.024a25.045,25.045,0,0,1,.889,5.08,4.6,4.6,0,0,0,2.17.228" fill="none" stroke="#1b3c87" stroke-linecap="round" stroke-linejoin="round" stroke-width="0.314"/><circle cx="4.226" cy="4.226" r="4.226" transform="translate(9.049 32.22)" fill="#fff"/><path d="M16.247,38.035a4.239,4.239,0,0,1-4.867,1.813" fill="none" stroke="#1b3c87" stroke-linecap="round" stroke-linejoin="round" stroke-width="0.314"/><path d="M9.508,38.648a4.226,4.226,0,1,1,7.368-2.826,4.363,4.363,0,0,1-.047.628" fill="none" stroke="#1b3c87" stroke-linecap="round" stroke-linejoin="round" stroke-width="0.314"/><path d="M17.156,33.189c-1.454,2.041-4.688,2.217-5.338,2.217s-.8,1.818-1.641,1.818A2.943,2.943,0,0,1,7.2,34.17c0-1.854,1.454-2.816,3.507-3.454a38.171,38.171,0,0,1,6.106-1.57c1.763,0,2.669,1.744,2.669,3.454,0,1.471-.433,2.168-2.116,2.774" fill="#ecc953"/><path d="M11.059,29.787a29.524,29.524,0,0,1,5.124-1.256c1.763,0,2.669,1.744,2.669,3.454,0,1.471-.433,2.168-2.116,2.774" fill="none" stroke="#1b3c87" stroke-linecap="round" stroke-linejoin="round" stroke-width="0.314"/><path d="M12.767,34.616a9.263,9.263,0,0,1-1.581.157c-.655,0-.8,1.818-1.636,1.818a2.943,2.943,0,0,1-2.983-3.054,3.024,3.024,0,0,1,.115-.848" fill="none" stroke="#1b3c87" stroke-linecap="round" stroke-linejoin="round" stroke-width="0.314"/><path d="M16.528,32.561a4.7,4.7,0,0,1-2,1.529" fill="none" stroke="#1b3c87" stroke-linecap="round" stroke-linejoin="round" stroke-width="0.314"/><circle cx="1.082" cy="1.082" r="1.082" transform="translate(9.209 35.691)" fill="#fff"/><path d="M9.977,37.541a1.082,1.082,0,1,1,.763-1.849" fill="none" stroke="#1b3c87" stroke-linecap="round" stroke-linejoin="round" stroke-width="0.314"/><path d="M11.963,58.143c-1.918.157-6.051-.369-6.547-1.053-.278-.385-.2-3.327.506-6.259" fill="none" stroke="#1b3c87" stroke-linecap="round" stroke-linejoin="round" stroke-width="0.314"/><path d="M7.551,46.635a3.635,3.635,0,0,1,3.209-2.041c2.92.157,3.157,8.6,2.512,12.016" fill="none" stroke="#1b3c87" stroke-linecap="round" stroke-linejoin="round" stroke-width="0.314"/><path d="M74.366,62.727l2.488-.923,2.9-.279L76.6,52.339,75.479,58.19l-2.46,1.055" fill="#fff"/><path d="M75.061,56.622l-.21,1.1-2.46,1.055" fill="none" stroke="#1b3c87" stroke-linecap="round" stroke-linejoin="round" stroke-width="0.314"/><path d="M78.011,57.814,75.97,51.868l-.653,3.412" fill="none" stroke="#1b3c87" stroke-linecap="round" stroke-linejoin="round" stroke-width="0.314"/><path d="M73.738,62.257l2.488-.923,2.9-.279" fill="none" stroke="#1b3c87" stroke-linecap="round" stroke-linejoin="round" stroke-width="0.314"/><path d="M14.6,35.691a2.119,2.119,0,0,0,.628,1.437" fill="none" stroke="#1b3c87" stroke-linecap="round" stroke-linejoin="round" stroke-width="0.314"/><ellipse cx="0.265" cy="0.507" rx="0.265" ry="0.507" transform="translate(15.541 34.804)" fill="#1b3c87"/><path d="M13.073,37.721a1.845,1.845,0,0,0,1.124.568" fill="none" stroke="#1b3c87" stroke-linecap="round" stroke-linejoin="round" stroke-width="0.314"/><rect width="21.705" height="28.543" transform="translate(108.295 32.567)" fill="#eaf0ff"/><rect width="21.705" height="3.953" transform="translate(108.295 32.567)" fill="#d8dfff"/><circle cx="0.978" cy="0.978" r="0.978" transform="translate(109.726 33.537)" fill="#b2c3fb"/><circle cx="0.978" cy="0.978" r="0.978" transform="translate(112.704 33.537)" fill="#b2c3fb"/><circle cx="0.978" cy="0.978" r="0.978" transform="translate(115.684 33.537)" fill="#b2c3fb"/><rect width="5.997" height="8.321" transform="translate(110.927 39.747)" fill="#d8dfff"/><line x2="8.132" transform="translate(119.004 39.747)" fill="none" stroke="#b2c3fb" stroke-linecap="round" stroke-linejoin="round" stroke-width="0.314"/><line x2="16.21" transform="translate(110.927 52.633)" fill="none" stroke="#b2c3fb" stroke-linecap="round" stroke-linejoin="round" stroke-width="0.314"/><line x2="16.21" transform="translate(110.927 56.928)" fill="none" stroke="#b2c3fb" stroke-linecap="round" stroke-linejoin="round" stroke-width="0.314"/><line x2="8.132" transform="translate(119.004 44.042)" fill="none" stroke="#b2c3fb" stroke-linecap="round" stroke-linejoin="round" stroke-width="0.314"/><line x2="8.132" transform="translate(119.004 48.337)" fill="none" stroke="#b2c3fb" stroke-linecap="round" stroke-linejoin="round" stroke-width="0.314"/></g></g></svg>