<svg xmlns="http://www.w3.org/2000/svg" width="79.044" height="75.331" viewBox="0 0 79.044 75.331"><g transform="translate(0 -2)"><path d="M2.665,31.634a29.641,29.641,0,0,0,59.283.023v-.015a29.641,29.641,0,0,0-59.283-.008Z" transform="translate(-0.187 0)" fill="#fff"/><path d="M54.453,16.6h2.47v7.41h-2.47Z" transform="translate(-3.816 -1.023)" fill="#bcc0c4"/><path d="M51.8,19.258h7.41v2.47H51.8Zm19.761,0h2.47v7.41h-2.47Z" transform="translate(-3.629 -1.209)" fill="#bcc0c4"/><path d="M69.84,20.712h7.41v2.47H69.84ZM62.422,4.648h2.47v7.41h-2.47Z" transform="translate(-4.374 -0.186)" fill="#bcc0c4"/><path d="M59.774,7.313h7.41v2.47h-7.41Z" transform="translate(-4.188 -0.372)" fill="#bcc0c4"/><path d="M67.928,80.352H74.1v2.47H67.928Zm8.645,0h2.47v2.47h-2.47ZM0,80.352H2.47v2.47H0Z" transform="translate(0 -5.49)" fill="#2a5082"/><path d="M46.484,36.532H57.6V73.584H46.484V36.532Z" transform="translate(-3.257 -2.42)" fill="#a3d4ff"/><path d="M58.75,74.726H45.165V35.2H58.75ZM47.6,72.255h8.669v-34.6H47.635Z" transform="translate(-3.165 -2.327)" fill="#2a5082"/><path d="M11.953,17.938H23.069V72.281H11.953Z" transform="translate(-0.838 -1.117)" fill="#a3d4ff"/><path d="M24.21,73.42H10.617V16.577H24.21ZM13.071,70.95h8.692V19.07H13.1l-.031,51.88Z" transform="translate(-0.744 -1.021)" fill="#2a5082"/><path d="M29.219,48.477H40.334V74.413H29.219Z" transform="translate(-2.047 -3.257)" fill="#e9eaeb"/><path d="M41.476,75.563H27.891V47.157H41.476Zm-11.139-2.47h8.669V49.635H30.361Z" transform="translate(-1.954 -3.164)" fill="#2a5082"/><path d="M63.75,53.8H74.866v21H63.75Z" transform="translate(-4.467 -3.629)" fill="#e9eaeb"/><path d="M72.014,75.936H58.42V52.478H72.006V75.936Zm-11.146-2.47h8.645V54.932H60.89l-.023,18.534ZM5.313,78.4H65.831v2.47H5.313Z" transform="translate(-0.372 -3.537)" fill="#2a5082"/></g></svg>