<svg xmlns="http://www.w3.org/2000/svg" width="24.742" height="21.649" viewBox="0 0 24.742 21.649"><defs><style>.a{fill:#3258e5;}</style></defs><path class="a" d="M198.78,519.025l-3.317-1.368a.783.783,0,1,0-.575,1.456l1.634.662-1.634.75a.773.773,0,0,0-.4,1.016.786.786,0,0,0,.706.436.42.42,0,0,0,.309-.088l3.273-1.495a.786.786,0,0,0,.441-.706A.7.7,0,0,0,198.78,519.025Zm-7.51-3.09a.773.773,0,0,0-.972.485l-1.675,5.121a.773.773,0,0,0,.484.972.477.477,0,0,0,.222.044.861.861,0,0,0,.75-.531l1.678-5.119A.773.773,0,0,0,191.27,515.934Zm-5.162,2.175a.82.82,0,0,0-1.015-.441l-3.322,1.356a.827.827,0,0,0-.485.706.773.773,0,0,0,.454.7l3.265,1.5a.818.818,0,0,0,.309.088.786.786,0,0,0,.706-.441.773.773,0,0,0-.4-1.016l-1.634-.75,1.634-.662A.808.808,0,0,0,186.108,518.11Z" transform="translate(-177.904 -504.966)"/><path class="a" d="M78.538,115.324a1.546,1.546,0,0,1,1.546,1.546v15.464a1.546,1.546,0,0,1-1.546,1.546H59.982a1.546,1.546,0,0,1-1.546-1.546V116.871a1.546,1.546,0,0,1,1.546-1.546H78.538m0-1.546H59.982a3.093,3.093,0,0,0-3.093,3.093v15.464a3.093,3.093,0,0,0,3.093,3.093H78.538a3.093,3.093,0,0,0,3.093-3.093V116.871A3.093,3.093,0,0,0,78.538,113.778Z" transform="translate(-56.889 -113.778)"/><path class="a" d="M81.631,365.321H56.889v1.546H81.631Z" transform="translate(-56.889 -358.483)"/><path class="a" d="M183.489,232.034m-1.16,0a1.16,1.16,0,1,0,1.16-1.16A1.16,1.16,0,0,0,182.329,232.034Z" transform="translate(-178.919 -227.691)"/><path class="a" d="M315.945,232.034m-1.16,0a1.16,1.16,0,1,0,1.16-1.16A1.16,1.16,0,0,0,314.785,232.034Z" transform="translate(-307.775 -227.691)"/><path class="a" d="M448.4,232.034m-1.16,0a1.16,1.16,0,1,0,1.16-1.16A1.16,1.16,0,0,0,447.241,232.034Z" transform="translate(-436.631 -227.691)"/></svg>