<svg xmlns="http://www.w3.org/2000/svg" width="45.565" height="45.565" viewBox="0 0 45.565 45.565"><defs><style>.a{fill:#ff7e00;}.b{fill:#0c2d63;}</style></defs><g transform="translate(-93.866 -93.866)"><path class="a" d="M431.466,441.892h-3.72a.7.7,0,1,1,0-1.395h3.72a.7.7,0,1,1,0,1.395Zm-8.369,0a.7.7,0,0,1-.7-.7v-3.72a.7.7,0,1,1,1.395,0v3.72A.7.7,0,0,1,423.1,441.892Zm8.369-4.649a.7.7,0,0,1-.7-.7v-3.72a.7.7,0,0,1,1.395,0v3.72A.7.7,0,0,1,431.466,437.242Zm-4.649-3.72H423.1a.7.7,0,1,1,0-1.395h3.72a.7.7,0,1,1,0,1.395Z" transform="translate(-310.633 -319.831)"/><path class="b" d="M129.2,300.417v-15.1a3.72,3.72,0,0,0-3.72-3.72h-27.9a3.72,3.72,0,0,0-3.72,3.72v27.9a3.72,3.72,0,0,0,3.72,3.72h27.9a3.72,3.72,0,1,0,0-7.439v3.72h-27.9v-27.9h27.9v11.391a3.72,3.72,0,0,0,3.72,3.72Z" transform="translate(0 -177.505)"/><path class="a" d="M281.6,110.386v15.1a3.72,3.72,0,0,0,3.72,3.72h27.9a3.72,3.72,0,0,0,3.72-3.72v-27.9a3.72,3.72,0,0,0-3.72-3.72h-27.9a3.72,3.72,0,0,0,0,7.439v-3.72h27.9v27.9h-27.9V114.105a3.72,3.72,0,0,0-3.72-3.72Z" transform="translate(-177.505)"/></g></svg>