<svg xmlns="http://www.w3.org/2000/svg" width="60" height="61.533" viewBox="0 0 60 61.533"><defs><style>.a{fill:#0c2d63;}.b{fill:#ff7e00;}</style></defs><g transform="translate(-31.555 -19.2)"><path class="a" d="M48,47.663H42.429a5.663,5.663,0,1,0,.069,4.262H48a14.271,14.271,0,0,1,0-4.262ZM37.213,51.285a1.406,1.406,0,1,1,1.008-.4,1.406,1.406,0,0,1-1.008.4Zm48.679-7.074a5.668,5.668,0,0,0-5.215,3.452h-4.9a14.293,14.293,0,0,1,0,4.262h4.837a5.663,5.663,0,1,0,5.279-7.714Zm0,7.074a1.406,1.406,0,1,1,1.4-1.406,1.406,1.406,0,0,1-1.4,1.406ZM64.606,69.813V63.58a13.851,13.851,0,0,1-2.722.266,13.316,13.316,0,0,1-1.54-.085v6.052a5.668,5.668,0,1,0,4.262,0Zm-2.131,6.654a1.406,1.406,0,1,1,1.406-1.406A1.406,1.406,0,0,1,62.475,76.466Zm0-57.267a5.663,5.663,0,0,0-2.131,10.915v5.716a13.361,13.361,0,0,1,1.54-.085,13.85,13.85,0,0,1,2.722.266v-5.9A5.663,5.663,0,0,0,62.475,19.2Zm0,7.074a1.406,1.406,0,1,1,1.406-1.406A1.406,1.406,0,0,1,62.475,26.274Zm-13,38.536,3.867-3.873a13.813,13.813,0,0,1-2.951-3.074L46.461,61.8l-.059.069a5.668,5.668,0,1,0,3.543,5.247,5.588,5.588,0,0,0-.485-2.285Zm-4.2,3.3a.994.994,0,1,1,.005,0ZM82.707,28.687a5.668,5.668,0,0,0-9.269,6.132l-3.489,3.489a25.882,25.882,0,0,1,3.079,2.951l3.383-3.383a5.668,5.668,0,0,0,6.3-9.189Zm-3.01,5A1.406,1.406,0,0,1,77.71,31.7a1.385,1.385,0,0,1,.991-.416,1.406,1.406,0,0,1,1,2.4Zm4.262,29.358a5.668,5.668,0,0,0-6.217-1.215l-4.2-4.2a14.191,14.191,0,0,1-2.893,3.132l4.086,4.086a5.663,5.663,0,1,0,9.221-1.806Zm-3.015,5a1.433,1.433,0,0,1-1.987,0,1.412,1.412,0,0,1,1-2.4,1.385,1.385,0,0,1,.991.416A1.412,1.412,0,0,1,80.944,68.049ZM49.679,33.769a5.673,5.673,0,1,0-3.015,3.01l4.262,4.262a13.952,13.952,0,0,1,3.132-2.893Zm-4.224-1.215a.994.994,0,1,0-.005,0Z" transform="translate(0)"/><path class="b" d="M325.154,298.049a16.321,16.321,0,0,0-6.744-10.836,16.155,16.155,0,0,0-9.342-2.968,15.481,15.481,0,0,0-1.783.1,16.278,16.278,0,0,0,0,32.352,15.42,15.42,0,0,0,1.783.1,16.307,16.307,0,0,0,16.087-13.81,16.556,16.556,0,0,0,0-4.936Zm-16.087,13.81A11.342,11.342,0,1,1,320.4,300.517a11.342,11.342,0,0,1-11.329,11.341Z" transform="translate(-247.229 -250.701)"/><path class="b" d="M436.679,433.775a4.48,4.48,0,0,1-2.789-1.117.927.927,0,0,0-1.234,1.382,6.282,6.282,0,0,0,3.949,1.58h.031a.926.926,0,0,0,.037-1.851Zm5.553-5.375a.926.926,0,0,0-.926.926,4.449,4.449,0,0,1-1.018,2.826.938.938,0,0,0,.13,1.308.926.926,0,0,0,1.3-.13,6.306,6.306,0,0,0,1.438-4,.925.925,0,0,0-.95-.926Zm-8.639-3.449a.926.926,0,0,0-1.308.031,6.281,6.281,0,0,0-1.728,3.887.919.919,0,0,0,.858.987h.093a.919.919,0,0,0,.919-.858,4.437,4.437,0,0,1,1.234-2.746A.932.932,0,0,0,433.594,424.951Zm7.756,0a6.294,6.294,0,0,0-3.826-1.851.931.931,0,1,0-.2,1.851,4.461,4.461,0,0,1,2.7,1.314.914.914,0,0,0,.666.284.932.932,0,0,0,.617-.265.919.919,0,0,0,.043-1.351Z" transform="translate(-374.965 -379.532)"/></g></svg>