<svg xmlns="http://www.w3.org/2000/svg" width="51.6" height="61.021" viewBox="0 0 51.6 61.021"><path d="M557.385,56.255a1.28,1.28,0,0,1-.942-.423,1.248,1.248,0,0,1-.2-1.1,1.34,1.34,0,0,1,1.15-1.109,1.853,1.853,0,0,1,.411-.018c0-.006,0-.012-.006-.012a1.448,1.448,0,0,1,.107-1.264,1.077,1.077,0,0,1,.912-.447,1.551,1.551,0,0,1,.906.423,1.879,1.879,0,0,1,.745-.787,1.665,1.665,0,0,1,2.223.924,1.76,1.76,0,0,1-.042,1,1.811,1.811,0,0,1,1.347.1,1.356,1.356,0,0,1,.6,1.27,1.3,1.3,0,0,1-1.246,1.436h-5.966Zm0-.763h5.96c.143-.006.483-.083.483-.674,0-.322-.078-.53-.221-.614-.364-.221-1.21.1-1.556.28l-.483-.566a1.8,1.8,0,0,0,.393-1.258.756.756,0,0,0-.513-.459.7.7,0,0,0-.62,0,1.551,1.551,0,0,0-.6.912l-.685.125c-.131-.185-.483-.578-.757-.59-.042-.006-.143-.006-.286.167a.8.8,0,0,0,.012.477,1.377,1.377,0,0,0,.232.513.607.607,0,0,1,.3.221l-.03.435-.465.119a.752.752,0,0,1-.2-.1,1.613,1.613,0,0,0-1.049-.03.553.553,0,0,0-.316.453.59.59,0,0,0,.042.453A.564.564,0,0,0,557.385,55.492Z" transform="translate(-527.773 -48.304)" fill="#3258e5"/><path d="M332.779,451.438V453.6a.225.225,0,0,0,.238.238h.96a.225.225,0,0,0,.238-.238v-2.164a.225.225,0,0,0-.238-.238h-.96A.225.225,0,0,0,332.779,451.438Zm.483.238h.483v1.681h-.483Zm.721,3.606h-.96a.225.225,0,0,0-.238.238v2.164a.225.225,0,0,0,.238.238h.96a.225.225,0,0,0,.238-.238v-2.164A.225.225,0,0,0,333.983,455.283Zm-.244,2.158h-.483V455.76h.483Zm.244,2.164h-.96a.225.225,0,0,0-.238.238v2.164a.225.225,0,0,0,.238.238h.96a.225.225,0,0,0,.238-.238v-2.164A.225.225,0,0,0,333.983,459.6Zm-.244,2.158h-.483v-1.681h.483Zm.244,1.919h-.96a.225.225,0,0,0-.238.238v2.164a.225.225,0,0,0,.238.238h.96a.225.225,0,0,0,.238-.238v-2.164A.228.228,0,0,0,333.983,463.681Zm-.244,2.164h-.483v-1.681h.483Zm-3.838,6h.721v.483H329.9v-.483Zm1.2,0h1.2v.483h-1.2Zm1.681,0h.721v.483h-.721Zm1.2,0h1.2v.483h-1.2Zm1.681,0h.721v.483h-.721Zm1.2,0h.483v.483h-.483Zm6.485-4.56a.96.96,0,1,0-.96-.96A.963.963,0,0,0,343.346,467.287Zm0-1.442a.483.483,0,1,1-.483.483A.485.485,0,0,1,343.346,465.844Zm14.883,1.442a.96.96,0,1,0-.96-.96A.963.963,0,0,0,358.229,467.287Zm0-1.442a.483.483,0,1,1-.483.483A.485.485,0,0,1,358.229,465.844Zm-7.319-5.281a1.8,1.8,0,1,0,1.8,1.8A1.814,1.814,0,0,0,350.91,460.564Zm0,3.117a1.323,1.323,0,1,1,1.323-1.323A1.336,1.336,0,0,1,350.91,463.681Zm0,0" transform="translate(-314.956 -424.307)" fill="#3258e5"/><path d="M273.613,43.218h-.721v-2.64h.238a.225.225,0,0,0,.238-.238V38.9a.225.225,0,0,0-.238-.238H267.85a.225.225,0,0,0-.238.238v1.442a.225.225,0,0,0,.238.238h.238V41.3h-1.681v-.96a.225.225,0,0,0-.238-.238h-.238V34.576a.225.225,0,0,0-.238-.238h-1.031c-.143-.435-.6-1.466-1.371-1.657V31.7h-.483v.983c-.793.191-1.222,1.222-1.371,1.657h-.793a.225.225,0,0,0-.238.238V40.1h-.238a.225.225,0,0,0-.238.238v.96h-1.919v-.721h.238a.225.225,0,0,0,.238-.238V38.9a.225.225,0,0,0-.238-.238h-5.281a.225.225,0,0,0-.238.238v1.442a.225.225,0,0,0,.238.238h.238v2.64h-.721a.225.225,0,0,0-.238.238v1.919a.225.225,0,0,0,.238.238h.96V58.053l-.936-1.7a1.814,1.814,0,0,0,.215-.888,1.93,1.93,0,0,0-1.752-1.919L249.5,50.853a4.616,4.616,0,0,0,1.055-2.95,4.692,4.692,0,0,0-2.879-4.321V25.093a4.671,4.671,0,0,0-.817-8.881l-.238-6.264a1.791,1.791,0,0,0-.119-3.314l-.262-6.4A.256.256,0,0,0,246.005,0a.22.22,0,0,0-.238.215l-.387,6.342a1.8,1.8,0,0,0-.2,3.385l-.381,6.264a4.677,4.677,0,0,0-.96,8.762V43.7a4.678,4.678,0,0,0-1.729,6.985l-1.585,2.879a1.93,1.93,0,0,0-1.752,1.919,1.88,1.88,0,0,0,.215.888l-2.354,4.3a.217.217,0,0,0,0,.238.25.25,0,0,0,.215.119h1.919a.25.25,0,0,0,.215-.119l1.872-3.481a1.93,1.93,0,0,0,1.752-1.919,1.976,1.976,0,0,0-.215-.912l1.347-2.5a5.36,5.36,0,0,0,1.031.381v2.664a1.8,1.8,0,0,0,0,2.885v2.712a.225.225,0,0,0,.238.238H246.7a.225.225,0,0,0,.238-.238v-2.76a1.8,1.8,0,0,0,0-2.885V52.427a4.982,4.982,0,0,0,.84-.286l1.3,2.4a1.907,1.907,0,0,0-.215.912,1.93,1.93,0,0,0,1.752,1.919l1.872,3.481a.25.25,0,0,0,.215.119h19.687a.225.225,0,0,0,.238-.238V45.62h.96a.225.225,0,0,0,.238-.238V43.463a.194.194,0,0,0-.209-.244Zm-5.525-4.083h4.8v.96h-4.8Zm4.321,1.442v2.64h-3.838v-2.64Zm-11.521-5.764h.721a.287.287,0,0,0,.238-.167c.119-.405.578-1.514,1.2-1.514.65,0,1.079,1.079,1.2,1.514a.237.237,0,0,0,.238.167h.96V35.3h-4.56v-.483Zm0,.96h4.56V40.1h-4.56Zm-.483,4.8h5.525V41.3h-5.525Zm-.238,1.2h7.921v1.442H258V41.776Zm-6.962-2.64h4.8v.96h-4.8Zm4.321,1.442v2.64h-3.844v-2.64ZM245.952,5.066,246,6.485h-.143Zm-1.389,3.219a1.323,1.323,0,1,1,1.323,1.323A1.336,1.336,0,0,1,244.563,8.285Zm1.824,7.826a3.564,3.564,0,0,0-.507-.024,4.824,4.824,0,0,0-.578.048l.358-6.05c.072,0,.143.024.215.024a.894.894,0,0,0,.262-.024Zm-3.678,1.9h4.733v-.483h-4.226a4.153,4.153,0,0,1,2.664-.96,4.208,4.208,0,0,1,4.059,3.123h-8.118A4.474,4.474,0,0,1,242.709,18.006Zm-.817,4.083h6.985v-.483h-7.1a3.781,3.781,0,0,1-.048-1.442h8.309a4.654,4.654,0,0,1,.048.6,4.163,4.163,0,0,1-1.276,3h-4.25v.483h3.672a4.194,4.194,0,0,1-6.336-2.164ZM247.2,25.26V43.409a4.736,4.736,0,0,0-2.885.072V25.164a4.768,4.768,0,0,0,1.562.262,4.036,4.036,0,0,0,1.323-.167ZM245.88,43.7a4.182,4.182,0,0,1,3.791,2.4h-7.581A4.182,4.182,0,0,1,245.88,43.7Zm-4.2,4.2a4.052,4.052,0,0,1,.215-1.323h7.969a4.025,4.025,0,0,1,.215,1.323,3.932,3.932,0,0,1-.143,1.079h-8.112A3.964,3.964,0,0,1,241.678,47.9Zm-3.022,12.6h-1.371l2.038-3.719a1.86,1.86,0,0,0,1.031.578Zm2.062-3.6a1.442,1.442,0,1,1,1.442-1.442A1.447,1.447,0,0,1,240.719,56.9Zm1.395-2.76a1.827,1.827,0,0,0-1.031-.554l1.371-2.5a5.409,5.409,0,0,0,.888.769Zm4.369,6.36h-1.2V58.244a1.658,1.658,0,0,0,.6.1,2.491,2.491,0,0,0,.6-.1V60.5Zm.721-3.958a1.323,1.323,0,1,1-1.323-1.323A1.336,1.336,0,0,1,247.2,56.545Zm-1.925-1.7V52.534a5.118,5.118,0,0,0,.6.048,5.222,5.222,0,0,0,.6-.048v2.307a1.657,1.657,0,0,0-.6-.1A2.491,2.491,0,0,0,245.278,54.841Zm.6-2.742a4.2,4.2,0,0,1-3.892-2.64H249.8a4.6,4.6,0,0,1-.817,1.3l-.048.024v.024A4.237,4.237,0,0,1,245.88,52.1Zm2.354-.167a5.3,5.3,0,0,0,.936-.7l1.276,2.354a1.869,1.869,0,0,0-1.031.554l-1.18-2.211Zm1.127,3.528A1.442,1.442,0,1,1,250.8,56.9,1.447,1.447,0,0,1,249.361,55.461Zm4.321,5.042h-.817l-1.7-3.147a1.825,1.825,0,0,0,1.031-.578l1.246,2.283.793,1.442Zm2.4,0h-1.3l-.864-1.585v-2.5h2.164Zm3.362,0h-2.879V56.42h2.879Zm3.362,0h-2.879V56.42h2.879Zm3.362,0H263.29V56.42h2.879Zm3.362,0h-2.879V56.42h2.879Zm2.64,0h-2.164V56.42h2.164Zm0-4.56H253.927V45.62h18.25V55.943Zm1.2-10.806H252.723V43.7h20.646v1.442Zm0,0" transform="translate(-227.217)" fill="#3258e5"/><path d="M543.638,782.381h1.681a.225.225,0,0,0,.238-.239v-8.4a.225.225,0,0,0-.238-.238h-1.681a.225.225,0,0,0-.238.238v8.4A.225.225,0,0,0,543.638,782.381Zm.238-8.4h1.2V781.9h-1.2Zm3.123,8.4h1.681a.225.225,0,0,0,.238-.239v-8.4a.225.225,0,0,0-.238-.238H547a.225.225,0,0,0-.238.238v8.4A.225.225,0,0,0,547,782.381Zm.238-8.4h1.2V781.9h-1.2v-7.921Zm3.362,8.4h1.681a.225.225,0,0,0,.238-.239v-8.4a.225.225,0,0,0-.238-.238H550.6a.225.225,0,0,0-.238.238v8.4A.225.225,0,0,0,550.6,782.381Zm.244-8.4h1.2V781.9h-1.2Zm3.356,8.4h1.681a.225.225,0,0,0,.238-.239v-8.4a.225.225,0,0,0-.238-.238H554.2a.225.225,0,0,0-.239.238v8.4A.225.225,0,0,0,554.2,782.381Zm.244-8.4h1.2V781.9h-1.2Zm3.362,8.4h1.681a.225.225,0,0,0,.239-.239v-8.4a.225.225,0,0,0-.239-.238h-1.681a.225.225,0,0,0-.238.238v8.4A.222.222,0,0,0,557.806,782.381Zm.238-8.4h1.2V781.9h-1.2Zm0,0" transform="translate(-515.731 -727.397)" fill="#3258e5"/><path d="M84.567,571.011H80.181L80,570.963a1.47,1.47,0,0,1-.781-1.627,1.35,1.35,0,0,1,.709-.882,1.935,1.935,0,0,1,1.061-.137,1.605,1.605,0,0,1,.018-.632,1.2,1.2,0,0,1,1.27-.894,1.641,1.641,0,0,1,1.27.507,2.081,2.081,0,0,1,.483,1.162,1.552,1.552,0,0,1,1.138.137.858.858,0,0,1,.358.745c0,1.436-.787,1.639-.876,1.663Zm-4.28-.763H84.5c.048-.036.262-.226.262-.906,0-.06-.012-.1-.03-.113a1.474,1.474,0,0,0-.936.1l-.513-.393a1.661,1.661,0,0,0-.3-1.115.891.891,0,0,0-.691-.256h-.006c-.387,0-.489.167-.53.292a.835.835,0,0,0,.143.721l-.34.685a1.954,1.954,0,0,0-1.305-.107.583.583,0,0,0-.3.4A.7.7,0,0,0,80.288,570.248Z" transform="translate(-79.172 -533.008)" fill="#3258e5"/><path d="M843.767,412.326h-4.387l-.179-.048a1.475,1.475,0,0,1-.781-1.633,1.35,1.35,0,0,1,.709-.882,1.935,1.935,0,0,1,1.061-.137,1.6,1.6,0,0,1,.018-.632,1.2,1.2,0,0,1,1.27-.894,1.622,1.622,0,0,1,1.269.507,2.081,2.081,0,0,1,.483,1.162,1.533,1.533,0,0,1,1.133.137.858.858,0,0,1,.358.745c0,1.436-.787,1.645-.876,1.663Zm-4.273-.763H843.7c.048-.036.262-.227.262-.906,0-.06-.012-.1-.03-.113a1.473,1.473,0,0,0-.936.1l-.513-.393a1.661,1.661,0,0,0-.3-1.115.93.93,0,0,0-.7-.262c-.387,0-.489.167-.524.292a.835.835,0,0,0,.143.721l-.334.685a1.954,1.954,0,0,0-1.305-.107.583.583,0,0,0-.3.4A.667.667,0,0,0,839.494,411.563Z" transform="translate(-793.121 -383.776)" fill="#3258e5"/></svg>