<svg xmlns="http://www.w3.org/2000/svg" width="1920" height="1000" viewBox="0 0 1920 1000"><defs><style>.a{fill:#3258e5;}.b{fill:#5e7ef6;opacity:0.2;}</style></defs><g transform="translate(0 -5223)"><rect class="a" width="1920" height="1000" transform="translate(0 5223)"/><path class="b" d="M387.829,1054.117V216.92q23.046,1.654,45.821,5.249A625.554,625.554,0,0,1,559.4,256.183C669.3,298.247,768.7,369.419,851.258,454.236c55.58,57.215,104.685,120.907,164.541,173.658,136.247,120.341,313.8,180.071,455.962,292.678,39.767,31.512,72.2,78.851,95.987,133.545Z" transform="translate(-387.829 5168.883)"/><path class="b" d="M2113.676,729.17a392.338,392.338,0,0,1-55.59-59.9c-44.486-58.913-73.709-129.822-89.432-202.389-10.549-48.915-15.5-99.122-29.807-147.084-28.2-94.91-88.149-175.857-128.458-265.682h497.44v756.8C2237.239,806.358,2167.558,775.983,2113.676,729.17Z" transform="translate(-387.829 5168.883)"/><path class="b" d="M2226.591,699.133a392.4,392.4,0,0,1-62.475-52.677c-51.334-53.052-88.981-119.872-113.431-189.981-16.431-47.265-27.463-96.5-47.509-142.356-41.413-95.028-115.511-170.635-166.936-260h471.589V739.4A344.3,344.3,0,0,1,2226.591,699.133Z" transform="translate(-387.829 5168.883)"/></g></svg>