<svg xmlns="http://www.w3.org/2000/svg" width="29.64" height="48.485" viewBox="0 0 29.64 48.485"><defs><style>.a{fill:#b6cdf0;}</style></defs><path class="a" d="M202.4,45.993a.183.183,0,0,0-.194-.194h-.578V44.26a.183.183,0,0,0-.194-.194h-.961V38.3h-.383v5.771h-.961a.183.183,0,0,0-.194.194V45.8h-.578a.183.183,0,0,0-.194.194v1.539h-3.655V46a.183.183,0,0,0-.194-.194h-.578V44.265a.183.183,0,0,0-.194-.194h-.961V38.3H192.2v5.771h-.961a.183.183,0,0,0-.194.194V45.8h-.578a.183.183,0,0,0-.194.194V72.369l-2.923-3.426a.214.214,0,0,0-.154-.06.18.18,0,0,0-.154.075l-14.236,17.5a.2.2,0,0,0-.02.209.215.215,0,0,0,.174.115H202.2a.193.193,0,0,0,.174-.115.113.113,0,0,0,.02-.075v-40.6Zm-3.082-1.539h1.922V45.8h-1.922Zm-.767,1.733h3.461V86.063l-1.21-1.4h.06V47.726a.183.183,0,0,0-.194-.194h-2.116Zm-6.349,13.464h8.271v1.155h-8.271Zm3.077-1.155V49.265H197.2v10h-1.922Zm-3.077,2.694h8.271v1.155h-8.271Zm0,1.539h8.271v1.155h-8.271Zm0,1.539h8.271v1.155h-8.271Zm0,1.539h8.271v.772h-8.271Zm0,1.155h8.271v1.155h-8.271Zm0,1.539h8.271v1.155h-8.271V68.5Zm0,1.539h8.271v1.155h-8.271Zm0,1.539h8.271v1.155h-8.271Zm0,1.539h8.271v1.155h-8.271Zm8.271-13.848h-2.883V58.5h2.883Zm-2.883-1.155V56.958h2.883v1.155h-2.883Zm0-1.539V55.419h2.883v1.155Zm0-1.539V53.881h2.883v1.155Zm0-1.539V52.342h2.883V53.5Zm0-1.539V50.8h2.883v1.155Zm0-1.539V49.265h2.883V50.42Zm2.883-1.539h-8.271V47.92h8.271Zm-8.271.383H194.9V50.42h-2.694ZM194.9,50.8v1.155h-2.694V50.8Zm0,1.539V53.5h-2.694V52.342Zm0,1.539v1.155h-2.694V53.881Zm0,1.539v1.155h-2.694V55.419Zm0,1.539v1.155h-2.694V56.958Zm0,1.539v.772h-2.694V58.5Zm5.577,16.158V75.81h-7.25l-.981-1.155h8.231Zm0,1.539v1.155h-5.926l-.981-1.155Zm0,1.539v1.155H195.86l-.981-1.155Zm0,1.544v1.155h-3.291l-.981-1.155Zm0,1.539V81.97h-1.982l-.981-1.155Zm0,1.539v1.922l-1.633-1.922h1.633Zm-9.038-37.9h1.922V45.8h-1.922Zm-.772,28.278V46.187h3.461v1.344h-2.116a.183.183,0,0,0-.194.194V74.177l-1.23-1.444ZM173.373,86.392l13.833-17,4.616,5.388v.095h.075l9.889,11.542H173.373Zm0,0" transform="translate(-172.764 -38.3)"/></svg>