<svg xmlns="http://www.w3.org/2000/svg" width="186.599" height="166.493" viewBox="0 0 186.599 166.493"><defs><style>.a{fill:#e6e6e6;}.b{fill:#ccc;}.c{fill:#0c2d63;}.d{fill:#84b0f2;}.e{fill:#fff;}.f{fill:#ffb8b8;}.g{fill:#3f3d56;}</style></defs><g transform="translate(0 0)"><path class="a" d="M369.425,314.456a1.888,1.888,0,1,0,0,3.775h23.727v-.823a3.534,3.534,0,0,1,1.591-2.952Z" transform="translate(-329.086 -263.191)"/><path class="a" d="M434.951,284.232h-8.022a1.888,1.888,0,1,1,0-3.775h8.022a1.888,1.888,0,1,1,0,3.775Z" transform="translate(-373.022 -237.214)"/><path class="a" d="M283.818,227.232H252.674a1.888,1.888,0,0,1,0-3.775h31.145a1.888,1.888,0,0,1,0,3.775Z" transform="translate(-239.882 -193.663)"/><path class="a" d="M314.185,193.232h-4.011a1.888,1.888,0,0,1,0-3.775h4.011a1.888,1.888,0,0,1,0,3.775Z" transform="translate(-283.815 -167.685)"/><path class="b" d="M367.026,298.977H337.665a4.016,4.016,0,0,1-4.011-4.011V248.522a4.016,4.016,0,0,1,4.011-4.011h46.9a4.016,4.016,0,0,1,4.011,4.011v11.511H388.1V248.522a3.543,3.543,0,0,0-3.539-3.539h-46.9a3.543,3.543,0,0,0-3.539,3.539v46.444a3.543,3.543,0,0,0,3.539,3.539h29.361Z" transform="translate(-303.198 -209.749)"/><path class="b" d="M252.359,209.244h-21.4a4.016,4.016,0,0,1-4.011-4.011V167.468a4.016,4.016,0,0,1,4.011-4.011H269.1a4.016,4.016,0,0,1,4.011,4.011v15.349h-.472V167.468a3.543,3.543,0,0,0-3.539-3.539H230.956a3.543,3.543,0,0,0-3.539,3.539v37.765a3.543,3.543,0,0,0,3.539,3.539h21.4Z" transform="translate(-221.666 -147.82)"/><path class="a" d="M739.536,314.457a3.533,3.533,0,0,1,1.59,2.952v.823h23.727a1.888,1.888,0,0,0,0-3.775Z" transform="translate(-613.313 -263.192)"/><path class="a" d="M747.331,282.345a1.89,1.89,0,0,1,1.888-1.888h8.022a1.888,1.888,0,0,1,0,3.775h-8.022A1.89,1.89,0,0,1,747.331,282.345Z" transform="translate(-619.269 -237.214)"/><path class="a" d="M823.587,225.345a1.89,1.89,0,0,1,1.888-1.888H856.62a1.888,1.888,0,0,1,0,3.775H825.474A1.89,1.89,0,0,1,823.587,225.345Z" transform="translate(-677.533 -193.663)"/><path class="a" d="M881.087,191.345a1.89,1.89,0,0,1,1.888-1.888h4.011a1.888,1.888,0,0,1,0,3.775h-4.011A1.89,1.89,0,0,1,881.087,191.345Z" transform="translate(-721.466 -167.685)"/><path class="b" d="M677.5,298.977h29.361a4.016,4.016,0,0,0,4.011-4.011V248.522a4.016,4.016,0,0,0-4.011-4.011h-46.9a4.016,4.016,0,0,0-4.011,4.011v11.511h.472V248.522a3.543,3.543,0,0,1,3.539-3.539h46.9a3.543,3.543,0,0,1,3.539,3.539v46.444a3.543,3.543,0,0,1-3.539,3.539H677.5Z" transform="translate(-549.445 -209.749)"/><path class="b" d="M820.5,209.244h21.4a4.016,4.016,0,0,0,4.011-4.011V167.468a4.016,4.016,0,0,0-4.011-4.011H803.757a4.016,4.016,0,0,0-4.011,4.011v15.349h.472V167.468a3.543,3.543,0,0,1,3.539-3.539h38.148a3.543,3.543,0,0,1,3.539,3.539v37.765a3.543,3.543,0,0,1-3.539,3.539H820.5Z" transform="translate(-659.317 -147.82)"/><path class="c" d="M534.678,309.967h-56.57a4.019,4.019,0,0,0-4.011,4.011v56.035a4.015,4.015,0,0,0,4.011,4.011h56.57a4.015,4.015,0,0,0,4.011-4.011V313.978A4.015,4.015,0,0,0,534.678,309.967Zm3.539,60.046a3.544,3.544,0,0,1-3.539,3.539h-56.57a3.544,3.544,0,0,1-3.539-3.539V313.978a3.545,3.545,0,0,1,3.539-3.539h56.57a3.544,3.544,0,0,1,3.539,3.539Z" transform="translate(-410.504 -259.761)"/><path class="b" d="M551.525,390.232H503.864a1.888,1.888,0,1,1,0-3.775h47.661a1.888,1.888,0,0,1,0,3.775Z" transform="translate(-431.805 -318.204)"/><path class="d" d="M581.891,356.232H561.364a1.888,1.888,0,1,1,0-3.775h20.527a1.888,1.888,0,0,1,0,3.775Z" transform="translate(-475.738 -292.226)"/><path class="b" d="M523.891,438.232H503.364a1.888,1.888,0,0,1,0-3.775h20.527a1.888,1.888,0,0,1,0,3.775Z" transform="translate(-431.423 -354.878)"/><path class="b" d="M523.891,473.232H503.364a1.888,1.888,0,0,1,0-3.775h20.527a1.888,1.888,0,1,1,0,3.775Z" transform="translate(-431.423 -381.62)"/><path class="b" d="M523.891,508.232H503.364a1.888,1.888,0,0,1,0-3.775h20.527a1.888,1.888,0,1,1,0,3.775Z" transform="translate(-431.423 -408.362)"/><circle class="d" cx="3.522" cy="3.522" r="3.522" transform="translate(114.547 77.927)"/><path class="e" d="M699.63,439.406a.365.365,0,0,1-.22-.073l0,0-.828-.633a.368.368,0,0,1,.448-.584l.536.411,1.267-1.653a.368.368,0,0,1,.516-.068h0l-.008.011.008-.011a.368.368,0,0,1,.068.516l-1.49,1.943a.368.368,0,0,1-.293.143Z" transform="translate(-581.91 -356.612)"/><path class="b" d="M307.057,108.131a5.475,5.475,0,1,1,5.475-5.475A5.475,5.475,0,0,1,307.057,108.131Zm0-10.478a5,5,0,1,0,5,5,5,5,0,0,0-5-5Z" transform="translate(-278.693 -97.181)"/><path class="b" d="M316.826,115.953a.543.543,0,0,1-.327-.109l-.006,0-1.231-.942a.547.547,0,1,1,.666-.868l.8.612,1.885-2.459a.547.547,0,0,1,.767-.1h0l-.012.016.012-.016a.548.548,0,0,1,.1.767l-2.217,2.891a.547.547,0,0,1-.435.213Z" transform="translate(-288.982 -108.479)"/><path class="b" d="M454.253,189.131a5.475,5.475,0,1,1,5.475-5.475A5.475,5.475,0,0,1,454.253,189.131Zm0-10.478a5,5,0,1,0,5,5,5,5,0,0,0-5-5Z" transform="translate(-391.158 -159.07)"/><path class="b" d="M464.022,196.953a.543.543,0,0,1-.327-.109l-.006,0-1.231-.942a.547.547,0,0,1,.666-.868l.8.612,1.885-2.459a.547.547,0,0,1,.767-.1h0l-.012.016.012-.016a.548.548,0,0,1,.1.767l-2.217,2.891a.547.547,0,0,1-.435.213Z" transform="translate(-401.448 -170.368)"/><circle class="d" cx="3.522" cy="3.522" r="3.522" transform="translate(114.547 86.185)"/><path class="e" d="M699.63,474.406a.365.365,0,0,1-.22-.073l0,0-.828-.633a.368.368,0,0,1,.448-.584l.536.411,1.267-1.653a.368.368,0,0,1,.516-.068h0l-.008.011.008-.011a.368.368,0,0,1,.068.516l-1.49,1.943a.368.368,0,0,1-.293.143Z" transform="translate(-581.91 -383.354)"/><circle class="d" cx="3.522" cy="3.522" r="3.522" transform="translate(114.547 94.46)"/><path class="e" d="M699.63,509.477a.366.366,0,0,1-.22-.073l0,0-.828-.633a.368.368,0,1,1,.448-.584l.536.411,1.267-1.653a.368.368,0,0,1,.516-.068h0l-.008.011.008-.011a.368.368,0,0,1,.068.516l-1.49,1.944a.368.368,0,0,1-.293.143Z" transform="translate(-581.91 -410.15)"/><path class="d" d="M593.5,254.131a5.476,5.476,0,0,1-.008-10.95h.008a5.476,5.476,0,0,1,0,10.95Zm0-10.478a5,5,0,1,0,4.929,5,4.816,4.816,0,0,0-4.929-5Z" transform="translate(-497.603 -208.733)"/><path class="d" d="M607.617,259.975c.947,1.645-1.653,2.288-2.647,1.3l.249-.532c1.617,1.4,3.042-1.023.572-.793v-.583c2.262.182.991-2.094-.515-.747l-.244-.532c1.228-1.275,3.985.267,2.039,1.54A.97.97,0,0,1,607.617,259.975Z" transform="translate(-510.498 -219.755)"/><path class="b" d="M734.253,189.131a5.475,5.475,0,1,1,5.475-5.475A5.475,5.475,0,0,1,734.253,189.131Zm0-10.478a5,5,0,1,0,5,5,5,5,0,0,0-5-5Z" transform="translate(-605.093 -159.07)"/><path class="b" d="M748.579,196.087h-.572v.787h-.714v-.787h-1.755v-.544l1.886-2.7h.583v2.673h.572Zm-1.285-.572V193.98l-1.065,1.535Z" transform="translate(-617.899 -170.271)"/><path class="b" d="M879.857,108.131a5.475,5.475,0,1,1,5.475-5.475A5.475,5.475,0,0,1,879.857,108.131Zm0-10.478a5,5,0,1,0,5,5,5,5,0,0,0-5-5Z" transform="translate(-716.343 -97.181)"/><path class="b" d="M893.8,113.363a1.124,1.124,0,0,1,.447.453,1.383,1.383,0,0,1,.159.671,1.336,1.336,0,0,1-.181.7,1.213,1.213,0,0,1-.521.47,1.762,1.762,0,0,1-.787.167,2.268,2.268,0,0,1-.747-.127,1.736,1.736,0,0,1-.606-.343l.243-.532a1.833,1.833,0,0,0,1.121.419.73.73,0,0,0,.575-1.266.758.758,0,0,0-.552-.2,1.145,1.145,0,0,0-.447.088,1.057,1.057,0,0,0-.368.258h-.442v-2.373h2.526v.566h-1.812v1.1a1.252,1.252,0,0,1,.725-.209,1.347,1.347,0,0,1,.668.161Z" transform="translate(-729.47 -108.31)"/><path class="f" d="M352.082,580.208a2.373,2.373,0,0,1,1.576-3.279l.715-8.4,3.44,2.714-1.207,7.562a2.385,2.385,0,0,1-4.525,1.4Z" transform="translate(-317.116 -457.316)"/><path class="d" d="M357.812,504.684a1.061,1.061,0,0,1-.921-1.008l-.4-9.534a21.022,21.022,0,0,1,2.031-9.932l3.532-7.4a3.169,3.169,0,0,1,2.38-1.654,3.039,3.039,0,0,1,2.651.941,3.99,3.99,0,0,1,.454.586,3.049,3.049,0,0,1,.161,2.9l-5.415,14.794-.417,9.638a1.062,1.062,0,0,1-1.186,1.008l-2.857-.341Z" transform="translate(-320.633 -385.952)"/><path class="f" d="M114.63,646.678l2.649,1.163,5.745-9.663-3.909-1.716Z" transform="translate(-87.584 -486.291)"/><path class="c" d="M313.069,772.021l5.216,2.29h0a3.63,3.63,0,0,1,1.865,4.783l-.047.108-8.541-3.749Z" transform="translate(-286.319 -612.795)"/><path class="f" d="M265.34,657.26h2.893l1.376-11.157H265.34Z" transform="translate(-202.734 -493.658)"/><path class="c" d="M466.787,786.569h5.7a3.63,3.63,0,0,1,3.63,3.63v.118h-9.327Z" transform="translate(-404.919 -623.911)"/><path class="c" d="M327.1,592.119a1.068,1.068,0,0,1-.328-.052l-4.9-1.576a1.066,1.066,0,0,1-.69-1.321l16.265-51.794,12.183-2.389.043.07c8.054,13.106,10.743,33.127,12.449,54.34a1.068,1.068,0,0,1-.953,1.142l-5.362.536a1.056,1.056,0,0,1-1.13-.778l-9.818-34.733a.354.354,0,0,0-.667-.047l-16.114,35.96A1.058,1.058,0,0,1,327.1,592.119Z" transform="translate(-293.634 -431.688)"/><circle class="f" cx="5.795" cy="5.795" r="5.795" transform="translate(44.313 73.357)"/><path class="d" d="M377.762,485.463l-.04-.083a29.371,29.371,0,0,1-2.448-12.254,8.413,8.413,0,0,1,8.236-8.089h0a8.4,8.4,0,0,1,8.409,6.795,25.208,25.208,0,0,1-.055,10.693l-.017.073-.074.015Z" transform="translate(-334.985 -378.242)"/><path class="f" d="M483.32,554.933a2.373,2.373,0,0,1-1.9-3.1l-6.675-5.152,4.144-1.422,5.7,5.11a2.386,2.386,0,0,1-1.27,4.564Z" transform="translate(-410.997 -439.537)"/><path class="d" d="M417.531,485.993l-.015-.025-7.037-11.4a3.169,3.169,0,0,1-.1-2.9,3.038,3.038,0,0,1,2.227-1.719h0a3.978,3.978,0,0,1,.738-.064,3.049,3.049,0,0,1,2.528,1.437l9.5,12.565,7.876,5.57a1.062,1.062,0,0,1,.205,1.544l-1.834,2.217a1.058,1.058,0,0,1-1.356.239Z" transform="translate(-361.588 -381.953)"/><path class="c" d="M307.714,399.243a2.253,2.253,0,0,1,2.188-.821,23.478,23.478,0,0,0,2.436.361,3.607,3.607,0,0,0,3.085-4.872c-.787-1.7-2.753-2.445-4.532-3.03-3.729-1.228-8.012-2.407-11.4-.417a7.081,7.081,0,0,0-3.408,6.309c.076,1.566.676,3.176.169,4.66-.585,1.712-2.441,2.631-4.2,3.075-3.075.779-6.316.653-9.41,1.352s-6.264,2.554-7.1,5.614a8.569,8.569,0,0,0,.97,6.03,15.616,15.616,0,0,0,21.786,6.39,19.819,19.819,0,0,0,8.05-9.9,33.134,33.134,0,0,0,1.915-7.278,16.189,16.189,0,0,0-.6-6.955A.639.639,0,0,1,307.714,399.243Z" transform="translate(-258.643 -320.45)"/><path class="g" d="M294.7,801.291h-89.9a.236.236,0,1,1,0-.472h89.9a.236.236,0,0,1,0,.472Z" transform="translate(-204.572 -634.799)"/></g></svg>