<svg xmlns="http://www.w3.org/2000/svg" width="51.8" height="51.263" viewBox="0 0 51.8 51.263"><defs><style>.a{fill:#ff7e00;}.b{fill:#0c2d63;}</style></defs><g transform="translate(-38.997 -43.696)"><path class="a" d="M724.657,55.876c-1.812-.047-2.676-2.046-1.747-3.685q1.868-3.316,3.736-6.651c.934-1.7,1.99-2.228,3.232-1.569,1.364.724,1.579,1.709.668,3.461-1.182,2.279-2.433,4.53-3.62,6.814a2.7,2.7,0,0,1-2.27,1.63Zm6.025,4.339c-1.032,0-1.775-.3-2.083-1.116a2.355,2.355,0,0,1,.514-2.8,20.662,20.662,0,0,1,4.521-2.858,2.159,2.159,0,0,1,3.013,1.06c.644,1.224.079,2.083-.906,2.76-1.182.813-2.405,1.569-3.62,2.335A3.489,3.489,0,0,1,730.682,60.215Z" transform="translate(-646.123)"/><path class="a" d="M128.673,312.423V310.2a.556.556,0,1,1,1.107,0v2.218a.556.556,0,0,1-1.107,0Zm0,5.539v-2.214a.556.556,0,1,1,1.107,0v2.214a.556.556,0,1,1-1.107,0ZM122.6,329.083l2.008-.934a.556.556,0,0,1,.467,1l-2.008.934a.556.556,0,0,1-.467-1Zm-5.021,2.335,2.008-.934a.556.556,0,0,1,.467,1l-2.008.934a.556.556,0,0,1-.467-1Zm-5.021,2.335,2.008-.934a.556.556,0,1,1,.467,1l-2.008.934a.556.556,0,1,1-.467-1Zm22.974-4.671-2.008-.934a.556.556,0,0,0-.467,1l2.008.934a.556.556,0,0,0,.467-1Zm5.021,2.335-2.008-.934a.556.556,0,0,0-.467,1l2.008.934a.556.556,0,0,0,.467-1Zm5.021,2.335-2.008-.934a.556.556,0,1,0-.467,1l2.008.934a.556.556,0,1,0,.467-1Z" transform="translate(-69.186 -251.348)"/><path class="b" d="M60.029,242.7l-12.891,5.885,12.891,5.866,12.909-5.885Zm17.748,7.384L61.7,257.41v18.757l16.067-7.319Zm-35.454,0v18.771l16.067,7.319V257.419Zm17.715,29.985a5.506,5.506,0,0,1-2.3-.5L40.3,271.632a2.218,2.218,0,0,1-1.3-2.018V250a2.223,2.223,0,0,1,1.3-2.018l17.444-7.94a5.539,5.539,0,0,1,4.6,0l17.472,7.94a2.219,2.219,0,0,1,1.3,2.018v19.6a2.218,2.218,0,0,1-1.294,2.018l-17.491,7.968a5.5,5.5,0,0,1-2.293.5Z" transform="translate(0 -185.126)"/></g></svg>