<svg xmlns="http://www.w3.org/2000/svg" width="46.783" height="42.769" viewBox="0 0 46.783 42.769"><defs><style>.a{fill:#ff7e00;}.b{fill:#0c2d63;}</style></defs><g transform="translate(-85.333 -121.941)"><path class="a" d="M263.444,710.411h-9.8v-8.886h-3.268v8.886h-9.8c-.9,0-1.634,1.027-1.634,2.293s.732,2.293,1.634,2.293h22.876c.9,0,1.634-1.027,1.634-2.293s-.732-2.293-1.634-2.293Z" transform="translate(-143.281 -550.287)"/><path class="b" d="M129.309,121.941H88.14a2.726,2.726,0,0,0-2.807,2.636V150.94a2.726,2.726,0,0,0,2.807,2.636h41.169a2.726,2.726,0,0,0,2.807-2.636V124.577a2.726,2.726,0,0,0-2.807-2.636Zm-.936,28.121h-39.3V125.456h39.3Z"/><path class="a" d="M307.214,348.136a.86.86,0,0,1-.619-1.456l3.176-3.308A.86.86,0,0,1,311,344.564l-3.176,3.308a.86.86,0,0,1-.608.264Zm17.268-3.761a.86.86,0,0,1-.573-1.5l3.44-3.067a.86.86,0,0,1,1.147,1.279l-3.44,3.067a.86.86,0,0,1-.573.224Zm-2.591-1.622a.86.86,0,0,1-.573-.218l-3.44-3.039a.878.878,0,1,1,1.147-1.33l3.44,3.039a.86.86,0,0,1-.573,1.548Zm-9.116-.407a.86.86,0,0,1-.631-1.456l3.188-3.3a.86.86,0,0,1,1.238,1.192l-3.176,3.308A.86.86,0,0,1,312.775,342.345Zm17.675-3.337a.86.86,0,0,1-.573-1.5l3.44-3.067a.86.86,0,0,1,1.147,1.278l-3.44,3.067A.86.86,0,0,1,330.45,339.009Z" transform="translate(-211.579 -201.615)"/><path class="a" d="M713.973,290.037m-2.293,0a2.293,2.293,0,1,0,2.293-2.293A2.293,2.293,0,0,0,711.68,290.037Z" transform="translate(-592.681 -156.909)"/></g></svg>