<svg xmlns="http://www.w3.org/2000/svg" width="24.467" height="24.467" viewBox="0 0 24.467 24.467"><defs><style>.a{fill:#757fa2;}</style></defs><path class="a" d="M192.84,170.667a2.294,2.294,0,0,1,2.294,2.294V192.84a2.294,2.294,0,0,1-2.294,2.294H172.961a2.294,2.294,0,0,1-2.294-2.294V172.961a2.294,2.294,0,0,1,2.294-2.294Zm0,2.294H172.961V192.84H192.84Zm-1.529,13.762v2.294H174.49v-2.294Zm-9.94-10.7a2.294,2.294,0,0,1,2.294,2.294v3.823a2.294,2.294,0,0,1-2.294,2.294h-4.587a2.294,2.294,0,0,1-2.294-2.294v-3.823a2.294,2.294,0,0,1,2.294-2.294Zm9.94,6.117v2.294h-6.117v-2.294Zm-9.94-3.823h-4.587v3.823h4.587Z" transform="translate(-170.667 -170.667)"/></svg>