<svg xmlns="http://www.w3.org/2000/svg" xmlns:xlink="http://www.w3.org/1999/xlink" width="44.844" height="42.802" viewBox="0 0 44.844 42.802"><defs><style>.a{fill:url(#a);}</style><linearGradient id="a" x1="1" y1="0.7" x2="0" y2="0.711" gradientUnits="objectBoundingBox"><stop offset="0" stop-color="#d1dce7"/><stop offset="1" stop-color="#b0bdd0"/></linearGradient></defs><path class="a" d="M173.312,248.483a14.6,14.6,0,0,1,7.206,10.659A8.123,8.123,0,0,1,184.3,260.2a18.254,18.254,0,0,0-10.1-15.4c0,.015,0,.035,0,.05A8.086,8.086,0,0,1,173.312,248.483Zm-7.266,27.354a14.561,14.561,0,0,1-8.527-2.777,8.134,8.134,0,0,1-3.358,1.972,18.011,18.011,0,0,0,23.761,0,8.188,8.188,0,0,1-3.358-1.972A14.53,14.53,0,0,1,166.046,275.837Zm-7.261-27.354a8.07,8.07,0,0,1-.891-3.633c0-.015.005-.035.005-.05a18.254,18.254,0,0,0-10.1,15.4,8.065,8.065,0,0,1,3.778-1.056A14.6,14.6,0,0,1,158.785,248.483Z" transform="translate(-143.621 -236.703)"/><path class="a" d="M637.958,539.057a4.9,4.9,0,0,1,4.894-4.894c.1,0,.18.05.28.055.04-.43.13-.841.13-1.281a14.109,14.109,0,0,0-.205-2.017c-.07,0-.135-.02-.205-.02a8.15,8.15,0,0,0-5.74,13.937,14.843,14.843,0,0,0,2.427-2.227A4.839,4.839,0,0,1,637.958,539.057Zm8.873-7.076c.015.325.1.631.1.961a18.24,18.24,0,0,1-.315,3.113,4.784,4.784,0,0,1,1.131,3,4.862,4.862,0,0,1-4.5,4.814,18.191,18.191,0,0,1-2.777,2.943,8.032,8.032,0,0,0,2.387.4,8.129,8.129,0,0,0,3.983-15.228Z" transform="translate(-606.155 -508.486)"/><path class="a" d="M101.387,543.966c-.135.01-.25.08-.39.08a4.835,4.835,0,0,1-3.313-1.336,14.849,14.849,0,0,1-2.427,2.227,8.134,8.134,0,0,0,3.358,1.972A18.825,18.825,0,0,0,101.387,543.966Zm.015-10.929c0,.44-.09.851-.13,1.281a4.781,4.781,0,0,1,3.483,1.832,18.229,18.229,0,0,0,.315-3.113c0-.33-.08-.636-.1-.961a8.064,8.064,0,0,0-3.778-1.056,14.122,14.122,0,0,1,.205,2.017ZM72.067,543.966a4.859,4.859,0,0,1-4.5-4.814,4.783,4.783,0,0,1,1.131-3,18.23,18.23,0,0,1-.315-3.113c0-.33.08-.636.1-.961a8.1,8.1,0,0,0,6.366,14.833A18.824,18.824,0,0,1,72.067,543.966Zm8.542-4.814A7.911,7.911,0,0,0,72.457,531c-.07,0-.135.02-.205.02a14.123,14.123,0,0,0-.205,2.017c0,.44.09.851.13,1.281.1-.005.18-.055.28-.055a4.682,4.682,0,0,1,4.894,4.894,4.845,4.845,0,0,1-1.576,3.553,14.849,14.849,0,0,0,2.427,2.227A8.138,8.138,0,0,0,80.609,539.152Z" transform="translate(-64.3 -508.581)"/><path class="a" d="M153.2,117.125a4.844,4.844,0,0,1-3.313,1.336c-.14,0-.255-.07-.39-.08a18.191,18.191,0,0,0,2.777,2.943,8.189,8.189,0,0,0,3.358-1.972A14.482,14.482,0,0,1,153.2,117.125Zm-7.081-6.561a4.8,4.8,0,0,1,3.483-1.832c-.04-.43-.13-.841-.13-1.281a14.122,14.122,0,0,1,.205-2.017,8.123,8.123,0,0,0-3.778,1.056c-.015.325-.1.631-.1.961A18.179,18.179,0,0,0,146.115,110.564Zm18.031-24.306a4.837,4.837,0,0,1,4.614,3.513A18.446,18.446,0,0,1,172.3,91.1,8.147,8.147,0,0,0,156,91.1a17.882,17.882,0,0,1,3.538-1.331A4.82,4.82,0,0,1,164.146,86.258Zm0,13.041a8.129,8.129,0,0,0,7.266-4.524,14.419,14.419,0,0,0-3.043-1.306,4.758,4.758,0,0,1-8.447,0,14.8,14.8,0,0,0-3.043,1.306A8.125,8.125,0,0,0,164.146,99.3Z" transform="translate(-141.721 -83)"/><path class="a" d="M362.546,219.486a4.736,4.736,0,0,1-.671,2.322,14.8,14.8,0,0,1,3.043,1.306,8.069,8.069,0,0,0,.891-3.633c0-.015,0-.035,0-.05a17.883,17.883,0,0,0-3.538-1.331A4.776,4.776,0,0,1,362.546,219.486Zm-12.156,3.633a14.417,14.417,0,0,1,3.043-1.306,4.022,4.022,0,0,1-.39-3.7,18.447,18.447,0,0,0-3.538,1.331c0,.015,0,.035,0,.05A8.081,8.081,0,0,0,350.391,223.119Z" transform="translate(-335.228 -211.339)"/></svg>