<svg xmlns="http://www.w3.org/2000/svg" xmlns:xlink="http://www.w3.org/1999/xlink" width="46.714" height="42.821" viewBox="0 0 46.714 42.821"><defs><style>.a{fill:url(#a);}</style><linearGradient id="a" x1="1" y1="0.7" x2="0" y2="0.711" gradientUnits="objectBoundingBox"><stop offset="0" stop-color="#d1dce7"/><stop offset="1" stop-color="#b0bdd0"/></linearGradient></defs><path class="a" d="M3.893,73.81H42.817c.012,0,0-27.25,0-27.25H3.9C3.885,46.56,3.893,73.81,3.893,73.81ZM0,46.56a3.886,3.886,0,0,1,3.9-3.893H42.817a3.893,3.893,0,0,1,3.9,3.893V73.81a3.885,3.885,0,0,1-3.9,3.893H3.9A3.893,3.893,0,0,1,0,73.81Z" transform="translate(0 -42.667)"/><path class="a" d="M277.407,269.625c0-.008-19.456,0-19.456,0S277.407,269.625,277.407,269.625Zm-21.407,0a1.958,1.958,0,0,1,1.95-1.946h19.456a1.946,1.946,0,0,1,0,3.893H257.95a1.945,1.945,0,0,1-1.95-1.946Zm13.621-11.679c0-.008-11.671,0-11.671,0s11.671,0,11.671,0Zm-13.621,0A1.958,1.958,0,0,1,257.95,256h11.671a1.946,1.946,0,0,1,0,3.893H257.95a1.945,1.945,0,0,1-1.95-1.946Zm9.732,19.464h3.893v9.732h-3.893Z" transform="translate(-244.321 -246.268)"/><path class="a" d="M298.667,896h19.464v3.893H298.667Z" transform="translate(-285.042 -857.072)"/></svg>