<svg xmlns="http://www.w3.org/2000/svg" xmlns:xlink="http://www.w3.org/1999/xlink" width="37.571" height="46.963" viewBox="0 0 37.571 46.963"><defs><style>.a{fill:url(#a);}</style><linearGradient id="a" x1="1" y1="0.7" x2="0" y2="0.711" gradientUnits="objectBoundingBox"><stop offset="0" stop-color="#d1dce7"/><stop offset="1" stop-color="#b0bdd0"/></linearGradient></defs><path class="a" d="M295.193,289.872a1.565,1.565,0,0,0-2.192.313l-4.7,6.262a1.564,1.564,0,0,0,0,1.879l4.7,6.262a1.565,1.565,0,1,0,2.5-1.879l-3.992-5.322,3.992-5.322A1.565,1.565,0,0,0,295.193,289.872ZM310.535,304.9a1.565,1.565,0,0,0,2.192-.313l4.7-6.262a1.564,1.564,0,0,0,0-1.879l-4.7-6.262a1.565,1.565,0,1,0-2.5,1.879l3.992,5.322-3.992,5.322A1.565,1.565,0,0,0,310.535,304.9ZM302.9,289.219l-3.131,14.089a1.565,1.565,0,1,0,3.056.679l3.131-14.089a1.565,1.565,0,1,0-3.056-.679Z" transform="translate(-280.165 -275.47)"/><path class="a" d="M164,61.566a1.565,1.565,0,0,0-1.565,1.565v3.308h-4.7a4.7,4.7,0,0,0-4.7,4.7v4.7h-20.2a1.764,1.764,0,0,1-1.714-1.806V36.937a1.764,1.764,0,0,1,1.714-1.807h27.879a1.765,1.765,0,0,1,1.716,1.807v6.088a1.565,1.565,0,0,0,3.131,0V36.937A4.9,4.9,0,0,0,160.724,32H132.845A4.9,4.9,0,0,0,128,36.937V74.026a4.9,4.9,0,0,0,4.845,4.937h21.28a1.43,1.43,0,0,0,.216-.044,1.539,1.539,0,0,0,1.271-.319l9.393-7.827a1.565,1.565,0,0,0,.5-1.658,1.416,1.416,0,0,0,.069-.335V63.132A1.565,1.565,0,0,0,164,61.566Zm-6.262,8h3.817l-5.382,4.485v-2.92A1.565,1.565,0,0,1,157.743,69.57Z" transform="translate(-128 -32)"/></svg>