<svg xmlns="http://www.w3.org/2000/svg" width="52" height="41.507" viewBox="0 0 52 41.507"><defs><style>.a{fill:#3258e5;}</style></defs><g transform="translate(-1 0)"><path class="a" d="M64.642,91.115a1.084,1.084,0,0,1-.793-.356,1.055,1.055,0,0,1-.168-.921,1.133,1.133,0,0,1,.966-.936,1.905,1.905,0,0,1,.346-.015c0-.005,0-.005-.005-.01a1.237,1.237,0,0,1,.092-1.063.929.929,0,0,1,.768-.376,1.275,1.275,0,0,1,.763.356,1.583,1.583,0,0,1,.626-.661,1.4,1.4,0,0,1,1.872.778,1.467,1.467,0,0,1-.036.839,1.509,1.509,0,0,1,1.134.086,1.137,1.137,0,0,1,.5,1.068,1.1,1.1,0,0,1-1.048,1.21Zm.005-.646h5.02c.117-.005.407-.066.407-.57,0-.27-.061-.442-.188-.519-.31-.183-1.017.081-1.312.234l-.407-.478a1.518,1.518,0,0,0,.331-1.058.774.774,0,0,0-.956-.387,1.332,1.332,0,0,0-.509.768l-.58.107c-.107-.158-.407-.483-.636-.493-.031,0-.117-.005-.239.142a.668.668,0,0,0,.01.4,1.007,1.007,0,0,0,.2.427.576.576,0,0,1,.259.183l-.025.366-.392.1a.641.641,0,0,1-.168-.081,1.345,1.345,0,0,0-.885-.025.613.613,0,0,0-.234.763A.442.442,0,0,0,64.647,90.469Zm46.069,17.837h-3.692l-.153-.041a1.243,1.243,0,0,1-.661-1.373,1.122,1.122,0,0,1,.6-.743,1.663,1.663,0,0,1,.9-.117,1.347,1.347,0,0,1,.015-.534,1.01,1.01,0,0,1,1.073-.753h.01a1.365,1.365,0,0,1,1.058.427,1.761,1.761,0,0,1,.407.982,1.3,1.3,0,0,1,.956.112.724.724,0,0,1,.3.626c0,1.21-.661,1.383-.737,1.4Zm-3.6-.646h3.545c.041-.031.219-.193.219-.763,0-.051-.01-.086-.025-.1a1.254,1.254,0,0,0-.788.076l-.432-.331a1.393,1.393,0,0,0-.254-.936.749.749,0,0,0-.585-.219h-.005c-.331,0-.412.142-.442.244a.694.694,0,0,0,.122.605l-.285.575a1.656,1.656,0,0,0-1.1-.092.48.48,0,0,0-.254.336A.575.575,0,0,0,107.115,107.659Z" transform="translate(-60.3 -87)"/><path class="a" d="M51.725,187.633H34.672a1.068,1.068,0,0,1-1.022-.768l-1.363-4.684a1.064,1.064,0,0,1,1.022-1.363h5.579v-1.892a51.036,51.036,0,0,0-24.174-.076v1.963h5.579a1.063,1.063,0,0,1,1.022,1.358l-1.358,4.684a1.068,1.068,0,0,1-1.022.768H1.872a1.066,1.066,0,0,1-.732-1.846l2.507-2.34a1.054,1.054,0,0,1,.727-.285h2.06l2.818-2.131a1.061,1.061,0,0,1,.641-.219h2.675v-1.856c-1.765-.778-2.66-1.75-2.66-2.889,0-1.48,1.5-2.675,4.46-3.555v-.565a2.837,2.837,0,0,1-2.273-2.777c0-1.963,2.111-3.581,5.946-4.577v-1.124a2.77,2.77,0,0,1-1.541-2.314,3,3,0,0,1,1.872-2.492.235.235,0,0,1,.1-.066c5.523-2.614,6.266-6.454,6.332-6.886a1.067,1.067,0,0,1,.7-.86v-.473a1.068,1.068,0,0,1,2.136,0v.488a1.047,1.047,0,0,1,.62.641,13.014,13.014,0,0,0,6.022,6.708,7.32,7.32,0,0,1,.778.346.576.576,0,0,1,.122.076,2.98,2.98,0,0,1,1.912,2.518,2.643,2.643,0,0,1-1.3,2.146v1.353c3.733,1,5.706,2.563,5.706,4.511a2.425,2.425,0,0,1-1.928,2.7v.748c2.721.87,4.1,2.029,4.1,3.453,0,1.129-.9,2.1-2.66,2.889V180.8h2.675a1.052,1.052,0,0,1,.636.214l2.823,2.136h2.065a1.048,1.048,0,0,1,.732.29l2.507,2.345a1.07,1.07,0,0,1,.27,1.17A1.089,1.089,0,0,1,51.725,187.633Zm-18.416-6.21a.448.448,0,0,0-.366.183.468.468,0,0,0-.076.407l1.363,4.684a.453.453,0,0,0,.442.331H51.73a.466.466,0,0,0,.432-.29.472.472,0,0,0-.117-.509l-2.512-2.35a.446.446,0,0,0-.315-.122H46.949L43.974,181.5a.472.472,0,0,0-.28-.092h-3.28V178.55l.183-.076c1.643-.7,2.472-1.511,2.472-2.411,0-1.444-2.116-2.4-3.891-2.94l-.214-.066v-1.7l.254-.041a1.864,1.864,0,0,0,1.673-2.151c0-2.243-3.433-3.458-5.483-3.987l-.229-.056.005-2.141.132-.092a2.179,2.179,0,0,0,1.17-1.739c0-.743-.544-1.414-1.612-1.994l-.066-.041a7.809,7.809,0,0,0-.778-.346,13.673,13.673,0,0,1-6.337-7.034.486.486,0,0,0-.4-.336l-.264-.036v-.987a.463.463,0,0,0-.926,0v.992l-.28.02a.461.461,0,0,0-.427.4c-.071.468-.87,4.593-6.683,7.354.02-.005-.005.015-.041.036-1.048.575-1.572,1.236-1.572,1.968a2.349,2.349,0,0,0,1.394,1.882l.147.086v1.938l-.229.056c-2.136.529-5.717,1.76-5.717,4.048a2.275,2.275,0,0,0,2.039,2.248l.234.056v1.49l-.219.061c-1.933.549-4.237,1.526-4.237,3.036,0,.91.834,1.724,2.472,2.411l.188.076V181.4H9.893a.445.445,0,0,0-.28.1l-2.975,2.253H4.38a.426.426,0,0,0-.31.122l-2.512,2.345a.462.462,0,0,0,.32.8H18.941a.464.464,0,0,0,.442-.331L20.741,182a.45.45,0,0,0-.071-.4.477.477,0,0,0-.371-.188h-6.19v-3.031l.229-.056a52.946,52.946,0,0,1,12.186-1.49A52.255,52.255,0,0,1,39.269,178.4l.224.061v2.96ZM50.555,186.1H35.018l-.417-1.419H49.035ZM35.47,185.5H49.024l-.224-.209H35.409Zm-16.886.605H3.052l1.516-1.419H19Zm-14-.605H18.132l.061-.209H4.807Zm40.836-1.739H34.331l-.417-1.419h9.618l1.887,1.419Zm-10.635-.6h8.829l-.28-.208H34.723Zm-15.512.6H8.184l1.882-1.419h9.613Zm-9.282-.605h8.824l.061-.209H10.264Zm30.129-5.483-.1-.031a50.316,50.316,0,0,0-13.391-1.739h-.1a51.191,51.191,0,0,0-12.995,1.673l-.127.061-.142-.051c-1.155-.5-1.816-1.058-1.816-1.536,0-1.449,5.839-3.469,15.344-3.469s15.355,2.019,15.355,3.469c0,.488-.7,1.063-1.928,1.577Zm-13.59-2.375h.1a50.462,50.462,0,0,1,13.463,1.734c1.114-.478,1.434-.885,1.46-.992,0-.651-4.6-2.848-14.749-2.848s-14.739,2.2-14.739,2.863c.02.092.315.468,1.343.931a52.019,52.019,0,0,1,13.127-1.689ZM38.054,172.8l-.371-.086a50.209,50.209,0,0,0-10.869-1.058,51.575,51.575,0,0,0-10.523.977l-.366.081v-.86h-.7l.824-.554c4.664-3.092,17.191-2.762,21.849-.214l.158.086Zm-11.24-1.75a52.134,52.134,0,0,1,10.635.987v-.5c-4.6-2.38-16.346-2.691-20.924.173v.254A53.686,53.686,0,0,1,26.814,171.048Zm-11.342-.463-.112-.015c-1.149-.158-1.729-.636-1.729-1.419,0-1.933,4.638-3.642,10.792-3.972l.32-.015v.437a.213.213,0,0,0,.209.209h3.713a.213.213,0,0,0,.209-.209v-.412l.32.015c6.154.315,10.792,2.014,10.792,3.952,0,.829-.193,1.231-1.282,1.277l-.086.005-.076-.046c-4.76-2.762-17.9-3.169-22.963.137l-.107.056Zm8.692-4.786c-6.393.392-9.928,2.217-9.928,3.352,0,.173,0,.626,1.1.8,5.345-3.382,18.4-2.975,23.421-.132.615-.036.615-.122.615-.666,0-1.139-3.535-2.955-9.933-3.331a.813.813,0,0,1-.778.59H24.947a.822.822,0,0,1-.783-.615Zm4.282-.407h-3.3v-4.364h3.3Zm-2.69-.605h2.085v-3.158H25.756Zm8.514.112-.361-.071a35.017,35.017,0,0,0-4.755-.559l-.285-.015V162.3l.32.02a27.872,27.872,0,0,1,4.852.707l.234.056V164.9Zm-4.8-1.216a35.451,35.451,0,0,1,4.191.488v-.605a27.435,27.435,0,0,0-4.191-.615Zm-9.9,1.165V163.3l.219-.066a24.144,24.144,0,0,1,4.618-.849l.331-.03v1.887l-.285.015a35.313,35.313,0,0,0-4.521.529Zm.605-1.1v.376a36.443,36.443,0,0,1,3.952-.458v-.651a23.632,23.632,0,0,0-3.952.732Zm-.854-1.343-.107-.056c-.763-.392-1.185-.824-1.185-1.21,0-.473.544-.875,1.022-1.134l.107-.056c.1-.051.2-.1.3-.158a18.734,18.734,0,0,1,7.334-1.241,19.74,19.74,0,0,1,6.719.987c.341.163.656.31,1,.448.712.4,1.053.783,1.053,1.155,0,.31-.3.671-.844,1.012l-.112.071-.127-.031a28.609,28.609,0,0,0-5.34-.8l-.285-.015v-.559a.213.213,0,0,0-.209-.209H24.937a.213.213,0,0,0-.209.209v.641l-.351-.005a24.8,24.8,0,0,0-4.949.915Zm-.687-1.272c.02.071.193.315.748.621a25.42,25.42,0,0,1,4.75-.885v-.051a.816.816,0,0,1,.814-.814h3.713a.814.814,0,0,1,.814.8,29.253,29.253,0,0,1,5.035.768,1.188,1.188,0,0,0,.458-.453c-.005,0-.056-.224-.712-.6-.32-.122-.646-.275-.977-.432a19.019,19.019,0,0,0-6.48-.941,17.212,17.212,0,0,0-7.064,1.175c-.092.051-.193.107-.305.158l-.051.056h-.061c-.539.305-.671.534-.682.59Zm3.748-3.169.707-.651a10.53,10.53,0,0,0,3.1-4.8l.061-.219h.676l.076.183a14.92,14.92,0,0,0,3.352,4.822l.666.636-.915-.117a27.229,27.229,0,0,0-6.78.01Zm4.247-4.837a11.108,11.108,0,0,1-2.5,4.008,28.214,28.214,0,0,1,5.2-.005A15.719,15.719,0,0,1,26.636,153.13Z" transform="translate(0.201 -146.132)"/><path class="a" d="M404.065,775.82h-10.03a1.065,1.065,0,0,1-1.027-1.343l1.236-4.684a1.073,1.073,0,0,1,1.027-.793H402.7a1.068,1.068,0,0,1,1.022.768l1.363,4.694a1.054,1.054,0,0,1-.173.941,1.08,1.08,0,0,1-.849.417Zm-8.794-6.22a.458.458,0,0,0-.442.341l-1.236,4.689a.469.469,0,0,0,.081.4.444.444,0,0,0,.366.178h10.03a.446.446,0,0,0,.366-.188.452.452,0,0,0,.071-.4l-1.363-4.689a.464.464,0,0,0-.442-.331Zm8.173,4.684h-8.809l.982-3.769h6.734Zm-8.026-.605h7.222l-.737-2.558h-5.818Z" transform="translate(-372.874 -734.314)"/></g></svg>