<svg xmlns="http://www.w3.org/2000/svg" width="50.021" height="36.102" viewBox="0 0 50.021 36.102"><g transform="translate(0.421 0.102)"><path d="M16.263,119.789c-.058,0,.247-.7,0-1-.116-.14-1.087-.588-1-1,.1-.455.55.073,1,0,.092-.015.889,0,1,0,0,0,0,0,0,0-.053-.184-.237-.71,0-1s-.184-1.01,0-1c.261.015.826.845,1,1a4.261,4.261,0,0,1,1-1c.276-.145-.329-.126,0,0a2.093,2.093,0,0,1,1,1,2.4,2.4,0,0,1,0,1,1.371,1.371,0,0,1,1,0c.2.121,1,.443,1,1a.955.955,0,0,1-1,1Zm0-1h5c.1,0,0,.441,0,0,0-.237.111-.937,0-1a1.167,1.167,0,0,0-1,0h-1c.111-.15,1.092-.68,1-1-.044-.145-.787.082-1,0-.179-.068.131-.068,0,0-.261.136-.966-.14-1,0h0c-.1-.136-.8.01-1,0-.029,0,.107-.131,0,0-.019.024-.048-.2,0,0,.044.184-.053.937,0,1,.111.048-.034-.058,0,0h0c-.053-.015.048.029,0,0a2,2,0,0,0-1,0c-.077.039.044.777,0,1-.024.107-.063-.082,0,0C16.345,118.886,16.253,118.789,16.263,118.789Zm32,12h0c-.276-.145-1.169-.4-1-1a2.867,2.867,0,0,1,1-1c.252-.121-.252-.029,0,0-.024-.145-.034.14,0,0,.048-.194.3-1,1-1h0c.392,0,.772.748,1,1s.971-.247,1,0c.266-.048-.237-.169,0,0,.116.082,1,.714,1,1a.939.939,0,0,1-1,1Zm0,0h3a5.618,5.618,0,0,0,0-1c0-.063,0,0,0,0a2.156,2.156,0,0,0-1,0h0s.257-.719,0-1c-.121-.131-.768,0-1,0h0c-.334,0,.019-.063,0,0-.063.2-.063-.044,0,0v1a1.592,1.592,0,0,0-1,0c-.107.053.039-.136,0,0C48.191,130.036,48.162,130.721,48.263,130.789Zm-42,8h-3c-.271-.145-1.169-.385-1-1a2.679,2.679,0,0,1,1-1,2.249,2.249,0,0,1,1,0c-.024-.155-.039.15,0,0,.107-.416.511-1,1-1,.368,0,.772-.252,1,0s-.034.739,0,1c.261-.048.763-.169,1,0,.121.082,0,.7,0,1a.915.915,0,0,1-1,1Zm-3,0h3c.039-.029,1-.5,1-1,0-.048.015.015,0,0a2.156,2.156,0,0,0-1,0h-1c.015-.145.218-.758,0-1-.121-.131.208,0,0,0-.286,0-.971-.092-1,0-.068.213-.068-.048,0,0v1a1.558,1.558,0,0,0-1,0c-.111.053.039-.15,0,0C3.191,138.046,3.157,138.712,3.263,138.789Z" transform="translate(-2.663 -115.789)" fill="#3258e5"/><path d="M259.449,330.968a2.518,2.518,0,0,1-2-1c-.4-.441-.044-1.317,0-2v-1h1c.7.213.869,1.184,1,1a23.917,23.917,0,0,0,2-4v-1h18c.3,1.036.8,3.608,1,4,.068.116.84-.053,1,0a1.258,1.258,0,0,0,1,0h1v1a1.852,1.852,0,0,1-2,2c-.15,0-.327,0-1,0-1.985.01-6.156,0-10,0C265.85,330.075,260.708,330.968,259.449,330.968Zm-2-3h0c-.034.533.7.666,1,1,.353.416.216,1,1,1,1.259,0,6.4.1,11,0,3.849,0,8.015.01,10,0,.673,0,.85,0,1,0,1,0,.971-1.235,1-2h0c-.518.349-.593.136-1,0a3.339,3.339,0,0,1-1-1,30.235,30.235,0,0,1-1-3h-18c-.14.639-.492,3.259-1,4-.46.629-2.719.087-3,0Zm2,2c-.721,0-.656-.613-1-1-.179-.237-.961.194-1,0v-1h1c.431.1,1.589.605,2,0,.5-.7.714-2.94,1-4h18c.247.91.768,3.53,1,4,.15.3.661-.092,1,0,.29.082-.344.106,0,0h1c-.169.857-.516,2-1,2-1.37,0-6.193-.034-11,0-3.723,0-7.2-.01-9,0C260.868,329.983,259.575,329.968,259.449,329.968Zm-1-1c.228.252.443,0,1,0,.126,0,1.419,0,2,0,1.8-.01,5.277,0,9,0,4.807-.034,9.63,0,11,0,.136,0-.116.315,0,0a3.149,3.149,0,0,1-1,0,1.753,1.753,0,0,1-1-1c-.247-.494-.729-3.056-1-4h-16a20.06,20.06,0,0,1-2,4A2.386,2.386,0,0,1,258.449,328.968Z" transform="translate(-244.849 -312.968)" fill="#3258e5"/><path d="M329.913,463.717h-2v-3h2Zm-1-1h0v-2h0Zm-20,1h-1v-3h1Zm0-1h0v-2h0Z" transform="translate(-293.313 -443.717)" fill="#3258e5"/><path d="M202.305,516.914h-22a9.893,9.893,0,0,1-4-1l-2-1h2a29.755,29.755,0,0,0,4-3h22c.479.6,2.611,3.15,4,3h0v1h0A8.959,8.959,0,0,1,202.305,516.914Zm-26-2h0a10.754,10.754,0,0,0,4,1h22c1.54,0,3.114.392,4,0l-1-1h0c-1.554,0-2.39-1.23-3-2h-22c-2.842,2.4-3.937,2-4,2Zm26,1h-22a17.239,17.239,0,0,1-3,0l-1-1h1a11.472,11.472,0,0,0,3-2h22a4.612,4.612,0,0,0,2,2l1,1h-1A12.562,12.562,0,0,1,202.305,515.914Zm-24-1a15.269,15.269,0,0,0,2,0h22a6.114,6.114,0,0,0,1,0,8.812,8.812,0,0,1-2-2h-20A19.654,19.654,0,0,1,178.305,514.914Z" transform="translate(-165.705 -492.914)" fill="#3258e5"/><path d="M267,467.481h-1v-4h1Zm0,0h0v-4h0Zm16,0h-2v-4h2Zm-1,0h0v-4h0Zm-2,0h-1v-4h1Zm-1,0h1v-4h-1Zm-17,0h-1v-4h1Zm0,0h0v-4h0Zm23,0h-1v-4h1Zm0,0h0v-4h0Zm-7,0h-1v-4h1Zm-1,0h0v-4h0Zm-2,0h-1v-4h1Zm0,0h0v-4h0Zm-5,0h-1v-4h1Zm-1,0h1v-4h-1Zm-4,0h-1v-4h1Zm-1,0h0v-4h0Zm-4,0h-1v-4h1Zm-1,0h1v-4h-1Zm12-7h0c-.61-.392-.923-.443-1-1-.16-.905.879-1.879,1-2h1v1c-.092.121-1.048-.324-1,0,.024.184.69.792,1,1h0Zm0-3c-.145.247-.082.516,0,1,.048.344-.339.734,0,1h0c-.237-.189.044-.661,0-1a1.823,1.823,0,0,1,0-1Zm3,3-1-1h0c.649-.678.024-.981,0-1v-1h1a2.124,2.124,0,0,1,0,3Zm-1-1h1a1.771,1.771,0,0,0,0-2v1C274.184,458.82,273.47,458.852,273,459.481Z" transform="translate(-246.4 -440.481)" fill="#3258e5"/><path d="M78.447,673.27c-8.729,0-17.575-.681-22-1-.165-.015.019,0,0,0h-1v-8h46v7h-1A141.128,141.128,0,0,1,78.447,673.27Zm-22-2h0c4.42.32,13.291,1,22,1,11.086,0,21.927-.985,22-1h0v-7h-45l1,7Zm22,1c-10.685,0-21.55-.966-22-1h0v-7h44v7h0C99.3,671.4,88.691,672.27,78.447,672.27Zm-22-1c1.694.126,12.08,0,22,0,9.711,0,19.083-.782,21-1v-5h-43Z" transform="translate(-52.847 -637.27)" fill="#3258e5"/><path d="M178.607,730.031h-1v-2a2.046,2.046,0,0,1,2-2,1.935,1.935,0,0,1,2,2v2h-1v-2c0-.082-.361-1-1-1-.658,0,0,.99,0,1h0c.039,1.782.068,1.864,0,2Zm0,0h0c0-.252.019-1.25,0-2h0c0-.358.027-2,1-2,.93,0,1.985,1.521,2,2v1h0v-1c0-.445-.833-2-2-2-1.138,0-1,1.647-1,2Zm-5,0h-1v-3c0-1.389-.714-1-1-1-.925,0-1,.545-1,1v3h-1v-3c0-1.215.243-3,2-3,1.385,0,2,1.34,2,3Zm0,0h0v-3a1.953,1.953,0,0,0-2-2,1.9,1.9,0,0,0-2,2v3h1v-3c0-.634-.36-2,1-2a2.072,2.072,0,0,1,2,2Zm-9,0h-1v-2c0-.1-.448-1-1-1a1.178,1.178,0,0,0-1,1v2h-1v-2a1.957,1.957,0,0,1,2-2,2.058,2.058,0,0,1,2,2v2Zm-1,0h1v-2c0-.513-1-2-2-2a2.466,2.466,0,0,0-2,2v1h1v-1c0-.586.129-2,1-2,.838,0,1,1.589,1,2Zm-7,0h-1a24.424,24.424,0,0,0,0-3c-.528,0-1,.913-1,1v2h-1v-2a2.089,2.089,0,0,1,2-2c.392-.01.729.734,1,1,.77.75,0,2.221,0,3Zm0-1h0a3.044,3.044,0,0,0-1-2c-.169-.165.271,0,0,0-1.051,0-2,.579-2,1v1h0v-1c0-.329,1.109-1,2-1C156.469,727.036,156.593,727.874,156.607,729.031Zm29,0h-1v-1a2.07,2.07,0,0,1,2-2c1.215,0,2,.235,2,1v2h-2v-2c0-.131.508,0,0,0-.252,0-1,.714-1,1Zm0,0h0v-1c0-.392.264-2,1-2a.916.916,0,0,1,1,1v2h0v-2c0-.489-.085-1-1-1-.881,0-1,1.453-1,2Z" transform="translate(-146.007 -695.031)" fill="#3258e5"/></g></svg>