<svg xmlns="http://www.w3.org/2000/svg" xmlns:xlink="http://www.w3.org/1999/xlink" width="44.694" height="42.821" viewBox="0 0 44.694 42.821"><defs><style>.a{fill:url(#a);}</style><linearGradient id="a" x1="1" y1="0.7" x2="0" y2="0.711" gradientUnits="objectBoundingBox"><stop offset="0" stop-color="#d1dce7"/><stop offset="1" stop-color="#b0bdd0"/></linearGradient></defs><path class="a" d="M211.7,170.34a1.972,1.972,0,0,1-.054.626l-4.021,17.753a1.872,1.872,0,0,1-.265.578,5.5,5.5,0,0,1-1.96,2.177,5.4,5.4,0,0,1-2.953.851v-.014l-25.837-.014a1.923,1.923,0,0,1-.558,0h-6.873a2.127,2.127,0,0,1-.293.027,1.863,1.863,0,0,1-1.864-1.864l.014-22.346a1.867,1.867,0,0,1,1.864-1.864c.075,0,.15.007.225.014l6.179-.014v-.027a11.168,11.168,0,0,0,10.35-10.812c-.014-.163-.027-.327-.027-.49a5.415,5.415,0,0,1,10.69-1.225l.027-.007a19.544,19.544,0,0,1-.619,10.69l10.391.014a1.856,1.856,0,0,1,.279.02,5.525,5.525,0,0,1,5.308,5.927m-40.95,18.236h3.722l.014-18.6-3.722.007Zm37-19.6a1.791,1.791,0,0,0-1.626-.844v-.007l-13.133-.014a1.867,1.867,0,0,1-1.864-1.864,1.792,1.792,0,0,1,.2-.823l-.02-.014a15.784,15.784,0,0,0,1.592-4.484h.02a13.753,13.753,0,0,0,.245-2.933,16.828,16.828,0,0,0-.279-2.919h-.014c0-.027.007-.054.007-.082a1.742,1.742,0,0,0-3.484,0,.739.739,0,0,0,.007.122h-.027a16.341,16.341,0,0,1-.259,2.96,13.534,13.534,0,0,1-.456,1.708.007.007,0,0,1-.007-.007,14.828,14.828,0,0,1-10.431,9.751l-.02,19.06,24.258.007a1.352,1.352,0,0,1,.238.02,1.688,1.688,0,0,0,.7-.259,1.732,1.732,0,0,0,.674-.8h.007l3.872-17.093-.014-.007a1.8,1.8,0,0,0-.184-1.483" transform="translate(-167.026 -149.504)"/></svg>