<svg xmlns="http://www.w3.org/2000/svg" width="37.228" height="61.022" viewBox="0 0 37.228 61.022"><defs><style>.a{fill:#b6cdf0;}</style></defs><path class="a" d="M273.613,43.218h-.721v-2.64h.238a.225.225,0,0,0,.238-.238V38.9a.225.225,0,0,0-.238-.238H267.85a.225.225,0,0,0-.238.238v1.442a.225.225,0,0,0,.238.238h.238V41.3h-1.681v-.96a.225.225,0,0,0-.238-.238h-.238V34.576a.225.225,0,0,0-.238-.238h-1.031c-.143-.435-.6-1.466-1.371-1.657V31.7h-.483v.983c-.793.191-1.222,1.222-1.371,1.657h-.793a.225.225,0,0,0-.238.238V40.1h-.238a.225.225,0,0,0-.238.238v.96h-1.919v-.721h.238a.225.225,0,0,0,.238-.238V38.9a.225.225,0,0,0-.238-.238h-5.281a.225.225,0,0,0-.238.238v1.442a.225.225,0,0,0,.238.238h.238v2.64h-.721a.225.225,0,0,0-.238.238v1.919a.225.225,0,0,0,.238.238h.96V58.053l-.936-1.7a1.814,1.814,0,0,0,.215-.888,1.93,1.93,0,0,0-1.752-1.919L249.5,50.853a4.616,4.616,0,0,0,1.055-2.95,4.692,4.692,0,0,0-2.879-4.321V25.093a4.671,4.671,0,0,0-.817-8.881l-.238-6.264a1.791,1.791,0,0,0-.119-3.314l-.262-6.4A.256.256,0,0,0,246.005,0a.22.22,0,0,0-.238.215l-.387,6.342a1.8,1.8,0,0,0-.2,3.385l-.381,6.264a4.677,4.677,0,0,0-.96,8.762V43.7a4.678,4.678,0,0,0-1.729,6.985l-1.585,2.879a1.93,1.93,0,0,0-1.752,1.919,1.88,1.88,0,0,0,.215.888l-2.354,4.3a.217.217,0,0,0,0,.238.25.25,0,0,0,.215.119h1.919a.25.25,0,0,0,.215-.119l1.872-3.481a1.93,1.93,0,0,0,1.752-1.919,1.976,1.976,0,0,0-.215-.912l1.347-2.5a5.36,5.36,0,0,0,1.031.381v2.664a1.8,1.8,0,0,0,0,2.885v2.712a.225.225,0,0,0,.238.238H246.7a.225.225,0,0,0,.238-.238v-2.76a1.8,1.8,0,0,0,0-2.885V52.427a4.982,4.982,0,0,0,.84-.286l1.3,2.4a1.907,1.907,0,0,0-.215.912,1.93,1.93,0,0,0,1.752,1.919l1.872,3.481a.25.25,0,0,0,.215.119h19.687a.225.225,0,0,0,.238-.238V45.62h.96a.225.225,0,0,0,.238-.238V43.463a.194.194,0,0,0-.209-.244Zm-5.525-4.083h4.8v.96h-4.8Zm4.321,1.442v2.64h-3.838v-2.64Zm-11.521-5.764h.721a.287.287,0,0,0,.238-.167c.119-.405.578-1.514,1.2-1.514.65,0,1.079,1.079,1.2,1.514a.237.237,0,0,0,.238.167h.96V35.3h-4.56v-.483Zm0,.96h4.56V40.1h-4.56Zm-.483,4.8h5.525V41.3h-5.525Zm-.238,1.2h7.921v1.442H258V41.776Zm-6.962-2.64h4.8v.96h-4.8Zm4.321,1.442v2.64h-3.844v-2.64ZM245.952,5.066,246,6.485h-.143Zm-1.389,3.219a1.323,1.323,0,1,1,1.323,1.323A1.336,1.336,0,0,1,244.563,8.285Zm1.824,7.826a3.564,3.564,0,0,0-.507-.024,4.824,4.824,0,0,0-.578.048l.358-6.05c.072,0,.143.024.215.024a.894.894,0,0,0,.262-.024Zm-3.678,1.9h4.733v-.483h-4.226a4.153,4.153,0,0,1,2.664-.96,4.208,4.208,0,0,1,4.059,3.123h-8.118A4.474,4.474,0,0,1,242.709,18.006Zm-.817,4.083h6.985v-.483h-7.1a3.781,3.781,0,0,1-.048-1.442h8.309a4.654,4.654,0,0,1,.048.6,4.163,4.163,0,0,1-1.276,3h-4.25v.483h3.672a4.194,4.194,0,0,1-6.336-2.164ZM247.2,25.26V43.409a4.736,4.736,0,0,0-2.885.072V25.164a4.768,4.768,0,0,0,1.562.262,4.036,4.036,0,0,0,1.323-.167ZM245.88,43.7a4.182,4.182,0,0,1,3.791,2.4h-7.581A4.182,4.182,0,0,1,245.88,43.7Zm-4.2,4.2a4.052,4.052,0,0,1,.215-1.323h7.969a4.025,4.025,0,0,1,.215,1.323,3.932,3.932,0,0,1-.143,1.079h-8.112A3.964,3.964,0,0,1,241.678,47.9Zm-3.022,12.6h-1.371l2.038-3.719a1.86,1.86,0,0,0,1.031.578Zm2.062-3.6a1.442,1.442,0,1,1,1.442-1.442A1.447,1.447,0,0,1,240.719,56.9Zm1.395-2.76a1.827,1.827,0,0,0-1.031-.554l1.371-2.5a5.409,5.409,0,0,0,.888.769Zm4.369,6.36h-1.2V58.244a1.658,1.658,0,0,0,.6.1,2.491,2.491,0,0,0,.6-.1V60.5Zm.721-3.958a1.323,1.323,0,1,1-1.323-1.323A1.336,1.336,0,0,1,247.2,56.545Zm-1.925-1.7V52.534a5.118,5.118,0,0,0,.6.048,5.222,5.222,0,0,0,.6-.048v2.307a1.657,1.657,0,0,0-.6-.1A2.491,2.491,0,0,0,245.278,54.841Zm.6-2.742a4.2,4.2,0,0,1-3.892-2.64H249.8a4.6,4.6,0,0,1-.817,1.3l-.048.024v.024A4.237,4.237,0,0,1,245.88,52.1Zm2.354-.167a5.3,5.3,0,0,0,.936-.7l1.276,2.354a1.869,1.869,0,0,0-1.031.554l-1.18-2.211Zm1.127,3.528A1.442,1.442,0,1,1,250.8,56.9,1.447,1.447,0,0,1,249.361,55.461Zm4.321,5.042h-.817l-1.7-3.147a1.825,1.825,0,0,0,1.031-.578l1.246,2.283.793,1.442Zm2.4,0h-1.3l-.864-1.585v-2.5h2.164Zm3.362,0h-2.879V56.42h2.879Zm3.362,0h-2.879V56.42h2.879Zm3.362,0H263.29V56.42h2.879Zm3.362,0h-2.879V56.42h2.879Zm2.64,0h-2.164V56.42h2.164Zm0-4.56H253.927V45.62h18.25V55.943Zm1.2-10.806H252.723V43.7h20.646v1.442Zm0,0" transform="translate(-236.6)"/></svg>